<svg width="23" height="25" viewBox="0 0 23 25" fill="none" xmlns="http://www.w3.org/2000/svg">
<path d="M10.8775 1.30933C10.7129 1.3383 3.07443 2.43818 1.00528 8.56003C-1.06386 14.6819 4.41686 20.1998 7.13853 20.9456C9.8602 21.6913 15.0055 21.5048 15.0055 21.5048C15.0055 21.5048 20.8867 20.871 21.7677 13.8989C22.6488 6.92684 20.7684 -0.430556 10.8775 1.30933Z" fill="white"/>
<path d="M22.0317 12.2882C22.0219 11.7155 21.978 11.1433 21.9037 10.5752C21.8072 9.83731 21.6875 9.10443 21.5015 8.38313C21.1622 7.06686 20.6285 5.7577 19.822 4.65613C19.716 4.51131 19.606 4.36892 19.4924 4.22933C19.4544 4.12245 19.3971 4.02341 19.309 3.94269C19.2543 3.89242 19.1967 3.84981 19.1358 3.81506C18.4954 3.11264 17.7485 2.50813 16.8908 2.08769C16.2454 1.77133 15.5688 1.54466 14.8574 1.43964C14.0754 1.32416 13.2971 1.29277 12.5076 1.31743C11.7308 1.34173 10.9501 1.40918 10.1877 1.56409C9.48206 1.70742 8.79814 1.95707 8.16037 2.29118C7.56222 2.60455 7.0106 3.01117 6.5027 3.45422C6.16242 3.75096 5.84457 4.07424 5.54988 4.41695C5.48467 4.45282 5.41945 4.48926 5.3548 4.52626C4.64229 4.93512 3.96304 5.41443 3.3817 5.99632C2.79233 6.58644 2.28051 7.28194 1.94042 8.04566C1.54446 8.93494 1.32751 9.86982 1.29069 10.8441C1.22212 12.6614 1.79429 14.4839 2.79327 15.9934C3.78514 17.4924 5.10926 18.7197 6.60548 19.7054C7.42207 20.2434 8.28576 20.6902 9.18738 21.0673C10.0303 21.4197 10.909 21.6877 11.8124 21.831C12.0606 21.8704 12.3101 21.9042 12.5601 21.9308C12.908 21.9872 13.2748 21.985 13.6245 21.9764C13.9165 21.9693 14.208 21.9467 14.498 21.91C14.7896 22.2944 15.0934 22.6679 15.4275 23.0163C15.5957 23.1915 15.77 23.361 15.9502 23.5243C16.0358 23.6019 16.1226 23.6779 16.2107 23.7527C16.2338 23.7723 16.2568 23.7921 16.2805 23.8114C16.3519 23.8665 16.4231 23.9216 16.4945 23.9766C16.6158 24.0537 16.7468 24.0956 16.8875 24.1019C17.1549 24.1378 17.3214 24.0836 17.5396 23.9926C17.4854 24.0154 17.4313 24.0384 17.3769 24.0612C17.4602 24.0294 17.5381 23.9975 17.6123 23.9618C17.6177 23.9594 17.6232 23.9571 17.6288 23.9549C17.6235 23.9571 17.6181 23.9594 17.6129 23.9616C17.7665 23.888 17.9038 23.7992 18.0374 23.6669C18.1585 23.5471 18.2721 23.3982 18.3443 23.2414C18.5068 22.8884 18.5889 22.5353 18.5904 22.1434C18.5917 21.8022 18.5225 21.4623 18.4596 21.1282C18.4229 20.9342 18.3843 20.7406 18.3435 20.5474C18.3497 20.5433 18.356 20.5392 18.3622 20.5351C19.0056 20.2012 19.5406 19.7019 19.9526 19.1089C20.7195 18.1767 21.2623 17.0899 21.5907 15.927C21.9225 14.7522 22.052 13.5071 22.0317 12.2882ZM4.22521 15.0299C4.22894 15.0458 4.23268 15.0616 4.2366 15.0775C4.17718 14.9882 4.11925 14.8978 4.06282 14.8066C4.11552 14.8819 4.16971 14.9564 4.22521 15.0299ZM4.21194 15.065C4.22259 15.0788 4.23324 15.0927 4.24389 15.1063C4.24408 15.1067 4.24408 15.1071 4.24426 15.1074C4.23343 15.0934 4.22278 15.079 4.21194 15.065ZM10.5008 7.04892C10.4876 7.09714 10.4745 7.14553 10.4614 7.19374C10.4453 7.17113 10.4265 7.15039 10.4054 7.13227C10.4524 7.04706 10.5001 6.96185 10.5492 6.87701C10.533 6.93438 10.5167 6.99156 10.5008 7.04892ZM11.7248 14.752C11.6957 14.8002 11.6659 14.8481 11.6357 14.8957C11.6252 14.7754 11.6164 14.655 11.6089 14.5345C11.6538 14.5939 11.6992 14.6528 11.7448 14.7115C11.7383 14.7249 11.7315 14.7384 11.7248 14.752ZM15.8244 6.23158C15.8352 6.23027 15.8461 6.2284 15.8567 6.22598C15.8461 6.30091 15.8352 6.37584 15.8246 6.45077C15.8248 6.37752 15.8246 6.30446 15.8244 6.23158Z" fill="#4451FF"/>
<path d="M22.8681 9.89337C22.8352 9.01548 22.7132 8.13199 22.4992 7.2797C22.2921 6.45545 21.9877 5.64894 21.5834 4.90092C21.1893 4.17216 20.6864 3.49122 20.0926 2.91269C19.478 2.31398 18.7615 1.81206 17.987 1.44282C17.1158 1.0278 16.1875 0.757217 15.2324 0.62361C13.9896 0.449826 12.7471 0.464401 11.5049 0.635195C10.3018 0.80057 9.11899 1.12198 7.99033 1.56914C6.8484 2.02135 5.75693 2.59727 4.76169 3.31912C3.73431 4.06434 2.82503 4.9383 2.06917 5.95951C1.31368 6.98035 0.74094 8.14021 0.380293 9.358C0.0310441 10.5371 -0.0904171 11.7927 0.0693516 13.0136C0.22613 14.2103 0.628822 15.3616 1.21763 16.4144C1.79373 17.4447 2.5481 18.3805 3.43234 19.1624C4.3747 19.9956 5.43664 20.6483 6.5952 21.1344C7.83355 21.6538 9.14776 21.9416 10.4844 22.0494C11.8201 22.1572 13.1549 22.0603 14.4687 21.8015C14.4691 21.8015 14.4696 21.8013 14.47 21.8013C14.6171 21.9822 14.7828 22.1432 14.963 22.2957C15.2192 22.5125 15.4899 22.7242 15.7646 22.9167C16.2278 23.2414 16.6956 23.5598 17.1668 23.8725C17.3842 24.0167 17.6039 24.1599 17.8397 24.2727C18.1058 24.4 18.4046 24.5164 18.7059 24.4981C18.9531 24.4831 19.1878 24.3953 19.3272 24.1789C19.4634 23.9676 19.4195 23.7237 19.3806 23.492C19.3253 23.1628 19.2479 22.8393 19.1622 22.5168C19.065 22.1511 18.9598 21.7876 18.8628 21.4219C18.8279 21.2898 18.7952 21.1583 18.7604 21.0278C18.8034 21.0041 18.8436 20.9735 18.8791 20.9346C19.7861 19.9448 20.5618 18.8342 21.1646 17.634C21.5658 16.8354 21.898 15.9993 22.1595 15.1448C22.4138 14.314 22.6007 13.4627 22.718 12.6018C22.8406 11.7031 22.9021 10.7998 22.8681 9.89337ZM4.93417 4.25438C4.93772 4.25176 4.94108 4.24914 4.94463 4.24634C4.92968 4.25905 4.87736 4.29735 4.93417 4.25438ZM4.94743 4.24372C4.94687 4.24428 4.94575 4.24522 4.94463 4.24634C4.94557 4.24541 4.94669 4.24466 4.94743 4.24372ZM1.00498 12.6918C1.00498 12.692 1.00517 12.6926 1.00517 12.6931C1.00517 12.6926 1.00517 12.6922 1.00498 12.6918ZM18.6502 23.5673C18.6485 23.5671 18.6468 23.5669 18.6451 23.5668C18.6315 23.5638 18.6177 23.561 18.6038 23.5582C18.598 23.5559 18.6079 23.5567 18.6502 23.5673ZM18.5037 23.8373C18.5029 23.8284 18.5029 23.8196 18.5033 23.8108C18.5035 23.8147 18.5037 23.8187 18.504 23.8224C18.5039 23.8274 18.5037 23.8323 18.5037 23.8373ZM18.7939 19.3849C18.7924 19.3868 18.7909 19.3887 18.7896 19.3905C18.8092 19.3651 18.837 19.3298 18.7939 19.3849ZM18.7756 19.4087C18.7765 19.4074 18.7785 19.4046 18.7812 19.4012C18.7793 19.4038 18.7774 19.4062 18.7756 19.4087ZM21.7452 11.2554C21.7336 11.4669 21.7175 11.6783 21.6972 11.8891C21.6869 11.9948 21.6757 12.1004 21.6633 12.2058C21.6572 12.2585 21.6506 12.3114 21.6439 12.3641C21.6435 12.3674 21.643 12.3706 21.6426 12.374C21.6411 12.3858 21.6396 12.3975 21.6379 12.4091C21.5789 12.8307 21.503 13.25 21.4107 13.6654C21.227 14.4927 20.9789 15.3059 20.6659 16.0935C20.6466 16.1419 20.6272 16.1901 20.6076 16.2381C20.6008 16.2548 20.5939 16.2712 20.587 16.2879C20.5466 16.3764 20.5104 16.4671 20.4708 16.5558C20.3873 16.7431 20.2998 16.9286 20.2084 17.1123C19.9306 17.6701 19.6161 18.2097 19.2674 18.7261C19.1771 18.8597 19.0848 18.9916 18.9899 19.1218C18.9407 19.1895 18.891 19.2566 18.8406 19.3231C18.8219 19.3477 18.8025 19.372 18.7841 19.3971C18.7763 19.407 18.7685 19.4171 18.7606 19.427C18.5575 19.685 18.3454 19.9362 18.1236 20.1784C18.0972 20.2071 18.0741 20.2387 18.0543 20.2722C18.0273 20.3022 18.0081 20.3394 18.0008 20.3837C18.0003 20.3875 17.9995 20.3912 17.9989 20.3949C17.9803 20.453 17.9705 20.5138 17.9705 20.5741C17.9676 20.5999 17.9655 20.6255 17.9648 20.6511C17.9629 20.7266 17.9692 20.8036 17.9728 20.8789C17.981 21.0555 18.0169 21.23 18.0494 21.4036C18.1083 21.717 18.1757 22.0285 18.2415 22.3404C18.306 22.6459 18.3682 22.9518 18.4213 23.2594C18.4362 23.3461 18.4508 23.4328 18.465 23.5195C18.4609 23.518 18.4568 23.5167 18.4527 23.5152C18.445 23.5124 18.4373 23.5094 18.4297 23.5064C18.3844 23.4844 18.3379 23.4644 18.2933 23.441C18.0739 23.3259 17.8691 23.185 17.6665 23.043C17.2365 22.7412 16.7935 22.4577 16.3609 22.1595C16.097 21.9775 15.8259 21.8059 15.5566 21.6318C15.5267 21.6124 15.4967 21.5935 15.4664 21.5748C15.7523 21.5015 16.0365 21.4212 16.3181 21.3334C16.4693 21.2863 16.5661 21.1289 16.5231 20.9723C16.4805 20.8174 16.316 20.7272 16.1621 20.7674C15.8513 20.8485 15.5385 20.9211 15.2236 20.9843C15.0657 21.0161 14.9073 21.0456 14.7483 21.0712C14.6687 21.0841 14.5889 21.0962 14.5091 21.108C14.4691 21.1138 14.4291 21.1194 14.3891 21.125C14.3843 21.1258 14.3805 21.1261 14.3779 21.1267C14.3551 21.1297 14.3323 21.1327 14.3093 21.1357C13.6719 21.2171 13.0314 21.2566 12.3889 21.2612C11.7403 21.2659 11.0951 21.2455 10.45 21.1715C10.3762 21.1631 10.3024 21.1536 10.2286 21.1444C10.1764 21.1379 10.259 21.1491 10.2611 21.1489C10.2448 21.1515 10.2116 21.142 10.1935 21.1394C10.1484 21.133 10.1034 21.1263 10.0584 21.1194C9.90082 21.0953 9.74386 21.0686 9.58727 21.0389C9.27464 20.9796 8.96333 20.9099 8.65631 20.8266C8.34892 20.7432 8.0434 20.6552 7.74198 20.5521C7.59137 20.5005 7.44169 20.4459 7.29314 20.3882C7.21877 20.3594 7.14477 20.3297 7.07114 20.2994C7.05937 20.2946 7.0476 20.2897 7.03583 20.2849C7.002 20.2703 6.96818 20.2557 6.93436 20.241C6.38535 19.9997 5.85522 19.7157 5.35386 19.3862C5.23633 19.3091 5.12028 19.2293 5.00592 19.1474C4.94874 19.1065 4.89175 19.0648 4.8355 19.0228C4.8114 19.0047 4.78729 18.9865 4.76319 18.9682C4.75851 18.9647 4.74992 18.9581 4.74226 18.9522C4.52138 18.7791 4.30724 18.5975 4.10075 18.4078C3.68274 18.0238 3.29462 17.6058 2.93883 17.1637C2.91678 17.1364 2.89492 17.1089 2.87324 17.0813C2.86951 17.0766 2.86091 17.0656 2.85232 17.0544C2.83886 17.0368 2.82074 17.0131 2.81532 17.0058C2.79121 16.9738 2.76711 16.9417 2.74337 16.9094C2.66022 16.7965 2.57931 16.6818 2.50082 16.5655C2.34423 16.3338 2.19736 16.0956 2.06057 15.8515C1.92192 15.6041 1.79411 15.3507 1.67769 15.0919C1.65452 15.0405 1.63266 14.9886 1.60986 14.9372C1.60612 14.9284 1.60257 14.9194 1.59902 14.9107C1.58407 14.8739 1.56931 14.837 1.55473 14.8C1.50391 14.6709 1.45588 14.5405 1.41103 14.4091C1.23146 13.8844 1.10215 13.3427 1.01993 12.7942C1.01638 12.7705 1.0132 12.7468 1.00984 12.723C1.00834 12.7113 1.00685 12.6995 1.00554 12.6877C0.996571 12.6135 0.988722 12.5394 0.981621 12.465C0.968728 12.326 0.959198 12.1866 0.953405 12.047C0.941072 11.7499 0.945183 11.452 0.96499 11.1553C0.975081 11.005 0.988909 10.8552 1.00685 10.7057C1.00778 10.6982 1.01096 10.673 1.01376 10.6511C1.01638 10.6326 1.02142 10.5965 1.02273 10.587C1.0345 10.507 1.0474 10.4274 1.06141 10.3478C1.11373 10.0509 1.18101 9.75677 1.26229 9.46638C1.34376 9.17544 1.43906 8.88935 1.55174 8.60887C1.56576 8.57374 1.58052 8.53898 1.59453 8.50385C1.59472 8.50329 1.59491 8.50273 1.59528 8.50217C1.59958 8.49208 1.60388 8.48199 1.60818 8.47208C1.64032 8.39771 1.67339 8.32352 1.7074 8.2499C1.77093 8.11218 1.83746 7.97596 1.90697 7.84142C2.18577 7.30119 2.51222 6.78563 2.87885 6.30072C2.9024 6.2697 2.94519 6.20094 2.90109 6.2712C2.92089 6.23962 2.94855 6.21047 2.97154 6.1815C3.01881 6.12189 3.06684 6.06285 3.11523 6.00436C3.21577 5.88308 3.31873 5.76405 3.42431 5.64726C3.62743 5.42265 3.8397 5.20645 4.06058 4.99922C4.26893 4.80376 4.48439 4.61577 4.70601 4.43526C4.75777 4.39303 4.8099 4.35136 4.86222 4.31006C4.88857 4.28932 4.91997 4.26951 4.94444 4.24615C4.95734 4.23625 4.97023 4.22653 4.98313 4.21663C5.09861 4.12936 5.2154 4.04397 5.3335 3.96063C5.81542 3.62035 6.31976 3.31221 6.84074 3.03584C7.10141 2.89756 7.3662 2.76731 7.63472 2.6451C7.69714 2.6167 7.75992 2.58867 7.82271 2.56101C7.85653 2.54607 7.89054 2.53149 7.92455 2.51691C7.938 2.51112 7.95146 2.50552 7.96473 2.49972C7.96585 2.49935 7.96678 2.49898 7.9679 2.49842C8.10506 2.44236 8.24222 2.38648 8.38068 2.33341C8.93997 2.11946 9.51159 1.94193 10.0937 1.80123C10.3813 1.73171 10.6711 1.67079 10.9622 1.61903C11.1074 1.59325 11.2532 1.56951 11.3991 1.54803C11.4346 1.54279 11.4703 1.53793 11.506 1.53289C11.5088 1.53252 11.5116 1.53214 11.5144 1.53177C11.5923 1.52168 11.6704 1.51215 11.7487 1.50336C12.3282 1.43834 12.912 1.40956 13.4952 1.42114C13.7887 1.42694 14.0821 1.44301 14.3743 1.46973C14.5171 1.48281 14.6597 1.49851 14.8019 1.51663C14.8041 1.51701 14.806 1.51719 14.8081 1.51738C14.8094 1.51757 14.8107 1.51775 14.8122 1.51794C14.8424 1.52224 14.8727 1.52654 14.9028 1.53102C14.9719 1.5413 15.0409 1.55214 15.1098 1.56391C15.5746 1.6422 16.0343 1.75189 16.4825 1.89783C16.6888 1.96492 16.8927 2.03985 17.0932 2.12244C17.0777 2.11609 17.0657 2.11086 17.0695 2.11217C17.0876 2.11796 17.1057 2.12656 17.1235 2.13496C17.1263 2.13609 17.1291 2.13739 17.1319 2.13852C17.1295 2.13758 17.127 2.13646 17.1242 2.13534C17.1306 2.13833 17.1369 2.14132 17.1433 2.14412C17.1956 2.16711 17.2478 2.19046 17.2995 2.21457C17.3952 2.25886 17.4899 2.3052 17.5837 2.35341C17.9474 2.54027 18.2961 2.75573 18.6248 2.99884C18.6369 3.00781 18.649 3.01696 18.661 3.02593C18.6894 3.05975 18.7402 3.08722 18.7746 3.11488C18.854 3.17916 18.9321 3.24512 19.0089 3.31277C19.1558 3.44226 19.2976 3.57755 19.4337 3.71826C19.5688 3.85804 19.6985 4.00304 19.8227 4.15253C19.8538 4.18991 19.8844 4.22747 19.9147 4.26521C19.9253 4.27848 19.9358 4.29175 19.9463 4.30502C20.0004 4.37752 20.0548 4.45002 20.1071 4.52402C20.3333 4.84393 20.5354 5.18047 20.7139 5.52916C20.803 5.70313 20.8862 5.88028 20.9635 6.05967C20.9647 6.06228 20.9658 6.0649 20.9667 6.06752C20.9686 6.072 20.9703 6.0763 20.9721 6.08078C20.9731 6.08321 20.974 6.08546 20.9751 6.08788C20.9938 6.13348 21.0121 6.17907 21.0301 6.22486C21.0661 6.31679 21.1007 6.40929 21.1338 6.50235C21.2693 6.88224 21.3812 7.27036 21.4718 7.66333C21.5174 7.86104 21.5576 8.05986 21.5925 8.25962C21.6101 8.36015 21.6265 8.46106 21.6415 8.56215C21.6452 8.58756 21.649 8.61279 21.6525 8.6382C21.6534 8.64418 21.6548 8.65409 21.6562 8.66455C21.6596 8.69053 21.6628 8.7165 21.666 8.74266C21.768 9.57495 21.791 10.4185 21.7452 11.2554Z" fill="#182358"/>
<path d="M17.1242 2.13557C17.1171 2.13258 17.11 2.12959 17.1029 2.12678C17.0999 2.12548 17.0969 2.12435 17.0938 2.12305C17.1038 2.12716 17.1152 2.13202 17.1248 2.13594C17.1248 2.13575 17.1244 2.13575 17.1242 2.13557Z" fill="#182358"/>
<path d="M11.188 15.292C11.1779 15.2931 11.1678 15.2939 11.1577 15.2946C11.1572 15.2948 11.1568 15.2948 11.1562 15.295C11.1903 15.2935 11.1946 15.2924 11.188 15.292Z" fill="#182358"/>
<path d="M18.0761 18.1901C18.3259 17.9675 18.5758 17.7451 18.8254 17.5226C19.0005 17.3665 18.7413 17.1072 18.5677 17.2649C18.3203 17.4899 18.0731 17.7149 17.8257 17.9397C17.6568 18.0936 17.9068 18.3409 18.0761 18.1901Z" fill="#0612BF"/>
<path d="M18.1186 16.8182C18.2611 16.6649 18.3979 16.5147 18.5218 16.346C18.6257 16.2047 18.4011 16.0401 18.2824 16.1613C18.1453 16.3015 18.0279 16.4527 17.908 16.6078C17.8588 16.6713 17.8461 16.7565 17.908 16.8184C17.9635 16.8737 18.0636 16.8772 18.1186 16.8182Z" fill="#0612BF"/>
<path d="M19.4165 16.273C19.54 16.0435 19.654 15.8176 19.7431 15.5725C19.8029 15.4078 19.543 15.3008 19.4613 15.4536C19.3387 15.6833 19.2483 15.9202 19.1603 16.165C19.1064 16.3149 19.3419 16.4117 19.4165 16.273Z" fill="#0612BF"/>
<path d="M3.46156 9.37478C3.57835 8.81979 3.82295 8.31974 4.1096 7.83408C4.17631 7.72103 4.01112 7.58312 3.92255 7.68964C3.54079 8.14895 3.31954 8.72169 3.21153 9.30582C3.18145 9.46821 3.4268 9.53922 3.46156 9.37478Z" fill="#0612BF"/>
<path d="M4.46567 8.64493C4.56508 8.47096 4.66449 8.29699 4.7639 8.12302C4.82781 8.01128 4.65534 7.91056 4.59143 8.02231C4.49202 8.19628 4.39261 8.37025 4.29319 8.54422C4.22947 8.65596 4.40195 8.75668 4.46567 8.64493Z" fill="#0612BF"/>
<path d="M4.87452 6.9508C4.89937 6.9011 4.92422 6.85139 4.94907 6.80169C4.98215 6.73535 4.96888 6.64491 4.89825 6.60754C4.83397 6.57353 4.7396 6.58754 4.7041 6.65836C4.67924 6.70807 4.65439 6.75777 4.62954 6.80748C4.59646 6.87382 4.60973 6.96426 4.68036 7.00163C4.74465 7.03564 4.83901 7.02163 4.87452 6.9508Z" fill="#0612BF"/>
<path d="M17.6962 3.78168C18.2546 4.29276 18.7002 4.89595 19.1274 5.51728C19.2257 5.66041 19.4376 5.53765 19.3604 5.38105C19.2743 5.20652 19.1846 5.03592 19.0728 4.87633C18.9602 4.71507 18.8372 4.56091 18.7094 4.41142C18.4573 4.11654 18.1809 3.84372 17.8847 3.59333C17.7553 3.4842 17.5682 3.66452 17.6962 3.78168Z" fill="#0612BF"/>
<path d="M15.8497 7.05046C15.7862 6.63469 15.6626 6.24247 15.4576 5.87397C15.3681 5.71308 15.2693 5.55761 15.1676 5.40419C15.0462 5.22088 14.9256 5.02187 14.758 4.87724C14.4222 4.58722 13.9633 4.47866 13.5382 4.38896C13.1196 4.30058 12.6887 4.24059 12.2604 4.23835C11.8377 4.23611 11.4034 4.28899 10.9989 4.41307C10.5992 4.53565 10.2197 4.72326 9.85023 4.91685C9.17696 5.26984 8.49061 5.65123 8.07801 6.31646C7.87676 6.64105 7.75343 7.01851 7.68953 7.39355C7.65346 7.60564 7.6273 7.82016 7.60955 8.03468C7.59572 8.20061 7.57629 8.37141 7.58058 8.53809C7.58357 8.6575 7.60077 8.78213 7.63739 8.90004C7.62057 8.90715 7.60375 8.91443 7.58675 8.92228C7.40549 9.00712 7.35037 9.25583 7.42194 9.42551C7.49649 9.60209 7.70522 9.72131 7.89732 9.65871C7.90778 9.65535 7.9758 9.64227 7.99449 9.63479C8.00346 9.63423 8.01243 9.63367 8.02158 9.6333C8.09427 9.63087 8.16715 9.6361 8.23947 9.64358C8.2688 9.64657 8.32468 9.64245 8.35009 9.65647C8.32916 9.65479 8.30804 9.65292 8.28712 9.65124C8.32654 9.65647 8.36597 9.66189 8.4054 9.66712C8.42371 9.6688 8.44221 9.66936 8.46053 9.67067C8.53677 9.67553 8.61282 9.67983 8.68925 9.67684C8.88583 9.66899 9.08465 9.62881 9.25432 9.52436C9.45632 9.39991 9.57947 9.21528 9.66094 8.99721C9.72092 8.83688 9.73419 8.65731 9.74708 8.4882C9.75269 8.41569 9.7568 8.343 9.76353 8.2705C9.76409 8.26508 9.76465 8.25966 9.76521 8.25424C9.77736 8.21463 9.77941 8.16885 9.78894 8.12848C9.80408 8.06345 9.82874 8.00067 9.84407 7.93601C9.84425 7.93545 9.84425 7.93527 9.84425 7.93489C9.8465 7.93003 9.84874 7.92499 9.85098 7.92013C9.87041 7.87995 9.89116 7.84053 9.91321 7.80184C9.94628 7.74354 9.98253 7.68692 10.0212 7.63236C10.0285 7.62189 10.0362 7.61162 10.0436 7.60134C10.0685 7.57219 10.0926 7.54248 10.1182 7.51407C10.1634 7.46399 10.2111 7.41616 10.2608 7.37038C10.2873 7.3459 10.3144 7.32216 10.3422 7.29899C10.3525 7.2904 10.3632 7.28199 10.3736 7.27339C10.3749 7.27246 10.3761 7.27171 10.3776 7.27078C10.4973 7.18874 10.6182 7.11232 10.7502 7.05103C10.7502 7.05103 10.7575 7.0471 10.7664 7.04262C10.7692 7.04168 10.7724 7.04056 10.7765 7.03907C10.8103 7.02673 10.844 7.01365 10.8782 7.00225C10.9497 6.97834 11.0224 6.95834 11.0961 6.94208C11.1357 6.9333 11.1755 6.92676 11.2151 6.91891C11.2222 6.9176 11.2276 6.91648 11.2321 6.91555C11.2399 6.91499 11.2476 6.91443 11.2545 6.91368C11.3347 6.90546 11.4152 6.90135 11.4958 6.90116C11.5765 6.90097 11.6572 6.90471 11.7376 6.91219C11.7577 6.91405 11.7777 6.91648 11.7979 6.91835C11.8091 6.91947 11.8175 6.91891 11.8222 6.9176C11.853 6.92321 11.8869 6.93424 11.9104 6.93891C12.0698 6.97105 12.2262 7.01739 12.3776 7.07644C12.3804 7.07756 12.3854 7.07943 12.3908 7.08167C12.4004 7.0856 12.4112 7.09027 12.4161 7.09251C12.4486 7.10708 12.4807 7.12241 12.5127 7.1381C12.5728 7.168 12.6319 7.19996 12.6898 7.23378C12.7081 7.25583 12.7263 7.27806 12.7444 7.30049C12.7571 7.31787 12.77 7.33525 12.7825 7.35262C12.8397 7.43223 12.8942 7.51407 12.9454 7.5976C13.0419 7.75476 13.1271 7.91826 13.202 8.08663C13.2342 8.16698 13.2637 8.24826 13.2906 8.3303C13.3052 8.50539 13.3175 8.68123 13.3242 8.85669C13.3268 8.92284 13.328 8.98918 13.327 9.05551C13.1263 9.46176 12.8808 9.84408 12.6078 10.2064C12.6031 10.2124 12.5983 10.2184 12.5936 10.2243C12.5893 10.2279 12.585 10.2315 12.5805 10.235C12.5775 10.2374 12.5738 10.2406 12.5699 10.2438C12.557 10.2533 12.5441 10.2627 12.5314 10.2722C12.3955 10.3731 12.2554 10.468 12.1126 10.5585C11.8196 10.744 11.5156 10.9068 11.2072 11.0649C11.0553 11.1428 10.903 11.2201 10.7517 11.2992C10.585 11.3861 10.3977 11.4653 10.2589 11.5948C10.0562 11.7837 10.0367 12.0395 10.0459 12.2991C10.0528 12.4947 10.0597 12.6902 10.0664 12.8859C10.0803 13.2771 10.1044 13.6683 10.1257 14.0594C10.1393 14.3103 10.135 14.5673 10.2963 14.776C10.3914 14.8991 10.5229 14.9851 10.6765 15.0168C10.8088 15.0443 10.929 15.0316 11.0611 15.0202C11.2519 15.004 11.4425 14.9855 11.6327 14.9649C11.7562 14.9516 11.8822 14.9417 12.0044 14.9201C12.2258 14.8808 12.3925 14.7141 12.4605 14.5043C12.5112 14.3481 12.4697 14.1868 12.4411 14.0311C12.4222 13.9282 12.4034 13.825 12.3845 13.7221C12.349 13.5281 12.3135 13.3341 12.278 13.1402C12.2526 13.0015 12.2303 12.8608 12.2015 12.722C12.2195 12.7111 12.2376 12.7005 12.2561 12.6904C12.5859 12.5132 12.9077 12.3316 13.2171 12.1201C13.5359 11.902 13.8521 11.6802 14.1642 11.4526C14.4787 11.2231 14.8152 10.9996 15.0669 10.6986C15.3442 10.3667 15.5275 9.98348 15.6458 9.56846C15.762 9.16016 15.8286 8.73654 15.8721 8.31497C15.916 7.89079 15.9143 7.47259 15.8497 7.05046ZM7.96889 9.63648C7.97318 9.63629 7.97767 9.63591 7.98197 9.63573C7.95487 9.63834 7.91245 9.6389 7.96889 9.63648ZM7.99916 9.63274C7.99935 9.63255 7.99972 9.63236 7.99972 9.63218C7.99972 9.63236 7.99935 9.63255 7.99916 9.63274ZM9.76876 8.22173C9.77156 8.19276 9.77063 8.20379 9.76876 8.22173V8.22173ZM12.9555 7.41055C12.9591 7.41354 12.9625 7.41634 12.9662 7.41896C12.9679 7.42046 12.9696 7.42195 12.9714 7.42345C12.9187 7.39728 12.9342 7.3956 12.9555 7.41055ZM11.9577 12.9225C11.968 12.9077 11.9786 12.8931 11.988 12.8782C11.9889 12.8773 11.9896 12.8763 11.9906 12.8754C11.9732 12.9081 11.9618 12.9212 11.9577 12.9225Z" fill="white"/>
<path d="M13.0742 16.599C12.9236 16.4637 12.7576 16.3387 12.5771 16.2456C12.4009 16.1546 12.2112 16.0776 12.0177 16.0328C11.8181 15.9864 11.5974 15.9502 11.3922 15.9747C11.2319 15.9937 11.0764 16.0259 10.9415 16.1215C10.8068 16.2169 10.7223 16.3153 10.624 16.4486C10.4814 16.642 10.3691 16.863 10.3742 17.1102C10.379 17.3563 10.4871 17.5625 10.6593 17.7067C10.7638 17.8822 10.9118 18.0328 11.0826 18.1371C11.483 18.3815 11.9689 18.388 12.4164 18.303C12.9056 18.2099 13.4019 17.8244 13.4014 17.2872C13.4016 17.0108 13.2758 16.7801 13.0742 16.599Z" fill="white"/>
<path d="M15.9704 6.1238C15.7039 5.47053 15.2586 4.91778 14.6424 4.56386C13.9997 4.19462 13.2502 4.05914 12.5172 4.03354C11.0721 3.9829 9.46063 4.29086 8.42522 5.37803C7.46511 6.38597 7.14614 7.84202 7.20874 9.19716C7.21658 9.36533 7.23116 9.53276 7.24985 9.70019C7.25919 9.78391 7.29806 9.86015 7.36178 9.90462C7.39355 9.94797 7.44979 9.96255 7.50529 9.95452C7.84295 9.90649 8.18062 9.85847 8.51828 9.81063C8.68384 9.78709 8.84865 9.76111 9.01365 9.73271C9.16595 9.70655 9.33394 9.6959 9.47726 9.63516C9.76634 9.51277 9.78167 9.20257 9.75775 8.93144C9.73775 8.70271 9.7613 8.48408 9.8353 8.26657C9.9803 7.84015 10.3047 7.47838 10.6971 7.26311C11.0929 7.04598 11.5487 7.00337 11.9691 7.16146C12.3703 7.31226 12.7016 7.64357 12.8972 8.02197C13.0961 8.40672 13.1478 8.84454 13.0165 9.25265C12.6605 10.3587 11.4236 10.7993 10.4252 11.1183C10.1317 11.2121 9.86127 11.3438 9.82558 11.6849C9.80951 11.8381 9.83698 11.9994 9.84819 12.1522C9.8609 12.3243 9.87342 12.4966 9.88612 12.6687C9.93527 13.3392 9.98965 14.0093 10.0431 14.6794C10.0564 14.8453 10.0696 15.0114 10.0829 15.1774C10.0928 15.3005 10.1864 15.4307 10.3258 15.4203C10.978 15.371 11.6322 15.3433 12.283 15.2779C12.4482 15.2613 12.6125 15.2166 12.7091 15.0695C12.8031 14.9264 12.7877 14.7691 12.7666 14.6084C12.7233 14.2772 12.6771 13.9467 12.6242 13.617C12.5773 13.325 12.5282 13.0335 12.4766 12.7422C13.7008 12.1789 14.9995 11.5429 15.6761 10.3163C16.0455 9.64638 16.2231 8.86454 16.2662 8.10456C16.3043 7.43858 16.2236 6.74475 15.9704 6.1238ZM12.2688 14.8122C12.2668 14.8124 12.2673 14.8098 12.2692 14.8059C12.2694 14.8098 12.2694 14.812 12.2688 14.8122ZM15.467 9.65497C14.9746 10.9417 13.7441 11.6561 12.5396 12.1937C12.3886 12.2612 12.2367 12.3269 12.0848 12.3923C11.9797 12.4376 11.9583 12.5684 11.9736 12.6657C11.9988 12.8268 12.2322 14.4594 12.2655 14.7635C12.189 14.7719 12.1119 14.7758 12.0352 14.782C11.8495 14.7971 11.6638 14.8122 11.4778 14.8274C11.1667 14.8526 10.8563 14.8859 10.5456 14.915C10.4923 14.3139 10.4409 13.7123 10.383 13.1118C10.3497 12.7674 10.3167 12.423 10.2836 12.0788C10.2759 11.9997 10.2679 11.9209 10.2608 11.8418C10.2561 11.7891 10.2415 11.7159 10.2656 11.6658C10.2998 11.595 10.4394 11.5608 10.5224 11.5337C11.6243 11.1742 12.8487 10.6966 13.331 9.54566C13.7258 8.60368 13.2852 7.49838 12.4374 6.96843C12.0106 6.70159 11.4956 6.61413 11.0058 6.73261C10.5106 6.85239 10.0797 7.16632 9.77606 7.56994C9.46624 7.98198 9.33487 8.4738 9.37655 8.98432C9.38309 9.06467 9.40401 9.20332 9.35655 9.26162C9.32254 9.30329 9.25359 9.30703 9.20463 9.31675C9.11998 9.33375 9.03496 9.34964 8.95031 9.36608C8.61152 9.43167 8.27554 9.50885 7.93881 9.58453C7.87024 9.60003 7.80147 9.61536 7.73289 9.63087C7.7028 9.33207 7.69215 9.03122 7.70094 8.73112C7.70579 8.56612 7.71682 8.40111 7.7342 8.23686C7.74952 8.09129 7.76821 7.96572 7.79979 7.80222C7.92218 7.16987 8.12512 6.61152 8.49529 6.08755C8.65674 5.85902 8.88621 5.61535 9.12988 5.42269C9.36403 5.23751 9.69104 5.05382 9.96348 4.9417C10.6128 4.67449 11.2908 4.56947 11.9781 4.54536C12.6642 4.52126 13.3095 4.57265 13.9556 4.80268C14.5329 5.00823 15.0361 5.40774 15.3467 5.9375C15.6507 6.45605 15.7824 7.05962 15.8002 7.65927C15.8207 8.34319 15.7144 9.00861 15.467 9.65497Z" fill="#182358"/>
<path d="M13.0481 16.1846C12.754 15.982 12.4122 15.8217 12.0596 15.7561C11.6698 15.6836 11.2798 15.7191 10.9216 15.894C10.591 16.0553 10.2883 16.3434 10.2539 16.7242C10.2526 16.7381 10.2536 16.7513 10.2558 16.7642C10.102 17.0925 10.1427 17.5156 10.3543 17.8191C10.7523 18.3898 11.488 18.5863 12.1493 18.4852C12.8461 18.3787 13.4325 17.8417 13.5012 17.1251C13.5186 16.9427 13.4902 16.7547 13.416 16.5875C13.3387 16.4137 13.2023 16.2907 13.0481 16.1846ZM12.999 17.2555C12.9664 17.3715 12.9197 17.4637 12.847 17.5681C12.7146 17.7583 12.5013 17.9076 12.27 17.9852C11.8015 18.1423 11.2112 18.0882 10.8063 17.7907C10.6077 17.6445 10.4703 17.4203 10.4569 17.1718C10.4524 17.0873 10.4572 17.0019 10.4742 16.9199C10.5168 16.9171 10.557 16.8991 10.5858 16.8618C10.7342 16.6699 10.8601 16.4882 11.058 16.3683C11.2649 16.2429 11.485 16.1909 11.7244 16.1973C11.9949 16.2044 12.2618 16.289 12.5013 16.4124C12.6247 16.4759 12.7529 16.5462 12.8609 16.6336C12.9595 16.7134 13.0081 16.8055 13.0262 16.9285C13.0425 17.0385 13.0296 17.1456 12.999 17.2555Z" fill="#182358"/>
</svg>
