<svg width="40" height="38" viewBox="0 0 40 38" fill="none" xmlns="http://www.w3.org/2000/svg">
<path d="M11.9409 1.61525C16.0862 -0.163529 20.8225 -0.467222 25.1806 0.674776C29.2587 1.70341 32.988 4.06998 35.632 7.34063C38.3349 10.6547 39.846 14.8756 40 19.1371C38.8404 19.1441 37.6795 19.1805 36.5227 19.1161C36.2468 15.935 35.4276 12.5972 33.2079 10.1872C31.2655 7.99001 28.8596 6.17064 26.1273 5.07483C26.0937 4.93068 26.0629 4.78513 26.0321 4.64098C25.8122 4.56541 25.6021 4.46324 25.4075 4.33729C25.2142 4.47024 25.0056 4.578 24.7871 4.66197C24.7619 4.90129 24.7031 5.13361 24.6204 5.35893C24.8025 5.51008 24.9621 5.68502 25.07 5.89914C25.3123 5.87115 25.5573 5.86275 25.801 5.88794C25.8654 5.76619 25.9284 5.64443 25.9915 5.52127C28.0795 6.33159 29.9491 7.63173 31.5736 9.16C32.6505 10.1956 33.7051 11.3012 34.3787 12.6504C35.401 14.6559 35.9233 16.9007 36.0466 19.1399C35.611 19.1021 35.0957 19.2672 34.7134 19.0517C34.4921 16.7509 33.9669 14.4333 32.7976 12.4152C31.4336 10.0249 29.0682 8.37067 26.5726 7.32104C24.9776 6.69686 23.269 6.23502 21.5437 6.3008C21.6781 6.15105 21.8084 5.99571 21.9372 5.84036C21.5941 5.7312 21.2482 5.62764 20.9079 5.51288C20.8771 5.1462 20.8491 4.77953 20.7973 4.41566C20.506 4.599 20.2301 4.81312 19.9192 4.96427C19.5565 4.8761 19.2764 4.5976 18.9585 4.41706C18.9179 4.77394 18.8899 5.13361 18.8731 5.49328C18.53 5.62624 18.1771 5.7298 17.8269 5.84316C18.0566 6.13146 18.3213 6.38757 18.5888 6.64088C18.4641 6.97676 18.3381 7.31264 18.2415 7.65832C18.6014 7.61494 18.9613 7.56316 19.3226 7.52537C19.4977 7.85005 19.6839 8.17054 19.8982 8.47284C20.0816 8.16634 20.2525 7.85005 20.4177 7.53377C20.7903 7.56036 21.16 7.61354 21.5297 7.65692C21.4289 7.33643 21.3168 7.02155 21.209 6.70386C24.7885 6.69686 28.3344 8.18874 30.8986 10.6729C32.5007 12.2683 33.4068 14.4277 33.8913 16.6026C34.0804 17.4353 34.2092 18.282 34.2106 19.1385C33.3381 19.1427 32.4629 19.1847 31.5932 19.1119C31.4812 17.5388 31.1255 15.9658 30.3566 14.5761C29.5304 13.0058 28.2826 11.6777 26.8191 10.6841C26.9564 10.5469 27.095 10.4112 27.2337 10.2754C26.9732 10.1424 26.7113 10.0109 26.4508 9.88214C26.4536 9.59524 26.4536 9.30834 26.4522 9.02284C26.1861 9.1348 25.9228 9.25656 25.6638 9.38392C25.4201 9.18938 25.1848 8.98505 24.9439 8.78772C24.8893 9.08722 24.8263 9.38392 24.7689 9.68201C24.4762 9.75479 24.1807 9.81776 23.8852 9.88494C24.0645 10.1201 24.2465 10.3538 24.4258 10.5889C24.3067 10.859 24.1737 11.1221 24.0393 11.3852C24.3432 11.3838 24.6457 11.3768 24.9495 11.3838C25.0588 11.6483 25.1806 11.9072 25.3011 12.1661C25.5293 11.9646 25.696 11.6763 25.9775 11.5448C26.2267 11.5727 26.4718 11.6301 26.7183 11.6791C26.7099 11.5014 26.7043 11.325 26.6973 11.1473C29.2853 12.9443 31.0512 15.942 31.1115 19.1161C29.9197 19.1679 28.7223 19.1679 27.5291 19.1147C27.4689 17.1288 26.2337 15.3682 24.619 14.2892C24.1191 13.9477 23.5141 13.4985 23.5813 12.8183C23.3965 12.8491 23.213 12.8813 23.0296 12.9149C22.8839 12.7861 22.7397 12.6574 22.594 12.53C22.517 12.6952 22.4428 12.8617 22.3685 13.0282C22.1767 13.0758 21.9848 13.1234 21.7944 13.1696C22.0002 13.5055 22.0072 13.8777 21.7916 14.2108C22.1823 14.2346 22.454 14.4725 22.5772 14.8392C22.8517 14.5733 23.2004 14.4921 23.5645 14.6027C23.5841 14.5089 23.6247 14.3214 23.6443 14.2276C24.7927 14.9148 25.8626 15.8231 26.4998 17.0168C26.8415 17.6536 26.9984 18.3702 27.053 19.0853C26.0391 19.2197 25.014 19.1315 23.9987 19.0699C20.7314 19.0657 17.46 18.9789 14.197 19.1483C11.4816 19.1399 8.76614 19.1553 6.0493 19.1427C6.14313 21.7136 6.90777 24.3195 8.43424 26.4131C8.6317 26.7854 9.11485 26.7238 9.39213 27.0037C9.42855 27.1647 9.46076 27.3256 9.48736 27.488C9.35432 27.6167 9.22268 27.7469 9.09664 27.8826C8.90058 27.8602 8.70592 27.8462 8.50986 27.8434C8.42164 27.5663 8.38802 27.278 8.36282 26.9897C8.18216 26.6412 7.90768 26.3502 7.70461 26.0157C6.39661 23.971 5.81263 21.5512 5.63617 19.1525C4.57605 19.1441 3.51732 19.1427 2.45859 19.1539C2.52441 19.8732 2.56362 20.6024 2.73588 21.3063C2.78069 21.582 3.11539 21.5372 3.31846 21.5946C3.52152 21.8955 3.50051 22.223 3.34647 22.5407C3.16161 22.5771 2.98095 22.661 2.79049 22.661C2.65465 22.5561 2.52721 22.4441 2.39557 22.3364C2.41238 21.2657 2.13089 20.2203 2.08608 19.1525C1.5175 19.1441 0.948924 19.1413 0.381749 19.1553C0.376147 23.4868 2.27513 27.6503 5.04099 30.9195C5.63897 31.5871 6.20335 32.2981 6.92177 32.8439C7.06322 32.7613 7.20466 32.6773 7.3461 32.592C7.52396 32.7669 7.72422 32.9194 7.94829 33.0314C7.93709 33.2721 7.94689 33.5128 7.9749 33.7522C7.76343 33.8823 7.59818 34.067 7.47214 34.2798C7.24807 34.1384 6.99039 34.1006 6.72991 34.1272C6.64309 33.8991 6.53945 33.6794 6.40501 33.4764C6.46803 33.3603 6.53245 33.2441 6.59547 33.128C3.55093 30.2212 1.18 26.4999 0.327132 22.3434C-0.142013 20.1293 -0.0593875 17.8327 0.278117 15.6061C0.486781 14.1912 1.02455 12.8547 1.61413 11.5616C3.68117 7.12931 7.43433 3.51858 11.9409 1.61525Z" fill="white"/>
<path d="M32.4012 22.8864C32.8046 22.6107 33.509 22.7758 33.5902 23.3146C33.6742 24.0508 33.6112 24.7967 33.6154 25.537C34.24 25.0514 35.0439 24.6917 35.8435 24.9241C36.6572 25.0808 37.2481 25.8603 37.2579 26.6748C37.2776 27.7469 37.265 28.8189 37.2664 29.8909C37.2846 30.217 37.1235 30.5417 36.849 30.7194C36.4457 30.8496 35.8645 30.7712 35.7707 30.2786C35.6306 29.1842 35.7959 28.0715 35.6881 26.9743C35.6306 26.658 35.5256 26.2564 35.1713 26.1598C34.5621 25.9667 33.8661 26.3529 33.7163 26.9743C33.523 28.0562 33.7121 29.1632 33.5888 30.2492C33.4796 30.7922 32.7598 30.9069 32.3522 30.641C32.0918 30.4241 32.0792 30.0616 32.0749 29.751C32.0764 27.7888 32.0792 25.8253 32.0735 23.8632C32.0693 23.5161 32.0918 23.1075 32.4012 22.8864Z" fill="white"/>
<path d="M11.2911 22.8752C11.7785 22.6275 12.4563 23.0193 12.3961 23.5889C12.4493 24.2943 11.448 24.5966 11.0194 24.1053C10.6637 23.7415 10.8164 23.0599 11.2911 22.8752Z" fill="white"/>
<path d="M13.1551 23.2516C13.3876 22.8346 13.9225 22.8682 14.3315 22.8696C15.9154 22.8962 17.5006 22.836 19.0817 22.899C19.7553 22.934 19.9402 23.9766 19.3156 24.2271C18.6294 24.402 17.9068 24.2635 17.2052 24.3223C17.222 26.0842 17.2066 27.8462 17.215 29.6068C17.2206 29.9959 17.1981 30.4843 16.8046 30.69C16.4769 30.802 16.026 30.8356 15.7837 30.5375C15.533 30.2968 15.5582 29.9259 15.5498 29.6082C15.5568 27.8448 15.5512 26.08 15.554 24.3167C14.9238 24.2929 14.2922 24.3433 13.6635 24.2859C13.1901 24.2439 12.8904 23.6505 13.1551 23.2516Z" fill="white"/>
<path d="M11.3205 24.9157C11.8233 24.6875 12.4269 25.1354 12.3863 25.6798C12.4031 27.0835 12.3961 28.4886 12.3891 29.8923C12.4087 30.3038 12.1342 30.7908 11.6706 30.7656C11.2281 30.8496 10.8486 30.4521 10.8402 30.0295C10.8192 28.6244 10.8416 27.2192 10.8304 25.8141C10.815 25.4573 10.9396 25.029 11.3205 24.9157Z" fill="white"/>
<path d="M19.9402 25.9751C20.6866 24.8555 22.2761 24.591 23.4707 25.071C24.4538 25.4615 25.1036 26.5587 24.9593 27.6055C24.9075 28.0701 24.4076 28.2465 24.0015 28.2563C23.0198 28.2969 22.0352 28.2605 21.0521 28.2689C21.0465 28.8525 21.3728 29.4711 21.9652 29.6362C22.65 29.8895 23.311 29.4263 23.7844 28.9742C24.0197 28.6943 24.472 28.5908 24.7619 28.8441C25.0308 29.1688 24.8333 29.6278 24.598 29.9119C23.9762 30.6438 22.9511 30.8398 22.0352 30.76C21.0605 30.7446 20.0956 30.1708 19.7119 29.2583C19.2792 28.2143 19.324 26.9379 19.9402 25.9751ZM21.5059 26.2746C21.1866 26.5251 21.1068 26.9407 21.0479 27.3186C21.8462 27.327 22.6458 27.327 23.4455 27.3172C23.3867 26.9729 23.3475 26.5853 23.0716 26.3362C22.6682 25.9121 21.9358 25.8659 21.5059 26.2746Z" fill="white"/>
<path d="M27.9731 24.9157C29.1522 24.6665 30.6731 25.0654 31.1619 26.2718C31.3705 26.7 31.0484 27.2402 30.5751 27.2654C30.0947 27.3242 29.8875 26.8008 29.6004 26.5195C29.1733 25.9471 28.2028 25.9611 27.7602 26.5069C27.3233 27.0009 27.3191 27.7091 27.3877 28.3291C27.4731 28.7909 27.7126 29.2821 28.1789 29.4613C28.5921 29.6152 29.1032 29.5984 29.4589 29.3171C29.7754 29.0596 29.9323 28.6635 30.2236 28.3822C30.5555 28.1191 31.1045 28.2843 31.2375 28.6859C31.4055 29.1184 31.1507 29.5732 30.8748 29.8979C30.288 30.5781 29.3427 30.8062 28.4758 30.7488C27.4885 30.781 26.4746 30.2422 26.0699 29.3199C25.5461 28.1597 25.6722 26.665 26.525 25.691C26.9031 25.2795 27.4311 25.029 27.9731 24.9157Z" fill="white"/>
<path d="M11.011 32.2687C10.9718 31.7998 11.4802 31.3828 11.9241 31.5857C12.3344 31.6977 12.3835 32.1791 12.3919 32.536C12.4017 33.9355 12.3891 35.3364 12.3933 36.7373C13.3007 36.7891 14.2194 36.6687 15.1213 36.7975C15.6787 36.9234 15.5961 37.8471 15.0219 37.8737C13.9085 37.9185 12.7896 37.9003 11.6734 37.8835C11.2813 37.9087 10.9886 37.5294 11.0096 37.1586C11.0012 35.5295 10.9984 33.8977 11.011 32.2687Z" fill="white"/>
<path d="M21.3952 31.6011C21.7103 31.415 22.1851 31.6249 22.2299 31.9972C22.3125 32.5906 22.2565 33.1937 22.2579 33.7899C23.0632 33.0776 24.4636 33.016 25.161 33.9089C25.6988 34.6268 25.745 35.6065 25.5391 36.4518C25.3599 37.2845 24.6064 38.0248 23.72 37.9927C23.1906 38.0402 22.7173 37.7743 22.3223 37.4524C22.1655 37.7044 21.9876 38.05 21.6305 37.9899C21.1782 38.0276 21.0269 37.5364 21.0423 37.1725C21.0311 35.6275 21.0423 34.081 21.0381 32.536C21.0633 32.2113 21.0269 31.7453 21.3952 31.6011ZM22.9553 34.3176C22.4036 34.617 22.2677 35.3336 22.3335 35.9088C22.3741 36.421 22.7327 36.9766 23.2928 36.9892C23.8096 37.0438 24.2437 36.6043 24.325 36.1201C24.4132 35.5715 24.4216 34.9109 24.0085 34.4841C23.7508 34.193 23.2942 34.1678 22.9553 34.3176Z" fill="white"/>
<path d="M16.9307 33.4415C17.6939 33.1392 18.572 33.142 19.3464 33.4023C19.7497 33.5366 20.027 33.9103 20.111 34.3176C20.3015 35.272 20.0158 36.2657 20.3253 37.2047C20.4822 37.5336 20.2791 37.9493 19.9052 37.9815C19.5131 38.0696 19.2834 37.6708 19.0439 37.4399C18.5426 37.7226 18.016 38.0346 17.4166 37.9927C16.6842 38.05 15.9069 37.5084 15.8733 36.7415C15.8019 36.1061 16.3033 35.5295 16.9013 35.3826C17.5833 35.202 18.2905 35.1223 18.9599 34.8885C18.8689 34.6366 18.8395 34.27 18.5174 34.2112C18.1014 34.1006 17.5595 34.13 17.2752 34.4981C17.1295 34.6618 17.0007 34.8396 16.8424 34.9921C16.5525 35.0957 16.1436 34.9781 16.0946 34.6366C16.0134 34.0936 16.4629 33.6346 16.9307 33.4415ZM17.1813 36.3846C16.9839 36.964 17.7373 37.3167 18.1939 37.069C18.7764 36.9164 18.9767 36.2965 18.9571 35.7562C18.3703 35.9424 17.5847 35.857 17.1813 36.3846Z" fill="white"/>
<path d="M26.7715 33.622C27.3275 33.2021 28.0725 33.2035 28.7321 33.2973C29.2685 33.3869 29.8483 33.6864 30.0205 34.2378C30.1466 34.6982 29.585 35.0159 29.2069 34.8074C28.8343 34.5555 28.5795 34.0195 28.0571 34.0824C27.7588 34.06 27.5403 34.2742 27.3961 34.5079C27.9241 35.1796 28.938 34.9879 29.6116 35.4553C30.4659 35.8388 30.442 37.2187 29.613 37.612C28.9422 38.064 28.0753 38.0696 27.3149 37.8891C26.7617 37.7212 26.1399 37.2663 26.2253 36.6169C26.2477 36.2517 26.7029 36.1019 27.0026 36.2503C27.3359 36.5582 27.5361 37.0914 28.0543 37.1264C28.431 37.2117 29.106 37.0228 28.9898 36.526C28.7111 36.1271 28.1691 36.1103 27.7448 35.9662C27.2449 35.822 26.6903 35.6429 26.3976 35.1768C26.0951 34.659 26.2982 33.9621 26.7715 33.622Z" fill="white"/>
</svg>
