<svg width="82" height="26" viewBox="0 0 82 26" fill="none" xmlns="http://www.w3.org/2000/svg">
<path d="M0 0.47886H4.22133C6.10226 0.47886 6.7771 0.535197 7.33707 0.746465C8.38522 1.23942 9.00263 2.21126 9.00263 3.36619C9.00263 4.45069 8.67239 4.99999 7.55244 5.54929C8.71546 5.92957 9.49081 7.01408 9.3903 8.21126C9.3903 10.0141 7.94012 11.2113 5.84381 11.2113H0.014358V9.46478H0.847137V2.22534H0.014358L0 0.47886ZM3.11574 2.22534V4.84506H5.28384C6.05919 4.9014 6.7771 4.3521 6.83453 3.59154C6.83453 3.5352 6.83453 3.47886 6.83453 3.47886C6.83453 2.77464 6.11662 2.22534 5.11154 2.22534H3.11574ZM3.11574 6.5352V9.47887H5.44178C6.33199 9.5352 7.10734 8.92957 7.16477 8.05633C7.16477 8.05633 7.16477 8.05633 7.16477 7.99999C7.16477 7.07041 6.38942 6.47887 5.2264 6.47887L3.11574 6.5352Z" fill="white"/>
<path d="M18.5939 8.54933C18.2063 10.3521 16.713 11.4367 14.7029 11.4367C12.3768 11.4367 10.6538 9.63384 10.6538 7.14088C10.6538 4.63383 12.3768 2.8451 14.7029 2.8451C15.9807 2.8451 17.2012 3.45073 17.9191 4.53524C18.4791 5.46482 18.8093 6.49299 18.7519 7.59158H12.7501C12.9655 9.71834 14.3583 9.83102 14.7459 9.83102C15.5213 9.88736 16.2392 9.33806 16.4689 8.63383L18.5939 8.54933ZM16.4833 6.15496C16.4833 5.22538 15.7079 4.52116 14.8177 4.52116H14.7603C13.8126 4.52116 13.0373 5.22538 12.8794 6.09862L16.4833 6.15496Z" fill="white"/>
<path d="M25.5433 5.87322H29.377V11.2113H28.1565V9.52111C27.9412 9.90139 27.654 10.2253 27.3238 10.5493C26.6059 11.1549 25.7156 11.4789 24.8254 11.4789C22.2697 11.4789 20.2739 9.02815 20.2739 5.87322C20.2739 2.71829 22.2697 0.211243 24.768 0.211243C26.1607 0.154905 27.3812 0.915469 28.0417 2.05632V0.366173H29.2047V3.80279H27.9842C27.8694 3.30984 27.654 2.87322 27.3668 2.49294C26.8069 1.78871 25.9167 1.35209 25.0408 1.29575C23.7055 1.29575 21.7097 2.4366 21.7097 5.76054C21.7097 8.38026 23.1599 10.2817 25.0408 10.2817C26.5341 10.2253 27.7545 9.14083 28.0417 7.71829C28.0991 7.45068 28.0991 7.11266 28.0991 6.84505H25.4859L25.5433 5.87322Z" fill="white"/>
<path d="M38.6955 11.2676H36.312V9.80281C35.7521 10.831 34.6465 11.4366 33.4835 11.4366C32.0907 11.5493 30.8703 10.4507 30.7697 9.09859C30.7697 9.04225 30.7697 8.98591 30.7697 8.92957C30.7697 7.3521 32.1625 6.59154 35.4936 6.2676L36.269 6.21126V5.39436C36.269 4.46478 35.551 3.87323 34.388 3.87323C33.225 3.87323 32.6076 4.25351 32.3922 5.33802H31.0856C31.2005 4.69013 31.5307 4.0845 32.0333 3.64788C32.6507 3.15492 33.4835 2.94365 34.2588 2.94365C35.9818 2.94365 37.4176 3.70422 37.4176 5.77464V10.2817H38.5806L38.6955 11.2676ZM36.312 7.01408L35.5367 7.12675C32.9809 7.4507 32.1481 7.88732 32.1481 8.92957C32.2056 9.85915 32.9809 10.507 33.8711 10.507C35.0916 10.4507 36.1541 9.57746 36.312 8.38028V7.01408Z" fill="white"/>
<path d="M42.1989 4.5634C42.5866 4.0141 43.3045 2.87325 44.8696 2.87325C45.9751 2.87325 46.5925 3.42255 46.8079 4.5634C47.0233 4.18311 47.253 3.85917 47.5833 3.53523C48.0858 3.09861 48.6888 2.831 49.3637 2.831C50.6416 2.831 51.3595 3.6479 51.3595 5.07044V10.2395H52.5225V11.2254H50.1965V5.49297C50.1965 4.35213 49.8088 3.80283 48.976 3.80283C47.5258 3.80283 46.7505 5.49298 46.7505 6.08453V10.2254H47.9709V11.2113H45.53V5.32396C45.53 4.29579 45.1424 3.85917 44.3096 3.85917C43.0317 3.85917 42.0841 5.43664 42.0841 6.1972V10.2817H43.3045V11.2676H39.7006V10.2817H40.921V3.95776H39.7006V2.97185H42.1415L42.1989 4.5634Z" fill="white"/>
<path d="M53.8004 0H56.1264V4.7324C56.4567 4.12676 57.4043 2.92958 58.8401 2.92958C60.7211 2.92958 62.1713 4.83099 62.1713 7.22536C62.1713 9.46479 60.6206 11.3662 58.8401 11.3662C57.3469 11.3662 56.6146 10.3803 56.1264 9.7324V11.2676H53.743V10.2817H54.906V0.971831H53.8004V0ZM56.1264 7.78874C56.1264 9.15493 57.1746 10.2394 58.5099 10.3521C59.9601 10.3521 60.8359 9.0986 60.8359 7.08451C60.8359 5.07042 59.8883 3.87324 58.5099 3.87324C57.2894 3.87324 56.069 5.1831 56.069 6.38028L56.1264 7.78874Z" fill="white"/>
<path d="M62.8892 0H65.2726V10.2817H66.3782V11.2676H62.8317V10.2817H64.0522V0.915494H62.8892V0Z" fill="white"/>
<path d="M74.5481 8.9859C74.4332 9.47885 74.2178 9.85914 73.8876 10.2394C73.2271 11 72.2795 11.4366 71.217 11.4366C68.934 11.4366 67.3259 9.69012 67.3259 7.18308C67.3259 4.78871 68.934 2.92955 70.9872 2.92955C73.0405 2.92955 74.706 4.50702 74.706 7.39435H68.6612C68.7761 8.59153 69.0489 9.29576 69.6088 9.84505C70.0539 10.2253 70.6139 10.4507 71.1595 10.4507C72.1072 10.4507 72.7102 10.0141 73.1553 9.02815L74.5481 8.9859ZM73.3276 6.47885C73.3276 5.71829 73.0548 5.01406 72.4948 4.40843C72.1072 4.08448 71.6046 3.85913 71.1021 3.91547C70.0539 3.97181 69.1637 4.67604 68.8766 5.66195C68.8191 5.92956 68.7043 6.21125 68.7043 6.47885H73.3276Z" fill="white"/>
<path d="M3.83365 13.4507H6.50429L9.5626 22.493H10.3954V24.2395H7.89704L7.17913 21.9014H3.28804L2.57012 24.2395H0.0143548V22.493H0.847134L3.83365 13.4507ZM5.16897 15.4648L3.71878 20.2535H6.60479L5.16897 15.4648Z" fill="white"/>
<path d="M10.2662 16.0141H13.5973V17.5916H12.7645L13.9275 22.4367L15.3203 16.0141H17.4884L18.8811 22.3381L19.9867 17.6057H19.1539V16.0282H22.485V17.6057H21.7671L19.9867 24.1972H17.7612L16.3684 18.5352L15.0331 24.1972H12.8076L10.9697 17.6057H10.2518L10.2662 16.0141Z" fill="white"/>
<path d="M30.3677 22.662H31.0856V24.2394H28.4724V23.2535C27.855 24.0141 26.9217 24.3944 25.9167 24.3944C24.2511 24.3944 22.9732 23.3099 22.9732 21.831C22.9732 19.4366 25.7444 19.169 28.415 18.9437C28.415 17.6901 27.9699 17.3099 26.9217 17.3099C25.8736 17.3099 25.4715 17.8028 25.4285 18.5634V18.6197L23.4327 18.5634C23.5475 16.9296 24.8829 15.9014 26.8787 15.9014C29.2047 15.9014 30.4251 16.9296 30.4251 18.7887L30.3677 22.662ZM28.3719 20.3662C26.4336 20.5352 25.1557 20.6901 25.1557 21.831C25.1557 22.4789 25.7156 22.9155 26.5484 22.9155C27.5535 22.9155 28.3863 22.1549 28.4293 21.169V20.3662H28.3719Z" fill="white"/>
<path d="M35.0341 17.324C35.5941 16.2958 36.1972 15.8592 37.1448 15.8592C37.4751 15.8592 37.7622 15.9155 38.0925 15.9719V17.8733C37.7622 17.8169 37.432 17.7606 37.0874 17.7606C36.0392 17.7042 35.149 18.4648 35.0916 19.4507V22.6057H36.0967V24.1831H32.2056V22.6057H33.0383V17.5916H32.2056V16.0141H35.0341V17.324Z" fill="white"/>
<path d="M46.4633 21.5071C46.0756 23.3099 44.5824 24.3944 42.5722 24.3944C40.2462 24.3944 38.5232 22.5916 38.5232 20.0986C38.5232 17.5916 40.2462 15.8029 42.5722 15.8029C43.8501 15.8029 45.0706 16.4085 45.7885 17.493C46.3485 18.4226 46.6787 19.4507 46.6213 20.5493H40.6195C40.8349 22.6761 42.2276 22.7888 42.6153 22.7888C43.3907 22.8451 44.1086 22.2958 44.3383 21.5916L46.4633 21.5071ZM44.2952 19.1127C44.2952 18.1831 43.5199 17.4789 42.6297 17.4789H42.5722C41.6246 17.4789 40.8492 18.1831 40.6913 19.0564L44.2952 19.1127Z" fill="white"/>
<path d="M79.5591 1.18307C79.8319 1.18307 80.0329 1.25349 80.1909 1.38026C80.3344 1.50702 80.4206 1.69012 80.4206 1.90138C80.4206 2.0704 80.3775 2.21124 80.3057 2.33801C80.2339 2.46477 80.1047 2.54927 79.9324 2.59152V2.60561C80.0186 2.61969 80.076 2.64786 80.1334 2.67603C80.1909 2.71829 80.2196 2.76054 80.2483 2.80279C80.277 2.85913 80.3057 2.91547 80.3201 2.97181C80.3344 3.02815 80.3488 3.09857 80.3488 3.16899C80.3488 3.23941 80.3632 3.30984 80.3632 3.38026C80.3632 3.45068 80.3775 3.5211 80.3775 3.59153C80.3919 3.66195 80.4062 3.71829 80.4206 3.78871C80.435 3.84505 80.4637 3.90139 80.5067 3.94364H80.0904C80.0616 3.91547 80.0473 3.87322 80.0329 3.83096C80.0186 3.78871 80.0186 3.73237 80.0186 3.66195C80.0186 3.60561 80.0186 3.53519 80.0042 3.46477C80.0042 3.39434 79.9898 3.32392 79.9755 3.2535C79.9611 3.18308 79.9468 3.12674 79.9324 3.05632C79.9181 2.99998 79.8893 2.94364 79.8606 2.90139C79.8319 2.85913 79.7888 2.81688 79.7314 2.78871C79.674 2.76054 79.6022 2.74646 79.516 2.74646H78.6115V3.91547H78.2381V1.16899H79.5591V1.18307ZM79.6309 2.43659C79.7027 2.42251 79.7745 2.39434 79.8319 2.36617C79.8893 2.32392 79.9324 2.28167 79.9755 2.21125C80.0042 2.15491 80.0329 2.0704 80.0329 1.97181C80.0329 1.83096 79.9898 1.71829 79.9181 1.63378C79.8463 1.54927 79.717 1.50702 79.5304 1.50702H78.6115V2.46476H79.3868C79.473 2.46476 79.5591 2.45068 79.6309 2.43659Z" fill="white"/>
<path d="M79.2863 5.33804C77.793 5.33804 76.5726 4.14086 76.5726 2.67607C76.5726 1.21128 77.793 0.0140983 79.2863 0.0140983C80.7796 0.0140983 82 1.21128 82 2.67607C82 4.14086 80.7796 5.33804 79.2863 5.33804ZM79.2863 0.436634C78.0371 0.436634 77.0033 1.43663 77.0033 2.67607C77.0033 3.91551 78.0228 4.91551 79.2863 4.91551C80.5498 4.91551 81.5693 3.91551 81.5693 2.67607C81.5693 1.43663 80.5355 0.436634 79.2863 0.436634Z" fill="white"/>
<path d="M47.6263 23.1549H48.6601V24.1549H47.6263V23.1549Z" fill="white"/>
<path d="M49.5934 21.1972C49.5934 19.4084 50.7134 18.169 52.3502 18.169C53.944 18.169 55.107 19.4507 55.107 21.1972C55.107 23.0282 53.9727 24.2817 52.3358 24.2817C50.699 24.2817 49.5934 23.0423 49.5934 21.1972ZM52.3071 23.5493C53.4414 23.5493 54.1306 22.6479 54.1306 21.169C54.1306 19.7746 53.4127 18.8873 52.3071 18.8873C51.2303 18.8873 50.5554 19.7746 50.5554 21.2113C50.5554 22.6901 51.2159 23.5493 52.3071 23.5493Z" fill="white"/>
<path d="M57.4474 19.6197C57.7345 19 57.8925 18.8169 58.1653 18.5634C58.4812 18.2958 58.8689 18.1549 59.2565 18.1549C59.4001 18.1549 59.6011 18.1831 59.9026 18.2254V19.0845C59.6011 19.0282 59.4288 19.0141 59.2709 19.0141C57.6484 19.0141 57.4474 20.662 57.4474 20.7606V23.4789H58.4668V24.169H55.7244V23.4789H56.5859V18.9718H55.6957V18.2676H57.4474V19.6197Z" fill="white"/>
<path d="M64.5978 22.7042C64.0522 23.4648 63.4491 23.7042 62.7887 23.7042C61.3528 23.7042 60.3621 22.5493 60.3621 20.8732C60.3621 19.2817 61.3385 18.1549 62.6881 18.1549C63.7937 18.1549 64.2819 18.8451 64.5978 19.2958V18.2394H66.2921V18.9437H65.4593V23.7746C65.4593 25.1972 64.5404 26 62.9035 26C61.9128 26 61.0657 25.5775 60.6636 24.8873C60.5918 24.7465 60.5201 24.6056 60.4195 24.3099H61.3959C61.7549 25.0141 62.1712 25.2817 62.9753 25.2817C63.9947 25.2817 64.5978 24.7606 64.5978 23.9155V22.7042ZM64.5978 20.4366C64.5978 19.7887 63.7937 18.8732 62.8748 18.8732C61.8984 18.8732 61.2954 19.662 61.2954 20.9437C61.2954 22.2394 61.9128 23.0282 62.9322 23.0282C63.8081 23.0282 64.5978 22.1831 64.5978 21.493V20.4366Z" fill="white"/>
</svg>
