<svg width="40" height="40" viewBox="0 0 40 40" fill="none" xmlns="http://www.w3.org/2000/svg">
<path d="M12.6535 26.8116V15.9519H10.143V13.169H16.1177V26.8116H12.6535Z" fill="white"/>
<path d="M29.1371 16.6914C29.1371 17.8785 28.4948 18.9294 27.4245 19.5134C28.9229 20.136 29.8571 21.44 29.8571 22.9579C29.8571 25.41 27.6773 26.967 24.2717 26.967C20.8658 26.967 18.6862 25.4295 18.6862 23.0164C18.6862 21.4594 19.6982 20.136 21.2745 19.5134C20.1263 18.871 19.3868 17.7813 19.3868 16.5942C19.3868 14.4143 21.2941 13.0327 24.2522 13.0327C27.2492 13.0327 29.1371 14.4534 29.1371 16.6914ZM21.9557 22.6661C21.9557 23.8145 22.7731 24.4567 24.2717 24.4567C25.7702 24.4567 26.607 23.834 26.607 22.6661C26.607 21.5375 25.7702 20.8951 24.2717 20.8951C22.773 20.8951 21.9557 21.5374 21.9557 22.6661ZM22.3061 16.886C22.3061 17.8593 23.0067 18.404 24.2717 18.404C25.5366 18.404 26.2372 17.8592 26.2372 16.886C26.2372 15.8743 25.5366 15.3098 24.2717 15.3098C23.0066 15.3098 22.3061 15.8743 22.3061 16.886Z" fill="white"/>
<path d="M35.6215 14.7091C36.1974 16.4088 36.4896 18.1867 36.4896 20C36.4896 29.0921 29.0924 36.4892 20.0001 36.4892C10.9077 36.4892 3.51042 29.0921 3.51042 20C3.51042 10.9076 10.9076 3.51075 19.9999 3.51075C21.8135 3.51075 23.5914 3.80267 25.2909 4.37883V0.709351C23.5742 0.238761 21.8012 0 20.0001 0C8.97206 0 0 8.97198 0 20C0 31.028 8.97206 40 20.0001 40C31.0281 40 40 31.028 40 20C40 18.199 39.7614 16.4259 39.2908 14.7091H35.6215Z" fill="white"/>
<path d="M34.6235 5.36526V1.53036H31.8659V5.36526H28.0539V8.12263H31.8659V11.9574H34.6235V8.12263H38.4582V5.36526H34.6235Z" fill="white"/>
</svg>
