<svg width="35" height="28" viewBox="0 0 35 28" fill="none" xmlns="http://www.w3.org/2000/svg">
<g clip-path="url(#clip0_2811_32571)">
<path d="M34.3085 27.1338V27.2032H34.3738C34.3861 27.2034 34.3982 27.2003 34.4088 27.1943C34.4131 27.1914 34.4165 27.1874 34.4188 27.1827C34.4211 27.1781 34.4222 27.1729 34.4219 27.1678C34.4222 27.1627 34.4211 27.1577 34.4188 27.1532C34.4165 27.1486 34.413 27.1448 34.4088 27.1419C34.3983 27.1357 34.3861 27.1326 34.3738 27.1331H34.3085V27.1338ZM34.3745 27.0847C34.4025 27.083 34.4302 27.0909 34.4529 27.1072C34.462 27.1146 34.4692 27.124 34.474 27.1347C34.4788 27.1454 34.481 27.157 34.4804 27.1687C34.4808 27.1787 34.4791 27.1887 34.4753 27.198C34.4715 27.2073 34.4657 27.2157 34.4583 27.2226C34.4408 27.2377 34.4188 27.2468 34.3957 27.2485L34.4832 27.3474H34.4158L34.3353 27.2492H34.3092V27.3474H34.2529V27.0848H34.3754L34.3745 27.0847ZM34.357 27.438C34.3866 27.4382 34.4158 27.4323 34.4429 27.4206C34.4691 27.4095 34.4928 27.3935 34.5129 27.3736C34.5331 27.3537 34.5492 27.3301 34.5604 27.3042C34.5833 27.2492 34.5833 27.1874 34.5604 27.1324C34.549 27.1065 34.533 27.083 34.5129 27.063C34.4928 27.0431 34.4691 27.0271 34.4429 27.016C34.4157 27.0049 34.3865 26.9993 34.357 26.9996C34.3271 26.9994 34.2973 27.0049 34.2695 27.016C34.2428 27.0269 34.2185 27.0429 34.1979 27.063C34.167 27.0945 34.146 27.1343 34.1377 27.1775C34.1294 27.2207 34.1341 27.2653 34.1512 27.3059C34.1619 27.332 34.1778 27.3556 34.1979 27.3753C34.2185 27.3954 34.2428 27.4114 34.2695 27.4223C34.2972 27.4341 34.327 27.44 34.357 27.4397V27.438ZM34.357 26.9365C34.4339 26.9364 34.5078 26.9663 34.5626 27.0198C34.5891 27.0454 34.6101 27.0761 34.6246 27.1098C34.6395 27.1445 34.6473 27.1819 34.6473 27.2196C34.6473 27.2573 34.6395 27.2946 34.6246 27.3293C34.6098 27.3629 34.5888 27.3935 34.5626 27.4194C34.5358 27.4449 34.5046 27.4655 34.4704 27.4801C34.4346 27.4952 34.396 27.5029 34.357 27.5027C34.3176 27.503 34.2785 27.4953 34.2422 27.4801C34.2077 27.4658 34.1762 27.4452 34.1493 27.4194C34.1231 27.3925 34.1024 27.361 34.0882 27.3264C34.0733 27.2917 34.0655 27.2544 34.0655 27.2166C34.0655 27.1789 34.0733 27.1416 34.0882 27.1069C34.1027 27.0731 34.1237 27.0425 34.1502 27.0168C34.1767 26.9905 34.2083 26.9699 34.2431 26.9561C34.2794 26.9409 34.3185 26.9333 34.3579 26.9335L34.357 26.9365ZM7.56104 25.9226C7.56104 25.422 7.89179 25.0108 8.43237 25.0108C8.94897 25.0108 9.29756 25.4043 9.29756 25.9226C9.29756 26.4409 8.94897 26.8345 8.43237 26.8345C7.89179 26.8345 7.56104 26.4232 7.56104 25.9226ZM9.88644 25.9226V24.498H9.26186V24.845C9.06376 24.5886 8.76329 24.4277 8.35467 24.4277C7.54967 24.4277 6.91792 25.0538 6.91792 25.9233C6.91792 26.7928 7.54932 27.4189 8.35467 27.4189C8.76312 27.4189 9.06376 27.2578 9.26186 27.0016V27.3474H9.88574V25.9226H9.88644ZM30.99 25.9226C30.99 25.422 31.3208 25.0108 31.8615 25.0108C32.3786 25.0108 32.7267 25.4043 32.7267 25.9226C32.7267 26.4409 32.3786 26.8345 31.8615 26.8345C31.3209 26.8345 30.99 26.4232 30.99 25.9226ZM33.3161 25.9226V23.3545H32.691V24.845C32.4929 24.5886 32.1924 24.4277 31.7838 24.4277C30.9788 24.4277 30.3471 25.0538 30.3471 25.9233C30.3471 26.7928 30.9785 27.4189 31.7838 27.4189C32.1924 27.4189 32.4929 27.2578 32.691 27.0016V27.3474H33.3161V25.9226ZM17.6382 24.9814C18.0407 24.9814 18.2992 25.2316 18.3652 25.6722H16.8749C16.9416 25.261 17.1934 24.9814 17.6384 24.9814H17.6382ZM17.6508 24.4262C16.8091 24.4262 16.2202 25.0335 16.2202 25.9217C16.2202 26.8273 16.8327 27.4173 17.6927 27.4173C18.1253 27.4173 18.5215 27.3103 18.8701 27.0182L18.564 26.5593C18.3232 26.7501 18.0166 26.8572 17.7284 26.8572C17.3259 26.8572 16.9594 26.6724 16.8693 26.1596H19.002C19.0081 26.0826 19.0144 26.0049 19.0144 25.9216C19.0081 25.0337 18.4544 24.426 17.6505 24.426L17.6508 24.4262ZM25.1912 25.9216C25.1912 25.421 25.522 25.0097 26.0625 25.0097C26.5791 25.0097 26.9277 25.4033 26.9277 25.9216C26.9277 26.4399 26.5791 26.8334 26.0625 26.8334C25.522 26.8334 25.191 26.4222 25.191 25.9216H25.1912ZM27.5164 25.9216V24.498H26.8922V24.845C26.6934 24.5886 26.3936 24.4277 25.985 24.4277C25.18 24.4277 24.5483 25.0538 24.5483 25.9233C24.5483 26.7928 25.1797 27.4189 25.985 27.4189C26.3936 27.4189 26.6934 27.2578 26.8922 27.0016V27.3474H27.5166V25.9226L27.5164 25.9216ZM21.6641 25.9216C21.6641 26.7855 22.2707 27.4171 23.1964 27.4171C23.629 27.4171 23.9172 27.3217 24.2289 27.0776L23.9289 26.577C23.6945 26.7441 23.4482 26.8334 23.1765 26.8334C22.6779 26.8273 22.3113 26.4699 22.3113 25.9216C22.3113 25.3732 22.6779 25.016 23.1765 25.0097C23.4475 25.0097 23.6938 25.0991 23.9289 25.2662L24.2289 24.7656C23.9167 24.5214 23.6285 24.426 23.1964 24.426C22.2707 24.426 21.6641 25.0574 21.6641 25.9216ZM29.7158 24.426C29.3555 24.426 29.1208 24.5931 28.9586 24.8433V24.498H28.3396V27.3458H28.9649V25.7494C28.9649 25.2781 29.1691 25.0163 29.5774 25.0163C29.7111 25.0144 29.8439 25.0387 29.968 25.088L30.1605 24.5042C30.0223 24.4503 29.842 24.4265 29.7155 24.4265L29.7158 24.426ZM12.9743 24.7244C12.6738 24.528 12.2598 24.4265 11.803 24.4265C11.0754 24.4265 10.6069 24.7723 10.6069 25.3382C10.6069 25.8025 10.9557 26.089 11.5979 26.1784L11.893 26.22C12.2355 26.2677 12.3972 26.3571 12.3972 26.518C12.3972 26.7382 12.1697 26.8638 11.7425 26.8638C11.3099 26.8638 10.9977 26.7267 10.7872 26.5658L10.4937 27.0488C10.8362 27.299 11.2688 27.4184 11.7372 27.4184C12.5667 27.4184 13.0475 27.0311 13.0475 26.4888C13.0475 25.9882 12.6691 25.7264 12.044 25.637L11.7497 25.5946C11.4793 25.5599 11.2626 25.506 11.2626 25.3151C11.2626 25.1069 11.4669 24.9816 11.8095 24.9816C12.1761 24.9816 12.531 25.1187 12.705 25.2257L12.9754 24.7251L12.9743 24.7244ZM21.0332 24.427C20.6729 24.427 20.4382 24.5941 20.2767 24.8443V24.498H19.6577V27.3458H20.2823V25.7494C20.2823 25.2781 20.4865 25.0163 20.8948 25.0163C21.0285 25.0144 21.1613 25.0387 21.2854 25.088L21.4779 24.5042C21.3397 24.4503 21.1594 24.4265 21.0329 24.4265L21.0332 24.427ZM15.7034 24.498H14.6821V23.634H14.0507V24.498H13.4682V25.064H14.0507V26.3632C14.0507 27.0239 14.3094 27.4175 15.0482 27.4175C15.3193 27.4175 15.6315 27.3342 15.8296 27.1973L15.6492 26.667C15.4628 26.7741 15.2586 26.828 15.0962 26.828C14.784 26.828 14.6821 26.6372 14.6821 26.3514V25.0645H15.7034V24.498ZM6.36562 27.3465V25.5593C6.36562 24.8862 5.93302 24.4333 5.23564 24.4272C4.86902 24.4211 4.49084 24.5343 4.22607 24.9339C4.02797 24.6181 3.71577 24.4272 3.27687 24.4272C2.9701 24.4272 2.67032 24.5166 2.43565 24.8501V24.498H1.81055V27.3458H2.44055V25.7668C2.44055 25.2724 2.71705 25.0097 3.14405 25.0097C3.5588 25.0097 3.76862 25.2778 3.76862 25.7605V27.3455H4.40002V25.7664C4.40002 25.2721 4.68824 25.0094 5.10282 25.0094C5.52929 25.0094 5.73282 25.2775 5.73282 25.7602V27.3451L6.36562 27.3465Z" fill="#231F20"/>
<path d="M34.6679 17.8739V17.4575H34.5585L34.432 17.7433L34.3062 17.4575H34.1965V17.8739H34.2742V17.5602L34.3925 17.8309H34.473L34.5913 17.5595V17.8739H34.6683H34.6679ZM33.974 17.8739V17.5288H34.114V17.4586H33.7563V17.5288H33.8963V17.8739H33.9733H33.974Z" fill="#F79410"/>
<path d="M22.2365 19.6598H12.7715V2.79346H22.2367L22.2365 19.6598Z" fill="#FF5F00"/>
<path d="M13.37 11.2261C13.37 7.80479 14.9856 4.75705 17.5014 2.79296C15.5971 1.30405 13.2417 0.49597 10.8166 0.499523C4.8426 0.499523 0 5.30191 0 11.2261C0 17.1503 4.8426 21.9527 10.8166 21.9527C13.2418 21.9563 15.5972 21.1482 17.5016 19.6593C14.9859 17.6955 13.37 14.6476 13.37 11.2261Z" fill="#EB001B"/>
<path d="M35.0058 11.2266C35.0058 17.1508 30.1632 21.9532 24.1893 21.9532C21.7638 21.9567 19.4082 21.1487 17.5034 19.6598C20.0199 17.6957 21.6355 14.6481 21.6355 11.2266C21.6355 7.80511 20.0199 4.75754 17.5034 2.79345C19.4081 1.30459 21.7637 0.496521 24.1891 0.500011C30.1631 0.500011 35.0057 5.3024 35.0057 11.2266" fill="#F79E1B"/>
</g>
<defs>
<clipPath id="clip0_2811_32571">
<rect width="35" height="27" fill="white" transform="translate(0 0.5)"/>
</clipPath>
</defs>
</svg>
