<svg width="59" height="10" viewBox="0 0 59 10" fill="none" xmlns="http://www.w3.org/2000/svg">
<path d="M52.0351 4.21884C51.7186 4.43941 51.2593 4.54845 50.6309 4.54845H50.3582H50.0077L50.4856 1.96739H50.7278H50.9439C51.4655 1.96739 51.8465 2.05135 52.1091 2.22175C52.3143 2.35539 52.5574 2.61993 52.5574 3.12193C52.5574 3.72677 52.2745 4.05216 52.0351 4.21884ZM14.8574 7.45814H10.0344L10.3461 5.77105H13.3713L13.7151 3.87084H10.7189L11.0086 2.20113H15.8232L14.8574 7.45814ZM54.6333 0.752995C53.9241 0.266888 52.851 0.0219727 51.4441 0.0219727H47.7595L46.3898 7.45839H41.563L41.8725 5.7713H44.7805L45.1262 3.8763L42.22 3.88152L42.5313 2.20163H45.5259L45.9243 0.0222209H39.8412L38.5411 7.07686H36.3105L37.62 0.0222209H34.4398L33.1397 7.07686H30.9648L32.2756 0.0222209H29.0986L27.7255 7.45864H22.8644L23.1707 5.77155H26.0918L26.4358 3.88748L23.5192 3.88475L23.8289 2.20163H26.8569L27.2533 0.0222209H8.30158L7.2228 5.91537L5.0737 0.0219727H1.77527L0 9.63904H3.14988L4.22419 3.58394L6.30995 9.63904H17.6L18.9723 2.20138H20.7389L19.3658 9.63904H49.0732L49.9337 4.94365L51.3284 9.63904H54.48L53.0361 5.8026L53.3657 5.73131C54.092 5.57581 54.6606 5.24073 55.055 4.73872C55.4502 4.232 55.6509 3.58146 55.6509 2.80001C55.6512 1.88989 55.3188 1.22072 54.6333 0.752995Z" fill="#8DC640"/>
<path d="M57.2316 8.50152L57.6608 8.47916C57.7517 8.47494 57.8235 8.46128 57.8737 8.43967C57.9239 8.41855 57.9619 8.38626 57.9862 8.34279C58.0105 8.29957 58.0222 8.25412 58.019 8.20543C58.0153 8.1334 57.9862 8.07602 57.9323 8.03205C57.8781 7.98859 57.7947 7.9707 57.6827 7.97592L57.205 8.00026L57.2316 8.50152ZM57.0729 9.35549L56.9956 7.84278L57.6668 7.809C57.8009 7.80204 57.9035 7.81049 57.9753 7.83433C58.0473 7.85768 58.1052 7.90289 58.1509 7.96971C58.1963 8.03628 58.2217 8.1103 58.2249 8.19376C58.2311 8.30106 58.2006 8.39297 58.135 8.47047C58.0694 8.54722 57.9648 8.59963 57.821 8.62696C57.8749 8.65031 57.9169 8.67266 57.9452 8.69576C58.0066 8.74643 58.0652 8.81102 58.1213 8.88901L58.4035 9.28743L58.1541 9.3001L57.938 8.99557C57.8749 8.90739 57.8233 8.84033 57.783 8.79412C57.743 8.74792 57.707 8.71638 57.6762 8.69849C57.6461 8.68061 57.6139 8.66894 57.5833 8.66248C57.56 8.659 57.5229 8.6585 57.4713 8.66123L57.2403 8.67291L57.2736 9.34531L57.0729 9.35549Z" fill="#8DC640"/>
<path d="M56.4147 8.62324C56.3993 8.31026 56.5056 8.0102 56.7155 7.7782C56.9254 7.54571 57.214 7.40834 57.5275 7.39245C58.1728 7.35891 58.725 7.85744 58.7583 8.50351C58.7593 8.52338 58.7605 8.5445 58.7605 8.56362C58.7605 9.18362 58.2722 9.70301 57.6465 9.7358C57.0002 9.76858 56.4485 9.26956 56.4147 8.62324ZM57.5141 7.15125C57.1378 7.17137 56.79 7.33581 56.5374 7.61625C56.2845 7.89644 56.1554 8.25909 56.1748 8.6364C56.2155 9.41437 56.8809 10.0147 57.6594 9.97575C58.4369 9.93551 59.0385 9.26956 58.9982 8.49159V8.49084C58.959 7.71263 58.2936 7.11176 57.5141 7.15125Z" fill="#8DC640"/>
</svg>
