<svg width="61" height="16" viewBox="0 0 61 16" fill="none" xmlns="http://www.w3.org/2000/svg">
<path d="M11.6489 1.59602C10.9505 0.799947 9.68797 0.458655 8.07289 0.458655H3.38535C3.22547 0.45857 3.07081 0.515551 2.94919 0.619342C2.82758 0.723135 2.747 0.866921 2.72196 1.02483L0.771012 13.4044C0.761966 13.4618 0.765477 13.5205 0.781304 13.5764C0.797131 13.6324 0.824897 13.6842 0.86269 13.7284C0.900483 13.7726 0.947403 13.808 1.00022 13.8323C1.05304 13.8566 1.11049 13.8692 1.16863 13.8691H4.06251L4.78932 9.25921L4.76679 9.40357C4.79135 9.24597 4.87139 9.10233 4.99248 8.99853C5.11357 8.89472 5.26776 8.83758 5.42726 8.83739H6.80243C9.50397 8.83739 11.6193 7.74009 12.2372 4.56583C12.2556 4.47196 12.2714 4.38058 12.2852 4.2913C12.4688 3.11806 12.284 2.31949 11.6493 1.59643" fill="#003087"/>
<path d="M47.0784 7.48732C46.9015 8.64888 46.0145 8.64888 45.1567 8.64888H44.6685L45.011 6.48014C45.0319 6.34913 45.1446 6.25275 45.2772 6.25275H45.5013C46.0854 6.25275 46.637 6.25275 46.9215 6.58528C47.0913 6.7843 47.1426 7.07969 47.0784 7.48732ZM46.705 4.45659H43.469C43.3618 4.45665 43.2581 4.4949 43.1766 4.56448C43.0951 4.63407 43.0411 4.73043 43.0242 4.83627L41.7166 13.1336C41.7106 13.1721 41.713 13.2114 41.7236 13.2489C41.7342 13.2864 41.7528 13.3211 41.7781 13.3507C41.8033 13.3803 41.8347 13.4041 41.8701 13.4204C41.9054 13.4367 41.9439 13.4452 41.9828 13.4453H43.6434C43.7982 13.4453 43.93 13.3327 43.9542 13.18L44.3255 10.8268C44.3598 10.6086 44.5483 10.4471 44.7695 10.4471H45.7933C47.9254 10.4471 49.1553 9.41616 49.4766 7.37133C49.6214 6.47764 49.4825 5.77503 49.064 5.28312C48.6038 4.74239 47.7881 4.45618 46.7054 4.45618" fill="#009CDE"/>
<path d="M23.9979 7.48652C23.821 8.64807 22.934 8.64807 22.0757 8.64807H21.5876L21.9301 6.47933C21.951 6.34832 22.0636 6.25195 22.1963 6.25195H22.4204C23.0045 6.25195 23.5561 6.25195 23.8406 6.58447C24.0108 6.78349 24.0622 7.07889 23.9979 7.48652ZM23.6245 4.45579H20.3885C20.1673 4.45579 19.9788 4.61684 19.9441 4.83546L18.6361 13.1328C18.63 13.1713 18.6324 13.2107 18.6429 13.2482C18.6535 13.2856 18.6721 13.3204 18.6974 13.35C18.7227 13.3796 18.7541 13.4034 18.7895 13.4197C18.8249 13.4361 18.8634 13.4445 18.9023 13.4445H20.4477C20.6689 13.4445 20.857 13.2835 20.8917 13.0648L21.245 10.8264C21.2793 10.6078 21.4678 10.4467 21.689 10.4467H22.7128C24.8449 10.4467 26.0749 9.41535 26.3961 7.37053C26.5409 6.47683 26.402 5.77422 25.9835 5.28231C25.5233 4.74159 24.7076 4.45537 23.6249 4.45537L23.6245 4.45579ZM31.1375 10.4655C30.9873 11.3509 30.2851 11.9454 29.3885 11.9454C28.9391 11.9454 28.579 11.8006 28.3479 11.5269C28.1184 11.2557 28.0325 10.869 28.1051 10.4388C28.2444 9.56097 28.9587 8.94764 29.8416 8.94764C30.2817 8.94764 30.6385 9.09367 30.8746 9.36988C31.112 9.64817 31.2055 10.037 31.1375 10.4655ZM33.297 7.44897H31.7475C31.683 7.44889 31.6207 7.47185 31.5717 7.51371C31.5228 7.55556 31.4904 7.61355 31.4804 7.67719L31.4128 8.11027L31.3044 7.95339C30.9689 7.46649 30.2208 7.30335 29.474 7.30335C27.7621 7.30335 26.2997 8.60093 26.0152 10.42C25.8671 11.3283 26.0774 12.1957 26.5922 12.8011C27.0649 13.3573 27.7396 13.5889 28.5436 13.5889C29.9238 13.5889 30.689 12.7027 30.689 12.7027L30.6197 13.1333C30.6136 13.1718 30.6159 13.2111 30.6265 13.2487C30.6371 13.2862 30.6557 13.321 30.6811 13.3506C30.7064 13.3802 30.7379 13.404 30.7733 13.4203C30.8088 13.4366 30.8473 13.445 30.8863 13.4449H32.2815C32.5026 13.4449 32.6912 13.2843 32.7259 13.0652L33.5636 7.76105C33.5697 7.72252 33.5673 7.68313 33.5566 7.64561C33.546 7.60809 33.5273 7.57332 33.5019 7.5437C33.4766 7.51408 33.4451 7.49031 33.4096 7.47403C33.3742 7.45774 33.3356 7.44934 33.2966 7.44938" fill="#003087"/>
<path d="M54.214 10.4655C54.0638 11.3509 53.3617 11.9454 52.465 11.9454C52.0157 11.9454 51.6556 11.8006 51.4245 11.5269C51.195 11.2557 51.109 10.869 51.1816 10.4388C51.321 9.56097 52.0349 8.94764 52.9181 8.94764C53.3583 8.94764 53.715 9.09367 53.9512 9.36988C54.1886 9.64817 54.282 10.037 54.214 10.4655ZM56.3736 7.44897H54.824C54.7596 7.44889 54.6973 7.47185 54.6483 7.51371C54.5993 7.55556 54.567 7.61355 54.557 7.67719L54.4894 8.11027L54.3809 7.95339C54.0455 7.46649 53.2974 7.30335 52.5506 7.30335C50.8391 7.30335 49.3767 8.60093 49.0918 10.42C48.9436 11.3283 49.1543 12.1957 49.6692 12.8011C50.1419 13.3573 50.8166 13.5889 51.6206 13.5889C53.0012 13.5889 53.7664 12.7027 53.7664 12.7027L53.6971 13.1333C53.6909 13.1717 53.6931 13.2111 53.7036 13.2486C53.7141 13.2861 53.7326 13.3209 53.7579 13.3506C53.7832 13.3802 53.8146 13.404 53.85 13.4203C53.8854 13.4366 53.9239 13.445 53.9629 13.4449H55.3577C55.5788 13.4449 55.7674 13.2843 55.8024 13.0652L56.6402 7.76105C56.6462 7.72252 56.6438 7.68313 56.6332 7.64561C56.6225 7.60809 56.6039 7.57332 56.5785 7.5437C56.5531 7.51408 56.5216 7.49031 56.4862 7.47403C56.4507 7.45774 56.4122 7.44934 56.3732 7.44938" fill="#009CDE"/>
<path d="M41.5475 7.44947H39.9896C39.8407 7.44947 39.7017 7.52332 39.6183 7.64682L37.4696 10.8111L36.5588 7.77032C36.531 7.67757 36.474 7.59625 36.3964 7.53838C36.3188 7.48052 36.2246 7.4492 36.1278 7.44906H34.597C34.554 7.44908 34.5117 7.45934 34.4736 7.47898C34.4354 7.49862 34.4025 7.52708 34.3775 7.562C34.3525 7.59692 34.3363 7.63729 34.33 7.67976C34.3238 7.72223 34.3278 7.76558 34.3416 7.8062L36.0564 12.8405L34.4434 15.1164C34.4149 15.1568 34.3981 15.2043 34.3947 15.2536C34.3913 15.3029 34.4015 15.3522 34.4243 15.3961C34.447 15.4401 34.4813 15.4769 34.5236 15.5026C34.5658 15.5283 34.6143 15.5419 34.6637 15.542H36.22C36.3668 15.542 36.5049 15.4698 36.5892 15.3488L41.7687 7.87296C41.7968 7.83255 41.8133 7.78521 41.8164 7.73607C41.8195 7.68694 41.8091 7.63789 41.7863 7.59425C41.7636 7.55061 41.7293 7.51404 41.6872 7.48852C41.6451 7.463 41.5968 7.44949 41.5475 7.44947Z" fill="#003087"/>
<path d="M58.2033 4.6844L56.8748 13.1336C56.8688 13.1721 56.8712 13.2115 56.8818 13.249C56.8924 13.2865 56.9111 13.3212 56.9364 13.3508C56.9617 13.3805 56.9932 13.4042 57.0286 13.4205C57.064 13.4368 57.1025 13.4453 57.1414 13.4453H58.477C58.6981 13.4453 58.8867 13.2843 58.9213 13.0656L60.231 4.76784C60.2371 4.72933 60.2348 4.68995 60.2242 4.65243C60.2136 4.61491 60.1949 4.58013 60.1696 4.5505C60.1443 4.52087 60.1128 4.49709 60.0773 4.48081C60.0419 4.46452 60.0034 4.45612 59.9644 4.45618H58.4699C58.4055 4.45601 58.3433 4.4789 58.2944 4.52069C58.2455 4.56248 58.2131 4.62041 58.2033 4.68398" fill="#009CDE"/>
<path d="M11.6489 1.59602C10.9505 0.799947 9.68797 0.458655 8.07289 0.458655H3.38535C3.22547 0.45857 3.07081 0.515551 2.94919 0.619342C2.82758 0.723135 2.747 0.866921 2.72196 1.02483L0.771012 13.4044C0.761966 13.4618 0.765477 13.5205 0.781304 13.5764C0.797131 13.6324 0.824897 13.6842 0.86269 13.7284C0.900483 13.7726 0.947403 13.808 1.00022 13.8323C1.05304 13.8566 1.11049 13.8692 1.16863 13.8691H4.06251L4.78932 9.25921L4.76679 9.40357C4.79135 9.24597 4.87139 9.10233 4.99248 8.99853C5.11357 8.89472 5.26776 8.83758 5.42726 8.83739H6.80243C9.50397 8.83739 11.6193 7.74009 12.2372 4.56583C12.2556 4.47196 12.2714 4.38058 12.2852 4.2913C12.4688 3.11806 12.284 2.31949 11.6493 1.59643" fill="#003087"/>
<path d="M5.57043 4.30666C5.59236 4.16869 5.66275 4.04304 5.76896 3.95228C5.87517 3.86151 6.01025 3.81157 6.14996 3.81142H9.82489C10.2601 3.81142 10.666 3.83979 11.0369 3.89903C11.2397 3.93166 11.4404 3.97652 11.6377 4.03338C11.8619 4.0964 12.0788 4.18282 12.2849 4.29123C12.4693 3.11757 12.284 2.31942 11.6494 1.59595C10.9506 0.800297 9.68845 0.459005 8.07337 0.459005H3.38542C3.22568 0.459117 3.07121 0.516188 2.94978 0.619962C2.82834 0.723736 2.74788 0.867413 2.72286 1.02518L0.771078 13.4034C0.761971 13.4609 0.765422 13.5196 0.781194 13.5756C0.796966 13.6315 0.824685 13.6834 0.862439 13.7276C0.900193 13.7718 0.947085 13.8073 0.999884 13.8317C1.05268 13.856 1.11013 13.8686 1.16828 13.8687H4.06258L4.78938 9.2583L5.57043 4.30666Z" fill="#003087"/>
<path d="M12.2828 4.29066C12.2684 4.38245 12.2524 4.47398 12.2348 4.56519C11.6169 7.73903 9.50153 8.83675 6.8 8.83675H5.4244C5.26493 8.83687 5.11075 8.89399 4.98971 8.99782C4.86867 9.10165 4.78874 9.24533 4.76435 9.40293L4.06007 13.8681L3.8598 15.1348C3.85184 15.1851 3.85488 15.2365 3.8687 15.2855C3.88253 15.3345 3.90682 15.3799 3.9399 15.4186C3.97297 15.4573 4.01405 15.4884 4.06029 15.5097C4.10654 15.531 4.15685 15.542 4.20777 15.542H6.64729C6.93601 15.542 7.18134 15.3317 7.22682 15.0467L7.2506 14.9224L7.71038 12.0085L7.73959 11.8475C7.76145 11.7094 7.83187 11.5836 7.93819 11.4928C8.0445 11.402 8.17973 11.3522 8.31953 11.3522H8.68461C11.0478 11.3522 12.8982 10.3926 13.4389 7.61553C13.6642 6.45564 13.5474 5.48643 12.9507 4.80593C12.7613 4.59495 12.5349 4.42033 12.2828 4.29066Z" fill="#009CDE"/>
<path d="M11.6389 4.03362C11.5446 4.00567 11.4474 3.98063 11.3472 3.95852C11.2471 3.93641 11.1436 3.9168 11.0377 3.90011C10.6663 3.83961 10.2608 3.81124 9.82519 3.81124H6.15068C6.01082 3.81107 5.87551 3.86095 5.76922 3.95186C5.66293 4.04276 5.59267 4.1687 5.57116 4.3069L4.79011 9.25938L4.76758 9.40332C4.79197 9.24572 4.8719 9.10204 4.99294 8.99821C5.11398 8.89439 5.26816 8.83726 5.42763 8.83714H6.80322C9.50476 8.83714 11.6201 7.73984 12.238 4.56558C12.2564 4.47171 12.2718 4.38075 12.286 4.29105C12.1228 4.20566 11.9528 4.13393 11.7778 4.07659C11.7323 4.06158 11.686 4.04739 11.6389 4.0332" fill="#012169"/>
</svg>
