<svg width="48" height="16" viewBox="0 0 48 16" fill="none" xmlns="http://www.w3.org/2000/svg">
<g clip-path="url(#clip0_2811_32546)">
<path fill-rule="evenodd" clip-rule="evenodd" d="M33.9522 4.29869C35.0238 4.29869 35.8923 3.47263 35.8923 2.454C35.8923 1.43476 35.0238 0.60791 33.9522 0.60791C32.8819 0.60791 32.0138 1.43476 32.0138 2.454C32.0138 3.47263 32.8819 4.29869 33.9522 4.29869ZM19.0935 5.29492C19.006 5.50416 18.3759 7.19773 16.852 8.95298V1.44785L12.7917 2.21143V15.8153H16.852V11.6102C18.028 13.2885 18.6087 15.8153 18.6087 15.8153H23.4721C22.991 13.9123 20.8867 10.4034 20.8867 10.4034C22.7753 8.12494 23.6049 5.69714 23.7368 5.29492H19.0935ZM29.7679 5.15291C26.1311 5.26398 24.285 6.81653 24.285 9.90279V15.8153H28.2526V10.9938C28.2526 9.14576 28.5069 8.35361 30.8115 8.27805V5.20706C30.4236 5.12872 29.7679 5.15291 29.7679 5.15291ZM5.98209 6.79293C5.48477 6.76179 4.33337 6.69099 4.33337 5.70468C4.33337 4.51448 5.99106 4.51448 6.61282 4.51448C7.70606 4.51448 9.12196 4.82189 10.1331 5.10968C10.1331 5.10968 10.6971 5.29889 11.1771 5.49266L11.2217 5.50416V2.24456L11.1605 2.2273C9.96717 1.83004 8.57961 1.44785 6.00711 1.44785C1.5716 1.44785 0 3.90659 0 6.01289C0 7.22708 0.546934 10.0847 5.62671 10.4143C6.05734 10.4395 7.20019 10.5022 7.20019 11.5214C7.20019 12.3629 6.26452 12.8591 4.69084 12.8591C2.96624 12.8591 1.29334 12.4407 0.277219 12.0438V15.401C1.79838 15.7804 3.51318 15.97 5.52291 15.97C9.85982 15.97 11.8022 13.6438 11.8022 11.3381C11.8022 8.7239 9.62867 7.02538 5.98209 6.79293ZM31.9854 15.8153H35.9209V5.30682H31.9854V15.8153ZM43.3312 2.11782V15.8153H47.2673V1.44785L43.3312 2.11782ZM37.588 2.11782L41.5203 1.44785V15.8153H37.588V2.11782Z" fill="url(#paint0_linear_2811_32546)"/>
</g>
<defs>
<linearGradient id="paint0_linear_2811_32546" x1="12.7829" y1="0.60791" x2="16.0081" y2="19.6116" gradientUnits="userSpaceOnUse">
<stop stop-color="#6B195F"/>
<stop offset="1" stop-color="#4C255B"/>
</linearGradient>
<clipPath id="clip0_2811_32546">
<rect width="47.3148" height="15.47" fill="white" transform="translate(0 0.5)"/>
</clipPath>
</defs>
</svg>
