<svg width="59" height="20" viewBox="0 0 59 20" fill="none" xmlns="http://www.w3.org/2000/svg">
<path fill-rule="evenodd" clip-rule="evenodd" d="M36.3882 11.5298C36.3882 12.2155 36.3882 12.9011 36.3882 13.5867C36.3882 13.8632 36.3329 14.1396 36.2112 14.394C35.979 14.9358 35.5588 15.2233 34.9616 15.2565C34.9174 15.2565 34.8732 15.2565 34.84 15.2565C33.8669 15.2565 32.9048 15.2565 31.9316 15.2565C31.7437 15.2565 31.5557 15.2344 31.3787 15.2012C30.7705 15.0685 30.3945 14.6704 30.2508 14.0622C30.2065 13.8631 30.1734 13.653 30.1734 13.4429C30.1623 12.138 30.1734 10.8442 30.1734 9.53933C30.1734 9.42875 30.1955 9.31817 30.2176 9.21864C30.284 8.99747 30.4277 8.89795 30.6489 8.89795C30.9143 8.89795 31.1797 8.89795 31.4451 8.89795C31.7105 8.89795 31.9648 8.89795 32.2302 8.89795C32.3298 8.89795 32.4293 8.92007 32.5177 8.95324C32.7279 9.03065 32.8384 9.20758 32.8384 9.43981C32.8384 10.424 32.8384 11.3971 32.8384 12.3813C32.8384 12.4919 32.8495 12.6025 32.8716 12.702C32.9158 12.9121 33.0596 13.0338 33.2587 13.0448C33.4909 13.0559 33.6678 12.9564 33.7342 12.7463C33.7673 12.6467 33.7784 12.5472 33.7784 12.4366C33.7784 11.4635 33.7784 10.4793 33.7784 9.50616C33.7784 9.39558 33.7895 9.28499 33.8005 9.18546C33.8226 9.01959 33.9332 8.93112 34.088 8.909C34.1433 8.89795 34.1986 8.89795 34.2539 8.89795C34.7515 8.89795 35.2381 8.89795 35.7357 8.89795C35.8131 8.89795 35.8905 8.90901 35.9569 8.92006C36.1781 8.95324 36.3218 9.10806 36.3439 9.32922C36.355 9.38452 36.355 9.43981 36.355 9.50616C36.3992 10.1918 36.3992 10.8553 36.3882 11.5298C36.3882 11.5298 36.3992 11.5298 36.3882 11.5298Z" fill="#090E0D"/>
<path fill-rule="evenodd" clip-rule="evenodd" d="M20.6626 6.64209C21.7242 6.64209 22.7858 6.64209 23.8363 6.64209C23.9358 6.64209 24.0354 6.65315 24.1349 6.66421C24.2897 6.69738 24.356 6.77479 24.356 6.92961C24.356 7.07337 24.356 7.21713 24.356 7.34983C24.356 7.70369 24.356 8.05756 24.356 8.41143C24.356 8.64365 24.3008 8.69895 24.0685 8.71C23.7589 8.72106 23.4493 8.71 23.1507 8.71C22.8853 8.71 22.6309 8.71 22.3655 8.71C22.3434 8.71 22.3213 8.71 22.2992 8.71C22.0891 8.72106 22.0449 8.7653 22.0449 8.9754C22.0449 10.8996 22.0449 12.8127 22.0449 14.7368C22.0449 14.8032 22.0449 14.8806 22.0338 14.9469C22.0227 15.0686 21.9564 15.157 21.8347 15.1902C21.7463 15.2123 21.6689 15.2344 21.5804 15.2344C21.2597 15.2455 20.939 15.2344 20.6183 15.2344C20.2645 15.2344 19.9216 15.2344 19.5678 15.2344C19.4904 15.2344 19.413 15.2234 19.3356 15.2013C19.236 15.1791 19.1807 15.1128 19.1586 15.0133C19.1476 14.9469 19.1476 14.8695 19.1476 14.8032C19.1476 12.8901 19.1476 10.977 19.1476 9.06387C19.1476 9.00858 19.1476 8.94223 19.1476 8.88694C19.1365 8.78741 19.1033 8.74318 19.0038 8.73212C18.9485 8.72106 18.8932 8.72106 18.8379 8.72106C18.3403 8.72106 17.8537 8.72106 17.3561 8.72106C17.2898 8.72106 17.2124 8.72106 17.146 8.71C17.0354 8.68789 16.9801 8.63259 16.9691 8.52201C16.9691 8.47778 16.958 8.42249 16.958 8.37825C16.958 7.93592 16.958 7.49358 16.958 7.04019C16.958 6.75267 17.0465 6.66421 17.334 6.65315C17.3893 6.65315 17.4556 6.65315 17.5109 6.65315C18.5615 6.64209 19.612 6.64209 20.6626 6.64209Z" fill="#090E0D"/>
<path fill-rule="evenodd" clip-rule="evenodd" d="M55.6273 11.7401C55.76 11.4084 55.8927 11.0656 56.0365 10.7338C56.2134 10.2915 56.3903 9.8602 56.5673 9.41786C56.6336 9.26305 56.7221 9.11929 56.8548 9.01976C56.9433 8.95341 57.0538 8.90918 57.1644 8.90918C57.6399 8.90918 58.1154 8.90918 58.602 8.90918C58.6905 8.90918 58.7789 8.92024 58.8564 8.94236C58.978 8.97553 59.0222 9.064 58.9891 9.18564C58.978 9.24093 58.9559 9.29622 58.9338 9.35151C57.839 11.9281 56.7442 14.5047 55.6494 17.0702C55.5941 17.2029 55.5167 17.3246 55.4172 17.4352C55.3066 17.5458 55.1739 17.601 55.0191 17.601C54.5989 17.601 54.1897 17.601 53.7695 17.601C53.6921 17.601 53.6147 17.59 53.5483 17.5789C53.3604 17.5458 53.294 17.4462 53.3493 17.2693C53.3604 17.214 53.3825 17.1698 53.4046 17.1145C53.67 16.4731 53.9464 15.8317 54.2229 15.1903C54.2561 15.1129 54.2561 15.0576 54.2229 14.9802C53.4709 13.1224 52.719 11.2646 51.967 9.40681C51.9449 9.35151 51.9228 9.29622 51.9117 9.24093C51.8675 9.07506 51.9338 8.96447 52.1108 8.9313C52.1882 8.92024 52.2545 8.90918 52.3319 8.90918C52.9401 8.90918 53.5483 8.90918 54.1676 8.90918C54.3335 8.90918 54.4772 8.96447 54.5878 9.08611C54.6874 9.18564 54.7537 9.30728 54.7979 9.42892C55.0523 10.1588 55.3066 10.8886 55.572 11.6074C55.5831 11.6517 55.6052 11.6848 55.6163 11.7291C55.6052 11.7401 55.6163 11.7401 55.6273 11.7401Z" fill="#090E0D"/>
<path fill-rule="evenodd" clip-rule="evenodd" d="M40.1288 15.422C39.2331 15.3999 38.5032 15.3335 37.7734 15.1455C37.696 15.1234 37.6186 15.0903 37.5301 15.0792C37.4527 15.0571 37.4195 15.0128 37.3974 14.9354C37.3421 14.67 37.3311 14.4046 37.3311 14.1392C37.3311 13.9844 37.3532 13.8296 37.3753 13.6858C37.3753 13.6527 37.3863 13.6195 37.3974 13.5863C37.4527 13.3983 37.4969 13.3762 37.6849 13.4204C38.271 13.5753 38.8792 13.6195 39.4874 13.5974C39.598 13.5974 39.6975 13.5753 39.8081 13.5531C39.8634 13.5421 39.9298 13.5089 39.974 13.4757C40.0846 13.3873 40.0846 13.2546 39.9851 13.1661C39.9187 13.1108 39.8413 13.0555 39.7528 13.0223C39.6091 12.9449 39.4543 12.8896 39.2994 12.8233C39.0451 12.7016 38.7908 12.5911 38.5364 12.4473C38.271 12.3035 38.0388 12.1266 37.8619 11.8833C37.4416 11.3194 37.3421 10.7111 37.5965 10.0476C37.707 9.73801 37.9393 9.50578 38.2047 9.32885C38.5585 9.07451 38.9677 8.93075 39.3879 8.83122C39.8966 8.72064 40.4053 8.69852 40.925 8.70958C41.3121 8.72064 41.6991 8.7317 42.0751 8.80911C42.1636 8.83122 42.252 8.8644 42.3405 8.87546C42.429 8.89757 42.4732 8.95287 42.4842 9.04133C42.4842 9.19615 42.4953 9.35097 42.4842 9.50578C42.4621 9.72695 42.4179 9.93706 42.3405 10.1472C42.3294 10.1803 42.3184 10.2135 42.3073 10.2356C42.2078 10.4457 42.1525 10.4679 41.9313 10.4457C41.5885 10.4015 41.2347 10.3573 40.8918 10.3241C40.7813 10.313 40.6707 10.3241 40.5712 10.3241C40.5048 10.3241 40.4384 10.3462 40.3721 10.3573C40.2836 10.3794 40.2173 10.4347 40.2062 10.5342C40.1952 10.6337 40.2505 10.678 40.3168 10.7222C40.4274 10.7886 40.538 10.8549 40.6486 10.9102C40.9029 11.0429 41.1683 11.1535 41.4226 11.2862C41.7323 11.4521 42.0087 11.64 42.252 11.8944C42.6944 12.3367 42.8934 12.8786 42.8492 13.4978C42.8381 13.6748 42.8049 13.8628 42.7607 14.0397C42.628 14.4931 42.3405 14.8249 41.9313 15.0571C41.6106 15.234 41.2568 15.3335 40.8918 15.3778C40.5933 15.3999 40.2947 15.4109 40.1288 15.422Z" fill="#090E0D"/>
<path fill-rule="evenodd" clip-rule="evenodd" d="M44.097 10.634C43.9975 10.634 43.909 10.634 43.8095 10.634C43.7432 10.634 43.6879 10.634 43.6215 10.6229C43.5109 10.6119 43.4335 10.5455 43.4004 10.446C43.3782 10.3796 43.3672 10.3133 43.3672 10.2469C43.3672 9.92624 43.3672 9.6166 43.3672 9.29591C43.3672 9.28485 43.3672 9.26273 43.3672 9.24062C43.3893 9.03051 43.4999 8.91993 43.6989 8.90887C43.8206 8.89781 43.9533 8.90887 44.0749 8.90887C44.1192 8.90887 44.1634 8.90887 44.2187 8.90887C44.2187 8.86463 44.2297 8.8204 44.2297 8.77617C44.2297 8.555 44.2297 8.33383 44.2297 8.11267C44.2297 7.92468 44.3071 7.78092 44.473 7.70351C44.5615 7.65927 44.661 7.61504 44.7605 7.59292C45.2471 7.50446 45.7447 7.42705 46.2313 7.34964C46.2976 7.33858 46.364 7.34964 46.4304 7.34964C46.5299 7.3607 46.5852 7.42705 46.5962 7.52657C46.6073 7.61504 46.6183 7.70351 46.6183 7.79198C46.6183 8.12373 46.6183 8.46653 46.6183 8.79828C46.6183 8.83146 46.6183 8.85358 46.6294 8.89781C46.6626 8.89781 46.7068 8.90887 46.74 8.90887C46.939 8.90887 47.1491 8.90887 47.3482 8.90887C47.5251 8.90887 47.6357 8.97522 47.6799 9.15215C47.7131 9.24062 47.7242 9.3512 47.7242 9.43967C47.7352 9.72719 47.7242 10.0036 47.7242 10.2912C47.7242 10.3133 47.7242 10.3465 47.7242 10.3686C47.7131 10.5787 47.6357 10.6561 47.4256 10.6561C47.2155 10.6561 47.0054 10.6561 46.8063 10.6561C46.7732 10.6561 46.74 10.6561 46.7068 10.6671C46.7068 10.7114 46.6958 10.7556 46.6958 10.7998C46.6958 11.585 46.6958 12.3701 46.6958 13.1553C46.6958 13.3875 46.7732 13.487 47.0054 13.5202C47.0828 13.5313 47.1602 13.5313 47.2376 13.5313C47.3261 13.5313 47.3482 13.5313 47.3814 13.6197C47.4145 13.7414 47.4477 13.863 47.4809 13.9847C47.5472 14.3053 47.5804 14.626 47.5804 14.9467C47.5804 14.991 47.5804 15.0352 47.5804 15.0684C47.5804 15.1568 47.5472 15.2011 47.4698 15.2232C47.2597 15.2674 47.0386 15.3227 46.8285 15.3559C46.4635 15.4112 46.0875 15.4333 45.7116 15.3891C45.2913 15.3338 44.9043 15.2011 44.5947 14.8914C44.3182 14.615 44.1634 14.2722 44.1192 13.8851C44.097 13.675 44.097 13.4539 44.097 13.2437C44.097 12.4033 44.097 11.5629 44.097 10.7224C44.097 10.7003 44.097 10.6782 44.097 10.634Z" fill="#090E0D"/>
<path fill-rule="evenodd" clip-rule="evenodd" d="M48.6743 10.8993C48.6743 9.58333 48.6743 8.27844 48.6743 6.9625C48.6743 6.90721 48.6743 6.86297 48.6743 6.80768C48.6854 6.6418 48.796 6.53122 48.9618 6.50911C49.0061 6.50911 49.0503 6.49805 49.0945 6.49805C49.6253 6.49805 50.1451 6.49805 50.6759 6.49805C50.7865 6.49805 50.897 6.5091 50.9966 6.53122C51.1735 6.5644 51.2288 6.6418 51.2399 6.80768C51.2399 6.85191 51.2399 6.89615 51.2399 6.94038C51.2399 9.53909 51.2399 12.1378 51.2399 14.7476C51.2399 14.8139 51.2399 14.8803 51.2288 14.9466C51.2067 15.1236 51.1182 15.212 50.9523 15.2341C50.897 15.2452 50.8418 15.2452 50.7865 15.2452C50.2225 15.2452 49.6585 15.2452 49.0945 15.2452C49.0171 15.2452 48.9287 15.2452 48.8512 15.2231C48.7517 15.212 48.6964 15.1457 48.6854 15.0462C48.6743 14.9909 48.6743 14.9356 48.6743 14.8803C48.6743 14.0951 48.6743 13.31 48.6743 12.5248C48.6743 11.994 48.6743 11.4411 48.6743 10.8993Z" fill="#090E0D"/>
<path fill-rule="evenodd" clip-rule="evenodd" d="M24.7749 12.4033C24.7749 11.7287 24.7749 11.0542 24.7749 10.3686C24.7749 10.2138 24.786 10.0589 24.8191 9.91517C24.8855 9.53919 25.1067 9.27379 25.4605 9.10792C25.6927 9.00839 25.936 8.9531 26.1793 8.94204C26.4668 8.93098 26.7654 8.91992 27.0529 8.91992C27.7385 8.91992 28.4242 8.91992 29.1098 8.91992C29.1208 8.91992 29.143 8.91992 29.1651 8.91992C29.3641 8.91992 29.4194 8.97522 29.4194 9.17427C29.4194 9.59448 29.4194 10.0258 29.4194 10.446C29.4194 10.4792 29.4194 10.5013 29.4194 10.5344C29.4084 10.6561 29.3309 10.7335 29.2093 10.7446C29.1098 10.7556 29.0213 10.7556 28.9218 10.7556C28.7117 10.7667 28.5016 10.7888 28.2915 10.8109C28.1145 10.833 27.9597 10.8994 27.8049 10.9878C27.5395 11.1427 27.3957 11.3749 27.3736 11.6735C27.3736 11.7398 27.3736 11.8172 27.3736 11.8836C27.3736 12.8235 27.3736 13.7635 27.3736 14.7034C27.3736 14.7919 27.3626 14.8804 27.3515 14.9688C27.3183 15.1458 27.2077 15.2453 27.0308 15.2564C26.9976 15.2564 26.9755 15.2564 26.9423 15.2564C26.4115 15.2564 25.8918 15.2564 25.361 15.2564C25.2836 15.2564 25.2062 15.2453 25.1398 15.2232C24.9518 15.179 24.8413 15.0463 24.8081 14.8583C24.797 14.7809 24.786 14.6924 24.786 14.615C24.7749 13.8741 24.7749 13.1332 24.7749 12.4033Z" fill="#090E0D"/>
<path fill-rule="evenodd" clip-rule="evenodd" d="M12.0923 6.6415C12.1697 6.6415 12.225 6.65256 12.2692 6.65256C12.8996 6.65256 13.5188 6.65256 14.1492 6.65256C14.3703 6.65256 14.5915 6.6968 14.8016 6.79632C15.1887 6.99537 15.3214 7.30501 15.2439 7.71417C15.1112 8.37767 14.9564 9.03011 14.8016 9.69361C14.5362 10.8879 14.2708 12.0712 14.0054 13.2655C13.928 13.5972 13.8617 13.94 13.7842 14.2718C13.7068 14.6146 13.541 14.891 13.2203 15.068C13.0323 15.1786 12.8222 15.2117 12.6121 15.2228C12.4904 15.2338 12.3577 15.2228 12.2361 15.2228C9.05127 15.2228 5.86646 15.2228 2.69271 15.2228C2.42731 15.2228 2.17297 15.1675 1.9518 15.0127C1.70852 14.8468 1.56476 14.6146 1.49841 14.3381C1.39888 13.9068 1.29936 13.4756 1.19983 13.0443C0.845964 11.4519 0.481039 9.85949 0.127171 8.25602C0.0829377 8.07909 0.0387043 7.90216 0.0165875 7.72523C-0.00552918 7.59253 -0.00552918 7.45982 0.0165875 7.32712C0.0497626 7.10596 0.193522 6.95114 0.381514 6.8295C0.602681 6.6968 0.857024 6.6415 1.11137 6.6415C1.73063 6.6415 2.36096 6.6415 2.98023 6.6415C3.16822 6.6415 3.16822 6.64151 3.16822 6.45351C3.16822 6.07753 3.16822 5.70155 3.16822 5.33662C3.15716 3.26871 4.59475 1.47725 6.60737 0.990685C7.105 0.869043 7.60262 0.846926 8.11131 0.902218C8.97386 0.990685 9.73688 1.31138 10.4114 1.85324C11.2298 2.51674 11.7606 3.36823 11.9928 4.39666C12.0591 4.69523 12.0923 5.00487 12.0923 5.3145C12.0923 5.70155 12.0923 6.08859 12.0923 6.47563C12.0923 6.53092 12.0923 6.57515 12.0923 6.6415ZM7.62474 6.65256C8.52047 6.65256 9.42725 6.65256 10.323 6.65256C10.3562 6.65256 10.4004 6.65256 10.4336 6.65256C10.511 6.65256 10.522 6.64151 10.5331 6.55304C10.5331 6.51986 10.5331 6.48669 10.5331 6.45351C10.5331 6.06647 10.5331 5.67943 10.5331 5.29239C10.5331 5.09334 10.522 4.90534 10.4889 4.70629C10.3672 4.00962 10.0355 3.42352 9.48254 2.98119C8.84116 2.45039 8.10025 2.24028 7.27087 2.32875C6.8396 2.37298 6.44149 2.51674 6.08763 2.74896C5.20296 3.324 4.74957 4.15338 4.71639 5.20392C4.70533 5.62414 4.71639 6.04436 4.71639 6.46457C4.71639 6.64151 4.71639 6.6415 4.89332 6.6415C5.81117 6.65256 6.71795 6.65256 7.62474 6.65256ZM7.62474 8.44402C7.62474 8.44402 7.62474 8.45508 7.62474 8.44402C7.0497 8.44402 6.47467 8.44402 5.89963 8.44402C5.71164 8.44402 5.64529 8.51037 5.64529 8.69836C5.64529 8.89741 5.64529 9.09646 5.64529 9.29551C5.64529 9.53879 5.67847 9.57197 5.92175 9.58303C6.14292 9.58303 6.36409 9.58303 6.58525 9.58303C6.79536 9.58303 6.79536 9.58303 6.79536 9.79314C6.79536 10.7442 6.79536 11.6952 6.79536 12.6462C6.79536 12.7015 6.79536 12.7678 6.80642 12.8231C6.82854 12.9558 6.87277 13.0111 7.00547 13.0111C7.35934 13.0222 7.70215 13.0222 8.05601 13.0222C8.10025 13.0222 8.14448 13.0222 8.18871 13.0111C8.28824 13.0001 8.34353 12.9448 8.36565 12.8452C8.37671 12.79 8.37671 12.7347 8.37671 12.6683C8.37671 11.6952 8.37671 10.7331 8.37671 9.75996C8.37671 9.59409 8.37671 9.58303 8.55364 9.58303C8.80798 9.58303 9.06233 9.58303 9.31667 9.58303C9.37196 9.58303 9.42725 9.57197 9.4936 9.56091C9.54889 9.54985 9.58207 9.51668 9.59313 9.46138C9.60419 9.42821 9.60418 9.38398 9.60418 9.3508C9.60418 9.12963 9.60418 8.91953 9.60418 8.69836C9.60418 8.49931 9.53784 8.44402 9.34984 8.44402C9.31667 8.44402 9.28349 8.44402 9.25032 8.44402C8.6974 8.44402 8.1666 8.44402 7.62474 8.44402Z" fill="#87BD5C"/>
<path fill-rule="evenodd" clip-rule="evenodd" d="M8.89742 17.3461C8.87531 16.4283 9.67151 15.5989 10.6668 15.61C11.6067 15.621 12.4029 16.4062 12.4029 17.3793C12.3919 18.3524 11.5846 19.1486 10.6004 19.1265C9.70468 19.1044 8.87531 18.3414 8.89742 17.3461Z" fill="#87BD5C"/>
<path fill-rule="evenodd" clip-rule="evenodd" d="M6.37447 17.3679C6.39658 18.319 5.58933 19.1262 4.61619 19.1262C3.64305 19.1262 2.85791 18.319 2.85791 17.3679C2.85791 16.3948 3.67623 15.6097 4.61619 15.6207C5.56721 15.6097 6.38553 16.3948 6.37447 17.3679Z" fill="#87BD5C"/>
</svg>
