<svg width="55" height="30" viewBox="0 0 55 30" fill="none" xmlns="http://www.w3.org/2000/svg">
<path d="M25.6409 22.0048H21.9903L24.2719 7.59777H27.9229L25.6409 22.0048ZM18.9192 7.59777L15.4388 17.5071L15.027 15.3732L15.0274 15.374L13.799 8.89496C13.799 8.89496 13.6505 7.59777 12.0673 7.59777H6.31361L6.24609 7.84171C6.24609 7.84171 8.00558 8.21784 10.0647 9.48844L13.2364 22.0052H17.04L22.8481 7.59777H18.9192ZM47.6332 22.0048H50.9852L48.0626 7.59738H45.128C43.7729 7.59738 43.4428 8.67105 43.4428 8.67105L37.9982 22.0048H41.8037L42.5648 19.8648H47.2056L47.6332 22.0048ZM43.6161 16.9086L45.5342 11.5171L46.6133 16.9086H43.6161ZM38.2836 11.0623L38.8046 7.9685C38.8046 7.9685 37.197 7.34033 35.5212 7.34033C33.7096 7.34033 29.4074 8.15387 29.4074 12.1098C29.4074 15.8318 34.4567 15.8781 34.4567 17.8331C34.4567 19.7881 29.9277 19.4378 28.433 18.205L27.8903 21.4399C27.8903 21.4399 29.5203 22.2534 32.0108 22.2534C34.5021 22.2534 38.2604 20.9281 38.2604 17.3209C38.2604 13.575 33.1657 13.2263 33.1657 11.5976C33.1661 9.96863 36.7214 10.1779 38.2836 11.0623Z" fill="#2566AF"/>
<path d="M14.0098 16.8125L12.7012 9.5625C12.7012 9.5625 12.3502 7.75 10.442 7.75H3.88104H2.99902C2.99902 7.75 6.40259 8.80374 9.59974 11.375C12.6567 13.8326 14.0098 16.8125 14.0098 16.8125Z" fill="#E6A540"/>
</svg>
