<svg width="14" height="15" viewBox="0 0 14 15" fill="none" xmlns="http://www.w3.org/2000/svg">
<path fill-rule="evenodd" clip-rule="evenodd" d="M13.3915 4.77578V4.77856C13.7394 5.61633 13.9163 6.50657 13.9163 7.42545C13.9163 11.2612 10.7939 14.3836 6.95817 14.3836C3.12245 14.3836 0 11.2612 0 7.42545C0 3.58971 3.12245 0.467285 6.95817 0.467285C7.68298 0.467285 8.39914 0.580211 9.08098 0.800879C9.0838 0.800879 9.0838 0.803659 9.0838 0.803659H9.09251C9.10226 0.806988 9.11015 0.812925 9.11832 0.819034L9.12601 0.824696L9.1293 0.826979L9.13301 0.829347L9.135 0.830513L9.13905 0.832693C9.15374 0.841444 9.17124 0.844224 9.18558 0.855755C9.18558 0.855755 9.18558 0.856699 9.18613 0.857488C9.18648 0.858054 9.18716 0.858535 9.18833 0.858535C9.20398 0.874476 9.21524 0.890434 9.228 0.908502L9.23171 0.913805C9.23342 0.916053 9.23521 0.91818 9.23706 0.920274L9.24111 0.924769C9.24475 0.928768 9.24839 0.932766 9.25154 0.93721C9.25402 0.940608 9.25621 0.94428 9.25793 0.948398C9.2626 0.956549 9.26562 0.965437 9.26788 0.97472L9.26905 0.979902L9.27035 0.986234L9.27227 0.997697L9.27495 1.00502L9.27783 1.01259L9.27804 1.01316C9.28284 1.02568 9.28778 1.03864 9.28978 1.05297C9.28978 1.0577 9.28916 1.06252 9.28854 1.06752V1.06982C9.28778 1.07632 9.28696 1.0832 9.28696 1.09073C9.28696 1.11697 9.28422 1.14003 9.27824 1.16629V1.16907C9.27488 1.17883 9.26898 1.18772 9.26328 1.19616C9.25882 1.20285 9.25456 1.20925 9.25196 1.21559C9.24324 1.23309 9.23727 1.25057 9.22574 1.26488C8.85434 1.71738 8.65159 2.28277 8.65159 2.86248C8.65159 4.25093 9.78197 5.38175 11.1708 5.38175C11.8261 5.38175 12.4464 5.12966 12.9191 4.67161C12.923 4.66836 12.9269 4.6656 12.9308 4.66311C12.9365 4.65954 12.9421 4.65654 12.9477 4.65356C12.9527 4.65095 12.9576 4.64834 12.9625 4.64537C12.98 4.63384 12.9915 4.62231 13.009 4.61356H13.0149C13.0352 4.6052 13.0587 4.60203 13.0818 4.59925C13.0961 4.59925 13.1108 4.5905 13.1251 4.59328C13.1426 4.59328 13.1569 4.59925 13.1744 4.60203C13.1947 4.60481 13.2149 4.60759 13.2324 4.61356C13.24 4.61721 13.2464 4.62224 13.2531 4.62773L13.2568 4.63079L13.2643 4.63662C13.2873 4.64815 13.3076 4.65968 13.3278 4.67718C13.3278 4.67885 13.3278 4.67952 13.3285 4.67979C13.3289 4.67996 13.3296 4.67996 13.3307 4.67996C13.3422 4.69427 13.3509 4.71176 13.3597 4.72926C13.3684 4.74357 13.3828 4.75233 13.3887 4.76981C13.3887 4.77156 13.3887 4.77235 13.3892 4.77317L13.39 4.77427L13.3915 4.77578ZM2.0294 8.29502C2.0294 8.93597 2.54871 9.45485 3.18923 9.45485C3.82975 9.45485 4.34906 8.93597 4.34906 8.29502C4.34906 7.65408 3.82975 7.1352 3.18923 7.1352C2.54829 7.1352 2.0294 7.65448 2.0294 8.29502ZM4.92836 3.36626C4.45003 3.36626 4.05879 3.75791 4.05879 4.23622C4.05879 4.71456 4.45044 5.1062 4.92836 5.10581C5.4071 5.10581 5.79834 4.71456 5.79834 4.23622C5.79834 3.7575 5.40669 3.36626 4.92836 3.36626ZM6.66831 11.1944C6.66831 11.6731 7.05955 12.0644 7.53788 12.0644C8.01621 12.0644 8.40786 11.6727 8.40786 11.1944C8.40786 10.7161 8.01621 10.3248 7.53788 10.3248C7.05955 10.3248 6.66831 10.7161 6.66831 11.1944ZM6.95817 7.28032C6.95817 7.92127 7.47748 8.44015 8.118 8.44015C8.75852 8.44015 9.27742 7.92127 9.27783 7.28032C9.27783 6.63939 8.75852 6.12051 8.118 6.12051C7.47707 6.12051 6.95817 6.63978 6.95817 7.28032Z" fill="white"/>
</svg>
