<svg width="96" height="52" viewBox="0 0 96 52" fill="none" xmlns="http://www.w3.org/2000/svg">
<rect width="96" height="52" rx="10" fill="#250158"/>
<g clip-path="url(#clip0_2818_46072)">
<g clip-path="url(#clip1_2818_46072)">
<path d="M17.3653 21.6013C17.3653 23.724 15.7765 25.0419 13.2484 25.0419H11.6246V27.4919H9V18.1431H13.2397C15.7765 18.1431 17.3653 19.4698 17.3653 21.6013ZM14.7143 21.6013C14.7143 20.7346 14.1701 20.2304 13.0817 20.2304H11.6246V22.9634H13.0817C14.1701 22.9634 14.7143 22.4593 14.7143 21.6013Z" fill="#1CC68D"/>
<path d="M18.3027 18.1081C18.3027 17.3474 18.9084 16.7637 19.8388 16.7637C20.7693 16.7637 21.3749 17.312 21.3749 18.0727C21.3749 18.8775 20.7693 19.4613 19.8388 19.4613C18.9084 19.4524 18.3027 18.8687 18.3027 18.1081ZM18.5836 20.2573H21.0941V27.4922H18.5749V20.2573H18.5836Z" fill="#1CC68D"/>
<path d="M30.374 23.3526V27.4919H27.8548V23.7683C27.8548 22.7247 27.407 22.2824 26.6785 22.2824C25.871 22.2824 25.2478 22.7866 25.2478 23.9895V27.4919H22.7285V20.257H25.1249V21.0442C25.6954 20.4427 26.503 20.1332 27.407 20.1332C29.0924 20.1332 30.374 21.1149 30.374 23.3526Z" fill="#1CC68D"/>
<path d="M40.5215 22.822C40.5215 19.9829 42.6809 17.9663 45.6215 17.9663C47.3331 17.9663 48.7112 18.5943 49.6066 19.7264L47.9387 21.2477C47.3595 20.5401 46.6396 20.1509 45.7531 20.1509C44.2257 20.1509 43.1724 21.2211 43.1724 22.822C43.1724 24.4229 44.2346 25.4931 45.7531 25.4931C46.6396 25.4931 47.3595 25.1039 47.9387 24.3964L49.6066 25.9176C48.7024 27.0497 47.3242 27.6777 45.6215 27.6777C42.6809 27.6777 40.5215 25.6611 40.5215 22.822Z" fill="white"/>
<path d="M57.3569 23.4763V27.4917H55.0134V26.5542C54.6534 27.2441 53.9424 27.6067 52.8979 27.6067C51.1774 27.6067 50.2207 26.6338 50.2207 25.3778C50.2207 24.0423 51.1862 23.2109 53.4158 23.2109H54.8465C54.8028 22.4768 54.3199 22.0611 53.3193 22.0611C52.6347 22.0611 51.8622 22.2999 51.3706 22.6891L50.5191 20.9644C51.3443 20.416 52.5557 20.1241 53.6879 20.1241C56.0228 20.133 57.3569 21.1766 57.3569 23.4763ZM54.8465 25.1656V24.5376H53.7582C52.9507 24.5376 52.6609 24.8295 52.6609 25.2717C52.6609 25.6963 53.0033 26.0058 53.6002 26.0058C54.1532 26.0058 54.6447 25.7405 54.8465 25.1656Z" fill="white"/>
<path d="M58.3848 26.864L59.1398 25.1304C59.798 25.5461 60.7726 25.7938 61.6412 25.7938C62.4931 25.7938 62.7652 25.608 62.7652 25.2984C62.7652 24.3255 58.5251 25.4311 58.5251 22.5389C58.5251 21.1768 59.7717 20.1332 62.0187 20.1332C63.0282 20.1332 64.1345 20.3455 64.8542 20.7435L64.0992 22.4682C63.3794 22.0701 62.6683 21.9375 62.0364 21.9375C61.1849 21.9375 60.8866 22.1763 60.8866 22.4416C60.8866 23.441 65.1086 22.362 65.1086 25.2277C65.1086 26.5632 63.8887 27.6069 61.5624 27.6069C60.3425 27.6158 59.0873 27.3062 58.3848 26.864Z" fill="white"/>
<path d="M65.915 18.1081C65.915 17.3474 66.5207 16.7637 67.4509 16.7637C68.3816 16.7637 68.9872 17.312 68.9872 18.0727C68.9872 18.8775 68.3816 19.4613 67.4509 19.4613C66.5293 19.4524 65.915 18.8687 65.915 18.1081ZM66.1962 20.2573H68.7152V27.4922H66.1962V20.2573Z" fill="white"/>
<path d="M77.9848 23.3526V27.4919H75.4653V23.7683C75.4653 22.7247 75.0176 22.2824 74.2893 22.2824C73.4817 22.2824 72.8584 22.7866 72.8584 23.9895V27.4919H70.3389V20.257H72.7353V21.0442C73.3061 20.4427 74.1136 20.1332 75.0176 20.1332C76.7028 20.1332 77.9848 21.1149 77.9848 23.3526Z" fill="white"/>
<path d="M79.2227 23.8568C79.2227 21.681 80.9342 20.1332 83.278 20.1332C85.6477 20.1332 87.333 21.681 87.333 23.8568C87.333 26.0503 85.6477 27.6069 83.278 27.6069C80.9256 27.6158 79.2227 26.0503 79.2227 23.8568ZM84.7877 23.8568C84.7877 22.76 84.1381 22.1497 83.278 22.1497C82.4266 22.1497 81.7679 22.76 81.7679 23.8568C81.7679 24.9624 82.4266 25.5904 83.278 25.5904C84.1381 25.5992 84.7877 24.9712 84.7877 23.8568Z" fill="white"/>
<path d="M35.649 20.1599C33.3054 20.1599 31.5938 21.7077 31.5938 23.8835C31.5938 26.077 33.3054 27.6336 35.649 27.6336C38.019 27.6336 39.7044 26.0681 39.7044 23.8835C39.7044 21.7077 38.0279 20.1599 35.649 20.1599ZM37.352 24.9449C37.15 25.1483 36.878 25.2544 36.5884 25.2544H36.5795C36.281 25.2544 36.009 25.1306 35.807 24.9183C35.8422 25.0687 35.8685 25.2456 35.9124 25.3606C36.0704 25.7939 36.3338 25.9797 36.3163 25.9797H34.9908C34.9733 25.9797 35.2365 25.7939 35.3945 25.3606C35.4384 25.2456 35.4648 25.0687 35.4998 24.9183C35.2979 25.1306 35.0259 25.2544 34.7274 25.2544H34.7187C34.4289 25.2544 34.1568 25.1395 33.9549 24.9449C33.7532 24.7414 33.6389 24.4761 33.6478 24.2019C33.6478 23.7243 33.9638 23.4766 34.3675 23.1583C34.4465 23.0963 34.5254 23.0344 34.6045 22.9637C35.1927 22.4684 35.6579 21.805 35.6579 21.805C35.6579 21.805 36.123 22.4684 36.7113 22.9637C36.7902 23.0344 36.8693 23.0963 36.9483 23.1583C37.3433 23.4766 37.6591 23.7243 37.668 24.2019C37.668 24.4849 37.5539 24.7503 37.352 24.9449Z" fill="#1CC68D"/>
<path d="M10.9165 32.4149C11.1251 32.3089 11.2642 32.1152 11.2642 31.852C11.2642 31.4463 10.9165 31.1868 10.2673 31.1868H9V33.7454H10.3446C11.0401 33.7454 11.4033 33.4895 11.4033 33.0509C11.4033 32.7183 11.2063 32.5026 10.9165 32.4149ZM10.2133 31.5596C10.561 31.5596 10.7581 31.6766 10.7581 31.9142C10.7581 32.1481 10.561 32.2651 10.2133 32.2651H9.5023V31.5596H10.2133ZM10.3137 33.3725H9.5023V32.6342H10.3137C10.6924 32.6342 10.8972 32.7475 10.8972 33.0034C10.8972 33.2592 10.6924 33.3725 10.3137 33.3725Z" fill="white"/>
<path d="M13.9877 33.3469V32.6415H15.2936V32.2504H13.9877V31.5852H15.4598V31.1868H13.4854V33.7454H15.5139V33.3469H13.9877Z" fill="white"/>
<path d="M20.7812 33.7454H21.2835V31.5888H22.1799V31.1868H19.8848V31.5888H20.7812V33.7454Z" fill="white"/>
<path d="M26.0035 31.1868V32.2431H24.6048V31.1868H24.1025V33.7454H24.6048V32.6488H26.0035V33.7454H26.5058V31.1868H26.0035Z" fill="white"/>
<path d="M29.2787 33.3469V32.6415H30.5845V32.2504H29.2787V31.5852H30.7507V31.1868H28.7764V33.7454H30.8049V33.3469H29.2787Z" fill="white"/>
<path d="M36.7751 33.7818C37.2194 33.7818 37.5981 33.632 37.8492 33.3542L37.5247 33.0618C37.3276 33.2665 37.0842 33.3652 36.8022 33.3652C36.242 33.3652 35.8361 32.9923 35.8361 32.466C35.8361 31.9396 36.242 31.5668 36.8022 31.5668C37.0842 31.5668 37.3276 31.6655 37.5247 31.8665L37.8492 31.5778C37.5981 31.3 37.2194 31.1501 36.779 31.1501C35.9482 31.1501 35.3301 31.7021 35.3301 32.466C35.3301 33.2299 35.9482 33.7818 36.7751 33.7818Z" fill="white"/>
<path d="M41.8437 33.7454H42.3693L41.1483 31.1868H40.6538L39.4365 33.7454H39.9543L40.2211 33.1532H41.5733L41.8437 33.7454ZM40.3909 32.7804L40.8972 31.662L41.4071 32.7804H40.3909Z" fill="white"/>
<path d="M45.0978 33.7818C45.8396 33.7818 46.1912 33.4309 46.1912 33.0216C46.1912 32.0822 44.5876 32.4367 44.5876 31.8921C44.5876 31.6984 44.7577 31.5449 45.175 31.5449C45.4108 31.5449 45.6774 31.6107 45.9207 31.7459L46.0791 31.3768C45.8435 31.2306 45.5034 31.1501 45.1789 31.1501C44.4371 31.1501 44.0892 31.5011 44.0892 31.9141C44.0892 32.8644 45.6966 32.5025 45.6966 33.0545C45.6966 33.2445 45.5188 33.3871 45.0978 33.3871C44.7655 33.3871 44.4215 33.2701 44.2052 33.1056L44.0312 33.4748C44.2553 33.6575 44.6765 33.7818 45.0978 33.7818Z" fill="white"/>
<path d="M50.1354 31.1868V32.2431H48.7367V31.1868H48.2344V33.7454H48.7367V32.6488H50.1354V33.7454H50.6377V31.1868H50.1354Z" fill="white"/>
<path d="M54.8247 32.4149C55.0333 32.3089 55.1725 32.1152 55.1725 31.852C55.1725 31.4463 54.8247 31.1868 54.1756 31.1868H52.9082V33.7454H54.2528C54.9484 33.7454 55.3115 33.4895 55.3115 33.0509C55.3115 32.7183 55.1145 32.5026 54.8247 32.4149ZM54.1214 31.5596C54.4693 31.5596 54.6662 31.6766 54.6662 31.9142C54.6662 32.1481 54.4693 32.2651 54.1214 32.2651H53.4105V31.5596H54.1214ZM54.222 33.3725H53.4105V32.6342H54.222C54.6005 32.6342 54.8053 32.7475 54.8053 33.0034C54.8053 33.2592 54.6005 33.3725 54.222 33.3725Z" fill="white"/>
<path d="M59.4181 33.7454H59.9436L58.7227 31.1868H58.2278L57.0107 33.7454H57.5286L57.7949 33.1532H59.1475L59.4181 33.7454ZM57.9653 32.7804L58.4712 31.662L58.9814 32.7804H57.9653Z" fill="white"/>
<path d="M63.0477 33.7818C63.4921 33.7818 63.8705 33.632 64.1216 33.3542L63.797 33.0618C63.5999 33.2665 63.357 33.3652 63.0744 33.3652C62.5141 33.3652 62.1089 32.9923 62.1089 32.466C62.1089 31.9396 62.5141 31.5668 63.0744 31.5668C63.357 31.5668 63.5999 31.6655 63.797 31.8665L64.1216 31.5778C63.8705 31.3 63.4921 31.1501 63.0515 31.1501C62.2206 31.1501 61.6025 31.7021 61.6025 32.466C61.6025 33.2299 62.2206 33.7818 63.0477 33.7818Z" fill="white"/>
<path d="M68.0341 33.7454H68.6212L67.4156 32.3308L68.552 31.1868H67.9874L66.651 32.499V31.1868H66.1484V33.7454H66.651V33.0911L67.0796 32.6744L68.0341 33.7454Z" fill="white"/>
<path d="M75.0078 33.7454H75.5948L74.3892 32.3308L75.5251 31.1868H74.961L73.6242 32.499V31.1868H73.1221V33.7454H73.6242V33.0911L74.0532 32.6744L75.0078 33.7454Z" fill="white"/>
<path d="M77.4824 33.7454H77.9845V31.1868H77.4824V33.7454Z" fill="white"/>
<path d="M82.1665 31.1868V32.9193L80.675 31.1868H80.2617V33.7454H80.76V32.0128L82.2515 33.7454H82.6648V31.1868H82.1665Z" fill="white"/>
<path d="M86.7825 33.2335C86.6083 33.3286 86.4193 33.3652 86.226 33.3652C85.6543 33.3652 85.2486 32.985 85.2486 32.466C85.2486 31.936 85.6543 31.5668 86.2299 31.5668C86.5196 31.5668 86.763 31.6582 86.9753 31.8592L87.2923 31.5668C87.0374 31.2927 86.6589 31.1501 86.2065 31.1501C85.3603 31.1501 84.7422 31.7021 84.7422 32.466C84.7422 33.2299 85.3603 33.7818 86.1988 33.7818C86.5816 33.7818 86.9754 33.6721 87.2574 33.4565V32.4367H86.7825V33.2335Z" fill="white"/>
</g>
</g>
<defs>
<clipPath id="clip0_2818_46072">
<rect width="78.75" height="17.0182" fill="white" transform="translate(9 17)"/>
</clipPath>
<clipPath id="clip1_2818_46072">
<rect width="78.75" height="17.0182" fill="white" transform="translate(9 16.7637)"/>
</clipPath>
</defs>
</svg>
