<svg width="96" height="52" viewBox="0 0 96 52" fill="none" xmlns="http://www.w3.org/2000/svg">
<rect width="96" height="52" rx="10" fill="#250158"/>
<g clip-path="url(#clip0_2818_46044)">
<path fill-rule="evenodd" clip-rule="evenodd" d="M71.5318 23.7878L66.3304 30.0209L71.8962 24.5789L66.0107 31.79L72.3522 26.2067L67.609 31.79L73.1747 26.7653L73.1278 28.5321L69.2966 32.7202L74.0398 28.6712L74.1314 25.3678L71.5318 23.7878Z" fill="url(#paint0_linear_2818_46044)"/>
<path fill-rule="evenodd" clip-rule="evenodd" d="M72.1238 24.0087L69.4706 27.6359C68.8447 28.4703 69.3231 29.5601 70.4586 29.1611C70.9749 28.9058 71.4153 28.5547 71.7327 28.1238C71.9562 27.8548 72.1574 28.1283 71.954 28.3244L71.5091 28.9217C72.4301 29.6969 73.4471 30.3854 74.7368 30.1756C75.2688 30.089 75.0766 30.3968 74.786 30.4948L73.76 30.9166C73.494 31.2152 73.8137 31.6005 74.2406 31.5503C75.1638 31.6233 78.1344 29.0334 79.5203 26.6259L74.2138 22.9121L72.1261 24.0064L72.1238 24.0087Z" fill="white"/>
<path fill-rule="evenodd" clip-rule="evenodd" d="M75.0679 27.0639C73.3109 27.0525 72.5755 28.0829 72.1017 29.3824C71.9027 29.2388 71.7105 29.0815 71.5205 28.9242L71.9653 28.3269C72.1195 28.1924 72.019 27.912 71.8379 28.0374L71.829 27.8322C71.4445 26.5486 70.5102 27.2896 69.2316 28.6506C69.1556 28.3474 69.2294 27.9712 69.4819 27.6361L72.1352 24.0089L72.5644 23.7832L75.0679 27.0661V27.0639Z" fill="#C6D4D7"/>
<path fill-rule="evenodd" clip-rule="evenodd" d="M72.5245 20.5508C71.1878 21.6588 67.2001 23.9568 68.8408 25.6804L70.1864 26.6653L71.883 24.3991C73.1996 27.1235 75.0124 27.6068 77.6723 27.6501L73.052 23.5647L72.5268 20.5531L72.5245 20.5508Z" fill="#F10099"/>
<path d="M78.9727 27.7274C82.6305 27.7274 85.5957 24.6826 85.5957 20.9267C85.5957 17.1708 82.6305 14.126 78.9727 14.126C75.3149 14.126 72.3496 17.1708 72.3496 20.9267C72.3496 24.6826 75.3149 27.7274 78.9727 27.7274Z" fill="#C6D4D7"/>
<path d="M79.717 27.7274C83.2217 27.7274 86.0629 24.6826 86.0629 20.9267C86.0629 17.1708 83.2217 14.126 79.717 14.126C76.2122 14.126 73.3711 17.1708 73.3711 20.9267C73.3711 24.6826 76.2122 27.7274 79.717 27.7274Z" fill="white"/>
<path fill-rule="evenodd" clip-rule="evenodd" d="M80.4657 14.5713C83.5145 14.5713 85.9845 17.0928 85.9845 20.2002C85.9845 23.3098 83.5592 24.2468 80.8747 24.2947C78.1902 24.3403 75.0809 22.4731 74.9446 20.2002C74.8082 17.9295 77.4168 14.5713 80.4634 14.5713H80.4657Z" fill="#010313"/>
<path d="M83.3831 17.8697C83.2311 17.6691 83.2646 17.3818 83.4613 17.2268C83.658 17.0717 83.9397 17.1059 84.0917 17.3066C84.3621 17.6577 84.5789 18.0543 84.7309 18.4807C84.8785 18.8933 84.9656 19.3379 84.9791 19.8007C84.9902 20.1632 84.9589 20.5143 84.8874 20.8494C84.8136 21.1959 84.6974 21.5288 84.5454 21.8411C84.4359 22.0691 84.1654 22.1626 83.9419 22.0509C83.7184 21.9392 83.6267 21.6633 83.7385 21.4353C83.857 21.1914 83.9464 20.9315 84.0067 20.6556C84.0626 20.3866 84.0894 20.1107 84.0805 19.8303C84.0693 19.4678 84 19.119 83.8838 18.793C83.7631 18.4556 83.5932 18.1455 83.3808 17.8697H83.3831Z" fill="white"/>
<path d="M81.098 16.4033C80.8544 16.3485 80.7002 16.1046 80.7538 15.8561C80.8075 15.6076 81.0466 15.4503 81.2903 15.505C81.5675 15.5666 81.8357 15.6555 82.0905 15.7695C82.3476 15.8857 82.5934 16.0271 82.8237 16.1935C83.0271 16.3394 83.074 16.6267 82.9287 16.8319C82.7857 17.0393 82.504 17.0872 82.3006 16.939C82.124 16.8113 81.9318 16.6996 81.7262 16.6084C81.5272 16.5195 81.3171 16.4489 81.098 16.401V16.4033Z" fill="white"/>
<path fill-rule="evenodd" clip-rule="evenodd" d="M82.8265 19.2142L81.5144 18.4414L80.1867 17.6594C79.9743 17.5112 79.6748 17.6662 79.6905 17.9672V19.5129V21.0769C79.6704 21.3368 79.952 21.526 80.2001 21.3596L81.5122 20.5867L82.8399 19.8047C83.0724 19.6907 83.0903 19.3487 82.8243 19.212L82.8265 19.2142Z" fill="#00FF6C"/>
<path d="M73.1967 14.6934H73.1945C72.9204 14.6934 72.6982 14.92 72.6982 15.1995V20.7486C72.6982 21.0281 72.9204 21.2547 73.1945 21.2547H73.1967C73.4708 21.2547 73.6929 21.0281 73.6929 20.7486V15.1995C73.6929 14.92 73.4708 14.6934 73.1967 14.6934Z" fill="white"/>
<path d="M73.1674 23.1651C73.5069 23.1651 73.7821 22.5639 73.7821 21.8223C73.7821 21.0807 73.5069 20.4795 73.1674 20.4795C72.8279 20.4795 72.5527 21.0807 72.5527 21.8223C72.5527 22.5639 72.8279 23.1651 73.1674 23.1651Z" fill="#010313"/>
<path fill-rule="evenodd" clip-rule="evenodd" d="M23.6856 24.3281C26.1712 24.3281 27.8812 26.2956 27.5034 28.7236C27.1257 31.1516 24.801 33.1191 22.3154 33.1191C19.8298 33.1191 18.1198 31.1516 18.4976 28.7236C18.8754 26.2956 21.2 24.3281 23.6856 24.3281ZM23.2721 26.1725C24.5954 26.1725 25.5454 27.3147 25.3956 28.7236C25.2458 30.1325 24.05 31.2747 22.7267 31.2747C21.4034 31.2747 20.4534 30.1325 20.6054 28.7236C20.7552 27.3147 21.9511 26.1725 23.2743 26.1725H23.2721Z" fill="#F1009A"/>
<path fill-rule="evenodd" clip-rule="evenodd" d="M37.3166 29.9661C36.5075 31.7991 34.5494 33.1191 32.5041 33.1191C30.0185 33.1191 28.3085 31.1516 28.6863 28.7236C29.0641 26.2956 31.3887 24.3281 33.8743 24.3281C35.8972 24.3281 37.406 25.6322 37.6944 27.4241C37.6966 27.4446 35.401 27.4674 35.372 27.3831C35.1037 26.6239 34.3236 26.1702 33.4608 26.1702C32.1375 26.1702 30.9417 27.3124 30.7919 28.7213C30.6422 30.1303 31.5921 31.2725 32.9132 31.2725C33.8632 31.2725 34.6634 30.7983 35.1417 29.9433C35.1551 29.9205 35.1909 29.8863 35.249 29.8863L37.2093 29.9114C37.2831 29.9114 37.3189 29.9433 37.3122 29.9616L37.3166 29.9661ZM9.69111 24.3851L14.792 24.3669L14.8031 24.3714C16.1756 24.392 17.0652 25.0964 17.4899 26.038C17.6732 26.4438 17.7604 26.8884 17.7559 27.3375C17.7514 27.7821 17.6598 28.2289 17.481 28.6393C17.1502 29.403 16.531 30.0619 15.6414 30.3924L16.7925 33.1031L14.8791 33.0918L13.7235 30.6113C12.93 30.6067 12.1365 30.5999 11.3452 30.5999C11.0993 30.5931 10.9116 30.625 10.8087 30.7116C10.7305 30.7777 10.6769 30.9145 10.6545 31.1357V31.1539L10.4287 33.1259L8.50195 33.1373L8.80818 30.9396H8.81042C8.88642 30.1895 9.17476 29.6401 9.62405 29.2617C10.1024 28.8558 10.7149 28.6894 11.4011 28.7122L14.4343 28.7259C15.134 28.6963 15.5877 28.3269 15.7822 27.8755C15.8604 27.6931 15.9029 27.5039 15.9029 27.3215C15.9051 27.1437 15.8716 26.9727 15.8045 26.82C15.6637 26.5076 15.3307 26.2705 14.792 26.2591V26.2614H9.46535L9.68887 24.3828L9.69111 24.3851ZM49.0405 24.474H64.969L62.7047 26.5737H48.7477L49.0405 24.474ZM58.8757 27.8618H61.0282L60.1319 33.0553H57.9793L58.8757 27.8618ZM54.812 31.1813L54.5281 33.1009H47.724C47.8804 32.0476 48.0682 30.5931 48.3901 29.4212C48.7343 28.1719 49.9659 27.7615 50.8913 27.7182H54.6555L54.3806 29.5763H50.6164L50.3795 31.1835H54.8097L54.812 31.1813ZM41.8855 29.786L40.6203 30.9442L40.2582 33.1009H38.1258L39.572 24.474H41.7044L41.1031 28.0602L45.0059 24.474H47.6614L43.5373 28.295L46.3985 33.1031H43.8525L41.8855 29.7883V29.786Z" fill="#F1009A"/>
<path fill-rule="evenodd" clip-rule="evenodd" d="M24.5707 23.7306C27.0563 23.7306 28.7662 25.6981 28.3885 28.1261C28.0107 30.5541 25.6861 32.5216 23.2005 32.5216C20.7149 32.5216 19.0049 30.5541 19.3849 28.1261C19.7626 25.6981 22.0851 23.7306 24.5729 23.7306H24.5707ZM24.1594 25.575C25.4827 25.575 26.4326 26.7172 26.2829 28.1261C26.1309 29.535 24.9373 30.6772 23.614 30.6772C22.2907 30.6772 21.3407 29.535 21.4905 28.1261C21.6403 26.7172 22.8361 25.575 24.1594 25.575Z" fill="#01FE6D"/>
<path fill-rule="evenodd" clip-rule="evenodd" d="M38.2014 29.3686C37.3922 31.2016 35.4341 32.5216 33.3889 32.5216C30.9033 32.5216 29.1933 30.5541 29.5711 28.1261C29.9488 25.6981 32.2735 23.7306 34.7591 23.7306C36.782 23.7306 38.2908 25.0346 38.5791 26.8289C38.5836 26.8494 36.2858 26.8722 36.2567 26.7878C35.9885 26.0286 35.2084 25.575 34.3456 25.575C33.0223 25.575 31.8264 26.7172 31.6767 28.1261C31.5247 29.535 32.4769 30.6772 33.7979 30.6772C34.7479 30.6772 35.5481 30.203 36.0265 29.3481C36.0399 29.3253 36.0757 29.2911 36.1338 29.2911L38.0941 29.3162C38.1679 29.3162 38.2036 29.3481 38.1969 29.3663L38.2014 29.3686ZM10.5759 23.7853L15.6767 23.7671L15.6879 23.7716C17.0581 23.7921 17.95 24.4966 18.3747 25.4359C18.558 25.8417 18.6451 26.2863 18.6407 26.7354C18.6362 27.18 18.5446 27.6268 18.3657 28.0372C18.0349 28.7986 17.4158 29.4598 16.5261 29.7904L17.6773 32.5011L15.7639 32.4897L14.6083 30.0092C13.8148 30.0047 13.0212 29.9978 12.23 29.9978C11.9841 29.991 11.7963 30.0229 11.6935 30.1095C11.6153 30.1756 11.5616 30.3124 11.5393 30.5336V30.5518L11.3135 32.5216L9.38672 32.533L9.69295 30.3352H9.69518C9.77118 29.5852 10.0595 29.0357 10.5088 28.6573C10.9872 28.2515 11.5996 28.085 12.2858 28.1078L15.3191 28.1215C16.0187 28.0919 16.4725 27.7226 16.6669 27.2712C16.7452 27.0888 16.7876 26.8995 16.7899 26.7172C16.7921 26.5393 16.7586 26.3683 16.6915 26.2179C16.5507 25.9033 16.2177 25.6684 15.679 25.657V25.6593H10.3523L10.5781 23.7807L10.5759 23.7853ZM49.9253 23.8742H65.8537L63.5894 25.9739H49.6325L49.9253 23.8742ZM59.7604 27.262H61.913L61.0166 32.4555H58.8641L59.7604 27.262ZM55.6967 30.5837L55.4128 32.5033H48.6087C48.7652 31.4501 48.953 29.9955 49.2748 28.8237C49.6191 27.5744 50.8507 27.164 51.7761 27.1207H55.5403L55.2653 28.9787H51.5012L51.2642 30.586H55.6945L55.6967 30.5837ZM42.7702 29.1885L41.5051 30.3466L41.143 32.5033H39.0105L40.4568 23.8765H42.5892L41.9879 27.4627L45.8907 23.8765H48.5461L44.4221 27.6975L47.2832 32.5033H44.7373L42.7702 29.1885Z" fill="#01FE6D"/>
</g>
<defs>
<linearGradient id="paint0_linear_2818_46044" x1="69.5246" y1="26.4849" x2="67.0444" y2="29.7414" gradientUnits="userSpaceOnUse">
<stop stop-color="#E04EBC"/>
<stop offset="1" stop-color="#830877"/>
</linearGradient>
<clipPath id="clip0_2818_46044">
<rect width="77.564" height="21.0101" fill="white" transform="translate(8.50098 12.125)"/>
</clipPath>
</defs>
</svg>
