<svg width="92" height="106" viewBox="0 0 92 106" fill="none" xmlns="http://www.w3.org/2000/svg">
<path fill-rule="evenodd" clip-rule="evenodd" d="M89.3053 5.38983C90.7936 5.38983 92.0002 4.18328 92.0002 2.69492C92.0002 1.20655 90.7936 0 89.3053 0C87.8169 0 86.6103 1.20655 86.6103 2.69492C86.6103 4.18328 87.8169 5.38983 89.3053 5.38983ZM92.0002 17.0678C92.0002 18.5562 90.7936 19.7627 89.3053 19.7627C87.8169 19.7627 86.6103 18.5562 86.6103 17.0678C86.6103 15.5794 87.8169 14.3729 89.3053 14.3729C90.7936 14.3729 92.0002 15.5794 92.0002 17.0678ZM89.3053 34.1356C90.7936 34.1356 92.0002 32.929 92.0002 31.4407C92.0002 29.9523 90.7936 28.7458 89.3053 28.7458C87.8169 28.7458 86.6103 29.9523 86.6103 31.4407C86.6103 32.929 87.8169 34.1356 89.3053 34.1356ZM92.0002 45.8136C92.0002 47.3019 90.7936 48.5085 89.3053 48.5085C87.8169 48.5085 86.6103 47.3019 86.6103 45.8136C86.6103 44.3252 87.8169 43.1186 89.3053 43.1186C90.7936 43.1186 92.0002 44.3252 92.0002 45.8136ZM89.3053 62.8814C90.7936 62.8814 92.0002 61.6748 92.0002 60.1864C92.0002 58.6981 90.7936 57.4915 89.3053 57.4915C87.8169 57.4915 86.6103 58.6981 86.6103 60.1864C86.6103 61.6748 87.8169 62.8814 89.3053 62.8814ZM92.0002 74.5593C92.0002 76.0477 90.7936 77.2542 89.3053 77.2542C87.8169 77.2542 86.6103 76.0477 86.6103 74.5593C86.6103 73.071 87.8169 71.8644 89.3053 71.8644C90.7936 71.8644 92.0002 73.071 92.0002 74.5593ZM89.3053 91.6271C90.7936 91.6271 92.0002 90.4206 92.0002 88.9322C92.0002 87.4438 90.7936 86.2373 89.3053 86.2373C87.8169 86.2373 86.6103 87.4438 86.6103 88.9322C86.6103 90.4206 87.8169 91.6271 89.3053 91.6271ZM5.76288 103.305C5.76288 104.793 4.55632 106 3.06796 106C1.5796 106 0.373047 104.793 0.373047 103.305C0.373047 101.817 1.5796 100.61 3.06796 100.61C4.55632 100.61 5.76288 101.817 5.76288 103.305ZM17.4408 106C18.9292 106 20.1358 104.793 20.1358 103.305C20.1358 101.817 18.9292 100.61 17.4408 100.61C15.9525 100.61 14.7459 101.817 14.7459 103.305C14.7459 104.793 15.9525 106 17.4408 106ZM34.5086 103.305C34.5086 104.793 33.3021 106 31.8137 106C30.3254 106 29.1188 104.793 29.1188 103.305C29.1188 101.817 30.3254 100.61 31.8137 100.61C33.3021 100.61 34.5086 101.817 34.5086 103.305ZM46.1866 106C47.675 106 48.8815 104.793 48.8815 103.305C48.8815 101.817 47.675 100.61 46.1866 100.61C44.6982 100.61 43.4917 101.817 43.4917 103.305C43.4917 104.793 44.6982 106 46.1866 106ZM63.2544 103.305C63.2544 104.793 62.0478 106 60.5595 106C59.0711 106 57.8646 104.793 57.8646 103.305C57.8646 101.817 59.0711 100.61 60.5595 100.61C62.0478 100.61 63.2544 101.817 63.2544 103.305ZM74.9324 106C76.4207 106 77.6273 104.793 77.6273 103.305C77.6273 101.817 76.4207 100.61 74.9324 100.61C73.444 100.61 72.2375 101.817 72.2375 103.305C72.2375 104.793 73.444 106 74.9324 106ZM89.3053 106C90.7936 106 92.0002 104.793 92.0002 103.305C92.0002 101.817 90.7936 100.61 89.3053 100.61C87.8169 100.61 86.6103 101.817 86.6103 103.305C86.6103 104.793 87.8169 106 89.3053 106ZM77.6273 88.9322C77.6273 90.4206 76.4207 91.6271 74.9324 91.6271C73.444 91.6271 72.2375 90.4206 72.2375 88.9322C72.2375 87.4438 73.444 86.2373 74.9324 86.2373C76.4207 86.2373 77.6273 87.4438 77.6273 88.9322ZM60.5595 91.6271C62.0478 91.6271 63.2544 90.4206 63.2544 88.9322C63.2544 87.4438 62.0478 86.2373 60.5595 86.2373C59.0711 86.2373 57.8646 87.4438 57.8646 88.9322C57.8646 90.4206 59.0711 91.6271 60.5595 91.6271ZM48.8815 88.9322C48.8815 90.4206 47.675 91.6271 46.1866 91.6271C44.6982 91.6271 43.4917 90.4206 43.4917 88.9322C43.4917 87.4438 44.6982 86.2373 46.1866 86.2373C47.675 86.2373 48.8815 87.4438 48.8815 88.9322ZM31.8137 91.6271C33.3021 91.6271 34.5086 90.4206 34.5086 88.9322C34.5086 87.4438 33.3021 86.2373 31.8137 86.2373C30.3254 86.2373 29.1188 87.4438 29.1188 88.9322C29.1188 90.4206 30.3254 91.6271 31.8137 91.6271ZM20.1358 88.9322C20.1358 90.4206 18.9292 91.6271 17.4408 91.6271C15.9525 91.6271 14.7459 90.4206 14.7459 88.9322C14.7459 87.4438 15.9525 86.2373 17.4408 86.2373C18.9292 86.2373 20.1358 87.4438 20.1358 88.9322ZM3.06796 91.6271C4.55632 91.6271 5.76288 90.4206 5.76288 88.9322C5.76288 87.4438 4.55632 86.2373 3.06796 86.2373C1.5796 86.2373 0.373047 87.4438 0.373047 88.9322C0.373047 90.4206 1.5796 91.6271 3.06796 91.6271ZM74.9324 77.2542C76.4207 77.2542 77.6273 76.0477 77.6273 74.5593C77.6273 73.071 76.4207 71.8644 74.9324 71.8644C73.444 71.8644 72.2375 73.071 72.2375 74.5593C72.2375 76.0477 73.444 77.2542 74.9324 77.2542ZM63.2544 74.5593C63.2544 76.0477 62.0478 77.2542 60.5595 77.2542C59.0711 77.2542 57.8646 76.0477 57.8646 74.5593C57.8646 73.071 59.0711 71.8644 60.5595 71.8644C62.0478 71.8644 63.2544 73.071 63.2544 74.5593ZM46.1866 77.2542C47.675 77.2542 48.8815 76.0477 48.8815 74.5593C48.8815 73.071 47.675 71.8644 46.1866 71.8644C44.6982 71.8644 43.4917 73.071 43.4917 74.5593C43.4917 76.0477 44.6982 77.2542 46.1866 77.2542ZM34.5086 74.5593C34.5086 76.0477 33.3021 77.2542 31.8137 77.2542C30.3254 77.2542 29.1188 76.0477 29.1188 74.5593C29.1188 73.071 30.3254 71.8644 31.8137 71.8644C33.3021 71.8644 34.5086 73.071 34.5086 74.5593ZM17.4408 77.2542C18.9292 77.2542 20.1358 76.0477 20.1358 74.5593C20.1358 73.071 18.9292 71.8644 17.4408 71.8644C15.9525 71.8644 14.7459 73.071 14.7459 74.5593C14.7459 76.0477 15.9525 77.2542 17.4408 77.2542ZM5.76288 74.5593C5.76288 76.0477 4.55632 77.2542 3.06796 77.2542C1.5796 77.2542 0.373047 76.0477 0.373047 74.5593C0.373047 73.071 1.5796 71.8644 3.06796 71.8644C4.55632 71.8644 5.76288 73.071 5.76288 74.5593ZM77.6273 60.1864C77.6273 61.6748 76.4207 62.8814 74.9324 62.8814C73.444 62.8814 72.2375 61.6748 72.2375 60.1864C72.2375 58.6981 73.444 57.4915 74.9324 57.4915C76.4207 57.4915 77.6273 58.6981 77.6273 60.1864ZM60.5595 62.8814C62.0478 62.8814 63.2544 61.6748 63.2544 60.1864C63.2544 58.6981 62.0478 57.4915 60.5595 57.4915C59.0711 57.4915 57.8646 58.6981 57.8646 60.1864C57.8646 61.6748 59.0711 62.8814 60.5595 62.8814ZM48.8815 60.1864C48.8815 61.6748 47.675 62.8814 46.1866 62.8814C44.6982 62.8814 43.4917 61.6748 43.4917 60.1864C43.4917 58.6981 44.6982 57.4915 46.1866 57.4915C47.675 57.4915 48.8815 58.6981 48.8815 60.1864ZM31.8137 62.8814C33.3021 62.8814 34.5086 61.6748 34.5086 60.1864C34.5086 58.6981 33.3021 57.4915 31.8137 57.4915C30.3254 57.4915 29.1188 58.6981 29.1188 60.1864C29.1188 61.6748 30.3254 62.8814 31.8137 62.8814ZM20.1358 60.1864C20.1358 61.6748 18.9292 62.8814 17.4408 62.8814C15.9525 62.8814 14.7459 61.6748 14.7459 60.1864C14.7459 58.6981 15.9525 57.4915 17.4408 57.4915C18.9292 57.4915 20.1358 58.6981 20.1358 60.1864ZM3.06796 62.8814C4.55632 62.8814 5.76288 61.6748 5.76288 60.1864C5.76288 58.6981 4.55632 57.4915 3.06796 57.4915C1.5796 57.4915 0.373047 58.6981 0.373047 60.1864C0.373047 61.6748 1.5796 62.8814 3.06796 62.8814ZM74.9324 48.5085C76.4207 48.5085 77.6273 47.3019 77.6273 45.8136C77.6273 44.3252 76.4207 43.1186 74.9324 43.1186C73.444 43.1186 72.2375 44.3252 72.2375 45.8136C72.2375 47.3019 73.444 48.5085 74.9324 48.5085ZM63.2544 45.8136C63.2544 47.3019 62.0478 48.5085 60.5595 48.5085C59.0711 48.5085 57.8646 47.3019 57.8646 45.8136C57.8646 44.3252 59.0711 43.1186 60.5595 43.1186C62.0478 43.1186 63.2544 44.3252 63.2544 45.8136ZM46.1866 48.5085C47.675 48.5085 48.8815 47.3019 48.8815 45.8136C48.8815 44.3252 47.675 43.1186 46.1866 43.1186C44.6982 43.1186 43.4917 44.3252 43.4917 45.8136C43.4917 47.3019 44.6982 48.5085 46.1866 48.5085ZM34.5086 45.8136C34.5086 47.3019 33.3021 48.5085 31.8137 48.5085C30.3254 48.5085 29.1188 47.3019 29.1188 45.8136C29.1188 44.3252 30.3254 43.1186 31.8137 43.1186C33.3021 43.1186 34.5086 44.3252 34.5086 45.8136ZM17.4408 48.5085C18.9292 48.5085 20.1358 47.3019 20.1358 45.8136C20.1358 44.3252 18.9292 43.1186 17.4408 43.1186C15.9525 43.1186 14.7459 44.3252 14.7459 45.8136C14.7459 47.3019 15.9525 48.5085 17.4408 48.5085ZM5.76288 45.8136C5.76288 47.3019 4.55632 48.5085 3.06796 48.5085C1.5796 48.5085 0.373047 47.3019 0.373047 45.8136C0.373047 44.3252 1.5796 43.1186 3.06796 43.1186C4.55632 43.1186 5.76288 44.3252 5.76288 45.8136ZM77.6273 31.4407C77.6273 32.929 76.4207 34.1356 74.9324 34.1356C73.444 34.1356 72.2375 32.929 72.2375 31.4407C72.2375 29.9523 73.444 28.7458 74.9324 28.7458C76.4207 28.7458 77.6273 29.9523 77.6273 31.4407ZM60.5595 34.1356C62.0478 34.1356 63.2544 32.929 63.2544 31.4407C63.2544 29.9523 62.0478 28.7458 60.5595 28.7458C59.0711 28.7458 57.8646 29.9523 57.8646 31.4407C57.8646 32.929 59.0711 34.1356 60.5595 34.1356ZM48.8815 31.4407C48.8815 32.929 47.675 34.1356 46.1866 34.1356C44.6982 34.1356 43.4917 32.929 43.4917 31.4407C43.4917 29.9523 44.6982 28.7458 46.1866 28.7458C47.675 28.7458 48.8815 29.9523 48.8815 31.4407ZM31.8137 34.1356C33.3021 34.1356 34.5086 32.929 34.5086 31.4407C34.5086 29.9523 33.3021 28.7458 31.8137 28.7458C30.3254 28.7458 29.1188 29.9523 29.1188 31.4407C29.1188 32.929 30.3254 34.1356 31.8137 34.1356ZM20.1358 31.4407C20.1358 32.929 18.9292 34.1356 17.4408 34.1356C15.9525 34.1356 14.7459 32.929 14.7459 31.4407C14.7459 29.9523 15.9525 28.7458 17.4408 28.7458C18.9292 28.7458 20.1358 29.9523 20.1358 31.4407ZM3.06796 34.1356C4.55632 34.1356 5.76288 32.929 5.76288 31.4407C5.76288 29.9523 4.55632 28.7458 3.06796 28.7458C1.5796 28.7458 0.373047 29.9523 0.373047 31.4407C0.373047 32.929 1.5796 34.1356 3.06796 34.1356ZM74.9324 19.7627C76.4207 19.7627 77.6273 18.5562 77.6273 17.0678C77.6273 15.5794 76.4207 14.3729 74.9324 14.3729C73.444 14.3729 72.2375 15.5794 72.2375 17.0678C72.2375 18.5562 73.444 19.7627 74.9324 19.7627ZM63.2544 17.0678C63.2544 18.5562 62.0478 19.7627 60.5595 19.7627C59.0711 19.7627 57.8646 18.5562 57.8646 17.0678C57.8646 15.5794 59.0711 14.3729 60.5595 14.3729C62.0478 14.3729 63.2544 15.5794 63.2544 17.0678ZM46.1866 19.7627C47.675 19.7627 48.8815 18.5562 48.8815 17.0678C48.8815 15.5794 47.675 14.3729 46.1866 14.3729C44.6982 14.3729 43.4917 15.5794 43.4917 17.0678C43.4917 18.5562 44.6982 19.7627 46.1866 19.7627ZM34.5086 17.0678C34.5086 18.5562 33.3021 19.7627 31.8137 19.7627C30.3254 19.7627 29.1188 18.5562 29.1188 17.0678C29.1188 15.5794 30.3254 14.3729 31.8137 14.3729C33.3021 14.3729 34.5086 15.5794 34.5086 17.0678ZM17.4408 19.7627C18.9292 19.7627 20.1358 18.5562 20.1358 17.0678C20.1358 15.5794 18.9292 14.3729 17.4408 14.3729C15.9525 14.3729 14.7459 15.5794 14.7459 17.0678C14.7459 18.5562 15.9525 19.7627 17.4408 19.7627ZM5.76288 17.0678C5.76288 18.5562 4.55632 19.7627 3.06796 19.7627C1.5796 19.7627 0.373047 18.5562 0.373047 17.0678C0.373047 15.5794 1.5796 14.3729 3.06796 14.3729C4.55632 14.3729 5.76288 15.5794 5.76288 17.0678ZM77.6273 2.69492C77.6273 4.18328 76.4207 5.38983 74.9324 5.38983C73.444 5.38983 72.2375 4.18328 72.2375 2.69492C72.2375 1.20655 73.444 0 74.9324 0C76.4207 0 77.6273 1.20655 77.6273 2.69492ZM60.5595 5.38983C62.0478 5.38983 63.2544 4.18328 63.2544 2.69492C63.2544 1.20655 62.0478 0 60.5595 0C59.0711 0 57.8646 1.20655 57.8646 2.69492C57.8646 4.18328 59.0711 5.38983 60.5595 5.38983ZM48.8815 2.69492C48.8815 4.18328 47.675 5.38983 46.1866 5.38983C44.6982 5.38983 43.4917 4.18328 43.4917 2.69492C43.4917 1.20655 44.6982 0 46.1866 0C47.675 0 48.8815 1.20655 48.8815 2.69492ZM31.8137 5.38983C33.3021 5.38983 34.5086 4.18328 34.5086 2.69492C34.5086 1.20655 33.3021 0 31.8137 0C30.3254 0 29.1188 1.20655 29.1188 2.69492C29.1188 4.18328 30.3254 5.38983 31.8137 5.38983ZM20.1358 2.69492C20.1358 4.18328 18.9292 5.38983 17.4408 5.38983C15.9525 5.38983 14.7459 4.18328 14.7459 2.69492C14.7459 1.20655 15.9525 0 17.4408 0C18.9292 0 20.1358 1.20655 20.1358 2.69492ZM3.06796 5.38983C4.55632 5.38983 5.76288 4.18328 5.76288 2.69492C5.76288 1.20655 4.55632 0 3.06796 0C1.5796 0 0.373047 1.20655 0.373047 2.69492C0.373047 4.18328 1.5796 5.38983 3.06796 5.38983Z" fill="url(#paint0_linear_3206_25270)"/>
<defs>
<linearGradient id="paint0_linear_3206_25270" x1="92.0002" y1="0.141287" x2="0.617305" y2="0.141287" gradientUnits="userSpaceOnUse">
<stop stop-color="white"/>
<stop offset="1" stop-color="white" stop-opacity="0.01"/>
</linearGradient>
</defs>
</svg>
