<svg width="72" height="73" viewBox="0 0 72 73" fill="none" xmlns="http://www.w3.org/2000/svg">
<path d="M63.1387 53.6206C61.2889 53.6206 59.3207 52.6914 57.5118 50.9147C57.1719 50.5813 57.1676 50.0371 57.501 49.6972C57.8344 49.3574 58.3786 49.3531 58.7185 49.6865C60.7167 51.6482 62.7666 52.3408 64.4917 51.6374C66.3975 50.8609 67.617 48.5099 67.6794 45.5028C67.688 45.0339 68.073 44.6597 68.5398 44.6597C68.5463 44.6597 68.5527 44.6597 68.557 44.6597C69.0324 44.6683 69.4088 45.0619 69.4002 45.5373C69.3249 49.2434 67.6923 52.1902 65.1413 53.2313C64.4981 53.4915 63.827 53.6206 63.1387 53.6206Z" fill="#133441"/>
<path d="M68.8047 46.9941C68.5703 46.9941 68.3423 46.9596 68.1229 46.8908C67.5851 46.7187 66.3462 46.0734 66.4752 43.7848C66.5785 41.9414 66.3419 41.223 66.3139 41.1413C66.0278 40.5476 66.2537 39.827 66.8387 39.5044C67.4431 39.1731 68.2024 39.3947 68.5337 39.9991C68.6369 40.1884 68.908 40.8057 68.9811 42.1909C69.4307 42.1329 69.8178 42.1307 70.1577 42.1845C70.9191 42.3049 71.3278 42.6921 71.5365 42.9975C71.9946 43.6665 71.9494 44.5441 71.4095 45.4023C71.0718 45.9422 70.59 46.3939 70.0566 46.6736C69.6501 46.8844 69.2198 46.9941 68.8047 46.9941ZM66.344 41.195C66.344 41.1972 66.3462 41.1972 66.3462 41.1993C66.344 41.1972 66.344 41.1972 66.344 41.195ZM66.3419 41.1929C66.3419 41.1929 66.344 41.195 66.3419 41.1929C66.344 41.195 66.3419 41.1929 66.3419 41.1929Z" fill="#133441"/>
<path d="M9.03698 57.4206C5.4126 57.4206 1.43545 56.0074 0.402985 53.1466C-0.244457 51.3549 0.0394627 48.4209 5.07273 44.6266C5.4513 44.3405 5.99122 44.4158 6.2773 44.7965C6.56338 45.1751 6.48809 45.715 6.10736 46.0011C2.83359 48.4683 1.38383 50.7999 2.02052 52.5637C2.72604 54.5168 5.98261 55.8568 9.60054 55.6869C10.0759 55.6654 10.4781 56.0311 10.4997 56.5064C10.5212 56.9818 10.1555 57.384 9.68012 57.4055C9.46933 57.4163 9.25208 57.4206 9.03698 57.4206Z" fill="#133441"/>
<path d="M10.8154 59.228C10.553 59.228 10.2928 59.1915 10.0432 59.1119C8.93765 58.7591 8.32462 57.7288 8.40206 56.3522C8.501 54.5733 9.51841 53.9797 10.3659 54.0141C10.8628 54.0335 11.3424 54.2679 11.7188 54.625C12.4502 54.7927 13.0395 55.1778 13.388 55.7435C13.7924 56.3952 13.801 57.1846 13.4138 57.802C12.8632 58.6839 11.8178 59.228 10.8154 59.228Z" fill="#133441"/>
<path d="M40.0061 72.3659C39.9867 72.3659 39.9674 72.3659 39.948 72.3637C38.4897 72.2669 37.7433 71.7098 37.6637 71.6474C37.4249 71.4603 37.3023 71.1613 37.341 70.8602L38.6531 60.7399C38.7134 60.2688 39.1436 59.9376 39.6168 59.9978C40.0878 60.058 40.4212 60.4904 40.3589 60.9614L39.1242 70.4752C39.3414 70.5483 39.6512 70.6214 40.0599 70.6494C40.5331 70.6817 40.8923 71.0903 40.8622 71.5657C40.8342 72.0174 40.4556 72.3659 40.0061 72.3659Z" fill="#133441"/>
<path d="M20.3968 72.4257C19.9903 72.4257 19.6289 72.1353 19.5515 71.7202C19.4654 71.2534 19.7752 70.8039 20.2419 70.7178C20.7001 70.6339 21.4293 70.4554 21.8078 70.2941C22.2617 69.367 23.4125 64.7747 24.3094 60.6663C24.4105 60.2017 24.8687 59.9071 25.3333 60.0081C25.7979 60.1092 26.0925 60.5674 25.9915 61.032C25.985 61.0557 25.4516 63.5078 24.8428 65.9728C23.5308 71.2921 23.1974 71.4879 22.8123 71.7116C22.1391 72.1052 20.8141 72.3612 20.556 72.4085C20.5 72.4214 20.4484 72.4257 20.3968 72.4257Z" fill="#133441"/>
<path d="M65.655 31.19C65.7475 26.1051 62.5684 25.8362 62.2866 19.0843C61.9425 10.7966 56.1348 8.83063 53.6913 6.12041C50.7251 2.82942 47.4062 2.86598 46.2167 2.32609C44.412 1.50442 44.5196 0.280516 40.2779 0.824711C37.2149 1.21619 35.7458 -0.289486 30.8437 0.050367C25.5416 0.418183 21.9301 1.73243 19.3532 3.40373C17.1248 4.58676 14.791 6.32044 12.7713 8.38107C9.55342 11.913 5.94409 10.8934 3.04028 18.5057C1.07645 23.6551 4.21686 25.0984 2.02072 32.0826C-0.676594 40.6542 4.52016 44.7949 6.01294 48.4558C7.82621 52.9019 11.2226 54.0827 12.2357 55.0722C13.7736 56.5736 13.2122 57.7803 17.7357 58.7869C21.0009 59.514 21.9452 61.5896 27.0666 63.0458C42.5579 67.4489 47.3051 59.4709 51.1511 57.3522C55.5283 54.941 58.3718 51.7812 60.2539 47.2276C62.1683 42.603 64.2375 41.007 64.2827 37.3267C65.042 35.9501 65.6013 34.126 65.655 31.19Z" fill="#E89740"/>
<path d="M64.2971 30.8042C64.3852 25.9903 61.3438 25.7343 61.0749 19.3416C60.7458 11.4971 55.1877 9.6343 52.8517 7.0682C50.0125 3.95144 46.8376 3.98801 45.6998 3.47608C43.9725 2.69958 44.0779 1.5402 40.019 2.05428C37.0894 2.4264 35.6827 0.998156 30.9914 1.3208C25.9194 1.66926 22.4628 2.91252 19.9978 4.49564C17.8662 5.61629 15.6335 7.25748 13.7019 9.20841C10.6239 12.551 7.16941 11.5852 4.39036 18.7931C2.51041 23.6672 5.51746 25.0353 3.41381 31.6473C0.832647 39.763 5.80354 43.682 7.23394 47.1494C8.96762 51.3588 12.2177 52.4773 13.1878 53.413C14.6591 54.8326 14.1213 55.977 18.4491 56.9299C21.5745 57.6182 22.4757 59.5841 27.3778 60.9608C42.2001 65.1294 46.7408 57.5751 50.4211 55.5704C54.6091 53.2883 57.3301 50.2941 59.1304 45.9857C60.9609 41.6085 62.9419 40.0964 62.985 36.6118C63.7098 35.3104 64.2454 33.5832 64.2971 30.8042Z" fill="#F9B95A"/>
<path d="M23.795 7.41858C23.5218 7.47881 23.2486 7.54118 22.9776 7.60141C22.6464 7.67669 22.2786 7.71972 21.9925 7.91546C21.4397 8.29618 21.1751 8.94362 21.4461 9.58461C21.715 10.2234 22.3603 10.4902 23.0228 10.359C23.5089 10.2622 24.0015 10.0277 24.4704 9.86424C25.1114 9.69431 25.5652 8.95222 25.3566 8.30478C25.1351 7.62507 24.4898 7.26156 23.795 7.41858Z" fill="#E89740"/>
<path d="M44.5784 10.0432C44.4494 9.57211 44.1138 9.12256 43.7654 8.79346C43.4535 8.49663 43.0685 8.36972 42.6447 8.4278C42.5243 8.43425 42.4081 8.46221 42.2984 8.50953C42.221 8.52459 42.1436 8.5461 42.0661 8.58051C41.8295 8.68161 41.5821 8.85799 41.4638 9.09675C41.1649 9.69472 41.1649 10.3744 41.5563 10.9337C41.9156 11.4499 42.5264 11.936 43.1782 11.9468C44.187 11.9597 44.8323 10.9724 44.5784 10.0432Z" fill="#E89740"/>
<path d="M13.9993 20.368C13.9928 20.3271 13.9842 20.2884 13.9756 20.2496C13.9842 19.8883 13.8767 19.5635 13.5562 19.3161C13.2142 19.0516 12.6958 18.9892 12.3172 19.2279C11.8978 19.4947 11.5515 19.8582 11.3063 20.2798C11.1299 20.5099 10.9901 20.768 10.8933 21.0391C10.5706 21.9468 11.0589 23.0223 12.1086 23.0545C13.3325 23.0889 14.4682 21.4779 13.9993 20.368Z" fill="#E89740"/>
<path d="M55.166 23.0496C55.1165 22.9098 55.0563 22.7679 54.9896 22.6345C54.9746 22.6044 54.9595 22.5764 54.9423 22.5485C54.9402 22.5442 54.938 22.542 54.9359 22.5377C54.7659 22.0666 54.2153 21.6967 53.727 21.7182C53.4969 21.7289 53.2753 21.787 53.0731 21.8946C52.7634 22.058 52.5977 22.3592 52.4773 22.6689C52.3568 22.9765 52.3784 23.34 52.4235 23.6627C52.4687 23.9939 52.5504 24.3273 52.7397 24.6112C53.0968 25.1468 53.8001 25.4523 54.411 25.2114C54.8111 25.0845 55.2456 24.7166 55.3101 24.2843C55.3618 23.9401 55.379 23.5917 55.2327 23.2819C55.2133 23.2067 55.194 23.1271 55.166 23.0496Z" fill="#E89740"/>
<path d="M30.5238 35.6849C30.4743 35.5451 30.4141 35.4031 30.3474 35.2697C30.3323 35.2396 30.3173 35.2117 30.3001 35.1837C30.2979 35.1794 30.2958 35.1773 30.2936 35.173C30.1237 34.7019 29.5731 34.3319 29.0848 34.3534C28.8546 34.3642 28.6331 34.4223 28.4309 34.5298C28.1212 34.6933 27.9555 34.9944 27.8351 35.3042C27.7146 35.6118 27.7361 35.9753 27.7792 36.2979C27.8243 36.6292 27.9061 36.9626 28.0953 37.2465C28.4524 37.7821 29.1558 38.0875 29.7666 37.8466C30.1667 37.7197 30.6012 37.3519 30.6658 36.9195C30.7174 36.5754 30.7346 36.2269 30.5883 35.9172C30.5711 35.8398 30.5518 35.7602 30.5238 35.6849Z" fill="#E89740"/>
<path d="M41.2332 20.712C41.087 19.8107 40.3148 19.0385 39.4479 18.7933C39.435 18.789 39.4221 18.7826 39.4092 18.7783C39.179 18.6922 38.9252 18.7073 38.6886 18.7783C38.1917 18.9073 37.7745 19.2988 37.7035 19.8322C37.6841 19.9204 37.6734 20.0108 37.6691 20.1054C37.626 21.0282 38.2606 22.0241 39.1446 22.3317C39.2608 22.3919 39.3834 22.4478 39.5146 22.4994C40.2803 22.7963 41.2934 22.0434 41.2526 21.2261C41.2719 21.0604 41.2633 20.8884 41.2332 20.712Z" fill="#E89740"/>
<path d="M21.2399 37.818C20.5236 38.3837 20.2224 39.4333 20.4311 40.3109C20.4332 40.3238 20.4332 40.3367 20.4354 40.3518C20.472 40.5949 20.6075 40.81 20.786 40.982C21.1409 41.3541 21.6851 41.5284 22.1863 41.3326C22.2723 41.3068 22.3562 41.2724 22.4422 41.2315C23.2704 40.8207 23.8318 39.7818 23.6705 38.859C23.6662 38.7278 23.6554 38.5945 23.636 38.4546C23.5242 37.6416 22.3734 37.121 21.6787 37.5534C21.5259 37.6158 21.3797 37.7061 21.2399 37.818Z" fill="#E89740"/>
<path d="M17.1204 33.304C16.9699 32.8911 16.701 32.5663 16.2622 32.4458C15.8428 32.3296 15.3717 32.4501 15.0663 32.762C15.0146 32.8136 14.9673 32.8695 14.9243 32.9276C14.5221 33.3879 14.3564 34.1193 14.5651 34.6871C14.5866 34.8441 14.6232 34.9969 14.6791 35.1388C14.8512 35.5776 15.1459 35.8981 15.6384 35.9648C16.1117 36.0293 16.5268 35.8056 16.7892 35.4141C16.9935 35.1066 17.1097 34.7452 17.1527 34.3752C17.2452 34.0203 17.243 33.6374 17.1204 33.304Z" fill="#E89740"/>
<path d="M44.3086 39.6608C43.9795 39.1252 43.4504 38.8133 42.633 39.0929C42.6223 39.0972 42.605 39.1058 42.5943 39.1123C42.3555 39.2822 42.1921 39.4951 42.0781 39.7317C41.7769 40.263 41.7597 41.0137 42.0781 41.5257C42.1318 41.6741 42.1964 41.8182 42.2803 41.9451C42.5384 42.3409 42.889 42.5968 43.3859 42.5624C43.8612 42.5302 44.2247 42.229 44.4011 41.7924C44.5409 41.4504 44.5818 41.0739 44.5495 40.7018C44.5732 40.3362 44.4936 39.9619 44.3086 39.6608Z" fill="#E89740"/>
<path d="M11.9673 43.4131C11.8877 43.1744 11.7587 42.9335 11.5845 42.7442C11.5737 42.7334 11.5629 42.7227 11.5522 42.7119C11.5221 42.6818 11.4941 42.6495 11.4619 42.6216C11.4081 42.5764 11.3522 42.5377 11.2962 42.5011C11.2016 42.4344 11.1026 42.3785 10.9865 42.3463C10.9779 42.3441 10.9693 42.3441 10.9628 42.3419C10.7843 42.2903 10.595 42.2817 10.3907 42.3376C10.0293 42.4366 9.71096 42.7377 9.62277 43.1055C9.52812 43.4992 9.54748 43.882 9.7045 44.2542C9.79054 44.4585 9.88303 44.6263 10.0487 44.7876C10.2336 44.9683 10.4595 45.0694 10.6983 45.1059C10.823 45.1382 10.9564 45.149 11.0983 45.1296C11.4898 45.078 11.9071 44.7747 11.9867 44.3639C11.9931 44.3294 11.9975 44.2929 12.0039 44.2585C12.0125 44.2176 12.019 44.1746 12.0233 44.1316C12.0555 43.8928 12.0469 43.6476 11.9673 43.4131Z" fill="#E89740"/>
<path d="M54.0474 40.2065C54.0194 40.1721 53.9957 40.1355 53.9635 40.1032C53.5677 39.7074 52.9246 39.7225 52.5266 40.1032C52.4772 40.1505 52.432 40.2022 52.3847 40.2538C51.6555 40.77 51.2855 41.6799 51.1995 42.5704C51.1135 43.4673 52.1222 44.0761 52.9138 43.8567C53.4128 43.79 53.8581 43.4523 54.0538 42.9748C54.284 42.6801 54.4647 42.3467 54.6066 41.9681C54.7486 41.5895 54.6733 41.211 54.4754 40.9012C54.4173 40.6302 54.2603 40.385 54.0474 40.2065Z" fill="#E89740"/>
<path d="M36.1538 42.3237C36.1259 42.2892 36.1022 42.2527 36.07 42.2204C35.6742 41.8246 35.031 41.8397 34.6331 42.2204C34.5836 42.2677 34.5384 42.3194 34.4911 42.371C33.7619 42.8872 33.392 43.7971 33.3059 44.6876C33.2199 45.5845 34.2287 46.1933 35.0203 45.9739C35.5193 45.9072 35.9645 45.5695 36.1603 45.092C36.3904 44.7973 36.5711 44.4639 36.7131 44.0853C36.8551 43.7067 36.7798 43.3282 36.5819 43.0184C36.5238 42.7474 36.3668 42.5022 36.1538 42.3237Z" fill="#E89740"/>
<path d="M58.8565 33.5843C59.0458 33.3778 59.2006 33.0939 59.1791 32.8035C59.1705 32.6745 59.1512 32.5454 59.1167 32.4207C59.0716 32.184 58.9683 31.9711 58.8135 31.8076C58.7446 31.7065 58.6586 31.6162 58.551 31.5581C58.3596 31.457 58.123 31.4226 57.9057 31.4678C57.7423 31.4785 57.5788 31.5194 57.4411 31.6076C57.3659 31.6657 57.2884 31.7259 57.2131 31.784C57.0733 31.9259 56.9765 32.0916 56.9228 32.283C56.8496 32.4594 56.8475 32.6809 56.8819 32.881C56.8776 32.9154 56.8733 32.9476 56.869 32.9821C56.8625 33.1262 56.8927 33.2617 56.9593 33.3886C57.0454 33.5908 57.1916 33.7865 57.3895 33.8919C57.8068 34.1135 58.2908 34.0575 58.6435 33.7457C58.7231 33.7005 58.7963 33.6489 58.8565 33.5843Z" fill="#E89740"/>
<path d="M46.8976 32.504C46.9084 32.3663 46.8482 32.1835 46.7793 32.0652C46.6847 31.9017 46.5363 31.7834 46.3642 31.7103C46.2158 31.6479 46.0738 31.6285 45.9146 31.6501C45.7425 31.6737 45.5296 31.7468 45.4156 31.8888C45.3382 31.9878 45.2607 32.0889 45.179 32.1856C45.1554 32.205 45.1295 32.2244 45.108 32.248C44.9897 32.3771 44.9101 32.5147 44.8521 32.6761C44.8435 32.6954 44.837 32.7148 44.8306 32.7341C44.8306 32.7363 44.8284 32.7406 44.8284 32.7427C44.8004 32.8309 44.7875 32.9234 44.7918 33.0181C44.8026 33.2504 44.8693 33.459 45.0134 33.644C45.3145 34.0333 45.9103 34.1904 46.3448 33.9107C46.5018 33.8096 46.661 33.6827 46.7492 33.5149C46.846 33.3321 46.8718 33.1643 46.8955 32.9557C46.9041 32.874 46.8955 32.7922 46.8761 32.7126C46.8847 32.646 46.8912 32.575 46.8976 32.504Z" fill="#E89740"/>
<path d="M28.4899 17.7583C28.6017 17.655 28.6813 17.5303 28.7287 17.3883C28.8254 17.1603 28.8663 16.8807 28.7867 16.6376C28.7243 16.4483 28.6254 16.2762 28.4899 16.13C28.3114 15.9364 27.9414 15.7686 27.6747 15.7923C27.3047 15.8267 26.9412 15.8676 26.5777 15.9407C26.3217 15.9923 26.0206 16.2332 25.9001 16.4612C25.7797 16.6914 25.7302 16.9258 25.7646 17.184C25.8334 17.6937 26.3174 18.225 26.8788 18.1669C26.9906 18.1648 27.1025 18.1562 27.2144 18.1454C27.2982 18.1669 27.3864 18.1777 27.4768 18.1777C27.7822 18.2164 28.0016 18.0465 28.2576 17.9346C28.335 17.8787 28.4125 17.8185 28.4899 17.7583Z" fill="#E89740"/>
<path d="M19.0707 50.295C18.6448 50.2175 18.2447 50.3143 17.9694 50.6714C17.8532 50.8219 17.7887 50.979 17.7629 51.1683C17.7285 51.4199 17.7866 51.6028 17.8877 51.8372C18.0769 52.276 18.5351 52.7385 19.0061 52.8546C19.5052 52.9751 20.0107 52.7514 20.2322 52.3233C20.3226 52.1921 20.3763 52.0544 20.3978 51.8931C20.4301 51.6479 20.3742 51.4672 20.2774 51.2392C20.0752 50.7725 19.5633 50.3831 19.0707 50.295Z" fill="#E89740"/>
<path d="M45.057 48.7716C45.1388 48.7222 45.2119 48.6641 45.2743 48.5974C45.3345 48.5372 45.3819 48.4705 45.4249 48.4038C45.4292 48.3995 45.4313 48.3952 45.4335 48.3909C45.4292 48.3952 45.427 48.3995 45.4249 48.4038C45.4464 48.3694 45.4636 48.3328 45.4808 48.2963C45.5453 48.2145 45.5991 48.1242 45.6378 48.0317C45.7217 47.8317 45.7561 47.5907 45.6894 47.3778C45.5561 46.9648 45.1754 46.6271 44.7215 46.64C44.3881 46.6508 44.0526 46.7755 43.8267 47.0293C43.6288 47.253 43.4976 47.5112 43.4933 47.8187C43.489 48.0898 43.5965 48.335 43.7643 48.5393C43.7837 48.5716 43.803 48.6038 43.8267 48.634C44.0741 48.9545 44.4806 49.0254 44.842 48.8663C44.9151 48.8426 44.9882 48.8146 45.057 48.7716ZM45.5733 48.036C45.569 48.0468 45.5647 48.0553 45.5604 48.0661C45.5819 47.9779 45.5991 47.8876 45.6056 47.7908C45.597 47.8725 45.5862 47.9543 45.5733 48.036Z" fill="#E89740"/>
<path d="M28.7923 54.1174C28.7901 54.1174 28.7859 54.1174 28.7837 54.1153C28.7471 54.0916 28.7127 54.0658 28.674 54.0486C28.403 53.9174 28.0954 53.9561 27.9061 54.2013C27.762 54.3885 27.7383 54.6659 27.8631 54.8703C27.8717 55.0165 27.9255 55.1585 28.0158 55.2768C28.2223 55.5435 28.5708 55.636 28.8805 55.5048C29.1494 55.3908 29.3343 55.1262 29.3343 54.8294C29.3343 54.5175 29.1063 54.1863 28.7923 54.1174Z" fill="#E89740"/>
<path d="M8.92217 31.3538C8.57157 31.2054 8.1715 31.3387 7.97146 31.6657C7.76927 31.9948 7.65955 32.4013 7.68537 32.7885C7.70688 33.1305 7.88111 33.423 8.20591 33.5607C8.5135 33.6898 8.89208 33.6295 9.12868 33.3865C9.45778 33.0488 9.55242 32.5046 9.39325 32.0572C9.3954 31.7582 9.19105 31.4678 8.92217 31.3538ZM9.09642 32.8208C9.09642 32.8208 9.09426 32.8208 9.09642 32.8208V32.8208Z" fill="#E89740"/>
<path d="M24.7485 22.5359C24.4366 22.295 24.0709 22.3466 23.7719 22.566C23.3632 22.6821 23.0277 23.0844 22.7975 23.4092C22.6276 23.6501 22.6168 24.0996 22.7975 24.3384C22.8793 24.4481 22.9502 24.5449 23.0599 24.6288C23.1675 24.7126 23.2836 24.76 23.4105 24.8073C23.5977 24.8783 23.8343 24.8352 24.0085 24.7621C24.1655 24.6954 24.314 24.5857 24.4108 24.4395C24.4903 24.3857 24.5635 24.3255 24.6258 24.2523C24.8065 24.0372 24.9485 23.7684 24.9722 23.4844C25.1184 23.151 25.0453 22.766 24.7485 22.5359ZM23.6472 22.6434C23.6493 22.6434 23.6536 22.6413 23.6558 22.6413C23.6235 22.6628 23.5912 22.6864 23.5611 22.7122C23.5891 22.6886 23.6171 22.6649 23.6472 22.6434Z" fill="#E89740"/>
<path d="M39.7409 55.3121C39.515 55.1895 39.3042 55.1508 39.0526 55.2067C38.9945 55.2196 38.9364 55.2368 38.8783 55.2519C38.6632 55.2433 38.4395 55.2734 38.2352 55.3401C37.833 55.4691 37.5727 55.8434 37.6286 56.2671C37.6889 56.7167 38.0352 56.9469 38.4589 57.0006C38.7127 57.0329 38.988 56.9834 39.2354 56.9232C39.3752 56.8888 39.5086 56.8393 39.6376 56.7791C39.8871 56.6608 40.0141 56.4564 40.1023 56.2069C40.2184 55.8886 40.0313 55.4713 39.7409 55.3121Z" fill="#E89740"/>
<path d="M48.3218 16.7518C48.1433 16.554 47.797 16.4141 47.5324 16.4249C47.2807 16.4357 47.057 16.5088 46.857 16.6637C46.672 16.8056 46.5107 17.01 46.4569 17.2423C46.3945 17.5154 46.3945 17.866 46.5688 18.1027C46.5946 18.1371 46.6225 18.1736 46.6483 18.208C46.7107 18.3264 46.7989 18.4188 46.9043 18.4941C46.9065 18.4963 46.9086 18.4984 46.9108 18.5006C46.9796 18.5673 47.0463 18.6339 47.1151 18.7006C47.4958 19.0727 48.096 19.1072 48.5132 18.7845C48.6896 18.649 48.8445 18.4533 48.8961 18.2317C48.9564 17.9693 48.9542 17.638 48.7886 17.41C48.6445 17.1885 48.5025 16.9519 48.3218 16.7518Z" fill="#E89740"/>
<path d="M56.1686 15.2549C55.6911 15.2549 55.2351 15.6743 55.2566 16.1669C55.2781 16.6616 55.6567 17.0789 56.1686 17.0789C56.6461 17.0789 57.1021 16.6595 57.0806 16.1669C57.0591 15.6743 56.6784 15.2549 56.1686 15.2549Z" fill="#E89740"/>
<path d="M51.1598 9.11914C50.2134 9.11914 50.2113 10.5904 51.1598 10.5904C52.1063 10.5904 52.1084 9.11914 51.1598 9.11914Z" fill="#E89740"/>
<path d="M37.117 6.24834C38.2914 6.24834 38.2936 4.42432 37.117 4.42432C35.9426 4.42432 35.9404 6.24834 37.117 6.24834Z" fill="#E89740"/>
<path d="M31.4027 10.6499C30.1142 10.6499 30.1121 12.6503 31.4027 12.6503C32.689 12.6503 32.6933 10.6499 31.4027 10.6499Z" fill="#E89740"/>
<path d="M16.1602 13.7208C17.3539 13.7208 17.3561 11.8667 16.1602 11.8667C14.9685 11.8667 14.9664 13.7208 16.1602 13.7208Z" fill="#E89740"/>
<path d="M7.18576 26.0576C6.3899 26.0576 6.3899 27.2944 7.18576 27.2944C7.98162 27.2944 7.98162 26.0576 7.18576 26.0576Z" fill="#E89740"/>
<path d="M17.5756 23.3896C16.5711 23.3896 16.5711 24.9491 17.5756 24.9491C18.5801 24.9491 18.5823 23.3896 17.5756 23.3896Z" fill="#E89740"/>
<path d="M59.3634 38.5347C58.531 38.5347 58.5288 39.8296 59.3634 39.8296C60.1958 39.8296 60.198 38.5347 59.3634 38.5347Z" fill="#E89740"/>
<path d="M52.7084 49.731C51.7233 49.731 51.7211 51.2603 52.7084 51.2603C53.6936 51.2603 53.6936 49.731 52.7084 49.731Z" fill="#E89740"/>
<path d="M34.7328 50.2002C33.7477 50.2002 33.7455 51.7295 34.7328 51.7295C35.718 51.7317 35.7201 50.2002 34.7328 50.2002Z" fill="#E89740"/>
<path d="M45.757 54.5205C44.6578 54.5205 44.6578 56.2284 45.757 56.2284C46.8561 56.2284 46.8583 54.5205 45.757 54.5205Z" fill="#E89740"/>
<path d="M59.8085 25.6216C58.918 25.6216 58.918 27.0047 59.8085 27.0047C60.699 27.0047 60.699 25.6216 59.8085 25.6216Z" fill="#E89740"/>
<path d="M36.4399 27.6934C35.4547 27.6934 35.4526 29.2227 36.4399 29.2227C37.425 29.2249 37.425 27.6934 36.4399 27.6934Z" fill="#E89740"/>
<path d="M36.2035 36.1709C35.2184 36.1709 35.2162 37.7002 36.2035 37.7002C37.1887 37.7002 37.1908 36.1709 36.2035 36.1709Z" fill="#E89740"/>
<path d="M28.9719 27.5176C27.8555 27.5176 27.8534 29.2534 28.9719 29.2534C30.0882 29.2534 30.0904 27.5176 28.9719 27.5176Z" fill="#E89740"/>
<path d="M26.384 45.0962C25.2676 45.0962 25.2655 46.832 26.384 46.832C27.5003 46.832 27.5025 45.0962 26.384 45.0962Z" fill="#E89740"/>
<path d="M23.7207 56.7827C22.8689 56.7827 22.8668 58.1077 23.7207 58.1077C24.5725 58.1077 24.5746 56.7827 23.7207 56.7827Z" fill="#E89740"/>
<path d="M34.5171 59.3838C33.4954 59.3838 33.4932 60.9734 34.5171 60.9734C35.5388 60.9734 35.541 59.3838 34.5171 59.3838Z" fill="#E89740"/>
<path d="M12.7026 49.6621C12.1067 49.6621 12.1046 50.5892 12.7026 50.5892C13.2984 50.5892 13.2984 49.6621 12.7026 49.6621Z" fill="#E89740"/>
<path d="M13.6638 45.7891C12.9389 45.7891 12.9389 46.914 13.6638 46.914C14.3865 46.9162 14.3887 45.7891 13.6638 45.7891Z" fill="#E89740"/>
<path d="M11.4459 38.2036C10.949 38.2036 10.949 38.9758 11.4459 38.9758C11.9428 38.9758 11.9449 38.2036 11.4459 38.2036Z" fill="#E89740"/>
<path d="M51.695 31.5484C52.3188 31.5484 52.321 30.5762 51.695 30.5762C51.0691 30.5783 51.0691 31.5484 51.695 31.5484Z" fill="#E89740"/>
<path d="M47.7719 24.9976C47.0341 24.9976 47.032 26.1462 47.7719 26.1462C48.5097 26.144 48.5097 24.9976 47.7719 24.9976Z" fill="#E89740"/>
<path d="M10.5705 16.1541C11.1813 16.1541 11.1813 15.2056 10.5705 15.2056C9.95959 15.2056 9.95959 16.1541 10.5705 16.1541Z" fill="#E89740"/>
<path d="M6.49046 19.2217C5.79354 19.2217 5.79354 20.3036 6.49046 20.3036C7.18737 20.3036 7.18737 19.2217 6.49046 19.2217Z" fill="#E89740"/>
<path d="M30.6612 4.67676C30.2353 4.67676 30.2353 5.33925 30.6612 5.33925C31.0871 5.33925 31.0871 4.67676 30.6612 4.67676Z" fill="#E89740"/>
<path d="M26.5792 4.74429C27.246 4.74429 27.2482 3.70752 26.5792 3.70752C25.9124 3.70537 25.9124 4.74429 26.5792 4.74429Z" fill="#E89740"/>
<path d="M48.0843 7.86975C48.7382 7.86975 48.7382 6.85449 48.0843 6.85449C47.4326 6.85449 47.4304 7.86975 48.0843 7.86975Z" fill="#E89740"/>
<path d="M50.1239 13.4673C49.5001 13.4673 49.498 14.4395 50.1239 14.4395C50.7498 14.4374 50.7498 13.4673 50.1239 13.4673Z" fill="#E89740"/>
<path d="M39.1369 16.1081C39.8897 16.1081 39.8919 14.938 39.1369 14.938C38.3841 14.938 38.3841 16.1081 39.1369 16.1081Z" fill="#E89740"/>
<path d="M32.074 17.3281C31.1641 17.3281 31.1641 18.7413 32.074 18.7413C32.9839 18.7413 32.986 17.3281 32.074 17.3281Z" fill="#E89740"/>
<path d="M32.8584 21.3325C32.0496 21.3325 32.0474 22.5908 32.8584 22.5908C33.6693 22.5908 33.6693 21.3325 32.8584 21.3325Z" fill="#E89740"/>
<path d="M20.929 18.0928C20.473 18.0928 20.0815 18.5595 20.2257 19.0155C20.2343 19.0392 20.2407 19.0629 20.2493 19.0887C20.3418 19.3748 20.6128 19.62 20.929 19.6049C21.2495 19.5898 21.5098 19.3941 21.6087 19.0887C21.6173 19.065 21.6238 19.0413 21.6324 19.0155C21.7787 18.5595 21.3872 18.0928 20.929 18.0928Z" fill="#E89740"/>
<path d="M21.0868 29.8701C20.562 29.8701 20.5598 30.6875 21.0868 30.6875C21.6138 30.6853 21.6138 29.8701 21.0868 29.8701Z" fill="#E89740"/>
<path d="M12.4363 26.9639C12.3244 27.0865 12.2706 27.2586 12.3158 27.422C12.3696 27.6156 12.5632 27.7726 12.7696 27.7683C12.8105 27.7662 12.8535 27.7662 12.8944 27.764C13.0837 27.7576 13.23 27.6113 13.2364 27.422C13.2386 27.3812 13.2386 27.3381 13.2407 27.2973C13.2515 26.8972 12.7116 26.6649 12.4363 26.9639Z" fill="#E89740"/>
<path d="M21.5617 8.89249C21.2692 9.20223 21.0735 9.63243 21.0218 10.0712C20.8691 10.5401 20.8691 11.0155 21.1401 11.4758C21.4155 11.9469 22.0285 12.3792 22.6028 12.3147C22.7598 12.2975 22.9362 12.2717 23.1233 12.2351C23.304 12.2265 23.4825 12.1878 23.6568 12.1189C25.4163 11.6801 27.6834 10.5745 26.8703 8.64943C25.9132 6.38876 22.8071 7.56964 21.5617 8.89249Z" fill="#693903"/>
<path d="M54.0871 14.5878C53.9882 14.4179 53.8526 14.2458 53.7171 14.1039C53.5644 13.9447 53.4031 13.835 53.2332 13.7532C53.031 13.5683 52.803 13.4026 52.5664 13.2822C51.9383 12.966 51.2564 12.8993 50.624 13.2564C50.0712 13.5683 49.6109 14.2351 49.6432 14.8933C49.6819 15.687 49.925 16.3387 50.439 16.9453C50.8004 17.3712 51.3833 17.7304 51.9318 17.8465C52.3685 17.939 52.7621 17.9369 53.1815 17.7691C53.5623 17.6185 53.9279 17.354 54.128 16.984C54.2592 16.741 54.3345 16.4893 54.3646 16.2376C54.4183 15.9774 54.4184 15.7106 54.328 15.474C54.3259 15.4697 54.3259 15.4676 54.3237 15.4654C54.3044 15.1621 54.2549 14.8718 54.0871 14.5878Z" fill="#693903"/>
<path d="M10.7721 20.0071C9.87513 20.4825 9.31156 21.6547 9.51375 22.67C9.51375 23.1776 9.70735 23.6465 10.1397 23.9821C10.4193 24.1972 10.8001 24.3262 11.1743 24.3305C11.4712 24.3521 11.7723 24.3004 12.0454 24.1843C12.6735 23.9197 13.0629 23.3497 13.1317 22.7281C13.2973 22.3517 13.3834 21.9387 13.3683 21.4999C13.3231 20.162 11.9465 19.3855 10.7721 20.0071Z" fill="#693903"/>
<path d="M39.6876 17.34C39.3133 17.3744 38.9412 17.439 38.6121 17.6304C38.212 17.8649 37.9195 18.2262 37.7409 18.6478C37.5882 19.0113 37.543 19.3619 37.5947 19.7513C37.6527 20.1836 37.8334 20.6826 38.1797 20.973C38.511 21.2526 38.8315 21.472 39.21 21.5925C39.3735 21.6742 39.5413 21.7452 39.7155 21.8011C40.3242 21.9904 40.8555 21.9345 41.4707 21.8528C41.8256 21.7538 42.1354 21.5731 42.3956 21.3129C42.6559 21.0505 42.8344 20.7429 42.9355 20.388C43.1227 19.7061 42.9506 18.8263 42.3956 18.3488C41.6514 17.7057 40.6985 17.2497 39.6876 17.34Z" fill="#693903"/>
<path d="M44.6445 6.74197C44.9306 6.06226 44.808 5.18681 44.2509 4.66413C43.9605 4.39095 43.6572 4.17371 43.2679 4.0597C43.1604 4.02744 43.0485 4.00593 42.941 3.97797C42.8313 3.95 42.7237 3.91989 42.614 3.89623C42.1236 3.78868 41.6934 3.82955 41.2568 4.03174C41.2525 4.03389 41.2482 4.03604 41.2417 4.03819C41.1901 4.06185 41.1406 4.08767 41.089 4.11563C41.0911 4.11993 41.0911 4.12208 41.0933 4.12638C40.8933 4.24899 40.7147 4.40601 40.5684 4.59315C40.362 4.85987 40.248 5.13734 40.2028 5.47074C40.1447 5.90954 40.2372 6.24939 40.4222 6.65378C40.7018 7.2625 41.2998 7.46899 41.8676 7.70775C42.2032 7.84756 42.528 7.95512 42.9044 7.91425C43.2399 7.87768 43.5669 7.8282 43.8637 7.65398C44.223 7.44103 44.4854 7.11839 44.6445 6.74197Z" fill="#693903"/>
<path d="M27.3523 21.5955C27.3781 21.4772 27.3975 21.3202 27.3975 21.2148C27.3953 20.8792 27.3243 20.6577 27.1802 20.363C26.9307 19.8532 26.3693 19.5349 25.81 19.5327C25.3712 19.5306 24.9604 19.7285 24.6464 20.0232C24.5345 20.1286 24.4334 20.2813 24.356 20.4361C24.313 20.4899 24.2721 20.5415 24.2377 20.6039C24.0484 20.9631 23.9882 21.3503 24.0871 21.7482C24.1194 21.8751 24.1904 22.0343 24.2527 22.1505C24.3732 22.3785 24.6034 22.5764 24.8228 22.7119C24.8378 22.7205 25.111 22.8452 25.24 22.8861C25.3153 22.9033 25.3928 22.9162 25.4702 22.9184C25.5476 22.9291 25.6251 22.9399 25.7003 22.9485C26.5027 22.9678 27.2426 22.3871 27.3523 21.5955Z" fill="#693903"/>
<path d="M22.5716 10.227C22.5738 10.2227 22.5824 10.2055 22.5953 10.1797C22.6125 10.1474 22.6297 10.1173 22.6512 10.0872C22.6985 10.0162 22.6534 10.0743 22.7093 10.0162C22.7738 9.94739 22.8792 9.86995 22.9437 9.84414C23.1825 9.75165 23.3481 9.52365 23.275 9.25908C23.204 8.99881 22.9416 8.87405 22.6899 8.92783C22.2769 9.01386 21.9349 9.28704 21.7607 9.6484C21.5972 9.90007 21.4746 10.2141 21.6273 10.4765C21.7392 10.6701 21.9629 10.7648 22.1801 10.7002C22.4275 10.6271 22.4899 10.4357 22.5716 10.227Z" fill="#C26507"/>
<path d="M42.8661 4.72246C42.6532 4.5891 42.4058 4.54177 42.1671 4.56973C42.0208 4.55468 41.8745 4.57404 41.7369 4.66008C41.6422 4.71815 41.5648 4.79989 41.5088 4.89023C41.4228 4.99348 41.3949 5.12253 41.4121 5.24944C41.4142 5.30537 41.4185 5.3613 41.4357 5.41507C41.5002 5.63232 41.696 5.77428 41.9154 5.76998C42.1864 5.83451 42.494 5.76137 42.6811 5.55703C42.8382 5.53767 42.9909 5.41722 43.0468 5.27956C43.1328 5.07306 43.0597 4.84291 42.8661 4.72246Z" fill="#C26507"/>
<path d="M11.0868 20.5356C10.9276 20.626 10.7728 20.7378 10.6609 20.8819C10.6545 20.8905 10.648 20.9013 10.6415 20.9099C10.5878 20.9766 10.5405 21.0454 10.5018 21.1142C10.3899 21.31 10.4114 21.596 10.5835 21.7552C10.7427 21.9015 11.033 21.9811 11.2245 21.837C11.4546 21.6649 11.6353 21.4842 11.8052 21.2519C11.9343 21.0712 11.8827 20.7615 11.7235 20.6152C11.5493 20.4582 11.2976 20.4173 11.0868 20.5356Z" fill="#C26507"/>
<path d="M40.2195 18.3099C40.1593 18.1443 40.0108 18.0066 39.7936 17.9915C39.7248 17.9872 39.6559 17.9937 39.5914 18.0088C39.2494 17.97 38.8945 18.0948 38.6643 18.3916C38.5374 18.5529 38.4815 18.753 38.5934 18.9423C38.6923 19.1122 38.9139 19.209 39.1074 19.1509C39.2408 19.1122 39.3742 19.0713 39.5075 19.0305C39.6151 19.0455 39.7269 19.0197 39.8259 18.9358C39.856 18.9272 39.8882 18.9165 39.9183 18.9079C39.9549 18.8971 39.9893 18.8821 40.0195 18.8648C40.2647 18.8605 40.4045 18.497 40.2195 18.3099C40.2195 18.312 40.2195 18.3099 40.2195 18.3099Z" fill="#C26507"/>
<path d="M51.895 13.9489C51.7531 13.7317 51.5337 13.6306 51.2777 13.6822C51.239 13.6908 51.2003 13.7037 51.1637 13.7188C50.8669 13.7209 50.6475 13.9661 50.6475 14.2587C50.6496 14.5598 50.9099 14.7986 51.2046 14.8029C51.2153 14.8029 51.2261 14.8007 51.2369 14.8007C51.3229 14.8158 51.4111 14.8179 51.4907 14.7964C51.7789 14.719 52.0047 14.4609 51.9703 14.1533C51.9617 14.0801 51.9359 14.0156 51.8972 13.9597C51.8972 13.9554 51.895 13.9511 51.895 13.9489Z" fill="#C26507"/>
<path d="M26.1531 20.1946C25.938 20.1214 25.7208 20.2032 25.5702 20.358C25.4928 20.4075 25.4304 20.4807 25.4067 20.5817C25.3594 20.7861 25.4519 20.9926 25.6498 21.0743C25.8326 21.1518 26.0757 21.0872 26.1725 20.9022C26.1789 20.8915 26.1811 20.8786 26.1854 20.8657C26.3015 20.8184 26.3897 20.7001 26.4069 20.5796C26.4306 20.4032 26.323 20.2526 26.1531 20.1946Z" fill="#C26507"/>
<path d="M58.8182 20.8008C58.7236 20.7256 58.5924 20.6352 58.4999 20.5901C58.1987 20.4416 57.9686 20.4051 57.6416 20.4029C57.0738 20.3965 56.5382 20.7535 56.2844 21.2525C56.0844 21.644 56.0758 22.1 56.2005 22.513C56.2457 22.6593 56.3339 22.8206 56.4393 22.9583C56.4672 23.0207 56.4952 23.0809 56.536 23.139C56.7705 23.4681 57.091 23.6982 57.4911 23.7864C57.6201 23.8144 57.7944 23.823 57.9234 23.8208C58.1816 23.8165 58.4612 23.6982 58.6806 23.5648C58.6956 23.5562 58.9279 23.367 59.0226 23.2702C59.0721 23.2099 59.1172 23.1476 59.1559 23.0787C59.199 23.0142 59.2441 22.9497 59.2871 22.8873C59.6614 22.1775 59.4764 21.2547 58.8182 20.8008Z" fill="#693903"/>
<path d="M57.03 21.245C56.8665 21.4041 56.845 21.6364 56.9138 21.8386C56.9224 21.9311 56.959 22.0172 57.0407 22.086C57.2021 22.2193 57.4279 22.2301 57.5914 22.0903C57.7419 21.9612 57.7936 21.716 57.6731 21.5461C57.6667 21.5353 57.6538 21.5289 57.6473 21.5181C57.6581 21.3934 57.5914 21.2622 57.4903 21.1933C57.3397 21.0922 57.1569 21.1202 57.03 21.245Z" fill="#C26507"/>
<path d="M38.3984 47.7485C37.8004 47.0968 36.4905 47.6603 34.4707 47.6603C32.451 47.6603 31.098 47.1097 30.5172 47.7485C30.2634 48.0281 30.1688 48.4153 30.2226 48.8412C30.2333 48.9273 30.2527 49.0154 30.2742 49.1036C30.5796 50.2867 31.9649 50.9298 34.2427 51.0094C34.3137 51.0115 34.3847 51.0158 34.4557 51.0158C34.8622 51.0158 35.2429 50.9771 35.6 50.9105C37.409 50.5684 38.5468 50.1426 38.7512 49.0929C38.7684 49.0025 38.777 48.9144 38.7813 48.8262C38.8006 48.4261 38.678 48.0518 38.3984 47.7485Z" fill="white"/>
<path d="M34.4791 47.9502C38.267 47.9502 39.2285 47.7738 37.925 49.0386C38.3079 48.9547 38.5939 48.8794 38.7832 48.8235C38.8004 48.4256 38.68 48.0513 38.4004 47.748C37.8024 47.0963 36.4924 47.6598 34.4727 47.6598C32.4529 47.6598 31.1 47.1092 30.5192 47.748C30.2654 48.0277 30.1707 48.4148 30.2245 48.8407C30.3815 48.8859 30.5945 48.944 30.8676 49.0042C29.263 47.1931 32.5368 47.9502 34.4791 47.9502Z" fill="#B9B9B9"/>
<path d="M31.0296 49.1934C30.7887 49.174 30.5306 49.1439 30.2725 49.103C30.5779 50.2861 31.9631 50.9292 34.241 51.0088C31.1329 50.656 31.0189 49.5633 31.0296 49.1934Z" fill="#B9B9B9"/>
<path d="M38.7498 49.0894C38.3841 49.1517 38.0077 49.1883 37.6851 49.2098C38.6208 50.2745 37.0591 50.4316 35.5986 50.9069C37.4076 50.5649 38.5455 50.139 38.7498 49.0894Z" fill="#B9B9B9"/>
<path d="M37.923 49.0391C37.6219 49.1036 37.2583 49.1746 36.8281 49.2413C36.8281 49.2413 37.1938 49.2434 37.6842 49.2111C37.6606 49.1853 37.639 49.1574 37.6111 49.1316C37.6111 49.1316 37.7552 49.1208 37.923 49.0391Z" fill="#231F20"/>
<path d="M37.6133 49.1303C37.6391 49.1562 37.6628 49.1841 37.6864 49.2099C38.0091 49.1884 38.3855 49.1519 38.7512 49.0895C38.7684 48.9991 38.777 48.9109 38.7813 48.8228C38.592 48.8787 38.3081 48.9561 37.923 49.0379C37.7574 49.1196 37.6133 49.1303 37.6133 49.1303Z" fill="#231F20"/>
<path d="M31.0309 49.1927C31.6353 49.2443 32.1171 49.24 32.1171 49.24C31.6095 49.1604 31.1943 49.0787 30.8652 49.0034C30.9169 49.0464 30.9706 49.0895 31.0352 49.1239C31.0352 49.1239 31.0309 49.1497 31.0309 49.1927Z" fill="#231F20"/>
<path d="M31.0348 49.1247C30.9702 49.0903 30.9164 49.0473 30.8648 49.0043C30.5938 48.9419 30.3809 48.886 30.2217 48.8408C30.2324 48.9269 30.2518 49.015 30.2733 49.1032C30.5293 49.1441 30.7895 49.1742 31.0304 49.1936C31.0304 49.1506 31.0348 49.1247 31.0348 49.1247Z" fill="#231F20"/>
<path d="M39.1875 47.2334C39.1875 47.2334 39.7145 47.5174 39.6478 48.1756C39.6478 48.1756 40.3705 47.1689 39.1875 47.2334Z" fill="#EAE8E3"/>
<path d="M29.8057 47.2334C29.8057 47.2334 29.2787 47.5174 29.3454 48.1756C29.3454 48.1756 28.6205 47.1689 29.8057 47.2334Z" fill="#EAE8E3"/>
<path d="M65.0857 31.4994C64.8233 31.8543 63.9435 32.3469 63.2939 32.6803C63.3176 32.9491 63.337 34.3838 63.337 34.6764C63.337 39.9806 63.9822 49.4492 50.5172 49.4492C41.268 49.4492 37.2242 42.7963 36.5531 36.2552C36.5294 36.2552 36.5187 36.2552 36.5187 36.2552C36.5187 36.2552 36.153 34.3257 34.4946 34.3257C32.834 34.3257 32.4684 36.2552 32.4684 36.2552C32.4684 36.2552 32.4555 36.2552 32.434 36.2552C31.7629 42.7984 27.719 49.4492 18.4698 49.4492C5.00477 49.4492 5.65007 39.9806 5.65007 34.6764C5.65007 34.386 5.66942 32.9513 5.69308 32.6803C5.04349 32.3469 4.1659 31.8543 3.90348 31.4994C3.4991 30.953 3.37864 29.9571 3.63031 29.8109C4.51866 29.2925 6.78363 28.2234 10.109 27.5222C13.5291 26.7995 21.8361 26.3607 29.2871 28.3912C31.6058 29.0236 37.2865 29.0602 39.7042 28.3912C47.138 26.3327 55.4622 26.7995 58.8823 27.5222C62.2077 28.2256 64.4727 29.2925 65.361 29.8109C65.6105 29.9571 65.4901 30.9509 65.0857 31.4994Z" fill="#00111A"/>
<path d="M30.4939 34.8942C30.4939 30.9751 26.293 29.0371 18.9475 29.0371C11.5998 29.0371 7.70437 30.3169 7.70437 35.2448C7.70437 39.7382 7.15802 47.7613 18.5646 47.7613C27.2029 47.7613 30.4939 40.9169 30.4939 34.8942Z" fill="#353B42"/>
<path d="M61.2837 35.2438C61.2837 30.316 57.3883 29.0361 50.0405 29.0361C42.695 29.0361 38.4941 30.9742 38.4941 34.8932C38.4941 40.9159 41.7851 47.7603 50.4213 47.7603C61.83 47.7603 61.2837 39.7394 61.2837 35.2438Z" fill="#353B42"/>
<path d="M27.8514 37.4879C26.3027 35.0078 23.6721 37.0684 20.3596 39.1376C17.0471 41.2069 14.3046 42.4996 15.8533 44.9797C17.402 47.4598 21.3426 47.7932 24.6572 45.7239C27.9676 43.6547 29.4001 39.9679 27.8514 37.4879Z" fill="#292E33"/>
<path d="M59.671 37.4883C61.2197 39.9684 59.7893 43.6552 56.4746 45.7244C53.1621 47.7937 49.2194 47.4602 47.6707 44.9802C46.122 42.5001 48.8645 41.2074 52.177 39.1381C55.4916 37.0689 58.1223 35.0083 59.671 37.4883Z" fill="#292E33"/>
<path d="M10.6366 31.5316C11.3786 31.5703 11.2474 33.005 11.0151 34.6505C10.7807 36.296 10.5311 37.5285 9.78907 37.4898C9.04698 37.4511 8.63614 36.0852 8.8706 34.4397C9.10505 32.7964 9.89663 31.4929 10.6366 31.5316Z" fill="white"/>
<path d="M10.7923 40.2018C10.8934 40.8621 10.6138 41.4515 10.1685 41.5203C9.72326 41.5891 9.27801 41.1095 9.17692 40.4491C9.07582 39.7888 9.35545 39.1994 9.8007 39.1306C10.246 39.0617 10.6912 39.5436 10.7923 40.2018Z" fill="white"/>
<path d="M42.2391 31.345C42.9812 31.3837 42.85 32.8184 42.6176 34.4639C42.3853 36.1094 42.1337 37.3419 41.3916 37.3032C40.6495 37.2645 40.2387 35.8986 40.4731 34.2531C40.7076 32.6098 41.497 31.3084 42.2391 31.345Z" fill="white"/>
<path d="M41.7766 41.3472C42.2228 41.2788 42.5026 40.6884 42.4015 40.0285C42.3004 39.3685 41.8567 38.889 41.4105 38.9573C40.9643 39.0256 40.6845 39.616 40.7856 40.276C40.8866 40.9359 41.3303 41.4155 41.7766 41.3472Z" fill="white"/>
</svg>
