<svg width="127" height="48" viewBox="0 0 127 48" fill="none" xmlns="http://www.w3.org/2000/svg">
<path d="M19.8304 6.11426C11.8873 6.11426 5.47461 13.669 5.47461 23.0213C5.47461 24.6825 5.68772 26.3436 6.11394 27.9137C6.38517 27.4814 6.63702 27.049 6.86951 26.5711C7.87693 24.8418 8.84561 23.1124 9.81429 21.3375L10.5311 19.9949C10.7636 19.5626 10.9961 19.1075 11.2092 18.6524C11.6742 17.7649 12.1391 16.8547 12.546 15.9672C12.7591 15.5121 12.9722 15.0798 13.2047 14.6019C13.4372 14.1468 13.6309 13.7145 13.844 13.2366C14.0571 12.7588 14.2702 12.3037 14.4446 11.8713L15.0258 10.4833L15.0839 10.3922C15.3939 9.64131 16.1688 9.34549 16.8275 9.68682C17.2925 10.0054 17.5831 10.5743 17.5637 11.2342C17.5637 12.0306 17.4281 12.8725 17.37 13.669C17.3119 14.4654 17.2925 15.3073 17.2344 16.1493C17.1763 17.7877 17.1569 19.4715 17.1569 21.1099C17.1569 22.7483 17.2344 24.3867 17.37 25.9795C17.4475 26.7532 17.5637 27.5269 17.68 28.3005C17.7768 28.9832 17.9706 29.6659 18.2418 30.2802C18.3193 30.4623 18.4355 30.6443 18.5518 30.8036C18.6293 30.8719 18.5712 30.8264 18.6293 30.8264C18.6874 30.8264 18.6486 30.8264 18.6874 30.8264L18.7455 30.8036H18.7649L18.8424 30.7809C18.8618 30.7581 18.9199 30.7126 18.9393 30.6898C19.1524 30.5078 19.3267 30.2802 19.5205 30.0299C19.9467 29.4383 20.3342 28.8467 20.6829 28.2095C21.051 27.5496 21.3997 26.8442 21.729 26.1388C22.4071 24.7052 23.0465 23.2489 23.647 21.7698C23.9376 21.0189 24.2476 20.2907 24.5382 19.517C24.8288 18.7661 25.1194 17.9925 25.3907 17.2643C25.6619 16.4906 26.4175 16.1265 27.0762 16.4223C27.5024 16.6044 27.793 17.0367 27.8705 17.5601C27.8705 17.7421 27.8898 17.9925 27.9286 18.2428L28.0061 18.9482C28.0642 19.4033 28.103 19.8811 28.1998 20.3362C28.3354 21.2692 28.4904 22.2022 28.7035 23.0896C28.9166 23.9771 29.1685 24.8873 29.4979 25.752C29.8078 26.6167 30.2147 27.4131 30.7184 28.164C30.8153 28.3461 30.7959 28.5964 30.6603 28.7101C30.5247 28.8239 30.3503 28.8239 30.2341 28.7101C29.5754 28.0275 28.9941 27.2538 28.4904 26.4119C27.9867 25.5699 27.5605 24.6825 27.173 23.7723C26.9018 23.1579 26.7081 22.5435 26.4562 21.9063C26.3012 22.2704 26.1656 22.6573 26.0106 22.9986C25.3713 24.5232 24.7513 26.025 24.0151 27.5496C23.647 28.3461 23.2789 29.097 22.8527 29.8479C22.4265 30.6216 21.9615 31.3725 21.4578 32.0551C21.1672 32.4647 20.8185 32.8061 20.4891 33.1474C20.3923 33.2384 20.276 33.3294 20.1404 33.3977L19.9079 33.557L19.7723 33.6252H19.7529L19.6754 33.648H19.6173L19.5205 33.6708C19.443 33.6935 19.3848 33.739 19.3074 33.739C19.1524 33.7618 18.9974 33.8073 18.8424 33.83C18.4937 33.8528 18.1256 33.8073 17.8156 33.6708C17.5056 33.5342 17.215 33.3294 16.9438 33.0791C16.5563 32.6695 16.2076 32.1917 15.9751 31.6228C15.607 30.7581 15.3358 29.8251 15.1808 28.8694C15.0258 28.0047 14.9095 27.0945 14.8321 26.2298C14.6771 24.5004 14.6189 22.7938 14.5996 21.0644C14.5996 20.268 14.5996 19.426 14.5996 18.6296C14.3283 19.2212 14.0765 19.8129 13.8053 20.359C13.5921 20.8141 13.379 21.292 13.1465 21.7471L12.4878 23.1351C11.5967 25.001 10.6667 26.8215 9.69805 28.6419C9.09747 29.8251 8.45814 30.9856 7.81881 32.1462C12.1585 39.9512 21.0703 42.1129 27.7155 37.0158C34.3606 31.9186 36.2011 21.4512 31.8614 13.6462C29.1879 8.98141 24.6932 6.11426 19.8304 6.11426Z" fill="url(#paint0_linear_2860_29794)"/>
<path d="M46.6429 29.0748V17.8565H46.4104L43.3494 29.1203H42.5938L39.5328 17.8793H39.3003V29.0976H38.041V16.7188H40.2884L43.0006 26.5717L45.6548 16.7188H47.9215V29.1431H46.6429V29.0748Z" fill="url(#paint1_linear_2860_29794)"/>
<path d="M49.7637 18.3109V16.6953H51.1392V18.3109H49.7637ZM49.783 29.0741V19.517H51.1198V29.0741H49.783Z" fill="url(#paint2_linear_2860_29794)"/>
<path d="M59.2791 25.957C59.2791 27.8229 58.6785 29.2337 56.0437 29.2337C52.7308 29.2337 52.5371 27.0037 52.5371 24.2731C52.5371 21.5425 52.7308 19.3125 56.0437 19.3125C58.6785 19.3125 59.2791 20.7461 59.2791 22.5892H58.0198C58.0198 21.0646 57.5742 20.3365 56.0437 20.3365C53.9901 20.3365 53.8739 21.6335 53.8739 24.2276C53.8739 26.8217 53.9708 28.1187 56.0437 28.1187C57.5742 28.1187 58.0198 27.3678 58.0198 25.866L59.2791 25.957Z" fill="url(#paint3_linear_2860_29794)"/>
<path d="M61.8903 20.5411C62.5296 20.086 63.3433 19.4488 64.0989 19.4261C64.2539 19.4033 64.4089 19.4033 64.5639 19.4033C64.777 19.4033 64.9513 19.4033 65.2032 19.4261L65.1063 20.5638C64.8932 20.5411 64.7188 20.5411 64.5251 20.5411C64.3701 20.5411 64.2151 20.5411 64.0214 20.5638C63.3046 20.5866 62.549 21.2237 61.9872 21.5878V29.1198H60.6504V19.5171H61.6966L61.8903 20.5411Z" fill="url(#paint4_linear_2860_29794)"/>
<path d="M72.7408 24.318C72.7408 27.0487 72.5471 29.2787 69.1761 29.2787C65.8051 29.2787 65.6113 27.0487 65.6113 24.318C65.6113 21.5874 65.8051 19.3574 69.1761 19.3574C72.5471 19.3574 72.7408 21.5874 72.7408 24.318ZM66.9675 24.318C66.9675 26.9121 67.0643 28.2092 69.1761 28.2092C71.2878 28.2092 71.3846 26.9349 71.3846 24.318C71.3846 21.7012 71.2878 20.4269 69.1761 20.4269C67.0643 20.4269 66.9675 21.6784 66.9675 24.318Z" fill="url(#paint5_linear_2860_29794)"/>
<path d="M75.1989 31.3042C75.7026 31.3724 76.3613 31.3952 77.0975 31.3952C79.1511 31.3952 79.4224 30.7353 79.4417 28.2095C78.8411 28.6191 77.9887 29.0742 77.1169 29.0969C74.1333 29.1652 73.959 27.2765 73.959 24.2956C73.959 21.3147 74.114 19.335 76.9813 19.335C77.95 19.335 78.8605 19.8583 79.558 20.3817L79.6936 19.517H80.7398V28.0047C80.7398 31.4407 80.0811 32.4874 77.3881 32.4874C76.5938 32.4874 75.7995 32.3964 75.0439 32.2599L75.1989 31.3042ZM79.4417 21.2691C78.8605 20.8368 78.1243 20.4045 77.4075 20.4045C75.4314 20.4045 75.2958 21.7015 75.2958 24.2956C75.2958 26.8442 75.4314 28.0502 77.4075 28.0502C78.1243 28.0502 78.8799 27.5951 79.4417 27.2537V21.2691Z" fill="url(#paint6_linear_2860_29794)"/>
<path d="M88.0643 29.0742L87.9287 28.2095C87.27 28.7101 86.3982 29.2562 85.4489 29.2562C82.4654 29.3245 82.291 27.3448 82.291 24.2956C82.291 21.2691 82.446 19.335 85.4102 19.335C86.3788 19.335 87.2507 19.8583 87.9094 20.3362L88.045 19.4942H89.0911V29.0514H88.0643V29.0742ZM87.7931 21.2236C87.2313 20.8596 86.4757 20.4272 85.7589 20.4272C83.7828 20.4272 83.6472 21.7243 83.6472 24.3183C83.6472 26.9124 83.7828 28.2095 85.7589 28.2095C86.4757 28.2095 87.2119 27.7544 87.7931 27.3448V21.2236Z" fill="url(#paint7_linear_2860_29794)"/>
<path d="M91.9378 20.3599C92.5384 19.9275 93.3521 19.4041 94.2239 19.3586C95.5994 19.2904 96.2969 19.7227 96.6456 20.4054C97.2849 19.9503 98.118 19.3814 99.0479 19.3586C101.838 19.2676 102.031 20.9287 102.031 23.2498V29.0751H100.695V23.3408C100.695 21.3611 100.598 20.4054 98.7767 20.4054C98.118 20.4054 97.4399 20.8605 96.8781 21.2701C97.0137 21.9527 97.0718 22.6581 97.0331 23.3863V29.1206H95.8706V23.3635C95.8706 21.3838 95.7738 20.4281 93.9527 20.4281C93.3133 20.4281 92.6353 20.8832 92.1122 21.2245V29.0978H90.7754V19.5407H91.8216L91.9378 20.3599Z" fill="url(#paint8_linear_2860_29794)"/>
<path d="M103.678 18.3109V16.6953H105.053V18.3109H103.678ZM103.716 29.0741V19.517H105.053V29.0741H103.716Z" fill="url(#paint9_linear_2860_29794)"/>
<path d="M107.906 20.3593C108.565 19.9269 109.437 19.4036 110.386 19.3581C113.37 19.267 113.544 20.9282 113.544 23.2492V29.0745H112.207V23.3402C112.207 21.3605 112.072 20.4048 110.096 20.4048C109.379 20.4048 108.623 20.8599 108.061 21.2467V29.12H106.725V19.5173H107.771L107.906 20.3593Z" fill="url(#paint10_linear_2860_29794)"/>
<path d="M116.156 31.3042C116.66 31.3724 117.318 31.3952 118.055 31.3952C120.108 31.3952 120.379 30.7353 120.399 28.2095C119.798 28.6191 118.946 29.0742 118.074 29.0969C115.09 29.1652 114.916 27.2765 114.916 24.2956C114.916 21.3147 115.071 19.335 117.938 19.335C118.907 19.335 119.818 19.8583 120.515 20.3817L120.651 19.517H121.697V28.0047C121.697 31.4407 121.038 32.4874 118.345 32.4874C117.551 32.4874 116.757 32.3964 116.001 32.2599L116.156 31.3042ZM120.379 21.2691C119.798 20.8368 119.062 20.4045 118.345 20.4045C116.369 20.4045 116.233 21.7015 116.233 24.2956C116.233 26.8442 116.369 28.0502 118.345 28.0502C119.062 28.0502 119.818 27.5951 120.379 27.2537V21.2691Z" fill="url(#paint11_linear_2860_29794)"/>
<defs>
<linearGradient id="paint0_linear_2860_29794" x1="3.2356" y1="27.6542" x2="120.991" y2="3.50168" gradientUnits="userSpaceOnUse">
<stop stop-color="#21E418"/>
<stop offset="0.3" stop-color="#31B6E9"/>
<stop offset="0.9757" stop-color="#21E418"/>
</linearGradient>
<linearGradient id="paint1_linear_2860_29794" x1="4.494" y1="33.7928" x2="122.249" y2="9.64029" gradientUnits="userSpaceOnUse">
<stop stop-color="#21E418"/>
<stop offset="0.3" stop-color="#31B6E9"/>
<stop offset="0.9757" stop-color="#21E418"/>
</linearGradient>
<linearGradient id="paint2_linear_2860_29794" x1="4.90232" y1="35.7759" x2="122.658" y2="11.6232" gradientUnits="userSpaceOnUse">
<stop stop-color="#21E418"/>
<stop offset="0.3" stop-color="#31B6E9"/>
<stop offset="0.9757" stop-color="#21E418"/>
</linearGradient>
<linearGradient id="paint3_linear_2860_29794" x1="5.48177" y1="38.5858" x2="123.237" y2="14.4333" gradientUnits="userSpaceOnUse">
<stop stop-color="#21E418"/>
<stop offset="0.3" stop-color="#31B6E9"/>
<stop offset="0.9757" stop-color="#21E418"/>
</linearGradient>
<linearGradient id="paint4_linear_2860_29794" x1="5.7737" y1="40.0299" x2="123.529" y2="15.8773" gradientUnits="userSpaceOnUse">
<stop stop-color="#21E418"/>
<stop offset="0.3" stop-color="#31B6E9"/>
<stop offset="0.9757" stop-color="#21E418"/>
</linearGradient>
<linearGradient id="paint5_linear_2860_29794" x1="6.20672" y1="42.1338" x2="123.962" y2="17.9813" gradientUnits="userSpaceOnUse">
<stop stop-color="#21E418"/>
<stop offset="0.3" stop-color="#31B6E9"/>
<stop offset="0.9757" stop-color="#21E418"/>
</linearGradient>
<linearGradient id="paint6_linear_2860_29794" x1="6.96545" y1="45.8461" x2="124.721" y2="21.6933" gradientUnits="userSpaceOnUse">
<stop stop-color="#21E418"/>
<stop offset="0.3" stop-color="#31B6E9"/>
<stop offset="0.9757" stop-color="#21E418"/>
</linearGradient>
<linearGradient id="paint7_linear_2860_29794" x1="7.15873" y1="46.7809" x2="124.914" y2="22.6283" gradientUnits="userSpaceOnUse">
<stop stop-color="#21E418"/>
<stop offset="0.3" stop-color="#31B6E9"/>
<stop offset="0.9757" stop-color="#21E418"/>
</linearGradient>
<linearGradient id="paint8_linear_2860_29794" x1="7.6937" y1="49.3951" x2="125.449" y2="25.2427" gradientUnits="userSpaceOnUse">
<stop stop-color="#21E418"/>
<stop offset="0.3" stop-color="#31B6E9"/>
<stop offset="0.9757" stop-color="#21E418"/>
</linearGradient>
<linearGradient id="paint9_linear_2860_29794" x1="7.85904" y1="50.1988" x2="125.613" y2="26.0467" gradientUnits="userSpaceOnUse">
<stop stop-color="#21E418"/>
<stop offset="0.3" stop-color="#31B6E9"/>
<stop offset="0.9757" stop-color="#21E418"/>
</linearGradient>
<linearGradient id="paint10_linear_2860_29794" x1="8.45233" y1="53.0708" x2="126.207" y2="28.9182" gradientUnits="userSpaceOnUse">
<stop stop-color="#21E418"/>
<stop offset="0.3" stop-color="#31B6E9"/>
<stop offset="0.9757" stop-color="#21E418"/>
</linearGradient>
<linearGradient id="paint11_linear_2860_29794" x1="9.21396" y1="56.8006" x2="126.969" y2="32.6481" gradientUnits="userSpaceOnUse">
<stop stop-color="#21E418"/>
<stop offset="0.3" stop-color="#31B6E9"/>
<stop offset="0.9757" stop-color="#21E418"/>
</linearGradient>
</defs>
</svg>
