<svg width="102" height="48" viewBox="0 0 102 48" fill="none" xmlns="http://www.w3.org/2000/svg">
<g clip-path="url(#clip0_2860_29809)">
<path d="M53.8511 6H52.8125L52.8125 42H53.8511L53.8511 35.0733H66.97V30.8793H56.8761V26.0496H65.5049V21.824H56.8761V17.1523H66.97V12.9267L53.8511 12.9267V6Z" fill="#88BC40"/>
<path d="M13.0147 26.6884L9.28675 20.6542L4.50834 13.1825L4.46095 13.1074H0.5L0.5 35.254H4.89535L4.89535 21.6414L8.1731 26.9451L13.4452 35.254H17.4377L17.4377 13.1074H13.0147L13.0147 26.6884Z" fill="#19161B"/>
<path d="M19.9102 35.255H34.427V31.061H24.3331V26.2313H32.9619V22.0057H24.3331V17.3339H34.427V13.1084L19.9102 13.1084L19.9102 35.255Z" fill="#19161B"/>
<path d="M36.207 17.3655H41.2816V35.255H45.7046V17.3655H50.7476V13.1084L36.207 13.1084V17.3655Z" fill="#19161B"/>
<path d="M81.6905 26.5438L77.9625 20.5136L73.1841 13.0419L73.1367 12.9629H69.1758V35.1094H73.5672V21.4969L76.8449 26.8005L82.1209 35.1094H86.1135V12.9629H81.6905V26.5438Z" fill="#88BC40"/>
<path d="M87.9258 12.9619V17.219H93.0004V35.1085H97.4234V17.219H102.466V12.9619L87.9258 12.9619Z" fill="#88BC40"/>
</g>
<defs>
<clipPath id="clip0_2860_29809">
<rect width="101" height="48" fill="white" transform="translate(0.5)"/>
</clipPath>
</defs>
</svg>
