<svg width="141" height="48" viewBox="0 0 141 48" fill="none" xmlns="http://www.w3.org/2000/svg">
<path d="M127.101 14.8027C126.993 12.9189 126.323 11.014 125.003 9.59592C123.555 8.0085 121.478 7.14071 119.359 6.88672H86.8556C82.0979 7.41586 77.7944 10.5695 75.7183 14.7815V14.8027C55.3685 14.8027 34.997 14.8027 14.6471 14.8027C11.36 14.8027 8.35404 17.3637 7.70526 20.4962C6.99161 23.2689 6.19146 25.9781 5.58594 28.772V30.1689C5.73732 31.206 6.19146 32.2432 6.94836 32.9628C7.9864 33.9576 9.45695 34.3174 10.8843 34.3174C30.607 34.3174 50.3297 34.3174 70.0524 34.3174C70.1605 36.2435 70.8958 38.1061 72.2582 39.503C73.6422 40.9634 75.675 41.81 77.7079 42.0217H109.822C114.688 41.6407 119.143 38.5082 121.392 34.2962L127.101 14.8027Z" fill="#2185C7"/>
<path d="M128.616 12.3893C128.876 12.5587 129.157 12.7068 129.46 12.7915C129.763 12.8762 130.065 12.8973 130.39 12.8762C130.801 12.8338 131.212 12.6857 131.536 12.4317C131.817 12.2412 132.033 11.9872 132.185 11.712C132.423 11.3099 132.531 10.8654 132.509 10.4209C132.509 10.1034 132.401 9.74363 132.25 9.44731C132.12 9.17216 131.925 8.91817 131.687 8.72768C131.385 8.47369 131.039 8.2832 130.649 8.19854C130.39 8.15621 130.152 8.11387 129.892 8.15621C129.503 8.17737 129.157 8.30437 128.833 8.47369C128.508 8.66418 128.206 8.93933 127.989 9.27799C127.795 9.59547 127.665 9.99762 127.643 10.3998C127.622 10.8442 127.73 11.3311 127.946 11.712C128.141 11.9449 128.357 12.1777 128.616 12.3893ZM128.184 10.2728C128.227 9.93412 128.357 9.59547 128.573 9.34148C128.811 9.06633 129.071 8.83351 129.417 8.72768C129.59 8.64302 129.763 8.62185 129.957 8.60068C130.217 8.57952 130.498 8.60068 130.714 8.70651C131.039 8.81234 131.32 9.00283 131.558 9.25682C131.817 9.53198 131.968 9.84946 132.012 10.2093C132.055 10.5268 132.033 10.8866 131.904 11.1829C131.795 11.4369 131.666 11.6485 131.471 11.839C131.298 12.0084 131.082 12.1565 130.866 12.2623C130.563 12.3893 130.217 12.4317 129.849 12.4105C129.438 12.3682 129.071 12.1777 128.79 11.9025C128.53 11.6697 128.357 11.3734 128.249 11.0559C128.162 10.7808 128.141 10.5056 128.184 10.2728ZM129.676 11.6909C129.676 11.3734 129.676 11.0771 129.676 10.7384C129.763 10.7384 129.828 10.7384 129.936 10.7384C129.979 10.7384 130.065 10.7596 130.109 10.7808C130.152 10.8019 130.217 10.8654 130.238 10.9289C130.282 11.0136 130.325 11.0771 130.368 11.1617C130.455 11.3311 130.541 11.5004 130.628 11.6909C130.866 11.6909 131.082 11.6909 131.32 11.6909C131.19 11.4581 131.082 11.2464 130.974 11.0136C130.93 10.8866 130.844 10.7596 130.736 10.6749C130.649 10.5903 130.584 10.5691 130.498 10.5479C130.541 10.5268 130.584 10.5268 130.628 10.5056C130.757 10.4633 130.866 10.3574 130.909 10.2516C130.952 10.1458 130.995 10.0611 130.995 9.95529C130.995 9.84946 130.995 9.7648 130.952 9.65897C130.93 9.57431 130.866 9.51081 130.822 9.46848C130.714 9.36265 130.563 9.32032 130.411 9.27799C130.282 9.25682 130.152 9.25682 130.001 9.25682C129.676 9.25682 129.352 9.25682 129.006 9.25682C129.006 10.0823 129.006 10.9289 129.006 11.7544C129.244 11.6909 129.482 11.6909 129.676 11.6909ZM129.676 9.6378C129.763 9.6378 129.828 9.6378 129.936 9.6378C130.044 9.6378 130.13 9.6378 130.217 9.68014C130.26 9.7013 130.325 9.7648 130.347 9.80713C130.368 9.89179 130.368 9.95529 130.368 9.99762C130.368 10.0823 130.347 10.1458 130.26 10.1669C130.174 10.2093 130.109 10.2516 130.001 10.2516C129.892 10.2516 129.806 10.2516 129.698 10.2516C129.676 10.0611 129.676 9.87063 129.676 9.6378Z" fill="#2185C7"/>
<path d="M121.391 34.2744C123.618 34.1685 125.954 34.5707 128.138 33.8934C130.582 33.0891 132.506 31.036 133.112 28.5596C133.825 25.8504 134.69 23.1836 135.339 20.4532V19.0351C135.101 17.5112 134.193 16.0931 132.787 15.3946C131.036 14.4633 129.003 14.8866 127.1 14.802L121.391 34.2744Z" fill="#2185C7"/>
<path d="M19.4458 26.8878C18.451 26.9725 17.4346 26.909 16.4614 26.909C16.1587 27.8614 15.8559 28.8351 15.5531 29.7664C14.5367 29.7664 13.5203 29.7664 12.5039 29.7664C13.7149 25.893 14.9909 21.9986 16.2235 18.1253C18.2996 18.1464 20.3541 18.1041 22.4301 18.1253C23.5763 18.1464 24.5062 19.2047 24.3548 20.3265C24.1818 21.5541 23.6628 22.6759 23.3384 23.84C22.841 25.5332 21.2191 26.8243 19.4458 26.8878ZM22.6896 29.7875C23.9007 25.9142 25.1766 22.0409 26.3876 18.1676C27.4041 18.1464 28.4205 18.1464 29.4585 18.1676C28.5502 21.0884 27.5987 23.967 26.6688 26.8878C27.6419 26.8878 28.5719 26.8878 29.5234 26.8878C29.8478 25.893 30.1505 24.9194 30.4533 23.9458C31.4697 23.9458 32.4861 23.9458 33.5025 23.9458C32.897 25.893 32.2699 27.8614 31.6211 29.7875C28.6584 29.7875 25.6956 29.7875 22.6896 29.7875ZM44.5749 21.1519C43.6666 24.0305 42.7151 26.909 41.8068 29.7875C40.7904 29.7875 39.774 29.7875 38.7576 29.7875C39.0603 28.8351 39.3631 27.8614 39.6659 26.9302C38.6927 26.9302 37.7628 26.9302 36.8113 26.9302C36.5085 27.8826 36.2057 28.8562 35.903 29.7875C34.8866 29.7875 33.8702 29.7875 32.8538 29.7875C33.762 26.9513 34.6703 24.1151 35.6002 21.2789C36.0976 19.5434 37.8277 18.1252 39.7091 18.1676C40.7904 18.1676 41.9149 18.1253 42.9962 18.2099C44.4019 18.3369 45.1156 19.9455 44.5749 21.1519ZM54.0903 23.9246C53.528 25.5967 51.9061 26.7608 50.1544 26.9302C49.8516 27.8826 49.5488 28.8139 49.2461 29.7664C48.2297 29.7664 47.2133 29.7664 46.1969 29.7664C46.4996 28.8139 46.8024 27.9038 47.1051 26.9513C46.478 26.782 45.7211 26.655 45.3318 26.0624C44.8344 25.3639 44.9209 24.4749 45.1804 23.6918C45.7643 21.8504 46.3699 20.009 46.9538 18.1464C47.9702 18.1253 48.9866 18.1253 50.0246 18.1253C49.3975 20.0725 48.7487 21.9986 48.1432 23.967C49.0731 23.967 50.0462 23.967 50.9978 23.967C51.6249 22.0197 52.2304 20.0513 52.8792 18.1253C53.8956 18.1253 54.912 18.1253 55.9284 18.1253C55.3229 20.0725 54.7174 21.9986 54.0903 23.9246ZM57.572 18.4639C58.8912 18.4639 60.2104 18.4639 61.5511 18.4639C61.1619 19.6068 60.7294 20.7286 60.3617 21.8716C59.0426 21.8716 57.7234 21.8716 56.4042 21.8716C56.7935 20.7286 57.1827 19.5857 57.572 18.4639ZM68.6228 24.8348C68.147 26.4857 67.628 28.1154 67.1522 29.7875C66.1358 29.7875 65.1194 29.7875 64.103 29.7875C64.6004 28.0096 65.1626 26.274 65.6817 24.5173C64.7085 24.5173 63.7786 24.5173 62.8271 24.5173C62.2864 26.2529 61.789 28.0308 61.2484 29.7875C60.232 29.7875 59.2156 29.7875 58.1992 29.7875C58.6965 28.1154 59.1939 26.4222 59.6913 24.7289C60.1671 22.951 61.9188 21.5753 63.8002 21.5964C64.8383 21.5753 65.8763 21.5541 66.9143 21.6176C67.6064 21.6599 68.2768 21.9986 68.5795 22.6124C68.9904 23.2897 68.839 24.1151 68.6228 24.8348Z" fill="white"/>
<path d="M86.4 38.8459C83.7833 38.8882 81.1449 38.8671 78.5498 38.8671C76.8198 38.8882 75.0248 38.1474 74.0517 36.6658C73.0569 35.2054 73.0352 33.3005 73.5759 31.6708C75.0464 27.0567 76.5386 22.4637 78.0092 17.8284C79.2418 13.299 83.8481 9.74316 88.6923 9.97598C93.0607 9.99715 97.4075 9.97598 101.776 9.99715C101.041 12.3889 100.262 14.7594 99.4836 17.1511C94.8989 17.1511 90.271 17.1723 85.6863 17.1511C84.1076 21.9981 82.5506 26.8662 80.9935 31.7131C83.4372 31.7131 85.8377 31.7131 88.2598 31.7131C88.6491 30.4643 89.0383 29.2155 89.4492 27.9879C88.2382 27.9879 86.9839 27.9879 85.7728 27.9879C86.5081 25.6174 87.2866 23.268 88.0219 20.8974C91.5685 20.8974 95.0935 20.8974 98.6402 20.8974C97.4507 24.5591 96.3046 28.2419 95.0935 31.9247C93.8392 35.5441 90.4007 38.6131 86.4 38.8459ZM119.293 30.9088C117.995 35.5229 113.367 39.0576 108.458 38.9094C106.274 38.8882 104.068 38.9517 101.884 38.8671C100.219 38.7824 98.5537 38.0416 97.6238 36.6658C96.5857 35.1631 96.4992 33.237 97.0399 31.5438C98.5537 26.8238 100.067 22.0827 101.581 17.3628C102.663 13.6376 105.993 10.6744 109.821 9.76432C112.135 9.36218 114.492 9.6585 116.827 9.595C118.622 9.55267 120.634 9.51034 122.126 10.7168C123.986 12.0925 124.44 14.6536 123.791 16.749C122.32 21.4478 120.785 26.1677 119.293 30.9088Z" fill="#ED1F24"/>
<path d="M109.345 17.2145C107.831 22.0614 106.274 26.9084 104.739 31.713C106.966 31.713 109.194 31.713 111.421 31.713C112.978 26.8872 114.514 22.0614 116.028 17.2145C113.822 17.2145 111.573 17.1933 109.345 17.2145ZM17.4141 23.9875C18.3872 23.9875 19.3171 23.9875 20.2687 23.9875C20.5714 23.0139 20.8958 22.0403 21.1986 21.0666C20.2254 21.0666 19.2739 21.0666 18.3007 21.0666C17.998 22.0403 17.6952 23.0139 17.4141 23.9875ZM37.7855 23.9875C38.7154 23.9875 39.6886 23.9875 40.6401 23.9875C40.9429 23.0139 41.2673 22.0403 41.57 21.0666C40.6401 21.0666 39.667 21.0666 38.7154 21.0666C38.3911 22.0403 38.0667 23.0139 37.7855 23.9875Z" fill="#2185C7"/>
</svg>
