<svg width="24" height="24" viewBox="0 0 24 24" fill="none" xmlns="http://www.w3.org/2000/svg">
<path fill-rule="evenodd" clip-rule="evenodd" d="M12 24C18.6274 24 24 18.6274 24 12C24 5.37258 18.6274 0 12 0C5.37258 0 0 5.37258 0 12C0 18.6274 5.37258 24 12 24Z" fill="#DFEEFF"/>
<path fill-rule="evenodd" clip-rule="evenodd" d="M17.6467 8.22832C17.2314 8.42669 16.7842 8.56082 16.3158 8.62153C16.7942 8.31233 17.1616 7.82382 17.3344 7.24143C16.8865 7.52733 16.3909 7.73488 15.8626 7.84641C15.4401 7.36144 14.8381 7.05859 14.1716 7.05859C12.8919 7.05859 11.8541 8.17538 11.8541 9.55336C11.8541 9.74961 11.8753 9.93951 11.9145 10.1223C9.98901 10.0186 8.28207 9.02462 7.13923 7.51533C6.93924 7.88383 6.82562 8.31233 6.82562 8.76977C6.82562 9.63525 7.23491 10.3991 7.85616 10.8459C7.4761 10.8332 7.11864 10.721 6.80701 10.5339C6.80701 10.5445 6.80701 10.5551 6.80701 10.5657C6.80701 11.7742 7.605 12.7823 8.66545 13.0117C8.47077 13.0689 8.26679 13.0993 8.05483 13.0993C7.906 13.0993 7.76048 13.0837 7.61896 13.0541C7.91397 14.0452 8.76976 14.7667 9.7837 14.7871C8.99036 15.4557 7.99104 15.8545 6.90535 15.8545C6.71864 15.8545 6.53393 15.8432 6.35254 15.8199C7.37777 16.528 8.59568 16.9409 9.90462 16.9409C14.1663 16.9409 16.4972 13.1395 16.4972 9.84279C16.4972 9.73408 16.4945 9.62748 16.4905 9.52018C16.943 9.16863 17.3364 8.72883 17.6467 8.22903V8.22832Z" fill="#4451FF"/>
</svg>
