<svg width="34" height="28" viewBox="0 0 34 28" fill="none" xmlns="http://www.w3.org/2000/svg">
<path fill-rule="evenodd" clip-rule="evenodd" d="M11.3025 0C6.97229 0 2.51757 4.74448 0.7118 11.2803C-0.215679 14.6387 -0.238041 18.2997 0.651939 21.3249C1.63791 24.6781 3.66728 26.9461 6.36647 27.7096C7.04591 27.9022 7.74565 28 8.44642 28C11.8866 28 14.9371 25.6554 15.8645 22.2994C17.0088 18.1576 14.6109 13.8452 10.5178 12.6862C8.70341 12.1747 6.69983 12.3694 5.02032 13.2105C5.07433 12.9814 5.13041 12.7617 5.18958 12.5469C6.68572 7.13326 9.62057 4.69748 11.2265 4.69748L11.2973 4.69887C11.6059 4.71315 11.9028 4.50251 11.9888 4.1909L12.8802 0.964077C12.9328 0.774673 12.9036 0.57204 12.8 0.405267C12.6961 0.239539 12.5282 0.12534 12.3363 0.09122C11.9978 0.0306388 11.6503 0 11.3025 0ZM30.1873 0.0915002C29.8491 0.030919 29.5013 0.000976562 29.1542 0.000976562C24.823 0.000976562 20.3689 4.74476 18.5621 11.2799C17.6343 14.6386 17.6123 18.3 18.5019 21.3252C19.4882 24.6784 21.5176 26.9464 24.2165 27.7099C24.8963 27.9024 25.596 28.0003 26.2968 28.0003C29.737 28.0003 32.7874 25.6557 33.7149 22.2997C34.8598 18.1579 32.4613 13.8455 28.3688 12.6865C26.5544 12.175 24.5515 12.3696 22.8713 13.2108C22.925 12.9831 22.9811 12.7634 23.0406 12.5472C24.5368 7.13354 27.4719 4.69776 29.0778 4.69776L29.148 4.69915C29.4621 4.71343 29.7535 4.50279 29.8395 4.19117L30.7312 0.964357C30.7835 0.774953 30.7542 0.57232 30.6507 0.405547C30.5471 0.23982 30.3789 0.124924 30.1873 0.0915002Z" fill="#4451FF"/>
</svg>
