<svg width="90" height="31" viewBox="0 0 90 31" fill="none" xmlns="http://www.w3.org/2000/svg">
<rect y="2.5" width="26" height="26" rx="13" fill="#264CF9"/>
<rect y="2.5" width="26" height="26" rx="13" fill="url(#paint0_linear_3134_50781)"/>
<path d="M13.2418 7.65043L15.628 12.4855C15.6672 12.5652 15.743 12.6202 15.8308 12.6329L21.1668 13.4083C21.3879 13.4404 21.4762 13.7121 21.3161 13.8681L17.4552 17.6316C17.3916 17.6935 17.3626 17.7828 17.3776 17.8701L18.2891 23.1844C18.3268 23.4045 18.0957 23.5725 17.898 23.4684L13.1255 20.9592C13.0468 20.918 12.9532 20.918 12.8745 20.9592L8.10203 23.4684C7.9043 23.5722 7.67323 23.4045 7.7109 23.1844L8.62244 17.8701C8.63746 17.7825 8.60845 17.6935 8.54483 17.6316L4.68386 13.8679C4.52379 13.7119 4.6121 13.4404 4.83324 13.408L10.1692 12.6326C10.257 12.6199 10.3328 12.5647 10.372 12.4853L12.7582 7.65017C12.8572 7.4499 13.1428 7.4499 13.2418 7.65043Z" fill="url(#paint1_linear_3134_50781)"/>
<path d="M13.2418 7.65043L15.628 12.4855C15.6672 12.5652 15.743 12.6202 15.8308 12.6329L21.1668 13.4083C21.3879 13.4404 21.4762 13.7121 21.3161 13.8681L17.4552 17.6316C17.3916 17.6935 17.3626 17.7828 17.3776 17.8701L18.2891 23.1844C18.3268 23.4045 18.0957 23.5725 17.898 23.4684L13.1255 20.9592C13.0468 20.918 12.9532 20.918 12.8745 20.9592L8.10203 23.4684C7.9043 23.5722 7.67323 23.4045 7.7109 23.1844L8.62244 17.8701C8.63746 17.7825 8.60845 17.6935 8.54483 17.6316L4.68386 13.8679C4.52379 13.7119 4.6121 13.4404 4.83324 13.408L10.1692 12.6326C10.257 12.6199 10.3328 12.5647 10.372 12.4853L12.7582 7.65017C12.8572 7.4499 13.1428 7.4499 13.2418 7.65043Z" fill="url(#paint2_linear_3134_50781)"/>
<path d="M13.2418 7.65043L15.628 12.4855C15.6672 12.5652 15.743 12.6202 15.8308 12.6329L21.1668 13.4083C21.3879 13.4404 21.4762 13.7121 21.3161 13.8681L17.4552 17.6316C17.3916 17.6935 17.3626 17.7828 17.3776 17.8701L18.2891 23.1844C18.3268 23.4045 18.0957 23.5725 17.898 23.4684L13.1255 20.9592C13.0468 20.918 12.9532 20.918 12.8745 20.9592L8.10203 23.4684C7.9043 23.5722 7.67323 23.4045 7.7109 23.1844L8.62244 17.8701C8.63746 17.7825 8.60845 17.6935 8.54483 17.6316L4.68386 13.8679C4.52379 13.7119 4.6121 13.4404 4.83324 13.408L10.1692 12.6326C10.257 12.6199 10.3328 12.5647 10.372 12.4853L12.7582 7.65017C12.8572 7.4499 13.1428 7.4499 13.2418 7.65043Z" fill="white"/>
<path d="M46.028 25C46.028 24.2 46.028 23.436 46.028 22.708C46.028 21.972 46.028 21.128 46.028 20.176L46.232 19.648V15.016C46.232 14.192 46.232 13.372 46.232 12.556C46.232 11.732 46.232 10.908 46.232 10.084L48.812 9.064C48.388 9.672 47.976 10.264 47.576 10.84C47.176 11.408 46.772 11.976 46.364 12.544L43.724 16.3C43.364 16.804 43.008 17.304 42.656 17.8C42.312 18.296 41.964 18.8 41.612 19.312L41.492 18.508H46.952L47.336 18.364C47.808 18.364 48.332 18.364 48.908 18.364C49.484 18.364 50.052 18.364 50.612 18.364C51.172 18.364 51.668 18.364 52.1 18.364V21.532C51.668 21.532 51.172 21.532 50.612 21.532C50.052 21.532 49.484 21.532 48.908 21.532C48.332 21.532 47.808 21.532 47.336 21.532H38.588V19.06C38.9 18.612 39.248 18.116 39.632 17.572C40.024 17.02 40.416 16.468 40.808 15.916C41.208 15.356 41.576 14.84 41.912 14.368L43.892 11.548C44.26 11.036 44.624 10.528 44.984 10.024C45.344 9.512 45.704 9 46.064 8.488H49.712C49.712 9.48 49.712 10.456 49.712 11.416C49.712 12.368 49.712 13.32 49.712 14.272V20.176C49.712 21.128 49.712 21.972 49.712 22.708C49.712 23.436 49.712 24.2 49.712 25H46.028ZM55.793 25.324C55.329 25.324 54.929 25.228 54.593 25.036C54.265 24.844 54.009 24.584 53.825 24.256C53.649 23.92 53.561 23.548 53.561 23.14C53.561 22.516 53.761 22.004 54.161 21.604C54.561 21.204 55.109 21.004 55.805 21.004C56.269 21.004 56.665 21.096 56.993 21.28C57.329 21.456 57.585 21.708 57.761 22.036C57.945 22.356 58.037 22.724 58.037 23.14C58.037 23.756 57.837 24.276 57.437 24.7C57.045 25.116 56.497 25.324 55.793 25.324ZM66.0764 25.312C64.5964 25.312 63.3764 25.096 62.4164 24.664C61.4644 24.232 60.7564 23.644 60.2924 22.9C59.8364 22.156 59.6084 21.308 59.6084 20.356C59.6084 19.476 59.7764 18.752 60.1124 18.184C60.4484 17.608 60.8684 17.164 61.3724 16.852C61.8844 16.532 62.4004 16.312 62.9204 16.192V15.916C62.4004 15.788 61.9244 15.572 61.4924 15.268C61.0684 14.964 60.7244 14.576 60.4604 14.104C60.1964 13.624 60.0644 13.06 60.0644 12.412C60.0644 11.556 60.3004 10.808 60.7724 10.168C61.2524 9.52 61.9404 9.02 62.8364 8.668C63.7404 8.316 64.8204 8.14 66.0764 8.14C67.3324 8.14 68.4084 8.316 69.3044 8.668C70.2004 9.02 70.8844 9.52 71.3564 10.168C71.8364 10.808 72.0764 11.556 72.0764 12.412C72.0764 13.06 71.9444 13.624 71.6804 14.104C71.4244 14.576 71.0764 14.964 70.6364 15.268C70.2044 15.572 69.7324 15.788 69.2204 15.916V16.192C69.7404 16.312 70.2524 16.532 70.7564 16.852C71.2684 17.172 71.6924 17.62 72.0284 18.196C72.3644 18.764 72.5324 19.484 72.5324 20.356C72.5324 21.308 72.3004 22.156 71.8364 22.9C71.3804 23.644 70.6764 24.232 69.7244 24.664C68.7724 25.096 67.5564 25.312 66.0764 25.312ZM66.0764 22.228C66.7244 22.228 67.2524 22.128 67.6604 21.928C68.0764 21.728 68.3804 21.46 68.5724 21.124C68.7644 20.78 68.8604 20.392 68.8604 19.96C68.8604 19.472 68.7404 19.06 68.5004 18.724C68.2684 18.388 67.9364 18.136 67.5044 17.968C67.0804 17.792 66.5964 17.704 66.0524 17.704C65.5164 17.704 65.0364 17.792 64.6124 17.968C64.1964 18.136 63.8684 18.388 63.6284 18.724C63.3964 19.06 63.2804 19.472 63.2804 19.96C63.2804 20.392 63.3764 20.78 63.5684 21.124C63.7604 21.46 64.0644 21.728 64.4804 21.928C64.8964 22.128 65.4284 22.228 66.0764 22.228ZM66.0764 15.04C66.8444 15.04 67.4404 14.852 67.8644 14.476C68.2884 14.1 68.5004 13.616 68.5004 13.024C68.5004 12.4 68.2764 11.924 67.8284 11.596C67.3884 11.268 66.8044 11.104 66.0764 11.104C65.3484 11.104 64.7644 11.268 64.3244 11.596C63.8844 11.924 63.6644 12.4 63.6644 13.024C63.6644 13.424 63.7564 13.776 63.9404 14.08C64.1324 14.384 64.4084 14.62 64.7684 14.788C65.1284 14.956 65.5644 15.04 66.0764 15.04Z" fill="#182358"/>
<path d="M75.413 25C75.6323 24.4773 75.8447 23.9733 76.05 23.488C76.26 23.0027 76.5027 22.4427 76.778 21.808L78.255 18.336C78.5397 17.6733 78.7893 17.09 79.004 16.586C79.2233 16.0773 79.4473 15.5547 79.676 15.018H80.824C80.67 15.3773 80.5207 15.7273 80.376 16.068C80.2313 16.4087 80.0797 16.7633 79.921 17.132C79.7623 17.5007 79.585 17.9113 79.389 18.364L77.919 21.808C77.6483 22.4427 77.408 23.005 77.198 23.495C76.9927 23.985 76.7803 24.4867 76.561 25H75.413ZM85.0704 25.154C84.7717 25.154 84.4754 25.133 84.1814 25.091C83.8874 25.0537 83.6004 25 83.3204 24.93C83.045 24.8553 82.7837 24.7713 82.5364 24.678C82.289 24.5847 82.0627 24.4843 81.8574 24.377L81.9764 23.243C82.2284 23.383 82.4827 23.5067 82.7394 23.614C83.0007 23.7213 83.2574 23.8123 83.5094 23.887C83.766 23.957 84.0157 24.0107 84.2584 24.048C84.5057 24.0853 84.7437 24.104 84.9724 24.104C85.775 24.104 86.37 23.9127 86.7574 23.53C87.1494 23.1427 87.3454 22.6037 87.3454 21.913C87.3454 21.4043 87.245 20.9983 87.0444 20.695C86.8437 20.387 86.5707 20.1653 86.2254 20.03C85.8847 19.89 85.5044 19.82 85.0844 19.82C84.7204 19.82 84.3727 19.8643 84.0414 19.953C83.71 20.0417 83.3577 20.2143 82.9844 20.471L82.4524 20.422V18.924C82.4524 18.294 82.4524 17.685 82.4524 17.097C82.4524 16.5043 82.4524 15.9373 82.4524 15.396H87.9894V16.446C87.4294 16.446 86.8647 16.446 86.2954 16.446C85.7307 16.446 85.1684 16.446 84.6084 16.446H83.1874L83.6074 16.04C83.6074 16.474 83.605 16.908 83.6004 17.342C83.6004 17.7713 83.598 18.2007 83.5934 18.63V19.274H83.7124C83.9784 19.1293 84.2654 19.0173 84.5734 18.938C84.886 18.854 85.2127 18.812 85.5534 18.812C86.104 18.812 86.6057 18.924 87.0584 19.148C87.5157 19.3673 87.8797 19.7033 88.1504 20.156C88.4257 20.6087 88.5634 21.1803 88.5634 21.871C88.5634 22.5243 88.4304 23.0983 88.1644 23.593C87.903 24.083 87.511 24.4657 86.9884 24.741C86.4704 25.0163 85.831 25.154 85.0704 25.154Z" fill="#182358"/>
<defs>
<linearGradient id="paint0_linear_3134_50781" x1="18.5133" y1="6.34351" x2="4.79005" y2="31.9345" gradientUnits="userSpaceOnUse">
<stop offset="0.0478004" stop-color="#FEDA92"/>
<stop offset="0.338238" stop-color="#FFC853"/>
<stop offset="1" stop-color="#FF9114"/>
</linearGradient>
<linearGradient id="paint1_linear_3134_50781" x1="5.42331" y1="15.5" x2="20.8467" y2="15.5" gradientUnits="userSpaceOnUse">
<stop stop-color="#FEE998"/>
<stop offset="1" stop-color="#FCC15B"/>
</linearGradient>
<linearGradient id="paint2_linear_3134_50781" x1="16.5615" y1="9.86524" x2="8.34686" y2="25.9458" gradientUnits="userSpaceOnUse">
<stop offset="0.0478004" stop-color="#FEDA92"/>
<stop offset="0.338238" stop-color="#FFC853"/>
<stop offset="1" stop-color="#FF9114"/>
</linearGradient>
</defs>
</svg>
