<svg width="169" height="48" viewBox="0 0 169 48" fill="none" xmlns="http://www.w3.org/2000/svg">
<path d="M30.8212 6.19984L29.1006 6.56896L32.5445 6.83031C32.1519 6.32271 31.4907 6.05615 30.8212 6.19984Z" fill="#4451FF"/>
<path d="M26.9834 7.02332L27.0485 7.00927L27.0344 6.98584C27.0172 6.99833 27.0001 7.01083 26.9834 7.02332Z" fill="#4451FF"/>
<path d="M20.2003 6.60635L13.8446 12.3623C13.1407 13.0001 13.0866 14.0887 13.7248 14.7931L18.931 20.5417L21.8861 23.8045L22.137 23.4942L15.9104 13.1359C15.5788 12.5846 15.4825 11.9375 15.6376 11.3138C15.7927 10.6896 16.1827 10.1637 16.7335 9.83211L22.3338 6.46578C21.6913 6.02117 20.8042 6.05918 20.2003 6.60635Z" fill="#264CF9"/>
<path d="M20.2003 6.60635L13.8446 12.3623C13.1407 13.0001 13.0866 14.0887 13.7248 14.7931L18.931 20.5417L21.8861 23.8045L22.137 23.4942L15.9104 13.1359C15.5788 12.5846 15.4825 11.9375 15.6376 11.3138C15.7927 10.6896 16.1827 10.1637 16.7335 9.83211L22.3338 6.46578C21.6913 6.02117 20.8042 6.05918 20.2003 6.60635Z" fill="url(#paint0_linear_2809_19605)"/>
<path d="M24.4361 6.00349L23.4428 6.60064L22.843 6.9609L22.1943 7.35085C22.2271 7.34252 22.2604 7.33419 22.2938 7.3269L23.0315 7.16863L23.8072 7.00203L26.6566 6.39083C26.1245 5.73693 25.1796 5.5568 24.4361 6.00349Z" fill="#4451FF"/>
<path d="M18.2558 11.7576C17.8305 11.9799 17.8357 12.4105 18.0002 12.7119C18.1605 13.0055 18.5218 13.22 18.9139 13.0154C19.321 12.8025 19.3377 12.3574 19.1632 12.0544C18.9977 11.7701 18.6812 11.5353 18.2558 11.7576Z" fill="#4451FF"/>
<path d="M21.0236 8.0542L17.0861 10.4209C16.2719 10.9108 16.0085 11.9682 16.4984 12.7825L22.5282 22.8137C22.6817 22.5571 22.8385 22.3082 22.9941 22.0708L20.4441 10.1856C20.3093 9.55723 20.4275 8.91374 20.7768 8.37334C20.8507 8.2588 20.9335 8.15312 21.0236 8.0542ZM17.6604 12.8793C17.411 12.4092 17.461 11.7823 18.0951 11.4507C18.7292 11.1191 19.2524 11.4294 19.5028 11.8896C19.6132 12.0942 19.671 12.3368 19.6429 12.5648L19.9672 12.6643L19.8527 13.0292L19.5205 12.9272C19.43 13.0865 19.2816 13.2229 19.0775 13.3296C18.4361 13.6654 17.9087 13.3468 17.6604 12.8793ZM20.1 15.0675L19.1327 14.6806L19.368 13.6123L20.3296 14.0684L20.1 15.0675Z" fill="#264CF9"/>
<path d="M21.0236 8.0542L17.0861 10.4209C16.2719 10.9108 16.0085 11.9682 16.4984 12.7825L22.5282 22.8137C22.6817 22.5571 22.8385 22.3082 22.9941 22.0708L20.4441 10.1856C20.3093 9.55723 20.4275 8.91374 20.7768 8.37334C20.8507 8.2588 20.9335 8.15312 21.0236 8.0542ZM17.6604 12.8793C17.411 12.4092 17.461 11.7823 18.0951 11.4507C18.7292 11.1191 19.2524 11.4294 19.5028 11.8896C19.6132 12.0942 19.671 12.3368 19.6429 12.5648L19.9672 12.6643L19.8527 13.0292L19.5205 12.9272C19.43 13.0865 19.2816 13.2229 19.0775 13.3296C18.4361 13.6654 17.9087 13.3468 17.6604 12.8793ZM20.1 15.0675L19.1327 14.6806L19.368 13.6123L20.3296 14.0684L20.1 15.0675Z" fill="url(#paint1_linear_2809_19605)"/>
<path d="M23.5638 7.75706L22.4371 7.99862C21.5078 8.1975 20.9164 9.11327 21.1158 10.0426L23.5315 21.303C23.8631 20.8569 24.1901 20.4721 24.5076 20.1551C24.7497 19.913 24.9903 19.7063 25.223 19.5402L25.9201 10.3591L25.9919 9.41523L26.0424 8.75039C26.0955 8.046 26.4548 7.4275 26.9832 7.02246L24.339 7.58994L23.5638 7.75706ZM24.2364 13.1095L23.4617 12.5077L23.9532 11.6023L24.7044 12.2656L24.2364 13.1095ZM24.6373 11.075L24.2 11.1645L23.2436 10.4934L23.4138 11.3254L23.0598 11.3977L22.6761 9.51935L23.0301 9.44698L23.1926 10.2414L23.7439 9.30121L24.1838 9.21114L24.1859 9.22207L23.5351 10.2919L24.6331 11.0547L24.6373 11.075Z" fill="#264CF9"/>
<path d="M23.5638 7.75706L22.4371 7.99862C21.5078 8.1975 20.9164 9.11327 21.1158 10.0426L23.5315 21.303C23.8631 20.8569 24.1901 20.4721 24.5076 20.1551C24.7497 19.913 24.9903 19.7063 25.223 19.5402L25.9201 10.3591L25.9919 9.41523L26.0424 8.75039C26.0955 8.046 26.4548 7.4275 26.9832 7.02246L24.339 7.58994L23.5638 7.75706ZM24.2364 13.1095L23.4617 12.5077L23.9532 11.6023L24.7044 12.2656L24.2364 13.1095ZM24.6373 11.075L24.2 11.1645L23.2436 10.4934L23.4138 11.3254L23.0598 11.3977L22.6761 9.51935L23.0301 9.44698L23.1926 10.2414L23.7439 9.30121L24.1838 9.21114L24.1859 9.22207L23.5351 10.2919L24.6331 11.0547L24.6373 11.075Z" fill="url(#paint2_linear_2809_19605)"/>
<path d="M28.0051 7.26899C27.7786 7.32886 27.5688 7.43298 27.3876 7.57407C27.0175 7.86197 26.7655 8.29877 26.727 8.80273L26.6275 10.1173L26.5557 11.0612L25.9424 19.1407C26.2069 19.0371 26.4672 18.9845 26.7191 18.9845C27.1752 18.9845 27.5943 19.149 27.9645 19.4744C28.5637 20.0007 29.1145 21.0055 28.3362 22.8069C27.9145 23.783 27.2018 24.7592 26.6119 25.4735C26.6676 25.4984 26.7243 25.5203 26.7827 25.5391C26.9081 25.5791 27.0398 25.6057 27.1762 25.6166L27.573 25.6468L27.6776 25.6552L27.9926 25.6791L28.7558 25.7369L30.4098 25.8624L35.7258 26.2653C36.6739 26.3377 37.5001 25.6276 37.572 24.6795L38.708 9.71225C38.7803 8.76473 38.0702 7.93798 37.1221 7.86614L33.583 7.59802L32.8692 7.54387L28.5731 7.21745C28.3773 7.20235 28.1862 7.22161 28.0051 7.26899ZM28.7412 12.5923L28.2013 11.8468L28.8818 11.1601L29.3847 11.9546L28.7412 12.5923ZM35.3401 21.4532L35.8643 22.2102L35.1693 22.8823L34.6836 22.0775L35.3401 21.4532ZM35.5967 23.5945L35.7852 23.2728L36.1507 23.3108L35.1625 25.0174L34.7945 24.9794L34.177 23.1067L34.5451 23.1447L34.6612 23.4977L35.5967 23.5945ZM34.632 17.092L31.8675 19.819L29.5607 16.6167L32.4845 13.6804L34.632 17.092ZM29.2119 9.05575L29.8689 10.9149L29.5003 10.8847L29.3769 10.5343L28.4393 10.4573L28.2576 10.7826L27.8911 10.7524L28.8427 9.02556L29.2119 9.05575Z" fill="url(#paint3_linear_2809_19605)"/>
<path d="M35.4285 23.8949L34.7637 23.8257L35.0172 24.6222L35.4285 23.8949Z" fill="#B3D0FF"/>
<path d="M28.9968 9.41699L28.6006 10.1531L29.267 10.2078L28.9968 9.41699Z" fill="#4451FF"/>
<path d="M23.9333 29.6905C23.8115 30.0653 24.153 30.4323 24.5325 30.3267C24.8787 30.2298 25.2942 30.0127 25.667 29.5442C25.667 29.5442 24.7689 28.05 25.2369 26.915C25.2369 26.915 24.3107 28.5274 23.9333 29.6905Z" fill="#182358"/>
<path d="M26.8817 29.7052C27.47 29.4881 28.5685 28.7343 28.5773 26.1249L28.3675 26.1088L28.0531 26.0848L27.9484 26.0765L27.5517 26.0463C27.4148 26.0359 27.2826 26.0094 27.1581 25.9698C26.978 25.9125 26.8109 25.8261 26.663 25.7173C26.5271 25.9182 26.3829 26.1213 26.2585 26.2738C26.1825 26.3675 26.1132 26.443 26.0581 26.4878C26.043 26.4998 26.0294 26.5097 26.0164 26.517C25.7462 26.6747 25.2626 28.0877 26.3126 29.5313C26.4418 29.7094 26.675 29.7807 26.8817 29.7052Z" fill="#182358"/>
<path d="M27.5936 19.8968C26.9897 19.3663 26.3071 19.4866 25.6402 19.9348C25.3919 20.1009 25.1451 20.3123 24.9051 20.5528C24.3829 21.075 23.892 21.733 23.4807 22.3552C23.287 22.6477 23.111 22.9325 22.9575 23.1913C22.8627 23.3516 22.7758 23.5021 22.6998 23.638C22.4952 24.0024 22.3614 24.2648 22.3228 24.3424C22.3145 24.358 22.3109 24.3663 22.3109 24.3663C22.3109 24.3663 22.2604 24.422 22.1708 24.5168C21.8746 24.8307 21.1561 25.5736 20.4694 26.1239C20.7115 25.4461 20.3991 24.7011 20.3991 24.7011C21.0681 24.8828 21.4472 24.4533 21.6601 23.9529L19.0716 21.0947C17.5956 21.1832 17.316 22.756 17.316 22.756C17.316 22.756 16.2644 27.0199 15.5475 28.9321C14.8306 30.8444 13.5879 31.9434 13.5879 31.9434L16.9339 37.3932L20.2086 34.382C21.3566 33.904 23.4833 32.0152 23.3875 30.7965C23.2917 29.5777 25.0608 26.3509 25.0608 26.3509C25.0608 26.3509 25.1363 26.2775 25.2643 26.1442C25.3346 26.0713 25.421 25.9802 25.5189 25.8735C25.6532 25.7288 25.8084 25.5554 25.976 25.3591C27.2166 23.9076 29.1153 21.2322 27.5936 19.8968Z" fill="#182358"/>
<path d="M22.087 23.5862C22.1031 23.5571 22.1193 23.5264 22.137 23.4951L22.0781 23.5763L22.087 23.5862Z" fill="#4451FF"/>
<path d="M24 0C10.7659 0 0 10.7664 0 24C0 27.0472 0.570596 29.9626 1.61183 32.6475L3.01542 31.6989C2.13141 29.2973 1.64828 26.7036 1.64828 24C1.64828 11.6754 11.6754 1.64828 24 1.64828C36.3246 1.64828 46.3517 11.6754 46.3517 24C46.3517 36.3246 36.3246 46.3517 24 46.3517C20.112 46.3517 16.4547 45.3537 13.2669 43.6013L17.8968 41.2403L15.6977 37.7719L12.3512 32.3226L10.7419 29.0104L3.85466 33.6783L2.47658 34.6128C4.49815 38.6976 7.65049 42.1274 11.5192 44.4926C15.1573 46.7167 19.4321 48 24 48C37.2341 48 48 37.2336 48 24C48 10.7664 37.2341 0 24 0Z" fill="#182358"/>
<path d="M59.22 30.68C58.188 30.68 57.321 30.47 56.619 30.05C55.923 29.624 55.395 29.06 55.035 28.358C54.681 27.65 54.504 26.87 54.504 26.018C54.504 25.16 54.681 24.377 55.035 23.669C55.389 22.955 55.92 22.385 56.628 21.959C57.336 21.533 58.224 21.32 59.292 21.32C59.796 21.32 60.252 21.377 60.66 21.491C61.068 21.599 61.416 21.734 61.704 21.896L61.524 23.696C61.248 23.552 60.936 23.432 60.588 23.336C60.246 23.24 59.886 23.192 59.508 23.192C58.644 23.192 57.975 23.453 57.501 23.975C57.027 24.497 56.79 25.178 56.79 26.018C56.79 26.816 57.033 27.488 57.519 28.034C58.005 28.574 58.662 28.844 59.49 28.844C59.844 28.844 60.192 28.793 60.534 28.691C60.882 28.583 61.218 28.436 61.542 28.25L61.74 30.14C61.428 30.302 61.05 30.431 60.606 30.527C60.168 30.629 59.706 30.68 59.22 30.68ZM65.6474 30.68C65.1674 30.68 64.7294 30.575 64.3334 30.365C63.9374 30.149 63.6224 29.84 63.3884 29.438C63.1544 29.036 63.0374 28.55 63.0374 27.98C63.0374 27.47 63.1544 27.035 63.3884 26.675C63.6284 26.309 63.9404 26.006 64.3244 25.766C64.7144 25.52 65.1344 25.328 65.5844 25.19C66.0404 25.046 66.4874 24.941 66.9254 24.875C67.3694 24.809 67.7594 24.77 68.0954 24.758C68.0714 24.242 67.9394 23.867 67.6994 23.633C67.4594 23.399 67.0514 23.282 66.4754 23.282C66.0734 23.282 65.6804 23.339 65.2964 23.453C64.9184 23.561 64.4894 23.732 64.0094 23.966L63.8114 22.148C64.3514 21.884 64.8914 21.686 65.4314 21.554C65.9774 21.422 66.5294 21.356 67.0874 21.356C67.7594 21.356 68.3384 21.476 68.8244 21.716C69.3104 21.956 69.6854 22.343 69.9494 22.877C70.2134 23.405 70.3454 24.104 70.3454 24.974V27.404C70.3454 27.854 70.3664 28.181 70.4084 28.385C70.4504 28.583 70.5284 28.709 70.6424 28.763C70.7564 28.817 70.9214 28.844 71.1374 28.844H71.4254L71.2274 30.68H70.4174C70.0814 30.68 69.7814 30.635 69.5174 30.545C69.2594 30.461 69.0374 30.341 68.8514 30.185C68.6654 30.029 68.5154 29.846 68.4014 29.636C68.1074 29.966 67.7084 30.224 67.2044 30.41C66.7064 30.59 66.1874 30.68 65.6474 30.68ZM66.5834 28.97C66.7814 28.97 67.0274 28.919 67.3214 28.817C67.6154 28.709 67.8794 28.544 68.1134 28.322V26.27C67.6934 26.288 67.2734 26.357 66.8534 26.477C66.4334 26.597 66.0824 26.774 65.8004 27.008C65.5184 27.242 65.3774 27.536 65.3774 27.89C65.3774 28.256 65.4734 28.529 65.6654 28.709C65.8574 28.883 66.1634 28.97 66.5834 28.97ZM75.6923 30.68C75.0983 30.68 74.5613 30.623 74.0813 30.509C73.6073 30.395 73.1303 30.23 72.6503 30.014L72.8483 28.106C73.3103 28.376 73.7633 28.595 74.2073 28.763C74.6573 28.925 75.1283 29.006 75.6203 29.006C76.0643 29.006 76.4033 28.934 76.6373 28.79C76.8713 28.646 76.9883 28.418 76.9883 28.106C76.9883 27.872 76.9253 27.68 76.7993 27.53C76.6793 27.38 76.4963 27.245 76.2503 27.125C76.0043 27.005 75.6983 26.876 75.3323 26.738C74.7803 26.534 74.3093 26.312 73.9193 26.072C73.5353 25.832 73.2413 25.544 73.0373 25.208C72.8393 24.866 72.7403 24.446 72.7403 23.948C72.7403 23.432 72.8753 22.976 73.1453 22.58C73.4153 22.184 73.7993 21.875 74.2973 21.653C74.7953 21.431 75.3863 21.32 76.0703 21.32C76.6403 21.32 77.1503 21.383 77.6003 21.509C78.0563 21.635 78.4763 21.806 78.8603 22.022L78.6623 23.93C78.2603 23.648 77.8553 23.417 77.4473 23.237C77.0393 23.051 76.5923 22.958 76.1063 22.958C75.7223 22.958 75.4253 23.036 75.2153 23.192C75.0053 23.348 74.9003 23.57 74.9003 23.858C74.9003 24.206 75.0473 24.467 75.3413 24.641C75.6353 24.815 76.1063 25.028 76.7543 25.28C77.1743 25.442 77.5373 25.61 77.8433 25.784C78.1553 25.958 78.4133 26.15 78.6173 26.36C78.8213 26.57 78.9713 26.81 79.0673 27.08C79.1693 27.344 79.2203 27.65 79.2203 27.998C79.2203 28.568 79.0823 29.054 78.8063 29.456C78.5363 29.852 78.1373 30.155 77.6093 30.365C77.0873 30.575 76.4483 30.68 75.6923 30.68ZM81.2156 30.5V21.5H83.4476V30.5H81.2156ZM81.2156 20.132V17.9H83.4476V20.132H81.2156ZM86.0078 30.5V21.5H88.0958L88.1858 23.174L87.6638 22.49C88.0058 22.202 88.4138 21.941 88.8878 21.707C89.3618 21.473 89.9138 21.356 90.5438 21.356C91.6958 21.356 92.5508 21.74 93.1088 22.508C93.6668 23.27 93.9458 24.26 93.9458 25.478V30.5H91.7138V25.658C91.7138 24.818 91.5728 24.197 91.2908 23.795C91.0148 23.393 90.5618 23.192 89.9318 23.192C89.4218 23.192 89.0048 23.318 88.6808 23.57C88.3568 23.816 88.0718 24.146 87.8258 24.56L88.2398 23.462V30.5H86.0078ZM100.493 30.68C99.5154 30.68 98.6814 30.467 97.9914 30.041C97.3014 29.615 96.7734 29.048 96.4074 28.34C96.0474 27.632 95.8674 26.858 95.8674 26.018C95.8674 25.172 96.0474 24.392 96.4074 23.678C96.7734 22.964 97.3014 22.394 97.9914 21.968C98.6814 21.536 99.5154 21.32 100.493 21.32C101.471 21.32 102.305 21.536 102.995 21.968C103.685 22.394 104.21 22.964 104.57 23.678C104.936 24.392 105.119 25.172 105.119 26.018C105.119 26.858 104.936 27.632 104.57 28.34C104.21 29.048 103.685 29.615 102.995 30.041C102.305 30.467 101.471 30.68 100.493 30.68ZM100.493 28.844C101.243 28.844 101.819 28.583 102.221 28.061C102.629 27.533 102.833 26.852 102.833 26.018C102.833 25.172 102.629 24.485 102.221 23.957C101.819 23.423 101.243 23.156 100.493 23.156C99.7494 23.156 99.1734 23.423 98.7654 23.957C98.3574 24.485 98.1534 25.172 98.1534 26.018C98.1534 26.852 98.3574 27.533 98.7654 28.061C99.1734 28.583 99.7494 28.844 100.493 28.844ZM109.697 30.68C109.103 30.68 108.566 30.623 108.086 30.509C107.612 30.395 107.135 30.23 106.655 30.014L106.853 28.106C107.315 28.376 107.768 28.595 108.212 28.763C108.662 28.925 109.133 29.006 109.625 29.006C110.069 29.006 110.408 28.934 110.642 28.79C110.876 28.646 110.993 28.418 110.993 28.106C110.993 27.872 110.93 27.68 110.804 27.53C110.684 27.38 110.501 27.245 110.255 27.125C110.009 27.005 109.703 26.876 109.337 26.738C108.785 26.534 108.314 26.312 107.924 26.072C107.54 25.832 107.246 25.544 107.042 25.208C106.844 24.866 106.745 24.446 106.745 23.948C106.745 23.432 106.88 22.976 107.15 22.58C107.42 22.184 107.804 21.875 108.302 21.653C108.8 21.431 109.391 21.32 110.075 21.32C110.645 21.32 111.155 21.383 111.605 21.509C112.061 21.635 112.481 21.806 112.865 22.022L112.667 23.93C112.265 23.648 111.86 23.417 111.452 23.237C111.044 23.051 110.597 22.958 110.111 22.958C109.727 22.958 109.43 23.036 109.22 23.192C109.01 23.348 108.905 23.57 108.905 23.858C108.905 24.206 109.052 24.467 109.346 24.641C109.64 24.815 110.111 25.028 110.759 25.28C111.179 25.442 111.542 25.61 111.848 25.784C112.16 25.958 112.418 26.15 112.622 26.36C112.826 26.57 112.976 26.81 113.072 27.08C113.174 27.344 113.225 27.65 113.225 27.998C113.225 28.568 113.087 29.054 112.811 29.456C112.541 29.852 112.142 30.155 111.614 30.365C111.092 30.575 110.453 30.68 109.697 30.68ZM121.196 34.856V29.024L121.772 29.438C121.388 29.834 120.965 30.14 120.503 30.356C120.047 30.572 119.486 30.68 118.82 30.68C117.92 30.68 117.161 30.467 116.543 30.041C115.931 29.615 115.466 29.048 115.148 28.34C114.836 27.632 114.68 26.858 114.68 26.018C114.68 25.178 114.836 24.404 115.148 23.696C115.466 22.988 115.931 22.421 116.543 21.995C117.161 21.569 117.92 21.356 118.82 21.356C119.516 21.356 120.104 21.485 120.584 21.743C121.07 21.995 121.496 22.334 121.862 22.76L121.196 22.994L121.718 21.5H123.428V34.856H121.196ZM119.18 28.844C119.672 28.844 120.074 28.724 120.386 28.484C120.698 28.244 120.929 27.914 121.079 27.494C121.229 27.068 121.304 26.576 121.304 26.018C121.304 25.178 121.133 24.497 120.791 23.975C120.455 23.453 119.918 23.192 119.18 23.192C118.478 23.192 117.932 23.453 117.542 23.975C117.158 24.497 116.966 25.178 116.966 26.018C116.966 26.852 117.158 27.533 117.542 28.061C117.932 28.583 118.478 28.844 119.18 28.844ZM129.715 30.68C128.779 30.68 128.032 30.494 127.474 30.122C126.916 29.75 126.514 29.24 126.268 28.592C126.022 27.938 125.899 27.188 125.899 26.342V21.5H128.131V26.342C128.131 27.176 128.269 27.797 128.545 28.205C128.827 28.607 129.283 28.808 129.913 28.808C130.417 28.808 130.834 28.688 131.164 28.448C131.5 28.208 131.779 27.872 132.001 27.44L131.605 28.574V21.5H133.837V30.5H131.749L131.641 28.934L132.127 29.564C131.911 29.84 131.569 30.095 131.101 30.329C130.639 30.563 130.177 30.68 129.715 30.68ZM138.333 30.68C137.853 30.68 137.415 30.575 137.019 30.365C136.623 30.149 136.308 29.84 136.074 29.438C135.84 29.036 135.723 28.55 135.723 27.98C135.723 27.47 135.84 27.035 136.074 26.675C136.314 26.309 136.626 26.006 137.01 25.766C137.4 25.52 137.82 25.328 138.27 25.19C138.726 25.046 139.173 24.941 139.611 24.875C140.055 24.809 140.445 24.77 140.781 24.758C140.757 24.242 140.625 23.867 140.385 23.633C140.145 23.399 139.737 23.282 139.161 23.282C138.759 23.282 138.366 23.339 137.982 23.453C137.604 23.561 137.175 23.732 136.695 23.966L136.497 22.148C137.037 21.884 137.577 21.686 138.117 21.554C138.663 21.422 139.215 21.356 139.773 21.356C140.445 21.356 141.024 21.476 141.51 21.716C141.996 21.956 142.371 22.343 142.635 22.877C142.899 23.405 143.031 24.104 143.031 24.974V27.404C143.031 27.854 143.052 28.181 143.094 28.385C143.136 28.583 143.214 28.709 143.328 28.763C143.442 28.817 143.607 28.844 143.823 28.844H144.111L143.913 30.68H143.103C142.767 30.68 142.467 30.635 142.203 30.545C141.945 30.461 141.723 30.341 141.537 30.185C141.351 30.029 141.201 29.846 141.087 29.636C140.793 29.966 140.394 30.224 139.89 30.41C139.392 30.59 138.873 30.68 138.333 30.68ZM139.269 28.97C139.467 28.97 139.713 28.919 140.007 28.817C140.301 28.709 140.565 28.544 140.799 28.322V26.27C140.379 26.288 139.959 26.357 139.539 26.477C139.119 26.597 138.768 26.774 138.486 27.008C138.204 27.242 138.063 27.536 138.063 27.89C138.063 28.256 138.159 28.529 138.351 28.709C138.543 28.883 138.849 28.97 139.269 28.97ZM149.458 30.68C148.546 30.68 147.778 30.467 147.154 30.041C146.536 29.615 146.068 29.048 145.75 28.34C145.438 27.632 145.282 26.858 145.282 26.018C145.282 25.178 145.438 24.404 145.75 23.696C146.068 22.988 146.536 22.421 147.154 21.995C147.778 21.569 148.546 21.356 149.458 21.356C150.118 21.356 150.676 21.467 151.132 21.689C151.588 21.905 151.99 22.184 152.338 22.526L151.798 22.994V17H154.03V30.5H151.924L151.816 28.97L152.464 29.438C152.044 29.822 151.609 30.125 151.159 30.347C150.709 30.569 150.142 30.68 149.458 30.68ZM149.782 28.844C150.274 28.844 150.676 28.724 150.988 28.484C151.3 28.244 151.531 27.914 151.681 27.494C151.831 27.068 151.906 26.576 151.906 26.018C151.906 25.46 151.831 24.971 151.681 24.551C151.531 24.125 151.3 23.792 150.988 23.552C150.676 23.312 150.274 23.192 149.782 23.192C149.314 23.192 148.915 23.312 148.585 23.552C148.255 23.792 148.003 24.125 147.829 24.551C147.655 24.971 147.568 25.46 147.568 26.018C147.568 26.576 147.655 27.068 147.829 27.494C148.003 27.914 148.255 28.244 148.585 28.484C148.915 28.724 149.314 28.844 149.782 28.844ZM156.029 30.5V29.44H157.109V30.5H156.029ZM160.729 30.6C160.176 30.6 159.711 30.4883 159.334 30.265C158.961 30.0383 158.677 29.735 158.484 29.355C158.294 28.9717 158.199 28.5467 158.199 28.08C158.199 27.5933 158.291 27.155 158.474 26.765C158.661 26.375 158.946 26.0667 159.329 25.84C159.712 25.6133 160.202 25.5 160.799 25.5C161.056 25.5 161.297 25.5267 161.524 25.58C161.754 25.63 161.959 25.7 162.139 25.79L161.999 26.58C161.816 26.4933 161.621 26.425 161.414 26.375C161.211 26.325 160.999 26.3 160.779 26.3C160.239 26.3 159.827 26.4533 159.544 26.76C159.261 27.0667 159.119 27.4933 159.119 28.04C159.119 28.5733 159.254 29.0017 159.524 29.325C159.794 29.6483 160.206 29.81 160.759 29.81C160.986 29.81 161.202 29.7833 161.409 29.73C161.619 29.6767 161.819 29.6033 162.009 29.51L162.129 30.23C161.996 30.3233 161.801 30.4083 161.544 30.485C161.287 30.5617 161.016 30.6 160.729 30.6ZM163.27 30.5V23H164.18V26.45L163.86 26.43C164.09 26.14 164.337 25.9133 164.6 25.75C164.867 25.5833 165.207 25.5 165.62 25.5C166.043 25.5 166.397 25.595 166.68 25.785C166.963 25.975 167.175 26.24 167.315 26.58C167.458 26.92 167.53 27.3167 167.53 27.77V30.5H166.63V27.88C166.63 27.34 166.53 26.9417 166.33 26.685C166.133 26.4283 165.83 26.3 165.42 26.3C165.11 26.3 164.835 26.3833 164.595 26.55C164.358 26.7167 164.17 26.94 164.03 27.22L164.18 26.67V30.5H163.27Z" fill="#182358"/>
<defs>
<linearGradient id="paint0_linear_2809_19605" x1="17.8065" y1="6.16113" x2="17.8065" y2="23.8045" gradientUnits="userSpaceOnUse">
<stop stop-color="#264CF9"/>
<stop offset="1" stop-color="#C5E0FF"/>
</linearGradient>
<linearGradient id="paint1_linear_2809_19605" x1="19.623" y1="8.0542" x2="19.623" y2="22.8137" gradientUnits="userSpaceOnUse">
<stop stop-color="#264CF9"/>
<stop offset="1" stop-color="#C5E0FF"/>
</linearGradient>
<linearGradient id="paint2_linear_2809_19605" x1="24.0302" y1="7.02246" x2="24.0302" y2="21.303" gradientUnits="userSpaceOnUse">
<stop stop-color="#264CF9"/>
<stop offset="1" stop-color="#C5E0FF"/>
</linearGradient>
<linearGradient id="paint3_linear_2809_19605" x1="32.3277" y1="7.2124" x2="32.3277" y2="26.2704" gradientUnits="userSpaceOnUse">
<stop stop-color="#264CF9"/>
<stop offset="1" stop-color="#C5E0FF"/>
</linearGradient>
</defs>
</svg>
