<svg width="206" height="149" viewBox="0 0 206 149" fill="none" xmlns="http://www.w3.org/2000/svg">
<path d="M22.5094 43.1389L68.9782 48.8696L71.195 30.8946L24.7262 25.1639L22.5094 43.1389Z" fill="#00A3FE"/>
<path d="M73.101 30.2385L70.4955 48.1013C70.2442 49.8202 68.6406 51.0029 66.9233 50.7357L23.029 43.8761C22.3456 43.7688 21.8702 43.1399 21.955 42.4533L24.1349 24.7825C24.2213 24.0863 24.8503 23.5902 25.5465 23.667L71.9727 28.7805C72.6945 28.8589 73.2067 29.5215 73.101 30.2385ZM68.5157 47.5027L70.5371 32.2551C70.6315 31.5445 70.1226 30.8947 69.4104 30.8147L26.558 26.0101C25.8602 25.9317 25.2296 26.4294 25.1448 27.1256L23.3939 41.3137C23.3074 42.0083 23.7972 42.6437 24.4902 42.7397L67.0705 48.6054C67.7747 48.6999 68.4229 48.2053 68.5157 47.5027Z" fill="#016EB9"/>
<path d="M52.5269 39.7868C50.8192 43.1222 47.4118 45.8638 42.2903 43.2406C38.955 41.5329 37.5562 37.2245 38.9214 33.7339C40.5795 29.4911 44.2813 28.2971 49.358 30.2689C52.8518 31.6245 54.6636 35.6176 52.5269 39.7868Z" fill="#016EB9"/>
<path d="M60.5182 39.4939C59.8748 40.7503 58.5912 41.7826 56.6626 40.7951C55.4063 40.1517 54.8797 38.5288 55.3935 37.2133C56.0177 35.6144 57.4117 35.1647 59.3242 35.9073C60.6398 36.4194 61.3232 37.9239 60.5182 39.4939Z" fill="#016EB9"/>
<path d="M36.0648 36.1011C35.4214 37.3575 34.1378 38.3898 32.2093 37.4023C30.9529 36.7589 30.4264 35.136 30.9401 33.8205C31.5643 32.2216 32.9583 31.7735 34.8709 32.5145C36.188 33.0266 36.8698 34.5311 36.0648 36.1011Z" fill="#016EB9"/>
<path d="M47.6457 30.986L47.5161 31.6486C47.4696 31.8903 47.6137 32.1239 47.8474 32.1975C48.3995 32.3704 48.9164 32.6393 49.3006 32.9418C49.4862 33.089 49.5342 33.3515 49.4142 33.5547L49.331 33.6956C49.1869 33.9436 48.8588 34.0077 48.6316 33.8348C48.1898 33.5019 47.6265 33.2218 46.9975 33.0986C45.9252 32.8889 45.2946 33.5131 45.1218 34.3998C44.9537 35.2544 45.2194 35.7682 46.2469 36.4532C47.6665 37.3766 49.0493 38.3897 48.7852 39.7421C48.5547 40.9201 47.5961 41.9684 45.8068 41.6755C45.5939 41.6403 45.4114 41.8467 45.3698 42.0596L45.2274 42.7846C45.1762 43.0439 44.9265 43.2119 44.6672 43.1607C44.4079 43.1095 44.2399 42.8598 44.2911 42.6006L44.4095 41.9956C44.4559 41.7587 44.3199 41.5234 44.0894 41.4514C43.6285 41.3042 43.27 41.1121 42.9851 40.9121C42.7803 40.768 42.7258 40.4895 42.8555 40.2767L42.9371 40.1422C43.0796 39.907 43.39 39.8462 43.6173 40.003C43.9342 40.2239 44.3887 40.4623 45.0161 40.5856C46.1796 40.8128 46.7574 40.1839 46.8791 39.5629C47.0375 38.7546 46.2389 38.5178 45.0337 37.7015C43.6061 36.7445 42.8027 35.6321 42.9451 34.2301C43.0956 32.7353 44.1599 31.8774 46.1076 31.9575C46.3237 31.9671 46.5045 31.7862 46.5462 31.5734L46.6966 30.8003C46.7478 30.5411 46.9975 30.373 47.2568 30.4242L47.2712 30.4274C47.5273 30.477 47.6953 30.7267 47.6457 30.986Z" fill="#00A3FE"/>
<path d="M35.034 15.0217L71.0245 44.9678L82.6082 31.046L46.6177 1.09995L35.034 15.0217Z" fill="#00A3FE"/>
<path d="M84.5493 31.5255L72.6995 45.1438C71.56 46.4546 69.569 46.5826 68.271 45.4287L35.055 15.9258C34.5381 15.4664 34.4788 14.6806 34.9206 14.1493L46.3095 0.462104C46.7576 -0.0772516 47.5562 -0.155675 48.1004 0.286053L84.3909 29.6882C84.9526 30.1459 85.0247 30.9781 84.5493 31.5255ZM71.3567 43.569L81.302 31.836C81.7661 31.2886 81.6893 30.4676 81.134 30.0147L47.6827 2.80358C47.1385 2.36025 46.3383 2.43868 45.8901 2.97803L36.7467 13.9668C36.2986 14.5046 36.3658 15.3032 36.8987 15.7593L69.5482 43.7146C70.0859 44.1756 70.8974 44.1099 71.3567 43.569Z" fill="#016EB9"/>
<path d="M62.0788 28.435C58.8379 30.3172 54.491 30.7813 51.6006 25.8055C49.7184 22.5645 50.8724 18.1841 53.9068 15.9866C57.5959 13.3139 61.3554 14.3109 64.5595 18.7138C66.765 21.7435 66.1296 26.0823 62.0788 28.435Z" fill="#016EB9"/>
<path d="M68.9594 32.5081C67.7382 33.2171 66.101 33.3916 65.0126 31.5175C64.3036 30.2963 64.7373 28.6462 65.8817 27.8188C67.2709 26.8121 68.6873 27.1882 69.8941 28.8463C70.7247 29.9874 70.4846 31.6231 68.9594 32.5081Z" fill="#016EB9"/>
<path d="M50.2225 16.4334C49.0014 17.1424 47.3641 17.3169 46.2758 15.4427C45.5668 14.2216 46.0005 12.5715 47.1449 11.7441C48.5341 10.7374 49.9505 11.1135 51.1572 12.7716C51.9879 13.9127 51.7494 15.5484 50.2225 16.4334Z" fill="#016EB9"/>
<path d="M62.7304 18.3906L62.2631 18.8772C62.0934 19.0548 62.0887 19.3301 62.2455 19.5174C62.6168 19.9607 62.9065 20.468 63.0649 20.929C63.1417 21.153 63.0393 21.3995 62.8297 21.5067L62.684 21.5804C62.4296 21.71 62.119 21.5884 62.0198 21.3195C61.8278 20.8009 61.5061 20.26 61.0436 19.8167C60.2545 19.0596 59.3871 19.2453 58.7629 19.8967C58.1595 20.5257 58.1051 21.1002 58.5996 22.2317C59.2942 23.7762 59.9104 25.3767 58.9565 26.3706C58.1259 27.2364 56.7527 27.6013 55.4051 26.3866C55.2451 26.2409 54.9794 26.3177 54.8305 26.473L54.3184 27.0059C54.1359 27.1964 53.8335 27.2028 53.643 27.0203C53.4526 26.8379 53.4461 26.5354 53.6286 26.3449L54.0559 25.9C54.2224 25.7256 54.2352 25.4551 54.0815 25.2694C53.7726 24.8965 53.5742 24.5412 53.443 24.2179C53.3485 23.9859 53.4526 23.7218 53.6782 23.6129L53.8206 23.5441C54.0687 23.4241 54.3632 23.5393 54.4672 23.7938C54.6145 24.1507 54.8674 24.5972 55.3299 25.0406C56.1846 25.8616 57.012 25.6439 57.4505 25.1878C58.0203 24.594 57.4761 23.9618 56.9047 22.6239C56.2213 21.0474 56.1461 19.6774 57.0232 18.5747C57.9594 17.3984 59.3166 17.2527 60.9123 18.373C61.09 18.4979 61.338 18.4435 61.4885 18.2866L62.0326 17.7184C62.2151 17.528 62.5176 17.5216 62.708 17.704L62.7192 17.7152C62.9065 17.8993 62.9129 18.2018 62.7304 18.3906Z" fill="#00A3FE"/>
<path d="M117.343 98.5335C117.343 98.5335 158.992 62.0558 169.553 74.0416C180.116 86.0275 135.633 92.1301 123.882 103.144L117.343 98.5335Z" fill="#D5D6DA"/>
<path d="M122.765 91.7656C122.765 91.7656 182.318 73.9044 189.975 92.6587C197.633 111.414 145.547 94.4656 128.491 100.296L122.765 91.7656Z" fill="#EAEAEA"/>
<path d="M125.927 96.5617C137.615 92.3173 151.986 91.8388 161.982 92.1861C172.819 92.5622 180.99 93.961 181.071 93.9754L181.124 93.4776C181.042 93.4632 172.837 92.058 161.965 91.6819C151.924 91.333 137.486 91.8148 125.724 96.0864L125.927 96.5617Z" fill="white"/>
<path d="M156.829 119.727C149.136 117.101 144.515 127.411 137.755 121.057C132.041 115.68 131.822 114.788 128.472 115.22C127.325 115.369 126.219 115.691 125.177 116.142C123.929 116.685 121.776 117.299 119.571 116.454C106.091 111.291 99.3647 84.645 117.728 82.8317C119.055 82.7004 120.556 83.2286 122.176 83.8816C130.966 87.4282 131.428 92.3432 143.085 87.2153C154.744 82.0875 155.818 99.8126 161.509 102.53C167.2 105.248 172.884 106.527 173.926 114.324C174.967 122.128 164.521 122.358 156.829 119.727Z" fill="#D5D6DA"/>
<g opacity="0.5">
<g opacity="0.5">
<g opacity="0.5">
<path opacity="0.5" d="M114.319 97.3752L114.275 96.8694C114.507 96.863 137.914 96.4037 173.998 116.408L173.753 116.843C137.803 96.9142 114.55 97.3688 114.319 97.3752Z" fill="white"/>
</g>
</g>
<g opacity="0.5">
<g opacity="0.5">
<path opacity="0.5" d="M144.107 97.5412C141.753 90.8785 142.787 87.2823 142.832 87.1318L143.341 87.2967C143.329 87.3319 142.313 90.9105 144.607 97.4036L144.107 97.5412Z" fill="white"/>
</g>
</g>
<g opacity="0.5">
<g opacity="0.5">
<path opacity="0.5" d="M142.158 102.642C142.128 99.7149 144.111 96.6772 147.894 93.8588C150.727 91.7478 153.609 90.4786 153.638 90.4658L153.878 90.9284C153.766 90.978 142.617 95.9314 142.686 102.665L142.158 102.642Z" fill="white"/>
</g>
</g>
<g opacity="0.5">
<g opacity="0.5">
<path opacity="0.5" d="M151.978 107.365C151.679 106.605 151.545 106.147 151.538 106.125L152.047 106.018C152.074 106.114 154.899 115.766 164.462 120.988L164.22 121.425C156.516 117.218 153.094 110.198 151.978 107.365Z" fill="white"/>
</g>
</g>
<g opacity="0.5">
<g opacity="0.5">
<path opacity="0.5" d="M150.672 119.975C149.853 116.502 150.568 113.925 151.311 112.376C152.119 110.689 153.116 109.835 153.158 109.799L153.52 110.187C153.481 110.219 149.688 113.532 151.188 119.89L150.672 119.975Z" fill="white"/>
</g>
</g>
</g>
<path d="M183.026 93.1417C185.014 94.4301 185.238 95.4112 184.785 96.1506C184.332 96.89 183.373 97.1045 181.384 95.8177C177.762 93.4714 176.832 91.0003 176.832 91.0003C176.832 91.0003 179.351 90.7618 183.026 93.1417Z" fill="#ACC9C5"/>
<path d="M182.888 85.9332C184.97 85.5043 185.777 86.0436 186.006 86.8679C186.235 87.6921 185.803 88.4891 183.719 88.9181C179.924 89.7007 177.676 88.5868 177.676 88.5868C177.676 88.5868 179.039 86.727 182.888 85.9332Z" fill="#ACC9C5"/>
<path d="M133.432 51.402L119.105 31.1225C118.276 29.9494 118.554 28.3521 119.726 27.5551L154.862 3.61697C156.034 2.81834 157.655 3.12243 158.483 4.29557L172.81 24.575C173.639 25.7482 173.361 27.3454 172.189 28.1425L137.052 52.0806C135.883 52.8776 134.261 52.5735 133.432 51.402Z" fill="#D5D6DA"/>
<path d="M147.739 25.7272C147.739 25.7272 149.914 22.0557 146.688 19.599C143.461 17.1423 140.361 21.8556 140.145 25.9016C139.929 29.9476 139.598 31.1335 140.134 31.7017C140.67 32.2683 153.349 37.092 155.956 31.4824C157.827 27.4589 153.851 24.2147 147.739 25.7272Z" fill="#00A3FE"/>
<path d="M154.494 10.2122C154.494 10.2122 154.987 9.37996 154.256 8.823C153.524 8.26604 152.82 9.33515 152.772 10.2522C152.723 11.1693 152.647 11.4382 152.769 11.5678C152.891 11.6958 155.767 12.7905 156.357 11.5182C156.781 10.6059 155.88 9.8697 154.494 10.2122Z" fill="#00A3FE"/>
<path d="M156.269 8.6101L155.781 8.76215C155.664 8.79896 155.535 8.75415 155.464 8.65332C155.354 8.49807 155.427 8.28521 155.608 8.2324L158.193 7.47218C158.31 7.43857 158.436 7.48178 158.507 7.58261L158.694 7.84668C158.764 7.94591 158.763 8.07715 158.689 8.17158L157.066 10.2938C156.953 10.4426 156.722 10.4362 156.613 10.2794L156.596 10.2554C156.525 10.1562 156.527 10.0233 156.6 9.92888L156.917 9.52077C156.991 9.42634 156.993 9.2935 156.922 9.19428L156.588 8.72053C156.516 8.6181 156.388 8.57489 156.269 8.6101ZM157.119 8.73014C157.228 8.88538 157.457 8.89339 157.572 8.74455L157.83 8.41165C157.951 8.2564 157.828 8.08995 157.647 8.15237L157.239 8.27561C157.058 8.33002 156.988 8.54288 157.097 8.69652L157.119 8.73014Z" fill="#00A3FE"/>
<path d="M137.575 46.0179C137.575 46.0179 137.082 46.8501 137.813 47.4071C138.545 47.964 139.249 46.8949 139.297 45.9779C139.347 45.0608 139.422 44.7919 139.3 44.6623C139.179 44.5343 136.303 43.4395 135.712 44.7119C135.286 45.6242 136.187 46.3604 137.575 46.0179Z" fill="#00A3FE"/>
<path d="M135.798 47.6199L136.286 47.4678C136.403 47.431 136.533 47.4758 136.603 47.5767C136.714 47.7319 136.64 47.9448 136.459 47.9976L133.875 48.7578C133.758 48.7914 133.631 48.7482 133.561 48.6474L133.374 48.3833C133.303 48.2841 133.305 48.1528 133.378 48.0584L135.001 45.9362C135.115 45.7873 135.345 45.7937 135.454 45.9506L135.472 45.9746C135.542 46.0738 135.541 46.2067 135.467 46.3011L135.15 46.7092C135.076 46.8036 135.075 46.9365 135.145 47.0357L135.48 47.5094C135.552 47.6119 135.681 47.6567 135.798 47.6199ZM134.948 47.4998C134.838 47.3446 134.611 47.3366 134.495 47.4854L134.238 47.8183C134.116 47.9736 134.239 48.14 134.42 48.0776L134.828 47.9544C135.008 47.8999 135.08 47.6871 134.971 47.5334L134.948 47.4998Z" fill="#00A3FE"/>
<path d="M75.241 84.4031C75.241 84.4031 25.6058 41.6803 15.0219 59.4183C4.43809 77.1562 54.3501 78.579 68.423 91.6036L75.241 84.4031Z" fill="#EAEAEA"/>
<g opacity="0.4">
<g opacity="0.4">
<path opacity="0.4" d="M71.4574 88.4746C61.8626 79.2736 49.1213 73.1934 40.1219 69.714C30.3655 65.9417 22.7889 64.3284 22.7121 64.3124L22.7649 63.7427C22.8401 63.7587 30.4503 65.3783 40.2388 69.1634C49.2782 72.6589 62.0803 78.7694 71.7359 88.0281L71.4574 88.4746Z" fill="white"/>
</g>
</g>
<path d="M56.1668 114.945C49.8433 114.193 50.8964 114.071 44.0465 121.518C39.1298 126.857 34.6469 122.36 29.471 120.575C29.3766 120.542 29.2822 120.511 29.1878 120.479C27.2336 119.847 25.1786 119.631 22.9652 120.494C20.6173 121.411 18.0021 122.067 15.4718 122.326C15.2621 122.349 15.0525 122.368 14.8428 122.382C9.73732 122.776 5.11198 121.487 3.95164 117.392C3.92443 117.296 3.89723 117.197 3.87482 117.097C3.70997 116.398 3.64276 115.622 3.68438 114.764C4.1245 105.819 10.2543 104.209 16.264 100.954C19.5866 99.153 20.9422 92.1446 23.735 87.1752C23.775 87.1047 23.815 87.0327 23.8566 86.9623C26.1085 83.0636 29.2966 80.5172 35.1287 82.9579C35.1287 82.9579 35.1303 82.9579 35.1303 82.9595C35.2487 83.0092 35.3671 83.0572 35.4824 83.1052C48.4061 88.4187 48.5518 82.8491 57.8072 78.6015C59.5293 77.8125 61.1314 77.1707 62.6022 77.2859C76.3022 78.3582 98.3134 119.957 56.1668 114.945Z" fill="#D5D6DA"/>
<path d="M67.6642 93.825L67.669 93.2456C67.4129 93.244 41.6471 93.3304 3.79932 117.147L4.10819 117.638C41.8135 93.9114 67.4097 93.8234 67.6642 93.825Z" fill="white"/>
<path d="M34.9412 94.7932C36.9274 87.1126 35.4646 83.0266 35.4022 82.8569L34.858 83.0586C34.8724 83.0986 36.3144 87.1638 34.3795 94.6492L34.9412 94.7932Z" fill="white"/>
<path d="M37.5449 100.574C37.3129 97.2241 34.8594 93.8039 30.4469 90.6798C27.1435 88.3399 23.861 86.9635 23.829 86.9507L23.6065 87.4852C23.7345 87.5381 36.4342 92.9124 36.9671 100.614L37.5449 100.574Z" fill="white"/>
<path d="M27.1789 106.232C27.4398 105.355 27.5454 104.827 27.5502 104.803L26.9805 104.694C26.9596 104.806 24.727 115.916 14.6905 122.137L14.9962 122.63C23.0833 117.618 26.2074 109.5 27.1789 106.232Z" fill="white"/>
<path d="M29.7541 120.617C30.3399 116.624 29.322 113.696 28.3649 111.942C27.323 110.035 26.1514 109.084 26.1018 109.044L25.7385 109.497C25.7833 109.534 30.2518 113.221 29.1795 120.532L29.7541 120.617Z" fill="white"/>
<path d="M153.104 74.802C153.104 44.8061 129.482 19.7701 98.0669 20.4903C68.079 21.1785 42.6845 44.5868 42.6845 74.5827C42.6845 104.579 66.9507 130.151 96.9466 130.151C126.941 130.149 153.104 104.798 153.104 74.802Z" fill="#131F2D"/>
<path d="M150.58 74.5831C150.58 46.01 126.638 23.0674 98.0669 23.0674C69.4938 23.0674 45.5237 46.2245 45.5237 74.7975C45.5237 103.371 69.321 127.232 97.894 127.232C126.467 127.232 150.58 103.156 150.58 74.5831Z" fill="#ACC9C5"/>
<path d="M147.225 74.8024C147.225 85.6279 143.725 95.6372 137.797 103.76C133.154 110.118 127.021 115.321 119.912 118.854C113.332 122.122 105.914 123.961 98.0668 123.961C91.7098 123.961 85.6328 122.754 80.0552 120.556C72.7315 117.671 66.2672 113.077 61.1553 107.269C53.5307 98.6109 48.907 87.246 48.907 74.8008C48.907 74.2967 48.9134 73.7957 48.931 73.2948C49.1854 64.8187 51.5862 56.8804 55.6081 50.008C62.1092 38.8992 72.8451 30.5704 85.6008 27.2366C89.5812 26.1963 93.7599 25.6426 98.0668 25.6426C102.374 25.6426 106.552 26.1963 110.531 27.2366C121.975 30.2279 131.793 37.2379 138.384 46.6695C143.005 53.2762 146.039 61.0688 146.942 69.5001C147.129 71.2446 147.225 73.0115 147.225 74.8024Z" fill="#00A3FE"/>
<path d="M98.0669 25.644C102.374 25.644 106.553 26.1978 110.531 27.2381L102.873 64.1272L101.447 70.9964L101.047 72.9217L100.89 73.6819L100.657 74.8023H95.4742L95.2437 73.6932L95.1349 73.1666L94.6836 70.9964L93.2576 64.1272L85.601 27.2381C89.5813 26.1978 93.7585 25.644 98.0669 25.644Z" fill="#131F2D"/>
<path d="M138.384 46.6709C143.005 53.2776 146.039 61.0703 146.942 69.5015L119.756 75.1111L112.668 76.574L109.521 77.2237L103.15 78.5377L101.362 78.9074L101.292 78.7442L100.783 77.5662L100.069 75.913L99.5905 74.8038L99.3073 74.1492L99.9699 73.6835L101.052 72.9233L102.335 72.0206L107.747 68.2163L138.384 46.6709Z" fill="#131F2D"/>
<path d="M137.797 103.759C133.154 110.118 127.021 115.321 119.911 118.853L100.688 86.2119L99.1886 83.6655L97.7482 81.2216L97.4009 80.631L97.769 80.2981L98.2155 79.8916L99.187 79.0098L100.781 77.5646L101.24 77.1484L102.167 77.8222L103.15 78.536L107.514 81.713L137.797 103.759Z" fill="#131F2D"/>
<path d="M96.4616 73.9441L96.1735 74.8019L95.7942 75.9222L94.9971 78.2877L94.8435 78.7439L94.8051 78.8575L92.6381 78.595L86.7724 77.8844L82.8593 77.4107L76.8671 76.6841L48.9294 73.2975C49.1839 64.8214 51.5846 56.8831 55.6066 50.0107L87.9295 68.9474L93.6352 72.2908L95.1348 73.1678L96.0326 73.6944L96.4616 73.9441Z" fill="#131F2D"/>
<path d="M98.0668 80.5122L97.7483 81.2212L96.9561 82.9785L95.4981 86.2227L80.0552 120.556C72.7315 117.67 67.3795 113.859 62.2676 108.051L88.8625 82.0326L92.638 78.5933L93.7808 77.5514L93.8704 77.4697L94.9971 78.286L96.9577 79.7072L97.0809 79.7968L97.0825 79.7984L97.7691 80.2961L98.0668 80.5122Z" fill="#131F2D"/>
<path d="M100.744 86.1671C107.035 84.6817 110.93 78.3778 109.445 72.087C107.959 65.7961 101.655 61.9006 95.3647 63.3861C89.0739 64.8715 85.1784 71.1754 86.6638 77.4662C88.1492 83.757 94.4531 87.6525 100.744 86.1671Z" fill="white"/>
<path d="M100.162 33.2364C100.162 31.6663 99.011 30.0034 97.4409 30.0034C95.8709 30.0034 94.208 31.1542 94.208 32.7242C94.208 34.2943 95.6004 35.8435 97.1705 35.8435C98.7389 35.8435 100.162 34.8064 100.162 33.2364Z" fill="#DAEBE8"/>
<path d="M139.164 60.6638C139.164 59.0937 137.754 57.8838 136.185 57.8838C134.615 57.8838 133.151 59.6267 133.151 61.1967C133.151 62.7668 134.615 63.8231 136.185 63.8231C137.754 63.8231 139.164 62.2338 139.164 60.6638Z" fill="#DAEBE8"/>
<path d="M127.776 108.025C127.776 106.455 126.51 105.507 124.943 105.402C123.212 105.286 121.851 106.831 121.851 108.401C121.851 109.971 123.373 111.086 124.943 111.086C126.513 111.086 127.776 109.595 127.776 108.025Z" fill="#DAEBE8"/>
<path d="M61.1551 64.1347C61.1551 62.5646 59.5899 61.3354 58.0198 61.3354C56.4498 61.3354 55.1998 62.8639 55.1998 64.4339C55.1998 66.004 56.4306 67.35 57.999 67.35C59.5691 67.3484 61.1551 65.7047 61.1551 64.1347Z" fill="#DAEBE8"/>
<path d="M76.5983 42.9433C76.5983 41.3732 75.2363 39.856 73.6662 39.856C72.0962 39.856 70.7134 41.3284 70.7134 42.8984C70.7134 44.4685 71.9393 45.6496 73.5078 45.6496C75.0778 45.6496 76.5983 44.5133 76.5983 42.9433Z" fill="#131F2D"/>
<path d="M124.001 43.0955C124.001 41.5254 122.239 40.0786 120.669 40.0786C119.099 40.0786 117.986 41.5462 117.986 43.1147C117.986 44.6848 119.361 45.7635 120.931 45.7635C122.501 45.7635 124.001 44.6655 124.001 43.0955Z" fill="#131F2D"/>
<path d="M140.494 85.4694C140.494 83.8994 139.365 82.2749 137.795 82.2749C136.225 82.2749 134.647 83.3472 134.647 84.9173C134.647 86.4873 136.081 88.123 137.651 88.123C139.221 88.123 140.494 87.0395 140.494 85.4694Z" fill="#131F2D"/>
<path d="M101.127 115.638C101.127 114.068 100.023 112.314 98.0652 112.314C96.4952 112.314 95.2228 113.586 95.2228 115.156C95.2228 116.726 96.3239 118.399 97.8924 118.399C99.4641 118.399 101.127 117.208 101.127 115.638Z" fill="#131F2D"/>
<path d="M99.4302 101.717C94.4031 101.717 90.7621 101.245 88.2974 100.275C83.7617 98.4874 79.1428 95.4161 76.5324 92.4504C72.6801 88.0748 70.9612 82.6348 70.9612 74.8101C70.9612 74.5124 70.966 74.2388 70.974 73.9715C71.1148 69.2757 71.5565 64.3975 73.8196 60.5324C77.1582 54.8267 83.56 50.3822 91.3831 48.3385C93.6349 47.7495 95.97 47.4502 98.3211 47.4502C100.674 47.4502 103.007 47.7495 105.259 48.3385C111.527 49.9757 117.032 53.8168 120.761 59.1544C123.36 62.8723 124.511 65.9676 125.004 70.5721C125.108 71.5276 125.182 73.7682 125.182 74.8101C125.182 81.188 123.584 86.6103 120.433 90.9268C117.941 94.339 114.988 96.7765 110.859 98.8283C106.727 100.878 103.415 101.717 99.4302 101.717ZM98.3211 47.6855C95.9892 47.6855 93.6749 47.9816 91.4423 48.5657C83.6785 50.5951 77.3294 54.9996 74.0228 60.6508C71.787 64.4711 71.3501 69.3141 71.2093 73.9779C71.2013 74.2435 71.1964 74.514 71.1964 74.8085C71.1964 82.5708 72.8961 87.9643 76.7084 92.292C79.2964 95.232 83.8801 98.2793 88.3838 100.054C90.8197 101.015 94.4336 101.48 99.4302 101.48C103.375 101.48 106.656 100.65 110.755 98.6138C114.847 96.5796 117.775 94.1661 120.243 90.7843C123.364 86.5095 124.945 81.1351 124.945 74.8069C124.945 73.7938 124.87 71.5276 124.769 70.5945C124.281 66.0332 123.141 62.9683 120.568 59.2856C116.87 53.9945 111.413 50.187 105.2 48.5625C102.967 47.98 100.653 47.6855 98.3211 47.6855Z" fill="#DAEBE8"/>
<path d="M121.181 74.7654C121.181 79.9045 119.947 84.6547 117.133 88.5102C114.929 91.5287 112.345 93.5693 108.971 95.2465C105.848 96.7974 102.95 97.7129 99.2255 97.7129C96.2071 97.7129 92.374 97.5272 89.7268 96.4837C86.2506 95.1137 82.115 92.5658 79.6887 89.8082C76.0701 85.6982 74.9417 80.6727 74.9417 74.7654C74.9417 74.5269 74.9449 74.2885 74.9529 74.05C75.073 70.0264 75.4667 65.8492 77.376 62.5859C80.4617 57.3124 86.3034 53.7705 92.358 52.1877C94.2481 51.6931 96.2311 51.4307 98.2749 51.4307C100.319 51.4307 102.302 51.6931 104.192 52.1877C109.624 53.6073 114.284 56.9347 117.412 61.4111C119.604 64.5465 120.6 67.1424 121.029 71.1436C121.118 71.9726 121.181 73.9156 121.181 74.7654Z" fill="#DAEBE8"/>
<path d="M98.5084 59.6265H97.6138V89.9648H98.5084V59.6265Z" fill="#131F2D"/>
<path d="M113.221 75.2433V74.3486H82.8824V75.2433H113.221Z" fill="#131F2D"/>
<path d="M103.158 75.3126C103.158 72.5006 100.869 69.4773 98.0669 69.711C94.6995 69.9911 92.7774 72.3373 92.7774 75.1494C92.7774 77.9614 95.2549 79.8947 98.0669 79.8947C100.879 79.8947 103.158 78.1246 103.158 75.3126Z" fill="#00A3FE"/>
<path d="M100.994 75.0888C100.994 73.4947 99.6961 71.7806 98.1068 71.9119C96.1975 72.0703 95.1075 73.4019 95.1075 74.996C95.1075 76.59 96.5127 77.6863 98.1068 77.6863C99.7009 77.6863 100.994 76.6845 100.994 75.0888Z" fill="#131F2D"/>
<path d="M112.637 77.027C114.22 77.027 116.909 76.0283 116.909 74.796C116.909 73.5636 114.222 72.5649 112.637 72.5649C111.053 72.5649 109.769 73.5636 109.769 74.796C109.771 76.0283 111.055 77.027 112.637 77.027Z" fill="#00A3FE"/>
<path d="M83.5842 72.5649C82.0013 72.5649 79.3126 73.5636 79.3126 74.796C79.3126 76.0283 81.9997 77.027 83.5842 77.027C85.167 77.027 86.4522 76.0283 86.4522 74.796C86.4506 73.5636 85.167 72.5649 83.5842 72.5649Z" fill="#00A3FE"/>
<path d="M100.298 58.2902C100.298 56.7073 99.299 54.0186 98.0667 54.0186C96.8343 54.0186 95.8356 56.7057 95.8356 58.2902C95.8356 59.873 96.8343 61.1582 98.0667 61.1582C99.2974 61.1582 100.298 59.8746 100.298 58.2902Z" fill="#00A3FE"/>
<path d="M95.8469 90.9507C95.8229 92.5335 96.78 95.2367 98.0108 95.2559C99.2431 95.2751 100.283 92.6039 100.307 91.0195C100.331 89.4366 99.3535 88.1371 98.1212 88.1179C96.8888 88.1003 95.8709 89.3678 95.8469 90.9507Z" fill="#00A3FE"/>
<path d="M164.964 50.8257C167.445 55.6159 170.075 59.1705 174.745 63.8358C175.827 64.9162 176.256 65.3131 176.976 65.8508C177.555 66.283 177.451 67.7954 176.721 68.7941C176.036 69.7303 174.796 70.0808 174.004 69.6935C173.412 69.4039 172.88 68.9717 171.654 67.7858C167.397 63.6678 165.137 60.0668 161.191 51.9268L164.964 50.8257Z" fill="#FF7955"/>
<path d="M179.85 128.544C179.85 128.544 179.748 130.1 178.676 130.495C177.603 130.89 174.535 131.162 175.635 132.209C176.265 132.811 179.365 132.566 180.236 132.601C181.107 132.636 181.909 133.049 182.579 132.494C183.317 131.883 182.736 128.662 182.736 128.662C182.736 128.662 181.968 129.022 181.294 128.978C180.323 128.912 179.85 128.544 179.85 128.544Z" fill="#131F2D"/>
<path d="M191.948 129.04C191.948 129.04 191.846 130.596 190.773 130.991C189.701 131.386 186.633 131.658 187.733 132.705C188.363 133.307 191.463 133.062 192.334 133.097C193.205 133.132 194.006 133.545 194.677 132.99C195.415 132.379 194.834 129.158 194.834 129.158C194.834 129.158 194.066 129.519 193.392 129.474C192.42 129.408 191.948 129.04 191.948 129.04Z" fill="#131F2D"/>
<path d="M173.772 85.5459C173.772 85.5459 173.309 92.055 174.878 104.641C176.009 113.727 177.408 122.894 178.099 127.289C178.346 128.861 179.612 130.056 181.163 130.181L181.997 130.248C183.674 130.384 185.098 128.997 185.045 127.275L184.144 97.6918L184.023 87.9626L173.772 85.5459Z" fill="#364154"/>
<path d="M191.825 91.2518C191.793 92.0505 187.31 92.3113 181.777 92.0537C176.245 91.796 171.853 91.3654 171.887 90.5668C171.919 89.7682 176.363 88.9039 181.896 89.1616C187.429 89.4177 191.859 90.4516 191.825 91.2518Z" fill="#131F2D"/>
<path d="M177.891 91.2737L190.063 128.596C190.489 130.192 191.863 131.332 193.48 131.425L194.184 131.466C195.847 131.562 197.182 130.077 196.947 128.39L191.31 91.661C191.234 91.2369 189.76 90.9824 189.341 90.9296C185.862 90.4975 177.739 89.7084 177.891 91.2737Z" fill="#364154"/>
<path d="M174.098 70.894C172.692 67.1601 175.523 64.2681 175.523 64.2681C175.523 64.2681 179.063 65.7517 181.312 66.1502C184.897 66.7856 188.869 65.0315 188.869 65.0315C188.869 65.0315 192.939 68.298 190.497 71.3597C190.089 71.8703 190.166 74.1797 190.207 74.5126C191.324 83.424 191.828 91.183 191.828 91.183C180.739 87.6444 171.887 90.5653 171.887 90.5653C171.592 82.5614 173.324 75.1016 174.098 70.894Z" fill="#00A3FE"/>
<path d="M184.604 112.173L182.225 99.7293C181.731 97.9912 180.625 96.5043 179.111 95.5537L179.217 95.3872C180.772 96.3651 181.909 97.8919 182.419 99.6844L184.801 112.138L184.604 112.173Z" fill="#020202"/>
<path d="M189.135 90.9057C189.135 90.9057 181.697 89.358 174.31 90.6736C173.97 90.7344 173.729 91.0369 173.746 91.381L173.893 94.1242L181.633 92.5318L189.135 90.9057Z" fill="#364154"/>
<path d="M187.627 68.1618C187.722 69.9255 188.688 71.3083 189.786 71.2506C190.884 71.1914 191.697 69.7142 191.603 67.9505C191.508 66.1868 190.542 64.804 189.444 64.8616C188.346 64.9192 187.533 66.398 187.627 68.1618Z" fill="#131F2D"/>
<path d="M200.81 49.5898C199.709 54.0599 195.59 59.5255 190.759 64.0244C189.641 65.0663 189.197 65.4488 188.46 65.961C187.866 66.3739 187.917 67.8879 188.612 68.9122C189.263 69.8725 190.491 70.2662 191.297 69.9045C191.899 69.6356 192.446 69.2211 193.712 68.08C198.11 64.1124 200.793 60.1433 204.575 50.5997L200.81 49.5898Z" fill="#FF7955"/>
<path d="M201.001 50.7362C200.825 50.1072 200.756 48.7868 200.593 48.1546C200.522 47.881 200.346 46.9431 200.607 46.8327C200.833 46.7366 201.324 47.412 201.519 47.7625C202.16 45.9988 204.357 43.3148 202.795 47.4985C202.796 47.4985 202.8 47.5001 202.801 47.5001C202.945 47.1271 204.158 44.4672 204.575 44.8513C204.941 45.1906 204.016 47.284 203.786 47.9002C203.79 47.9034 203.797 47.905 203.802 47.9082C204.09 47.3016 204.826 45.4899 205.244 45.7684C205.658 46.0436 204.85 48.5116 204.85 48.5116C204.85 48.5116 205.753 46.2933 205.994 46.9815C206.05 47.1432 205.705 48.4859 205.362 49.2093C205.29 49.3614 205.226 49.4942 205.181 49.5951C205.143 49.6783 205.1 49.7487 205.053 49.8079C204.405 50.9827 203.794 51.6309 203.794 51.6309C203.794 51.6309 203.211 52.5191 202.129 52.1062C201.438 51.8453 201.076 51.0099 201.001 50.7362Z" fill="#FF7955"/>
<path d="M164.763 52.0629C164.939 51.4339 165.008 50.1135 165.171 49.4813C165.241 49.2076 165.417 48.2698 165.157 48.1593C164.931 48.0633 164.44 48.7387 164.244 49.0892C163.604 47.3255 161.407 44.6415 162.969 48.8251C162.967 48.8251 162.964 48.8267 162.962 48.8267C162.818 48.4538 161.605 45.7938 161.189 46.178C160.823 46.5172 161.748 48.6107 161.978 49.2268C161.973 49.23 161.967 49.2316 161.962 49.2348C161.674 48.6283 160.938 46.8165 160.52 47.095C160.106 47.3703 160.914 49.8382 160.914 49.8382C160.914 49.8382 160.011 47.62 159.769 48.3082C159.713 48.4698 160.059 49.8126 160.402 50.536C160.474 50.6881 160.538 50.8209 160.582 50.9217C160.621 51.005 160.664 51.0754 160.711 51.1346C161.359 52.3093 161.97 52.9575 161.97 52.9575C161.97 52.9575 162.553 53.8458 163.635 53.4329C164.324 53.172 164.686 52.3349 164.763 52.0629Z" fill="#FF7955"/>
<path d="M182.899 65.7386L182.963 63.9477L182.984 63.37L183.105 59.9722L181.931 62.9954L181.226 64.8104L181.026 65.3273C180.863 65.7498 180.396 65.8587 179.92 65.8187C179.92 65.8187 179.623 67.0174 180.186 67.3551C181.231 67.9793 182.622 67.4511 183.665 66.2652C183.661 66.2668 182.876 66.374 182.899 65.7386Z" fill="#FF7955"/>
<path d="M182.989 63.9013C182.981 63.9173 182.971 63.9333 182.963 63.9477C182.448 64.8568 181.23 64.82 181.23 64.82L181.226 64.812L181.931 62.9971C182.292 63.0307 182.787 63.1219 182.984 63.37C183.086 63.4996 183.109 63.6725 182.989 63.9013Z" fill="#131F2D"/>
<path d="M180.004 59.0778C180.89 57.2053 182.838 56.2706 184.357 56.9892C185.876 57.7079 186.386 59.8077 185.5 61.6802C184.613 63.5527 182.665 64.4874 181.146 63.7688C179.628 63.0502 179.117 60.9488 180.004 59.0778Z" fill="#FF7955"/>
<path d="M179.997 63.3636C179.996 63.3636 179.993 63.3636 179.991 63.3636C179.953 63.3588 179.06 63.2516 178.559 62.5266C178.387 62.2785 178.335 62.0592 178.4 61.8752C178.493 61.6175 178.786 61.5327 178.799 61.5279C178.831 61.5183 178.863 61.5375 178.871 61.5679C178.88 61.5983 178.861 61.6319 178.831 61.6399C178.828 61.6399 178.583 61.7119 178.511 61.9136C178.458 62.0592 178.507 62.2433 178.655 62.4561C179.125 63.1363 179.994 63.242 180.004 63.2436C180.036 63.2468 180.06 63.2756 180.055 63.3092C180.052 63.3428 180.026 63.3636 179.997 63.3636Z" fill="#00A3FE"/>
<path d="M184.725 58.3767C184.336 58.9432 184.267 59.4938 182.164 59.0585C182.164 59.0585 181.756 59.1161 181.897 58.7736C182.038 58.4311 182.752 58.1446 182.681 57.6389C182.681 57.6389 179.999 59.8027 179.828 58.9944C179.656 58.1862 179.976 55.9856 181.574 55.307C183.171 54.6284 186.562 55.9264 186.658 57.1411C186.799 58.9288 185.058 57.8917 184.725 58.3767Z" fill="#131F2D"/>
<path d="M186.407 57.8097C186.407 57.8097 185.479 57.6225 185.34 58.0114C185.2 58.4003 184.283 58.8244 184.722 59.3205C185.162 59.8151 185.226 60.0184 185.029 60.4281C184.892 60.713 185.093 61.5836 185.002 62.2446C184.962 62.5311 184.562 62.9904 184.562 62.9904C184.562 62.9904 186.996 63.2753 187.756 60.7017C188.249 59.0277 187.033 57.8465 186.407 57.8097Z" fill="#131F2D"/>
<path d="M185.204 62.1662C184.752 62.3167 184.302 62.1406 184.2 61.7741C184.098 61.4076 184.381 60.9899 184.832 60.8394C185.284 60.689 185.733 60.865 185.836 61.2315C185.94 61.598 185.656 62.0158 185.204 62.1662Z" fill="#FF7955"/>
<path d="M184.525 64.6634C184.491 64.6634 184.456 64.6602 184.424 64.6554C184.242 64.6266 183.821 64.4602 183.83 63.5511C183.848 61.9602 184.978 61.8562 184.989 61.8562C185.023 61.853 185.055 61.8802 185.058 61.9154C185.061 61.9506 185.034 61.981 184.999 61.9842C184.957 61.9874 183.975 62.0835 183.959 63.5527C183.952 64.1305 184.125 64.4778 184.443 64.529C184.772 64.5818 185.175 64.2985 185.29 63.9368C185.503 63.2662 185.181 62.5684 185.178 62.5604C185.164 62.5284 185.176 62.49 185.208 62.4756C185.241 62.4612 185.279 62.474 185.293 62.506C185.308 62.5364 185.639 63.2566 185.412 63.9752C185.29 64.3641 184.893 64.6634 184.525 64.6634Z" fill="#00A3FE"/>
<path d="M188.083 58.386C188.104 58.3908 188.126 58.3876 188.144 58.3748C188.179 58.3508 188.189 58.3012 188.163 58.266C187.699 57.5938 187.001 57.701 186.972 57.7058C186.931 57.7122 186.902 57.7522 186.908 57.7954C186.915 57.837 186.955 57.8659 186.998 57.8595C187.023 57.8547 187.628 57.765 188.036 58.354C188.048 58.3716 188.065 58.3828 188.083 58.386Z" fill="#131F2D"/>
<path d="M186.923 57.5218C186.956 57.5298 186.993 57.5122 187.009 57.4802C187.019 57.4594 187.249 56.9761 187.113 56.688C187.094 56.6496 187.048 56.6336 187.009 56.6512C186.971 56.6688 186.953 56.7152 186.972 56.7552C187.059 56.9393 186.926 57.293 186.868 57.413C186.849 57.4514 186.865 57.4978 186.905 57.517C186.912 57.5186 186.916 57.5202 186.923 57.5218Z" fill="#131F2D"/>
<path d="M180.572 62.2563C180.572 62.2563 181.471 62.6213 182.499 62.6453C182.499 62.6453 182.235 63.5671 181.231 63.255C180.646 63.0742 180.572 62.2563 180.572 62.2563Z" fill="#E9633E"/>
<path d="M180.572 62.2563C180.572 62.2563 180.722 62.522 181.235 62.7125C181.747 62.9045 182.497 62.6453 182.497 62.6453C182.497 62.6453 181.292 62.5316 180.572 62.2563Z" fill="white"/>
<path d="M182.813 60.6923C182.797 60.6811 182.787 60.6619 182.786 60.6411C182.786 60.6059 182.813 60.5755 182.848 60.5755C182.869 60.5755 183.355 60.5194 183.563 61.046C183.576 61.0796 183.562 61.1164 183.528 61.1308C183.495 61.1452 183.464 61.126 183.443 61.0956C183.237 60.8043 182.867 60.7035 182.85 60.7035C182.838 60.7035 182.824 60.7003 182.813 60.6923Z" fill="#080435"/>
<path d="M180.286 60.0877C180.266 60.0845 180.249 60.0733 180.239 60.0541C180.223 60.0221 180.234 59.9837 180.266 59.9677C180.286 59.9581 180.695 59.6924 181.116 60.0685C181.143 60.0925 181.147 60.1325 181.123 60.1597C181.099 60.187 181.063 60.1838 181.031 60.1661C180.716 59.9981 180.34 60.0733 180.326 60.0813C180.314 60.0877 180.3 60.0893 180.286 60.0877Z" fill="#080435"/>
<path d="M179.368 62.1683C179.026 61.8706 178.842 61.2976 178.877 60.635C178.935 59.5563 179.556 58.5672 180.261 58.4296C180.526 58.3752 180.772 58.4456 180.977 58.6232C181.319 58.9209 181.503 59.4939 181.468 60.1549C181.411 61.232 180.79 62.2227 180.084 62.3619C179.925 62.3939 179.773 62.3811 179.632 62.3267C179.538 62.2915 179.45 62.2387 179.368 62.1683ZM181.342 60.1501C181.375 59.5259 181.209 58.993 180.894 58.7193C180.716 58.5672 180.508 58.5096 180.285 58.5528C179.633 58.6809 179.058 59.6187 179.004 60.6414C178.97 61.2624 179.136 61.7986 179.452 62.0722C179.628 62.2211 179.837 62.2819 180.058 62.2371C180.711 62.1107 181.287 61.1728 181.342 60.1501Z" fill="#764678"/>
<g opacity="0.3">
<path opacity="0.3" d="M184.776 60.6942C184.636 61.7105 183.914 62.5844 183.166 62.6484C182.419 62.7124 181.928 61.9394 182.069 60.9247C182.209 59.9084 182.931 59.0345 183.679 58.9705C184.426 58.9065 184.917 59.6795 184.776 60.6942Z" fill="white"/>
</g>
<g opacity="0.3">
<path opacity="0.3" d="M181.465 60.2446C181.323 61.2641 180.652 62.1764 179.969 62.2788C179.284 62.3828 178.845 61.6386 178.988 60.6191C179.13 59.5996 179.801 58.6873 180.484 58.5849C181.168 58.4809 181.608 59.2235 181.465 60.2446Z" fill="white"/>
</g>
<path d="M182.278 62.3268C181.945 61.9747 181.803 61.4081 181.889 60.7759C182.035 59.6892 182.822 58.7545 183.644 58.6905C183.975 58.6649 184.271 58.7801 184.503 59.0234C184.834 59.3755 184.977 59.9405 184.89 60.5727C184.745 61.661 183.957 62.5973 183.136 62.6581C182.973 62.6725 182.818 62.6501 182.675 62.5972C182.53 62.5412 182.395 62.45 182.278 62.3268ZM183.653 58.8154C182.888 58.8746 182.153 59.7612 182.014 60.7919C181.936 61.3793 182.069 61.9219 182.371 62.2403C182.576 62.45 182.838 62.5524 183.127 62.5332C183.892 62.474 184.628 61.5874 184.765 60.5567C184.844 59.9725 184.711 59.4315 184.41 59.1098C184.308 59.001 184.188 58.921 184.058 58.8714C183.933 58.8234 183.797 58.8042 183.653 58.8154Z" fill="#764678"/>
<path d="M181.208 60.5469C181.232 60.5565 181.26 60.5565 181.288 60.5485C181.304 60.5421 181.675 60.4268 182.133 60.7085C182.187 60.7389 182.261 60.7261 182.296 60.6701C182.331 60.6141 182.313 60.5421 182.257 60.5085C181.708 60.158 181.233 60.318 181.212 60.3228C181.151 60.3452 181.118 60.4124 181.14 60.4733C181.148 60.5085 181.176 60.5341 181.208 60.5469Z" fill="#764678"/>
<path d="M180.902 61.0653C180.919 61.0733 180.94 61.0733 180.958 61.0621C180.988 61.0461 180.998 61.0077 180.982 60.9773C180.972 60.9597 180.782 60.5307 180.246 60.6124C180.212 60.6172 180.188 60.6476 180.193 60.6812C180.198 60.7148 180.228 60.7308 180.262 60.734C180.603 60.7644 180.865 61.0221 180.873 61.0365C180.879 61.0509 180.891 61.0605 180.902 61.0653Z" fill="#080435"/>
<path d="M182.424 61.4865C182.406 61.4801 182.39 61.4673 182.384 61.4481C182.373 61.4161 182.39 61.3809 182.422 61.3697C182.442 61.3633 182.867 61.168 183.216 61.5841C183.239 61.6097 183.235 61.6497 183.21 61.6721C183.184 61.6945 183.151 61.6865 183.122 61.6657C182.847 61.4625 182.478 61.4817 182.464 61.4865C182.45 61.4897 182.435 61.4897 182.424 61.4865Z" fill="#080435"/>
<path d="M107.892 109.617C103.848 114.53 95.0292 127.735 98.2205 132.27C101.413 136.804 120.699 135.791 123.855 134.107C127.01 132.423 119.097 111.43 116.517 108.783C113.939 106.136 110.715 106.187 107.892 109.617Z" fill="#B05638"/>
<path d="M105.623 127.384L105.791 126.656C105.852 126.39 105.7 126.126 105.443 126.036C104.838 125.825 104.275 125.51 103.862 125.161C103.662 124.991 103.619 124.7 103.758 124.477L103.854 124.324C104.022 124.055 104.387 123.996 104.635 124.194C105.112 124.578 105.727 124.908 106.418 125.068C107.598 125.338 108.318 124.669 108.542 123.695C108.758 122.754 108.483 122.176 107.37 121.38C105.832 120.308 104.336 119.135 104.677 117.648C104.975 116.352 106.072 115.225 108.046 115.614C108.281 115.66 108.491 115.438 108.544 115.204L108.728 114.406C108.793 114.121 109.077 113.943 109.361 114.009C109.646 114.074 109.824 114.358 109.758 114.643L109.606 115.308C109.547 115.568 109.69 115.833 109.941 115.923C110.447 116.102 110.837 116.328 111.146 116.56C111.367 116.726 111.418 117.037 111.268 117.269L111.172 117.416C111.005 117.671 110.659 117.728 110.415 117.547C110.07 117.291 109.577 117.011 108.886 116.853C107.606 116.558 106.943 117.235 106.786 117.919C106.581 118.807 107.458 119.098 108.763 120.046C110.31 121.156 111.159 122.416 110.952 123.964C110.731 125.614 109.523 126.526 107.367 126.368C107.127 126.35 106.922 126.544 106.868 126.777L106.673 127.627C106.607 127.912 106.324 128.09 106.039 128.024L106.023 128.021C105.735 127.952 105.557 127.669 105.623 127.384Z" fill="#131F2D"/>
<path d="M117.423 102.25C117.423 102.25 113.337 102.804 112.951 105.233C112.565 107.663 116.528 105.728 119.171 106.374C121.813 107.022 120.321 105.105 119.724 103.826C119.127 102.547 119.169 102.079 117.423 102.25Z" fill="#B05638"/>
<path d="M115.508 139.382V137.478L143.366 137.305L143.326 139.382H115.508Z" fill="#016EB9"/>
<path d="M116.6 137.425C119.135 135.315 124.918 133.46 134.866 134.728C141.345 135.554 144.73 138.059 142.86 140.24C140.588 142.892 133.973 143.835 124.228 142.956C117.522 142.353 113.431 140.061 116.6 137.425Z" fill="#016EB9"/>
<path d="M116.6 135.591C119.135 133.481 124.918 131.626 134.866 132.894C141.345 133.72 144.73 136.225 142.861 138.406C140.588 141.058 133.973 142.001 124.228 141.122C117.522 140.519 113.431 138.227 116.6 135.591Z" fill="#00A3FE"/>
<path d="M130.545 140.996C128.869 140.996 127.025 140.906 125.031 140.727C120.83 140.349 117.938 139.21 117.485 137.756C117.335 137.275 117.376 136.516 118.426 135.642C119.787 134.511 124.039 132.015 134.125 133.301C138.049 133.8 140.85 135.053 141.434 136.57C141.667 137.172 141.537 137.785 141.058 138.342C139.564 140.088 135.903 140.996 130.545 140.996ZM118.701 135.973C118.005 136.553 117.735 137.108 117.896 137.628C118.29 138.893 121.105 139.941 125.07 140.298C133.298 141.039 138.861 140.245 140.732 138.062C141.105 137.627 141.206 137.177 141.033 136.726C140.513 135.376 137.781 134.2 134.071 133.728C130.222 133.238 126.835 133.261 124.007 133.797C121.131 134.341 119.535 135.28 118.701 135.973Z" fill="#EAEAEA"/>
<path d="M115.508 137.284V135.379L143.366 135.207L143.326 137.284H115.508Z" fill="#016EB9"/>
<path d="M116.6 135.327C119.135 133.217 124.918 131.362 134.866 132.63C141.345 133.456 144.73 135.96 142.86 138.142C140.588 140.794 133.973 141.737 124.228 140.858C117.522 140.254 113.431 137.963 116.6 135.327Z" fill="#016EB9"/>
<path d="M116.6 133.493C119.135 131.383 124.918 129.528 134.866 130.796C141.345 131.622 144.73 134.126 142.861 136.308C140.588 138.96 133.973 139.903 124.228 139.024C117.522 138.421 113.431 136.129 116.6 133.493Z" fill="#00A3FE"/>
<path d="M130.545 138.898C128.869 138.898 127.025 138.809 125.031 138.629C120.83 138.251 117.938 137.111 117.485 135.658C117.335 135.176 117.376 134.418 118.426 133.544L118.564 133.71L118.426 133.544C119.787 132.412 124.041 129.917 134.125 131.202C138.049 131.702 140.85 132.955 141.434 134.472C141.667 135.074 141.537 135.687 141.058 136.244C139.564 137.99 135.903 138.898 130.545 138.898ZM128.88 131.279C127.113 131.279 125.484 131.419 124.007 131.699C121.131 132.243 119.535 133.184 118.703 133.875C118.007 134.455 117.736 135.01 117.898 135.53C118.292 136.794 121.107 137.843 125.071 138.2C133.299 138.941 138.862 138.147 140.733 135.964C141.106 135.529 141.207 135.079 141.034 134.627C140.514 133.28 137.782 132.102 134.072 131.63C132.232 131.396 130.497 131.279 128.88 131.279Z" fill="#EAEAEA"/>
<path d="M115.508 134.378V132.473L143.366 132.3L143.326 134.378H115.508Z" fill="#016EB9"/>
<path d="M116.6 132.42C119.135 130.311 124.918 128.456 134.866 129.724C141.345 130.549 144.73 133.054 142.86 135.236C140.588 137.888 133.973 138.83 124.228 137.952C117.522 137.348 113.431 135.056 116.6 132.42Z" fill="#016EB9"/>
<path d="M116.6 130.586C119.135 128.477 124.918 126.622 134.866 127.89C141.345 128.715 144.73 131.22 142.861 133.402C140.588 136.054 133.973 136.996 124.228 136.118C117.522 135.514 113.431 133.224 116.6 130.586Z" fill="#00A3FE"/>
<path d="M130.545 135.991C128.869 135.991 127.025 135.903 125.031 135.722C120.83 135.344 117.938 134.205 117.485 132.751C117.335 132.27 117.376 131.511 118.426 130.637C119.787 129.506 124.039 127.011 134.125 128.296C138.049 128.795 140.85 130.048 141.434 131.566C141.667 132.167 141.537 132.78 141.058 133.337C139.564 135.083 135.903 135.991 130.545 135.991ZM118.701 130.969C118.005 131.548 117.735 132.103 117.896 132.623C118.29 133.888 121.105 134.936 125.07 135.293C133.298 136.034 138.861 135.24 140.732 133.057C141.105 132.622 141.206 132.172 141.033 131.721C140.513 130.373 137.781 129.195 134.071 128.723C130.222 128.233 126.835 128.256 124.007 128.792C121.131 129.336 119.535 130.276 118.701 130.969Z" fill="#EAEAEA"/>
<path d="M115.838 130.814V128.909L143.696 128.738L143.656 130.814H115.838Z" fill="#016EB9"/>
<path d="M116.93 128.856C119.465 126.747 125.248 124.892 135.196 126.16C141.675 126.986 145.06 129.49 143.19 131.672C140.918 134.324 134.303 135.266 124.558 134.388C117.852 133.784 113.761 131.494 116.93 128.856Z" fill="#016EB9"/>
<path d="M116.93 127.022C119.465 124.913 125.247 123.058 135.196 124.325C141.675 125.151 145.06 127.656 143.19 129.837C140.918 132.489 134.303 133.432 124.558 132.553C117.852 131.95 113.761 129.66 116.93 127.022Z" fill="#00A3FE"/>
<path d="M130.875 132.427C129.199 132.427 127.356 132.339 125.361 132.158C121.16 131.78 118.268 130.641 117.815 129.187C117.665 128.706 117.706 127.947 118.756 127.073C120.117 125.942 124.371 123.447 134.455 124.732C138.38 125.231 141.18 126.484 141.765 128.002C141.997 128.603 141.867 129.216 141.388 129.773C139.894 131.519 136.233 132.427 130.875 132.427ZM129.21 124.809C127.444 124.809 125.814 124.948 124.337 125.228C121.461 125.772 119.865 126.712 119.033 127.405C118.337 127.984 118.066 128.539 118.228 129.059C118.622 130.324 121.437 131.372 125.401 131.729C133.631 132.47 139.193 131.676 141.064 129.493C141.436 129.058 141.537 128.608 141.364 128.157C140.844 126.808 138.112 125.631 134.402 125.159C132.562 124.925 130.827 124.809 129.21 124.809Z" fill="#EAEAEA"/>
<path d="M127.267 130.854L127.459 130.575C127.53 130.474 127.351 130.374 127.05 130.34C126.341 130.262 125.678 130.142 125.193 130.009C124.958 129.945 124.905 129.833 125.067 129.748L125.179 129.689C125.374 129.586 125.801 129.562 126.091 129.637C126.651 129.783 127.371 129.908 128.183 129.967C129.566 130.068 130.404 129.812 130.66 129.441C130.907 129.082 130.582 128.863 129.276 128.562C127.469 128.155 125.712 127.712 126.102 127.145C126.443 126.651 127.722 126.22 130.033 126.364C130.308 126.382 130.552 126.297 130.614 126.208L130.824 125.903C130.899 125.795 131.23 125.727 131.563 125.751C131.896 125.775 132.106 125.884 132.032 125.992L131.858 126.246C131.789 126.345 131.958 126.446 132.253 126.48C132.845 126.547 133.304 126.632 133.666 126.72C133.925 126.782 133.988 126.901 133.812 126.99L133.701 127.046C133.508 127.144 133.103 127.166 132.816 127.097C132.413 127.001 131.834 126.894 131.024 126.835C129.524 126.726 128.753 126.984 128.573 127.245C128.34 127.584 129.367 127.693 130.899 128.051C132.715 128.472 133.717 128.951 133.484 129.54C133.236 130.169 131.826 130.518 129.303 130.462C129.023 130.455 128.783 130.529 128.722 130.618L128.498 130.943C128.423 131.052 128.093 131.119 127.759 131.095L127.74 131.094C127.402 131.07 127.192 130.963 127.267 130.854Z" fill="#EAEAEA"/>
<path d="M116.143 127.513V125.61L144 125.438L143.96 127.513H116.143Z" fill="#016EB9"/>
<path d="M117.234 125.556C119.769 123.447 125.552 121.592 135.5 122.859C141.979 123.685 145.364 126.19 143.494 128.371C141.222 131.023 134.607 131.966 124.862 131.087C118.156 130.484 114.065 128.194 117.234 125.556Z" fill="#016EB9"/>
<path d="M117.234 123.722C119.769 121.613 125.551 119.758 135.5 121.025C141.979 121.851 145.364 124.356 143.494 126.537C141.222 129.189 134.607 130.132 124.862 129.253C118.156 128.652 114.065 126.36 117.234 123.722Z" fill="#00A3FE"/>
<path d="M131.179 129.128C129.503 129.128 127.66 129.039 125.665 128.86C121.464 128.482 118.572 127.342 118.119 125.889C117.969 125.407 118.01 124.649 119.06 123.775L119.198 123.941L119.06 123.775C120.421 122.643 124.675 120.148 134.759 121.433C138.684 121.933 141.484 123.186 142.069 124.703C142.301 125.305 142.171 125.918 141.692 126.475C140.196 128.221 136.537 129.128 131.179 129.128ZM129.515 121.509C127.748 121.509 126.118 121.648 124.641 121.928C121.765 122.472 120.169 123.413 119.337 124.105C118.641 124.684 118.371 125.239 118.532 125.76C118.926 127.024 121.741 128.072 125.705 128.429C133.933 129.17 139.497 128.376 141.368 126.193C141.74 125.758 141.841 125.308 141.668 124.857C141.148 123.509 138.416 122.331 134.706 121.859C132.864 121.626 131.131 121.509 129.515 121.509Z" fill="#EAEAEA"/>
<path d="M127.571 127.553L127.763 127.275C127.834 127.174 127.655 127.073 127.354 127.04C126.645 126.961 125.982 126.841 125.497 126.708C125.262 126.644 125.209 126.532 125.371 126.447L125.483 126.388C125.678 126.286 126.105 126.262 126.395 126.337C126.955 126.483 127.675 126.608 128.487 126.667C129.87 126.768 130.708 126.512 130.964 126.14C131.211 125.782 130.886 125.562 129.58 125.262C127.773 124.855 126.016 124.412 126.406 123.845C126.747 123.351 128.026 122.92 130.337 123.064C130.612 123.082 130.856 122.997 130.918 122.907L131.128 122.603C131.203 122.494 131.533 122.427 131.867 122.451C132.2 122.475 132.41 122.584 132.336 122.691L132.162 122.946C132.093 123.045 132.262 123.146 132.557 123.179C133.149 123.247 133.608 123.331 133.97 123.419C134.229 123.482 134.292 123.6 134.116 123.69L134.005 123.746C133.812 123.844 133.407 123.866 133.12 123.797C132.717 123.701 132.138 123.594 131.328 123.535C129.828 123.426 129.057 123.683 128.877 123.944C128.644 124.284 129.671 124.393 131.203 124.751C133.019 125.172 134.021 125.65 133.788 126.239C133.54 126.868 132.13 127.217 129.607 127.161C129.327 127.155 129.087 127.229 129.026 127.318L128.802 127.641C128.727 127.75 128.396 127.818 128.063 127.793L128.044 127.792C127.706 127.769 127.496 127.662 127.571 127.553Z" fill="#EAEAEA"/>
<path d="M113.471 123.37V121.465L141.329 121.292L141.289 123.37H113.471Z" fill="#016EB9"/>
<path d="M114.563 121.411C117.098 119.301 122.88 117.446 132.829 118.714C139.308 119.54 142.693 122.044 140.823 124.226C138.551 126.878 131.936 127.821 122.191 126.942C115.486 126.34 111.394 124.048 114.563 121.411Z" fill="#016EB9"/>
<path d="M114.562 119.578C117.098 117.469 122.88 115.614 132.829 116.881C139.307 117.707 142.692 120.212 140.823 122.393C138.55 125.045 131.936 125.988 122.19 125.109C115.486 124.506 111.394 122.214 114.562 119.578Z" fill="#00A3FE"/>
<path d="M128.508 124.983C126.832 124.983 124.988 124.895 122.994 124.714C118.793 124.336 115.901 123.197 115.448 121.744C115.297 121.262 115.339 120.503 116.389 119.629C117.749 118.498 122.003 116.003 132.088 117.288C136.012 117.787 138.813 119.04 139.397 120.559C139.629 121.161 139.5 121.774 139.021 122.331C137.526 124.076 133.866 124.983 128.508 124.983ZM116.664 119.961C115.968 120.54 115.697 121.095 115.859 121.616C116.253 122.88 119.068 123.928 123.032 124.285C131.26 125.026 136.824 124.232 138.694 122.049C139.067 121.614 139.168 121.164 138.995 120.713C138.475 119.364 135.743 118.187 132.033 117.715C128.184 117.226 124.798 117.248 121.97 117.782C119.094 118.328 117.498 119.268 116.664 119.961Z" fill="#EAEAEA"/>
<path d="M118.27 120.635V118.732L146.126 118.559L146.087 120.635H118.27Z" fill="#016EB9"/>
<path d="M119.361 118.677C121.896 116.568 127.679 114.713 137.627 115.98C144.106 116.806 147.491 119.311 145.622 121.492C143.349 124.144 136.734 125.087 126.989 124.208C120.283 123.607 116.192 121.315 119.361 118.677Z" fill="#016EB9"/>
<path d="M119.361 116.843C121.896 114.734 127.679 112.879 137.627 114.146C144.106 114.972 147.491 117.477 145.622 119.658C143.349 122.31 136.734 123.253 126.989 122.374C120.283 121.773 116.192 119.481 119.361 116.843Z" fill="#00A3FE"/>
<path d="M133.305 122.25C131.629 122.25 129.785 122.162 127.791 121.981C123.59 121.603 120.698 120.463 120.245 119.01C120.094 118.528 120.136 117.77 121.186 116.896C122.546 115.764 126.799 113.269 136.885 114.555C140.809 115.054 143.61 116.307 144.194 117.824C144.426 118.426 144.297 119.039 143.818 119.596C142.323 121.342 138.664 122.25 133.305 122.25ZM121.463 117.227C120.767 117.807 120.496 118.362 120.658 118.882C121.051 120.147 123.867 121.195 127.831 121.552C136.061 122.293 141.622 121.499 143.493 119.316C143.866 118.881 143.967 118.431 143.794 117.98C143.274 116.63 140.542 115.454 136.832 114.982C132.983 114.492 129.596 114.515 126.768 115.051C123.892 115.593 122.295 116.534 121.463 117.227Z" fill="#EAEAEA"/>
<path d="M129.699 120.675L129.891 120.396C129.961 120.295 129.782 120.194 129.481 120.161C128.772 120.082 128.109 119.962 127.624 119.829C127.389 119.765 127.336 119.655 127.498 119.569L127.61 119.509C127.805 119.407 128.233 119.383 128.522 119.458C129.082 119.604 129.803 119.729 130.614 119.788C131.997 119.889 132.835 119.633 133.092 119.261C133.338 118.903 133.013 118.684 131.707 118.383C129.9 117.976 128.143 117.533 128.533 116.966C128.874 116.472 130.153 116.041 132.464 116.185C132.739 116.203 132.983 116.118 133.045 116.028L133.255 115.724C133.33 115.615 133.661 115.548 133.994 115.572C134.327 115.596 134.537 115.705 134.463 115.812L134.289 116.067C134.22 116.166 134.39 116.267 134.684 116.3C135.276 116.368 135.736 116.453 136.097 116.541C136.357 116.603 136.419 116.721 136.243 116.811L136.132 116.867C135.939 116.965 135.534 116.987 135.247 116.918C134.844 116.822 134.265 116.715 133.455 116.656C131.955 116.547 131.184 116.805 131.005 117.065C130.771 117.405 131.798 117.514 133.33 117.872C135.147 118.293 136.148 118.772 135.915 119.361C135.667 119.99 134.257 120.338 131.734 120.282C131.454 120.276 131.214 120.35 131.153 120.439L130.929 120.764C130.854 120.873 130.524 120.94 130.19 120.916L130.171 120.915C129.833 120.891 129.623 120.783 129.699 120.675Z" fill="#EAEAEA"/>
<path d="M132.243 145.086V143.377L157.258 143.222L157.223 145.086H132.243Z" fill="#016EB9"/>
<path d="M133.224 143.329C135.5 141.435 140.693 139.769 149.627 140.907C155.445 141.648 158.484 143.899 156.805 145.857C154.763 148.239 148.824 149.086 140.074 148.297C134.051 147.754 130.378 145.696 133.224 143.329Z" fill="#016EB9"/>
<path d="M133.224 141.682C135.5 139.789 140.693 138.123 149.627 139.261C155.445 140.002 158.484 142.252 156.805 144.211C154.763 146.592 148.824 147.439 140.074 146.65C134.051 146.108 130.378 144.049 133.224 141.682Z" fill="#00A3FE"/>
<path d="M145.744 146.535C144.238 146.535 142.585 146.455 140.794 146.293C137.022 145.954 134.424 144.931 134.018 143.625C133.883 143.191 133.92 142.511 134.863 141.727C136.084 140.711 139.904 138.47 148.96 139.624C152.484 140.072 154.998 141.199 155.523 142.561C155.731 143.102 155.614 143.652 155.186 144.152C153.844 145.72 150.557 146.535 145.744 146.535ZM144.251 139.694C142.664 139.694 141.201 139.819 139.876 140.07C137.292 140.558 135.86 141.404 135.113 142.026C134.488 142.546 134.245 143.046 134.389 143.511C134.743 144.648 137.272 145.589 140.829 145.909C148.219 146.575 153.214 145.861 154.894 143.902C155.229 143.511 155.32 143.108 155.165 142.702C154.699 141.49 152.244 140.434 148.913 140.01C147.26 139.798 145.703 139.694 144.251 139.694Z" fill="#EAEAEA"/>
<path d="M142.507 145.121L142.678 144.872C142.74 144.78 142.58 144.691 142.31 144.66C141.673 144.59 141.079 144.483 140.644 144.363C140.432 144.305 140.386 144.206 140.53 144.129L140.631 144.076C140.807 143.983 141.189 143.963 141.45 144.031C141.953 144.163 142.601 144.275 143.329 144.328C144.571 144.419 145.323 144.188 145.554 143.854C145.776 143.532 145.483 143.334 144.31 143.065C142.687 142.7 141.109 142.301 141.461 141.792C141.767 141.349 142.916 140.962 144.99 141.091C145.239 141.107 145.456 141.031 145.512 140.951L145.701 140.677C145.768 140.579 146.066 140.518 146.365 140.539C146.664 140.562 146.853 140.658 146.786 140.755L146.629 140.983C146.568 141.072 146.719 141.162 146.985 141.192C147.516 141.253 147.929 141.328 148.254 141.408C148.487 141.464 148.542 141.572 148.385 141.65L148.286 141.7C148.111 141.788 147.748 141.807 147.49 141.746C147.129 141.66 146.608 141.564 145.88 141.511C144.534 141.413 143.841 141.645 143.68 141.879C143.47 142.183 144.392 142.281 145.768 142.604C147.399 142.982 148.299 143.41 148.089 143.94C147.865 144.505 146.6 144.819 144.334 144.768C144.083 144.763 143.867 144.828 143.812 144.909L143.612 145.2C143.545 145.297 143.248 145.358 142.948 145.337L142.931 145.336C142.627 145.315 142.439 145.219 142.507 145.121Z" fill="#EAEAEA"/>
<path d="M106.98 144.494V143.316L124.214 143.209L124.19 144.494H106.98Z" fill="#016EB9"/>
<path d="M107.655 143.283C109.224 141.978 112.801 140.831 118.956 141.613C122.965 142.124 125.059 143.675 123.902 145.024C122.495 146.664 118.403 147.247 112.374 146.704C108.225 146.331 105.695 144.915 107.655 143.283Z" fill="#016EB9"/>
<path d="M107.655 142.148C109.224 140.843 112.801 139.696 118.956 140.478C122.965 140.989 125.059 142.54 123.902 143.889C122.495 145.53 118.403 146.112 112.374 145.57C108.225 145.198 105.695 143.78 107.655 142.148Z" fill="#00A3FE"/>
<path d="M116.282 145.493C115.245 145.493 114.105 145.438 112.87 145.326C110.271 145.093 108.481 144.388 108.201 143.489C108.108 143.191 108.134 142.721 108.784 142.181C109.626 141.48 112.257 139.937 118.497 140.733C120.925 141.042 122.658 141.818 123.02 142.756C123.164 143.129 123.084 143.508 122.788 143.852C121.861 144.931 119.596 145.493 116.282 145.493ZM108.955 142.386C108.524 142.745 108.356 143.089 108.457 143.409C108.701 144.192 110.443 144.84 112.895 145.061C117.986 145.52 121.427 145.029 122.586 143.678C122.817 143.409 122.879 143.13 122.772 142.85C122.45 142.016 120.76 141.288 118.465 140.995C116.869 140.794 111.469 140.293 108.955 142.386Z" fill="#EAEAEA"/>
<path d="M114.051 144.518L114.169 144.347C114.213 144.285 114.102 144.222 113.915 144.201C113.476 144.152 113.067 144.078 112.766 143.997C112.62 143.956 112.588 143.888 112.687 143.835L112.756 143.798C112.878 143.734 113.142 143.72 113.321 143.766C113.668 143.856 114.113 143.932 114.616 143.969C115.471 144.032 115.991 143.873 116.149 143.643C116.303 143.42 116.101 143.284 115.293 143.099C114.176 142.847 113.088 142.574 113.329 142.222C113.54 141.916 114.331 141.649 115.76 141.738C115.932 141.749 116.082 141.697 116.119 141.641L116.248 141.452C116.295 141.385 116.5 141.343 116.706 141.357C116.913 141.372 117.042 141.439 116.996 141.506L116.887 141.663C116.845 141.724 116.949 141.786 117.132 141.807C117.498 141.849 117.782 141.901 118.006 141.956C118.166 141.994 118.204 142.068 118.095 142.122L118.027 142.158C117.907 142.218 117.657 142.231 117.479 142.19C117.229 142.13 116.871 142.065 116.37 142.028C115.442 141.961 114.965 142.121 114.854 142.281C114.71 142.49 115.346 142.558 116.293 142.78C117.417 143.039 118.036 143.336 117.892 143.7C117.738 144.089 116.866 144.305 115.306 144.272C115.133 144.269 114.984 144.313 114.946 144.369L114.808 144.569C114.762 144.637 114.557 144.678 114.35 144.664L114.339 144.662C114.134 144.653 114.005 144.585 114.051 144.518Z" fill="#EAEAEA"/>
<path d="M73.2052 95.5109C73.2052 95.5109 76.0668 95.3796 76.5213 90.9896C76.9903 86.4779 71.8144 90.9896 71.8144 90.9896L73.2052 95.5109Z" fill="#FF7955"/>
<path d="M70.2875 81.1177C70.462 81.1865 73.3572 81.9707 74.6408 86.3384C75.9228 90.706 71.6175 87.2619 71.6175 87.2619L70.2875 81.1177Z" fill="#FF7955"/>
<path d="M66.4722 141.293C66.4722 141.293 66.5122 142.864 67.5733 143.305C68.636 143.749 71.7137 144.147 70.5629 145.157C69.9036 145.736 66.7938 145.362 65.9152 145.362C65.0365 145.362 64.2123 145.744 63.5609 145.157C62.8439 144.51 63.5609 141.293 63.5609 141.293C63.5609 141.293 64.3179 141.689 64.9997 141.671C65.9824 141.644 66.4722 141.293 66.4722 141.293Z" fill="#131F2D"/>
<path d="M54.2751 141.293C54.2751 141.293 54.3151 142.864 55.3762 143.305C56.4389 143.749 59.5166 144.147 58.3659 145.157C57.7065 145.736 54.5968 145.362 53.7182 145.362C52.8395 145.362 52.0153 145.744 51.3639 145.157C50.6453 144.51 51.3639 141.293 51.3639 141.293C51.3639 141.293 52.1209 141.689 52.8027 141.671C53.7838 141.644 54.2751 141.293 54.2751 141.293Z" fill="#131F2D"/>
<path d="M74.3672 98.2598C74.3672 98.2598 74.5641 104.831 72.4659 117.435C70.9518 126.535 69.1641 135.704 68.2871 140.101C67.9734 141.674 66.6514 142.823 65.0829 142.885L64.2411 142.919C62.5462 142.986 61.1714 141.531 61.2946 139.8L63.4216 110.058L63.9466 100.27L74.3672 98.2598Z" fill="#364154"/>
<path d="M55.1826 104.042C55.2786 104.842 59.8015 104.745 65.3375 104.044C70.8735 103.343 75.1836 102.144 75.0876 101.344C74.9915 100.544 70.5246 100.448 64.9886 101.147C59.4526 101.85 55.0866 103.244 55.1826 104.042Z" fill="#131F2D"/>
<path d="M68.0102 102.954L56.1892 140.925C55.6946 142.515 54.2638 143.605 52.633 143.632L51.9224 143.645C50.2451 143.673 48.9631 142.123 49.2688 140.434L55.7346 104.755C55.8291 104.331 56.1412 103.993 56.5509 103.876C58.7691 103.236 68.2279 101.383 68.0102 102.954Z" fill="#364154"/>
<path d="M57.0311 82.182C57.0311 82.182 58.6044 77.7567 64.206 77.9583C69.8092 78.16 74.0393 85.5221 75.0876 101.346C75.0876 101.346 65.9137 99.3341 55.1666 104.027C55.1666 104.027 54.5712 88.6302 57.0311 82.182Z" fill="#016EB9"/>
<path d="M53.0972 81.9148L57.0663 84.4547C57.0663 84.4547 67.2693 85.4758 69.9772 84.9845C72.6852 84.4931 73.1078 82.5022 73.1078 82.5022C73.1078 82.5022 70.531 78.9683 65.6288 78.0897C65.1679 78.0065 64.7038 77.9936 64.2092 77.9568C63.377 77.8976 62.5463 77.9232 61.7301 78.0113C56.8855 78.5362 53.0972 81.9148 53.0972 81.9148Z" fill="#016EB9"/>
<path d="M62.7286 119.926L62.5397 119.863L65.0813 112.135C65.6687 110.35 66.8754 108.86 68.4823 107.94L68.5815 108.113C67.0178 109.009 65.8431 110.459 65.2701 112.197L62.7286 119.926Z" fill="#020202"/>
<path d="M68.0553 76.998L68.0281 76.8828C68.0345 76.8812 68.7371 76.7099 68.9324 76.2362C69.0332 75.9913 68.9836 75.7048 68.7851 75.3815C68.6891 75.2263 68.6011 75.0855 68.5211 74.9574C67.9609 74.0644 67.7512 73.7299 67.9049 72.9937L68.0201 73.0177C67.8761 73.7075 68.0633 74.0067 68.6203 74.895C68.7003 75.023 68.7899 75.1639 68.8844 75.3191C69.1036 75.676 69.1564 75.9993 69.0396 76.281C68.822 76.8108 68.0874 76.99 68.0553 76.998Z" fill="#B05638"/>
<path d="M67.9655 73.0063C67.9655 73.0063 67.7175 74.1299 68.4617 75.3062C69.2059 76.4826 68.3961 77.342 67.3878 76.8891C66.3795 76.4361 65.9954 77.7229 64.7054 77.0123C63.4154 76.3001 67.9655 73.0063 67.9655 73.0063Z" fill="#B05638"/>
<path d="M62.0073 77.9745C62.5643 77.9153 63.0476 77.5648 63.27 77.051L63.9647 75.4378L64.1663 74.9704L65.3506 72.2192L65.1458 75.0713L65.0225 76.7822L64.9873 77.2703C64.9585 77.6688 65.237 78.0209 65.6291 78.0913L65.6355 78.0929C65.8468 78.4354 66.1381 79.1332 65.2674 79.4101C64.2447 79.735 62.5915 78.93 61.9977 77.9777C62.0009 77.9745 62.0041 77.9745 62.0073 77.9745Z" fill="#FF7955"/>
<path d="M63.9596 75.3913C63.9596 75.4074 63.9612 75.4234 63.9628 75.4378C64.0301 76.3564 65.0144 76.7869 65.0144 76.7869L65.0207 76.7822L65.144 75.0713C64.8431 74.9608 64.4158 74.8472 64.1645 74.972C64.0333 75.0344 63.9516 75.1641 63.9596 75.3913Z" fill="#131F2D"/>
<path d="M65.4785 75.9786C66.9582 75.9786 68.1577 74.4989 68.1577 72.6736C68.1577 70.8483 66.9582 69.3687 65.4785 69.3687C63.9988 69.3687 62.7993 70.8483 62.7993 72.6736C62.7993 74.4989 63.9988 75.9786 65.4785 75.9786Z" fill="#FF7955"/>
<path d="M63.1579 73.1731C63.4619 73.4628 63.8861 73.4932 64.1053 73.2387C64.3246 72.9858 64.2574 72.5457 63.9549 72.256C63.6508 71.9663 63.2267 71.9359 63.0074 72.1904C62.7866 72.4433 62.8538 72.8834 63.1579 73.1731Z" fill="#FF7955"/>
<path d="M66.9221 74.8131C66.9221 74.8131 66.0066 74.8339 65.0912 74.5122C65.0912 74.5122 65.0143 75.4149 66.0066 75.4741C66.5828 75.5109 66.9221 74.8131 66.9221 74.8131Z" fill="#E9633E"/>
<path d="M66.922 74.8131C66.922 74.8131 66.7011 74.9971 66.1842 74.9939C65.6673 74.9923 65.0927 74.5122 65.0927 74.5122C65.0927 74.5122 66.1938 74.8163 66.922 74.8131Z" fill="white"/>
<path d="M65.7377 72.7054C65.7553 72.7006 65.7713 72.6878 65.7777 72.6686C65.7905 72.6366 65.7745 72.6014 65.7441 72.5902C65.7265 72.5822 65.3152 72.3726 64.9551 72.7663C64.9327 72.7919 64.9327 72.8287 64.9567 72.8527C64.9807 72.8751 65.0143 72.8687 65.0431 72.8511C65.3232 72.6622 65.6833 72.6991 65.6977 72.7039C65.7121 72.7087 65.7265 72.7087 65.7377 72.7054Z" fill="#080435"/>
<path d="M65.2561 73.3759C65.2513 73.5215 65.3329 73.6416 65.4385 73.6448C65.5442 73.648 65.6338 73.5327 65.6386 73.3871C65.6434 73.2415 65.5617 73.1214 65.4561 73.1182C65.3505 73.115 65.2609 73.2303 65.2561 73.3759Z" fill="#080435"/>
<path d="M67.9129 73.0242C67.9305 73.0258 67.9497 73.021 67.9641 73.0066C67.9881 72.9825 67.9865 72.9441 67.9625 72.9201C67.9481 72.9057 67.6488 72.5552 67.1655 72.7825C67.1351 72.7969 67.1207 72.8321 67.1351 72.8625C67.1495 72.8929 67.1831 72.8993 67.2151 72.8929C67.5448 72.8257 67.8649 72.9954 67.8761 73.0066C67.8889 73.0162 67.9017 73.0226 67.9129 73.0242Z" fill="#080435"/>
<path d="M67.2118 73.4593C67.1525 73.5922 67.1813 73.7346 67.2774 73.7778C67.3734 73.821 67.4998 73.749 67.559 73.6162C67.6183 73.4833 67.5895 73.3409 67.4934 73.2977C67.399 73.2545 67.2726 73.3265 67.2118 73.4593Z" fill="#080435"/>
<path d="M66.6164 69.9669C66.6164 69.9669 66.5588 71.1144 65.1264 71.3097C63.6939 71.5049 62.7064 72.1115 62.8985 73.1438C63.0905 74.1761 65.4 76.3159 63.7035 77.145C62.007 77.974 62.3672 76.428 60.5282 76.7865C58.6893 77.145 58.3564 74.6883 59.6239 73.2623C60.8915 71.8362 60.3778 68.064 65.128 68.232C69.8781 68.4 68.1368 72.1883 68.1368 72.1883C68.1368 72.1883 66.6132 71.2345 66.6164 69.9669Z" fill="#B05638"/>
<path d="M63.2141 77.3564L63.1997 77.3212C63.5502 77.1804 63.7566 76.9787 63.8302 76.7082C64.0335 75.9576 63.1436 74.8037 62.3578 73.7858C62.1498 73.5153 61.9529 73.2608 61.7784 73.0159C61.2919 72.3374 61.2503 71.5275 61.6664 70.9033C62.1289 70.2087 63.0092 69.9159 63.9631 70.1367C64.885 70.3512 65.5171 70.1591 65.8868 69.9607C66.287 69.7462 66.471 69.4757 66.4726 69.4741L66.5046 69.4965C66.4966 69.5077 66.3142 69.775 65.9076 69.9943C65.5331 70.1959 64.8897 70.3928 63.9551 70.1751C63.0172 69.9575 62.1529 70.2455 61.6984 70.9257C61.2839 71.5451 61.3255 72.3197 61.8105 72.9951C61.9849 73.2384 62.1818 73.4929 62.3898 73.7634C63.1804 74.7877 64.0767 75.9496 63.8686 76.7194C63.7918 76.9979 63.5726 77.2124 63.2141 77.3564Z" fill="white"/>
<path d="M67.7272 75.1893C67.5847 75.1893 67.4471 75.1493 67.3174 75.0693C66.7413 74.7108 66.5236 73.6289 66.8325 72.659C67.0213 72.0652 67.3766 71.6203 67.7783 71.4714C68.0184 71.3834 68.2601 71.4042 68.4746 71.5403C69.0507 71.8972 69.2684 72.9775 68.9595 73.949C68.7707 74.5459 68.4154 74.9893 68.0136 75.1381C67.9176 75.1733 67.8216 75.1893 67.7272 75.1893ZM66.9461 72.6958C66.6516 73.6161 66.8469 74.6356 67.3798 74.9684C67.5591 75.0805 67.7656 75.0981 67.9704 75.0261C68.3385 74.89 68.665 74.4723 68.8443 73.9121C69.1388 72.9903 68.9435 71.9708 68.4106 71.6395C68.2297 71.5275 68.0264 71.5083 67.8184 71.5819C67.4519 71.7195 67.1254 72.134 66.9461 72.6958Z" fill="#764678"/>
<g opacity="0.3">
<path opacity="0.3" d="M63.7324 72.0288C63.5179 72.973 63.8604 73.9861 64.499 74.2918C65.1376 74.5975 65.8306 74.0805 66.0451 73.1379C66.2595 72.1936 65.917 71.1805 65.2784 70.8748C64.6398 70.5675 63.9485 71.0845 63.7324 72.0288Z" fill="white"/>
</g>
<g opacity="0.3">
<path opacity="0.3" d="M66.8069 72.7377C66.5909 73.6852 66.879 74.7143 67.4471 75.0344C68.0153 75.3545 68.6539 74.8455 68.8683 73.8965C69.0844 72.949 68.7963 71.9199 68.2265 71.5998C67.66 71.2813 67.023 71.7903 66.8069 72.7377Z" fill="white"/>
</g>
<path d="M64.952 74.41C64.808 74.41 64.664 74.3779 64.5247 74.3107C63.8205 73.981 63.438 72.8927 63.6733 71.8828C63.8077 71.2971 64.1214 70.8457 64.5327 70.6457C64.8192 70.508 65.1201 70.5064 65.4034 70.6393C66.1076 70.9706 66.4885 72.0589 66.2548 73.0672C66.1188 73.6545 65.8035 74.1059 65.3922 74.3059C65.2481 74.3731 65.0993 74.41 64.952 74.41ZM64.9776 70.6585C64.8464 70.6585 64.7136 70.6889 64.5871 70.7513C64.2142 70.9338 63.9165 71.3659 63.7901 71.91C63.5676 72.8671 63.9197 73.8946 64.5759 74.2035C64.8256 74.3171 65.0897 74.3155 65.3409 74.1987C65.7155 74.0178 66.0131 73.5841 66.1412 73.0384C66.362 72.0813 66.01 71.0538 65.3554 70.7449C65.2305 70.6873 65.1041 70.6585 64.9776 70.6585Z" fill="#764678"/>
<path d="M66.9335 73.0913C66.9079 73.0913 66.8839 73.0833 66.8631 73.0657C66.8503 73.0561 66.5622 72.8289 66.0644 72.9249C66.0052 72.9329 65.946 72.8977 65.9332 72.8369C65.9204 72.7761 65.9604 72.7184 66.0212 72.7072C66.623 72.5808 66.9895 72.8817 67.0055 72.8929C67.052 72.9329 67.0583 73.0033 67.0199 73.0497C66.9975 73.0769 66.9655 73.0913 66.9335 73.0913Z" fill="#764678"/>
<path d="M53.0412 82.0027C52.9035 82.4029 53.9422 83.1503 55.3602 83.6736C56.7783 84.197 58.0394 84.2962 58.177 83.8977C58.3147 83.4976 57.276 82.7502 55.858 82.2268C54.44 81.7035 53.1788 81.6026 53.0412 82.0027Z" fill="#131F2D"/>
<path d="M59.6349 103.177C59.6349 103.177 70.6845 101.066 74.268 102.061L72.5507 104.608L66.1632 104.969L59.6349 103.177Z" fill="#364154"/>
<path d="M75.5339 91.7636C75.1306 91.7636 74.6793 91.6532 74.6505 91.6452L74.6744 91.5508C74.9609 91.6228 75.7612 91.7636 76.006 91.5604L76.0684 91.6356C75.9516 91.7332 75.75 91.7636 75.5339 91.7636Z" fill="#EF6343"/>
<path d="M84.5942 93.6989C84.2517 94.864 83.7315 95.9267 83.0705 96.8694C82.2831 97.9945 81.2972 98.9452 80.1785 99.6878C78.1235 101.053 75.6156 101.714 73.0612 101.45C72.4066 101.384 71.7489 101.256 71.0959 101.064C70.4205 100.866 69.7803 100.608 69.1769 100.296C66.9315 99.1421 65.211 97.2631 64.2267 95.0449C63.6793 93.8173 63.3592 92.4873 63.2984 91.1157C63.2456 89.9474 63.3833 88.7503 63.7322 87.5659C64.1051 86.2967 64.6908 85.146 65.4366 84.1441C66.2465 83.0542 67.2452 82.1387 68.3735 81.4297C70.3821 80.167 72.7924 79.562 75.2491 79.8133C75.9085 79.8789 76.5711 80.0069 77.2304 80.2006C77.877 80.391 78.4932 80.6359 79.0726 80.9304C81.2764 82.0411 82.9809 83.8464 83.9924 85.9879C84.5622 87.193 84.9143 88.5038 85.0103 89.8578C85.1015 91.1157 84.9719 92.4153 84.5942 93.6989Z" fill="#B05638"/>
<path d="M74.2041 98.438C73.3783 98.438 72.5364 98.3212 71.6978 98.0747C69.6508 97.4729 68.0327 96.1286 67.1413 94.2912C66.2738 92.5003 66.1378 90.3493 66.7588 88.2367C68.0007 84.0114 71.8034 81.8972 76.4448 82.8479C78.3749 83.2432 80.025 84.4388 81.0909 86.2121C82.2961 88.2159 82.6065 90.6614 81.9423 92.918C80.9565 96.2806 77.746 98.438 74.2041 98.438ZM74.3049 82.7423C70.7151 82.7423 67.9015 84.7717 66.8724 88.2703C66.2594 90.3541 66.3923 92.4747 67.2485 94.2384C68.124 96.0453 69.7164 97.3673 71.7314 97.9595C76.1007 99.2446 80.6316 96.9672 81.8319 92.8844C82.4865 90.6582 82.1808 88.2495 80.9917 86.2729C79.9418 84.5284 78.3205 83.3521 76.4223 82.9631C75.6941 82.8159 74.9851 82.7423 74.3049 82.7423Z" fill="white"/>
<path d="M79.0726 80.9286L78.3924 82.6139L74.9466 81.6008L75.2491 79.8115C75.9085 79.8771 76.5711 80.0052 77.2305 80.1988C77.8754 80.3893 78.4916 80.6342 79.0726 80.9286Z" fill="white"/>
<path d="M73.0612 101.449C72.4066 101.383 71.7489 101.255 71.0959 101.063C70.4205 100.865 69.7803 100.607 69.1769 100.295L69.9723 98.3247L73.4181 99.3378L73.0612 101.449Z" fill="white"/>
<path d="M85.0104 89.8561L83.1154 90.1362L82.2464 86.652L83.9941 85.9878C84.5639 87.1913 84.9144 88.5021 85.0104 89.8561Z" fill="white"/>
<path d="M66.1713 94.3037L64.2267 95.0431C63.6794 93.8155 63.3593 92.4856 63.2985 91.114L65.3022 90.8179L66.1713 94.3037Z" fill="white"/>
<path d="M83.0723 96.8691C82.2849 97.9942 81.299 98.9449 80.1802 99.6875L78.8919 98.0374L81.4959 95.5615L83.0723 96.8691Z" fill="white"/>
<path d="M69.5082 82.883L66.9042 85.359L65.435 84.1426C66.2448 83.0527 67.2435 82.1372 68.3719 81.4282L69.5082 82.883Z" fill="white"/>
<path d="M62.7767 95.8277L62.8247 92.9276C62.8311 92.5307 62.5271 92.1994 62.1301 92.1706C60.12 92.0266 58.7115 91.4024 57.9417 90.3125C56.871 88.7984 56.9846 86.4474 57.2823 84.8149C57.4344 83.9794 57.1591 83.4225 56.1508 82.8863C56.1508 82.8863 55.2833 82.4094 54.2142 82.2269C53.7853 82.1533 53.3612 82.3262 53.2508 82.7471C53.0779 83.4049 52.8538 84.4276 52.7466 85.6327C52.4921 88.4927 53.0443 90.9815 54.3423 92.8268C55.9347 95.0931 58.5019 96.3478 61.9797 96.5607C62.4054 96.5879 62.7687 96.255 62.7767 95.8277Z" fill="#FF7955"/>
<g opacity="0.5">
<path opacity="0.5" d="M55.3826 92.0731C55.3058 92.0731 55.2241 92.0603 55.1393 92.0346C54.9152 91.9658 54.6992 91.8138 54.5296 91.6025C54.1711 91.1576 54.1374 90.5894 54.4527 90.3333C54.7696 90.0789 55.317 90.2341 55.6755 90.679C55.8451 90.8887 55.9492 91.1336 55.9668 91.3672C55.986 91.6137 55.9107 91.8202 55.7507 91.9482C55.6499 92.0298 55.5234 92.0731 55.3826 92.0731ZM54.824 90.4054C54.7296 90.4054 54.6432 90.431 54.5759 90.4854C54.3471 90.6694 54.3951 91.1256 54.6816 91.4809C54.8272 91.6617 55.0097 91.7914 55.1969 91.849C55.3698 91.9018 55.525 91.8826 55.6323 91.7978C55.7395 91.7113 55.7907 91.5641 55.7763 91.3832C55.7603 91.188 55.6723 90.9831 55.5266 90.8023C55.3234 90.551 55.0481 90.4054 54.824 90.4054Z" fill="#EC865C"/>
</g>
<path d="M61.3905 91.9863C61.3905 91.9863 62.0963 89.8497 63.3063 89.3264C64.5146 88.803 66.456 89.0495 65.7742 89.5328C65.0924 90.0162 64.0537 90.3939 64.0537 90.3939C64.0537 90.3939 66.3135 89.6913 66.2495 90.2915C66.1855 90.8916 64.2121 91.4822 64.2121 91.4822C64.2121 91.4822 66.9681 90.8612 66.7233 91.4086C66.4784 91.9559 64.3818 92.4121 64.3818 92.4121C64.3818 92.4121 66.9697 91.9367 66.6704 92.5657C66.3711 93.1947 64.529 92.945 64.465 93.5452C64.401 94.1454 63.9401 96.5061 62.2516 96.5285L61.3905 91.9863Z" fill="#FF7955"/>
<path d="M63.2483 90.8899L63.1602 90.8483C63.3459 90.4561 64.0181 90.3489 64.0469 90.3457L64.0613 90.4417C64.0549 90.4417 63.4115 90.5442 63.2483 90.8899Z" fill="#EF6343"/>
<path d="M63.2371 92.0791L63.1586 92.0214C63.5251 91.5301 64.1781 91.4373 64.2053 91.4341L64.2181 91.5301C64.2133 91.5317 63.5796 91.6213 63.2371 92.0791Z" fill="#EF6343"/>
<path d="M63.4757 92.9628L63.3845 92.9292C63.5477 92.4955 64.3415 92.3691 64.3751 92.3643L64.3896 92.4603C64.3816 92.4619 63.6181 92.5819 63.4757 92.9628Z" fill="#EF6343"/>
<path d="M84.9718 85.8179C84.9718 85.8179 85.6936 86.839 84.8213 87.436C83.7106 88.1962 81.5292 87.9993 82.2254 87.5064C82.8431 87.0695 83.8819 86.6757 83.8819 86.6757C83.8819 86.6757 81.2235 87.6376 81.1739 86.9894C81.1243 86.3412 83.4241 85.5474 83.4241 85.5474C83.4241 85.5474 80.7305 86.2276 80.8778 85.6146C81.025 85.0017 83.1072 84.267 83.1072 84.267C83.1072 84.267 80.5209 85.0801 80.7081 84.3727C80.8954 83.6653 82.3374 83.5292 82.9248 83.3292C83.4801 83.1387 83.8066 83.4524 83.9891 84.027C83.9891 84.027 84.49 84.5151 84.5188 84.9152C84.53 85.0689 84.7093 85.1617 84.7605 85.2609C84.8597 85.4482 84.9718 85.8179 84.9718 85.8179Z" fill="#FF7955"/>
<path d="M14.7035 137.93V135.709L47.2073 135.507L47.1609 137.93H14.7035Z" fill="#366F90"/>
<path d="M15.9775 135.646C18.9351 133.185 25.6827 131.021 37.2908 132.5C44.8498 133.463 48.7998 136.387 46.6183 138.932C43.9664 142.026 36.2489 143.125 24.8776 142.101C17.053 141.397 12.2788 138.724 15.9775 135.646Z" fill="#016EB9"/>
<path d="M47.2073 135.431C47.2073 136.05 46.9096 136.645 46.3607 137.202C45.7061 137.867 44.6946 138.473 43.4014 138.998C41.0295 139.962 37.7134 140.647 33.9379 140.885C32.9712 140.948 31.9741 140.98 30.9562 140.98C29.9047 140.98 28.8772 140.946 27.8817 140.88C24.1751 140.639 20.9149 139.966 18.5686 139.022C17.2675 138.5 16.2464 137.895 15.5822 137.233C15.014 136.668 14.7067 136.063 14.7067 135.432C14.7067 134.757 15.0604 134.11 15.707 133.513C16.4096 132.864 17.4563 132.271 18.7751 131.762C21.123 130.855 24.3255 130.212 27.9538 129.981C28.9268 129.919 29.9319 129.887 30.9578 129.887C31.9645 129.887 32.952 129.919 33.9075 129.978C37.5357 130.204 40.7414 130.842 43.0941 131.745C44.4209 132.252 45.4772 132.843 46.1846 133.493C46.8456 134.094 47.2073 134.749 47.2073 135.431Z" fill="#00A3FE"/>
<path d="M30.5579 139.449C24.0729 139.449 19.3659 137.714 19.3659 135.325C19.3659 133.065 23.9144 131.474 30.9533 131.272C35.8555 131.133 40.5288 132.247 42.3149 133.984C42.7967 134.451 43.04 134.939 43.04 135.432C43.04 136.538 41.7052 137.561 39.2805 138.316C36.9278 139.046 33.8293 139.449 30.5579 139.449ZM31.7887 131.362C31.5118 131.362 31.2349 131.367 30.9564 131.373C23.9784 131.573 19.4683 133.123 19.4683 135.322C19.4683 136.415 20.5503 137.423 22.5124 138.161C24.5402 138.924 27.397 139.344 30.5563 139.344C37.3823 139.344 42.9359 137.588 42.9359 135.429C42.9359 134.965 42.7023 134.502 42.2429 134.056C40.5769 132.436 36.3548 131.362 31.7887 131.362Z" fill="white"/>
<path d="M33.9045 129.976L33.6404 130.9H28.2708L27.9507 129.981C28.9238 129.918 29.9289 129.886 30.9548 129.886C31.9615 129.883 32.949 129.915 33.9045 129.976Z" fill="white"/>
<path d="M33.9363 140.883C32.9696 140.946 31.9725 140.978 30.9546 140.978C29.9031 140.978 28.8756 140.944 27.8801 140.879L28.189 139.8H33.5586L33.9363 140.883Z" fill="white"/>
<path d="M46.1831 133.491L43.5823 133.901L40.8663 132.319L43.091 131.743C44.4177 132.251 45.4757 132.841 46.1831 133.491Z" fill="white"/>
<path d="M21.0446 138.377L18.5671 139.019C17.2659 138.497 16.2448 137.892 15.5806 137.23L18.3286 136.796L21.0446 138.377Z" fill="white"/>
<path d="M46.3592 137.201C45.7046 137.865 44.6931 138.471 43.4 138.996L40.8568 138.374L43.5456 136.788L46.3592 137.201Z" fill="white"/>
<path d="M21.0126 132.308L18.3238 133.894L15.7054 133.51C16.408 132.86 17.4547 132.268 18.7735 131.759L21.0126 132.308Z" fill="white"/>
<path d="M0.854656 140.725L0.0928345 138.344L31.0746 128.515L31.7676 130.837L0.854656 140.725Z" fill="#016EB9"/>
<path d="M1.37158 138.161C3.43938 134.915 9.20584 130.799 20.7132 128.672C28.2065 127.286 32.8591 128.869 31.5563 131.957C29.9718 135.712 22.957 139.11 11.8146 141.599C4.14838 143.31 -1.21317 142.218 1.37158 138.161Z" fill="#016EB9"/>
<path d="M31.0506 128.441C31.2394 129.032 31.137 129.69 30.7833 130.386C30.3624 131.217 29.583 132.105 28.5107 132.998C26.5453 134.638 23.594 136.3 20.0714 137.678C19.1704 138.031 18.2309 138.364 17.261 138.675C16.2591 138.995 15.27 139.277 14.3017 139.517C10.6975 140.415 7.38774 140.768 4.86541 140.584C3.46661 140.483 2.30947 140.218 1.47563 139.79C0.761819 139.425 0.284879 138.944 0.092823 138.344C-0.112036 137.7 0.0272119 136.977 0.460937 136.21C0.931474 135.378 1.7477 134.494 2.84882 133.608C4.80778 132.028 7.66303 130.44 11.048 129.115C11.9555 128.758 12.9029 128.422 13.8808 128.109C14.8395 127.801 15.7886 127.531 16.7184 127.297C20.2443 126.407 23.4916 126.039 26.0075 126.182C27.4255 126.262 28.6115 126.502 29.4837 126.905C30.3 127.278 30.8425 127.792 31.0506 128.441Z" fill="#00A3FE"/>
<path d="M8.99456 138.685C8.77689 138.685 8.56404 138.68 8.35918 138.669C6.21776 138.561 4.84777 137.905 4.50207 136.82C3.81387 134.667 7.66138 131.767 14.3049 129.431C18.9318 127.803 23.722 127.441 25.9531 128.552C26.5533 128.851 26.9342 129.24 27.0846 129.711C27.4207 130.764 26.462 132.145 24.3814 133.603C22.3632 135.018 19.5352 136.345 16.4175 137.342C13.6839 138.216 11.0784 138.685 8.99456 138.685ZM22.3632 128.014C20.0474 128.014 17.1633 128.534 14.3385 129.528C7.7526 131.844 3.9307 134.695 4.59969 136.79C4.93259 137.83 6.26898 138.461 8.36398 138.566C10.5294 138.675 13.3782 138.204 16.3871 137.243C19.4936 136.249 22.312 134.927 24.3222 133.518C26.3612 132.089 27.3071 130.75 26.9854 129.743C26.8445 129.301 26.4812 128.931 25.9067 128.645C25.0536 128.221 23.8197 128.014 22.3632 128.014Z" fill="white"/>
<path d="M16.7201 127.299L16.7489 128.259L11.6354 129.895L11.0496 129.117C11.9571 128.76 12.9046 128.424 13.8825 128.11C14.8411 127.803 15.7902 127.532 16.7201 127.299Z" fill="white"/>
<path d="M20.073 137.677C19.1719 138.031 18.2325 138.364 17.2626 138.675C16.2607 138.995 15.2716 139.276 14.3033 139.516L14.2697 138.394L19.3832 136.759L20.073 137.677Z" fill="white"/>
<path d="M29.4853 126.905L27.1342 128.088L24.0662 127.409L26.0091 126.182C27.4255 126.262 28.6131 126.503 29.4853 126.905Z" fill="white"/>
<path d="M7.02914 139.219L4.86373 140.584C3.46492 140.483 2.30778 140.218 1.47394 139.79L3.95946 138.541L7.02914 139.219Z" fill="white"/>
<path d="M30.7831 130.386C30.3622 131.217 29.5828 132.105 28.5105 132.998L25.8985 133.181L27.9775 130.85L30.7831 130.386Z" fill="white"/>
<path d="M5.15011 133.448L3.07111 135.778L0.459167 136.21C0.929704 135.378 1.74593 134.494 2.84705 133.608L5.15011 133.448Z" fill="white"/>
<path d="M102.678 144.005L95.6148 144.904L95.3875 131.481L102.522 131.458C103.155 131.457 103.67 131.969 103.67 132.601V142.868C103.672 143.444 103.246 143.929 102.678 144.005Z" fill="#016EB9"/>
<path d="M95.3428 144.928L84.4804 143.937C84.0771 143.901 83.7714 143.558 83.781 143.153L84.0211 132.571C84.0307 132.163 84.3572 131.833 84.7653 131.819L95.3875 131.479C95.8213 131.465 96.1814 131.814 96.1814 132.248V144.16C96.183 144.614 95.7941 144.97 95.3428 144.928Z" fill="#00A3FE"/>
<path d="M89.0773 137.676C89.0773 137.224 89.3733 136.815 89.8279 136.815C90.2808 136.815 90.7978 137.222 90.7978 137.676C90.7978 138.129 90.4297 138.498 89.9767 138.498C89.5238 138.498 89.0773 138.131 89.0773 137.676Z" fill="#131F2D"/>
<path d="M85.7305 134.202C85.7305 133.749 86.2138 133.389 86.6668 133.389C87.1197 133.389 87.3566 133.914 87.3566 134.367C87.3566 134.82 87.0061 135.023 86.5515 135.023C86.0986 135.023 85.7305 134.655 85.7305 134.202Z" fill="#131F2D"/>
<path d="M92.5759 134.202C92.5759 133.749 92.944 133.381 93.3969 133.381C93.8498 133.381 94.2179 133.749 94.2179 134.202C94.2179 134.655 93.8498 135.023 93.3969 135.023C92.944 135.023 92.5759 134.655 92.5759 134.202Z" fill="#131F2D"/>
<path d="M85.7305 141.258C85.7305 140.805 86.0986 140.437 86.5515 140.437C87.0045 140.437 87.3726 140.805 87.3726 141.258C87.3726 141.711 87.0045 142.079 86.5515 142.079C86.0986 142.079 85.7305 141.713 85.7305 141.258Z" fill="#131F2D"/>
<path d="M92.478 141.111C92.478 140.658 92.9438 140.437 93.3983 140.437C93.8512 140.437 94.2194 140.805 94.2194 141.258C94.2194 141.711 93.8512 142.079 93.3983 142.079C92.9438 142.079 92.478 141.565 92.478 141.111Z" fill="#131F2D"/>
<path d="M97.7771 134.503C97.7771 134.088 97.9771 133.752 98.2252 133.752C98.4733 133.752 98.6733 134.088 98.6733 134.503C98.6733 134.917 98.4733 135.253 98.2252 135.253C97.9771 135.253 97.7771 134.919 97.7771 134.503Z" fill="#131F2D"/>
<path d="M101.512 134.503C101.512 134.088 101.712 133.752 101.96 133.752C102.209 133.752 102.409 134.088 102.409 134.503C102.409 134.917 102.209 135.253 101.96 135.253C101.714 135.255 101.512 134.919 101.512 134.503Z" fill="#131F2D"/>
<path d="M97.777 140.958C97.777 140.543 97.9771 140.207 98.2251 140.207C98.4732 140.207 98.6733 140.543 98.6733 140.958C98.6733 141.372 98.4732 141.708 98.2251 141.708C97.9771 141.708 97.777 141.372 97.777 140.958Z" fill="#131F2D"/>
<path d="M101.512 140.348C101.512 139.933 101.712 139.597 101.96 139.597C102.209 139.597 102.409 139.933 102.409 140.348C102.409 140.762 102.209 141.098 101.96 141.098C101.714 141.1 101.512 140.762 101.512 140.348Z" fill="#131F2D"/>
</svg>
