<svg width="61" height="21" viewBox="0 0 61 21" fill="none" xmlns="http://www.w3.org/2000/svg">
<rect y="1.5" width="18" height="18" rx="9" fill="#264CF9"/>
<rect y="1.5" width="18" height="18" rx="9" fill="url(#paint0_linear_3229_20795)"/>
<path d="M9.1814 4.61282L10.9711 8.23916C11.0005 8.2989 11.0574 8.34012 11.1232 8.34967L15.1252 8.93122C15.291 8.95526 15.3572 9.1591 15.2372 9.2761L12.3415 12.0987C12.2937 12.1451 12.272 12.2121 12.2833 12.2776L12.9669 16.2633C12.9952 16.4284 12.8219 16.5543 12.6736 16.4763L9.09417 14.5944C9.0352 14.5635 8.96496 14.5635 8.90599 14.5944L5.3266 16.4763C5.1783 16.5542 5.005 16.4284 5.03325 16.2633L5.71691 12.2776C5.72817 12.2119 5.70641 12.1451 5.6587 12.0987L2.76297 9.27591C2.64292 9.15891 2.70915 8.95526 2.87501 8.93103L6.87696 8.34948C6.9428 8.33993 6.99968 8.29852 7.02907 8.23897L8.81876 4.61263C8.89301 4.46242 9.10715 4.46242 9.1814 4.61282Z" fill="url(#paint1_linear_3229_20795)"/>
<path d="M9.1814 4.61282L10.9711 8.23916C11.0005 8.2989 11.0574 8.34012 11.1232 8.34967L15.1252 8.93122C15.291 8.95526 15.3572 9.1591 15.2372 9.2761L12.3415 12.0987C12.2937 12.1451 12.272 12.2121 12.2833 12.2776L12.9669 16.2633C12.9952 16.4284 12.8219 16.5543 12.6736 16.4763L9.09417 14.5944C9.0352 14.5635 8.96496 14.5635 8.90599 14.5944L5.3266 16.4763C5.1783 16.5542 5.005 16.4284 5.03325 16.2633L5.71691 12.2776C5.72817 12.2119 5.70641 12.1451 5.6587 12.0987L2.76297 9.27591C2.64292 9.15891 2.70915 8.95526 2.87501 8.93103L6.87696 8.34948C6.9428 8.33993 6.99968 8.29852 7.02907 8.23897L8.81876 4.61263C8.89301 4.46242 9.10715 4.46242 9.1814 4.61282Z" fill="url(#paint2_linear_3229_20795)"/>
<path d="M9.1814 4.61282L10.9711 8.23916C11.0005 8.2989 11.0574 8.34012 11.1232 8.34967L15.1252 8.93122C15.291 8.95526 15.3572 9.1591 15.2372 9.2761L12.3415 12.0987C12.2937 12.1451 12.272 12.2121 12.2833 12.2776L12.9669 16.2633C12.9952 16.4284 12.8219 16.5543 12.6736 16.4763L9.09417 14.5944C9.0352 14.5635 8.96496 14.5635 8.90599 14.5944L5.3266 16.4763C5.1783 16.5542 5.005 16.4284 5.03325 16.2633L5.71691 12.2776C5.72817 12.2119 5.70641 12.1451 5.6587 12.0987L2.76297 9.27591C2.64292 9.15891 2.70915 8.95526 2.87501 8.93103L6.87696 8.34948C6.9428 8.33993 6.99968 8.29852 7.02907 8.23897L8.81876 4.61263C8.89301 4.46242 9.10715 4.46242 9.1814 4.61282Z" fill="white"/>
<path d="M30.683 16C30.683 15.5333 30.683 15.0877 30.683 14.663C30.683 14.2337 30.683 13.7413 30.683 13.186L30.802 12.878V10.176C30.802 9.69533 30.802 9.217 30.802 8.741C30.802 8.26033 30.802 7.77967 30.802 7.299L32.307 6.704C32.0597 7.05867 31.8193 7.404 31.586 7.74C31.3527 8.07133 31.117 8.40267 30.879 8.734L29.339 10.925C29.129 11.219 28.9213 11.5107 28.716 11.8C28.5153 12.0893 28.3123 12.3833 28.107 12.682L28.037 12.213H31.222L31.446 12.129C31.7213 12.129 32.027 12.129 32.363 12.129C32.699 12.129 33.0303 12.129 33.357 12.129C33.6837 12.129 33.973 12.129 34.225 12.129V13.977C33.973 13.977 33.6837 13.977 33.357 13.977C33.0303 13.977 32.699 13.977 32.363 13.977C32.027 13.977 31.7213 13.977 31.446 13.977H26.343V12.535C26.525 12.2737 26.728 11.9843 26.952 11.667C27.1807 11.345 27.4093 11.023 27.638 10.701C27.8713 10.3743 28.086 10.0733 28.282 9.798L29.437 8.153C29.6517 7.85433 29.864 7.558 30.074 7.264C30.284 6.96533 30.494 6.66667 30.704 6.368H32.832C32.832 6.94667 32.832 7.516 32.832 8.076C32.832 8.63133 32.832 9.18667 32.832 9.742V13.186C32.832 13.7413 32.832 14.2337 32.832 14.663C32.832 15.0877 32.832 15.5333 32.832 16H30.683ZM36.3792 16.189C36.1086 16.189 35.8753 16.133 35.6793 16.021C35.4879 15.909 35.3386 15.7573 35.2313 15.566C35.1286 15.37 35.0773 15.153 35.0773 14.915C35.0773 14.551 35.1939 14.2523 35.4273 14.019C35.6606 13.7857 35.9803 13.669 36.3863 13.669C36.6569 13.669 36.8879 13.7227 37.0793 13.83C37.2753 13.9327 37.4246 14.0797 37.5273 14.271C37.6346 14.4577 37.6883 14.6723 37.6883 14.915C37.6883 15.2743 37.5716 15.5777 37.3383 15.825C37.1096 16.0677 36.7899 16.189 36.3792 16.189ZM42.3779 16.182C41.5146 16.182 40.8029 16.056 40.2429 15.804C39.6876 15.552 39.2746 15.209 39.0039 14.775C38.7379 14.341 38.6049 13.8463 38.6049 13.291C38.6049 12.7777 38.7029 12.3553 38.8989 12.024C39.0949 11.688 39.3399 11.429 39.6339 11.247C39.9326 11.0603 40.2336 10.932 40.5369 10.862V10.701C40.2336 10.6263 39.9559 10.5003 39.7039 10.323C39.4566 10.1457 39.2559 9.91933 39.1019 9.644C38.9479 9.364 38.8709 9.035 38.8709 8.657C38.8709 8.15767 39.0086 7.72133 39.2839 7.348C39.5639 6.97 39.9653 6.67833 40.4879 6.473C41.0153 6.26767 41.6453 6.165 42.3779 6.165C43.1106 6.165 43.7383 6.26767 44.2609 6.473C44.7836 6.67833 45.1826 6.97 45.4579 7.348C45.7379 7.72133 45.8779 8.15767 45.8779 8.657C45.8779 9.035 45.8009 9.364 45.6469 9.644C45.4976 9.91933 45.2946 10.1457 45.0379 10.323C44.7859 10.5003 44.5106 10.6263 44.2119 10.701V10.862C44.5153 10.932 44.8139 11.0603 45.1079 11.247C45.4066 11.4337 45.6539 11.695 45.8499 12.031C46.0459 12.3623 46.1439 12.7823 46.1439 13.291C46.1439 13.8463 46.0086 14.341 45.7379 14.775C45.4719 15.209 45.0613 15.552 44.5059 15.804C43.9506 16.056 43.2413 16.182 42.3779 16.182ZM42.3779 14.383C42.7559 14.383 43.0639 14.3247 43.3019 14.208C43.5446 14.0913 43.7219 13.935 43.8339 13.739C43.9459 13.5383 44.0019 13.312 44.0019 13.06C44.0019 12.7753 43.9319 12.535 43.7919 12.339C43.6566 12.143 43.4629 11.996 43.2109 11.898C42.9636 11.7953 42.6813 11.744 42.3639 11.744C42.0513 11.744 41.7713 11.7953 41.5239 11.898C41.2813 11.996 41.0899 12.143 40.9499 12.339C40.8146 12.535 40.7469 12.7753 40.7469 13.06C40.7469 13.312 40.8029 13.5383 40.9149 13.739C41.0269 13.935 41.2043 14.0913 41.4469 14.208C41.6896 14.3247 41.9999 14.383 42.3779 14.383ZM42.3779 10.19C42.8259 10.19 43.1736 10.0803 43.4209 9.861C43.6683 9.64167 43.7919 9.35933 43.7919 9.014C43.7919 8.65 43.6613 8.37233 43.3999 8.181C43.1433 7.98967 42.8026 7.894 42.3779 7.894C41.9533 7.894 41.6126 7.98967 41.3559 8.181C41.0993 8.37233 40.9709 8.65 40.9709 9.014C40.9709 9.24733 41.0246 9.45267 41.1319 9.63C41.2439 9.80733 41.4049 9.945 41.6149 10.043C41.8249 10.141 42.0793 10.19 42.3779 10.19Z" fill="#182358"/>
<path d="M48.354 16C48.542 15.552 48.724 15.12 48.9 14.704C49.08 14.288 49.288 13.808 49.524 13.264L50.79 10.288C51.034 9.72 51.248 9.22 51.432 8.788C51.62 8.352 51.812 7.904 52.008 7.444H52.992C52.86 7.752 52.732 8.052 52.608 8.344C52.484 8.636 52.354 8.94 52.218 9.256C52.082 9.572 51.93 9.924 51.762 10.312L50.502 13.264C50.27 13.808 50.064 14.29 49.884 14.71C49.708 15.13 49.526 15.56 49.338 16H48.354ZM56.6318 16.132C56.3758 16.132 56.1218 16.114 55.8698 16.078C55.6178 16.046 55.3718 16 55.1318 15.94C54.8958 15.876 54.6718 15.804 54.4598 15.724C54.2478 15.644 54.0538 15.558 53.8778 15.466L53.9798 14.494C54.1958 14.614 54.4138 14.72 54.6338 14.812C54.8578 14.904 55.0778 14.982 55.2938 15.046C55.5138 15.106 55.7278 15.152 55.9358 15.184C56.1478 15.216 56.3518 15.232 56.5478 15.232C57.2358 15.232 57.7458 15.068 58.0778 14.74C58.4138 14.408 58.5818 13.946 58.5818 13.354C58.5818 12.918 58.4958 12.57 58.3238 12.31C58.1518 12.046 57.9178 11.856 57.6218 11.74C57.3298 11.62 57.0038 11.56 56.6438 11.56C56.3318 11.56 56.0338 11.598 55.7498 11.674C55.4658 11.75 55.1638 11.898 54.8438 12.118L54.3878 12.076V10.792C54.3878 10.252 54.3878 9.73 54.3878 9.226C54.3878 8.718 54.3878 8.232 54.3878 7.768H59.1338V8.668C58.6538 8.668 58.1698 8.668 57.6818 8.668C57.1978 8.668 56.7158 8.668 56.2358 8.668H55.0178L55.3778 8.32C55.3778 8.692 55.3758 9.064 55.3718 9.436C55.3718 9.804 55.3698 10.172 55.3658 10.54V11.092H55.4678C55.6958 10.968 55.9418 10.872 56.2058 10.804C56.4738 10.732 56.7538 10.696 57.0458 10.696C57.5178 10.696 57.9478 10.792 58.3358 10.984C58.7278 11.172 59.0398 11.46 59.2718 11.848C59.5078 12.236 59.6258 12.726 59.6258 13.318C59.6258 13.878 59.5118 14.37 59.2838 14.794C59.0598 15.214 58.7238 15.542 58.2758 15.778C57.8318 16.014 57.2838 16.132 56.6318 16.132Z" fill="#182358"/>
<defs>
<linearGradient id="paint0_linear_3229_20795" x1="12.8169" y1="4.16089" x2="3.31619" y2="21.8777" gradientUnits="userSpaceOnUse">
<stop offset="0.0478004" stop-color="#FEDA92"/>
<stop offset="0.338238" stop-color="#FFC853"/>
<stop offset="1" stop-color="#FF9114"/>
</linearGradient>
<linearGradient id="paint1_linear_3229_20795" x1="3.31756" y1="10.5" x2="14.8851" y2="10.5" gradientUnits="userSpaceOnUse">
<stop stop-color="#FEE998"/>
<stop offset="1" stop-color="#FCC15B"/>
</linearGradient>
<linearGradient id="paint2_linear_3229_20795" x1="11.6712" y1="6.27393" x2="5.51022" y2="18.3344" gradientUnits="userSpaceOnUse">
<stop offset="0.0478004" stop-color="#FEDA92"/>
<stop offset="0.338238" stop-color="#FFC853"/>
<stop offset="1" stop-color="#FF9114"/>
</linearGradient>
</defs>
</svg>
