<svg width="74" height="24" viewBox="0 0 74 24" fill="none" xmlns="http://www.w3.org/2000/svg">
<rect x="0.0341797" width="24" height="24" rx="12" fill="#264CF9"/>
<rect x="0.0341797" width="24" height="24" rx="12" fill="url(#paint0_linear_3264_11698)"/>
<path d="M12.2764 4.15043L14.6626 8.98555C14.7018 9.0652 14.7776 9.12016 14.8654 9.13289L20.2014 9.90829C20.4225 9.94035 20.5108 10.2121 20.3508 10.3681L16.4898 14.1316C16.4262 14.1935 16.3972 14.2828 16.4122 14.3701L17.3237 19.6844C17.3614 19.9045 17.1303 20.0725 16.9326 19.9684L12.1601 17.4592C12.0814 17.418 11.9878 17.418 11.9092 17.4592L7.13664 19.9684C6.93891 20.0722 6.70784 19.9045 6.7455 19.6844L7.65705 14.3701C7.67206 14.2825 7.64305 14.1935 7.57943 14.1316L3.71847 10.3679C3.5584 10.2119 3.6467 9.94035 3.86785 9.90803L9.20378 9.13263C9.29157 9.11991 9.36741 9.06469 9.4066 8.98529L11.7929 4.15017C11.8918 3.9499 12.1774 3.9499 12.2764 4.15043Z" fill="url(#paint1_linear_3264_11698)"/>
<path d="M12.2764 4.15043L14.6626 8.98555C14.7018 9.0652 14.7776 9.12016 14.8654 9.13289L20.2014 9.90829C20.4225 9.94035 20.5108 10.2121 20.3508 10.3681L16.4898 14.1316C16.4262 14.1935 16.3972 14.2828 16.4122 14.3701L17.3237 19.6844C17.3614 19.9045 17.1303 20.0725 16.9326 19.9684L12.1601 17.4592C12.0814 17.418 11.9878 17.418 11.9092 17.4592L7.13664 19.9684C6.93891 20.0722 6.70784 19.9045 6.7455 19.6844L7.65705 14.3701C7.67206 14.2825 7.64305 14.1935 7.57943 14.1316L3.71847 10.3679C3.5584 10.2119 3.6467 9.94035 3.86785 9.90803L9.20378 9.13263C9.29157 9.11991 9.36741 9.06469 9.4066 8.98529L11.7929 4.15017C11.8918 3.9499 12.1774 3.9499 12.2764 4.15043Z" fill="url(#paint2_linear_3264_11698)"/>
<path d="M12.2764 4.15043L14.6626 8.98555C14.7018 9.0652 14.7776 9.12016 14.8654 9.13289L20.2014 9.90829C20.4225 9.94035 20.5108 10.2121 20.3508 10.3681L16.4898 14.1316C16.4262 14.1935 16.3972 14.2828 16.4122 14.3701L17.3237 19.6844C17.3614 19.9045 17.1303 20.0725 16.9326 19.9684L12.1601 17.4592C12.0814 17.418 11.9878 17.418 11.9092 17.4592L7.13664 19.9684C6.93891 20.0722 6.70784 19.9045 6.7455 19.6844L7.65705 14.3701C7.67206 14.2825 7.64305 14.1935 7.57943 14.1316L3.71847 10.3679C3.5584 10.2119 3.6467 9.94035 3.86785 9.90803L9.20378 9.13263C9.29157 9.11991 9.36741 9.06469 9.4066 8.98529L11.7929 4.15017C11.8918 3.9499 12.1774 3.9499 12.2764 4.15043Z" fill="white"/>
<path d="M37.3862 18C37.3862 17.4667 37.3862 16.9573 37.3862 16.472C37.3862 15.9813 37.3862 15.4187 37.3862 14.784L37.5222 14.432V11.344C37.5222 10.7947 37.5222 10.248 37.5222 9.704C37.5222 9.15467 37.5222 8.60533 37.5222 8.056L39.2422 7.376C38.9595 7.78133 38.6848 8.176 38.4182 8.56C38.1515 8.93867 37.8822 9.31733 37.6102 9.696L35.8502 12.2C35.6102 12.536 35.3728 12.8693 35.1382 13.2C34.9088 13.5307 34.6768 13.8667 34.4422 14.208L34.3622 13.672H38.0022L38.2582 13.576C38.5728 13.576 38.9222 13.576 39.3062 13.576C39.6902 13.576 40.0688 13.576 40.4422 13.576C40.8155 13.576 41.1462 13.576 41.4342 13.576V15.688C41.1462 15.688 40.8155 15.688 40.4422 15.688C40.0688 15.688 39.6902 15.688 39.3062 15.688C38.9222 15.688 38.5728 15.688 38.2582 15.688H32.4262V14.04C32.6342 13.7413 32.8662 13.4107 33.1222 13.048C33.3835 12.68 33.6448 12.312 33.9062 11.944C34.1728 11.5707 34.4182 11.2267 34.6422 10.912L35.9622 9.032C36.2075 8.69067 36.4502 8.352 36.6902 8.016C36.9302 7.67467 37.1702 7.33333 37.4102 6.992H39.8422C39.8422 7.65333 39.8422 8.304 39.8422 8.944C39.8422 9.57867 39.8422 10.2133 39.8422 10.848V14.784C39.8422 15.4187 39.8422 15.9813 39.8422 16.472C39.8422 16.9573 39.8422 17.4667 39.8422 18H37.3862ZM43.8962 18.216C43.5868 18.216 43.3202 18.152 43.0962 18.024C42.8775 17.896 42.7068 17.7227 42.5842 17.504C42.4668 17.28 42.4082 17.032 42.4082 16.76C42.4082 16.344 42.5415 16.0027 42.8082 15.736C43.0748 15.4693 43.4402 15.336 43.9042 15.336C44.2135 15.336 44.4775 15.3973 44.6962 15.52C44.9202 15.6373 45.0908 15.8053 45.2082 16.024C45.3308 16.2373 45.3922 16.4827 45.3922 16.76C45.3922 17.1707 45.2588 17.5173 44.9922 17.8C44.7308 18.0773 44.3655 18.216 43.8962 18.216ZM50.7518 18.208C49.7651 18.208 48.9518 18.064 48.3118 17.776C47.6771 17.488 47.2051 17.096 46.8958 16.6C46.5918 16.104 46.4398 15.5387 46.4398 14.904C46.4398 14.3173 46.5518 13.8347 46.7758 13.456C46.9998 13.072 47.2798 12.776 47.6158 12.568C47.9571 12.3547 48.3011 12.208 48.6478 12.128V11.944C48.3011 11.8587 47.9838 11.7147 47.6958 11.512C47.4131 11.3093 47.1838 11.0507 47.0078 10.736C46.8318 10.416 46.7438 10.04 46.7438 9.608C46.7438 9.03733 46.9011 8.53867 47.2158 8.112C47.5358 7.68 47.9945 7.34667 48.5918 7.112C49.1945 6.87733 49.9145 6.76 50.7518 6.76C51.5891 6.76 52.3065 6.87733 52.9038 7.112C53.5011 7.34667 53.9571 7.68 54.2718 8.112C54.5918 8.53867 54.7518 9.03733 54.7518 9.608C54.7518 10.04 54.6638 10.416 54.4878 10.736C54.3171 11.0507 54.0851 11.3093 53.7918 11.512C53.5038 11.7147 53.1891 11.8587 52.8478 11.944V12.128C53.1945 12.208 53.5358 12.3547 53.8718 12.568C54.2131 12.7813 54.4958 13.08 54.7198 13.464C54.9438 13.8427 55.0558 14.3227 55.0558 14.904C55.0558 15.5387 54.9011 16.104 54.5918 16.6C54.2878 17.096 53.8185 17.488 53.1838 17.776C52.5491 18.064 51.7385 18.208 50.7518 18.208ZM50.7518 16.152C51.1838 16.152 51.5358 16.0853 51.8078 15.952C52.0851 15.8187 52.2878 15.64 52.4158 15.416C52.5438 15.1867 52.6078 14.928 52.6078 14.64C52.6078 14.3147 52.5278 14.04 52.3678 13.816C52.2131 13.592 51.9918 13.424 51.7038 13.312C51.4211 13.1947 51.0985 13.136 50.7358 13.136C50.3785 13.136 50.0585 13.1947 49.7758 13.312C49.4985 13.424 49.2798 13.592 49.1198 13.816C48.9651 14.04 48.8878 14.3147 48.8878 14.64C48.8878 14.928 48.9518 15.1867 49.0798 15.416C49.2078 15.64 49.4105 15.8187 49.6878 15.952C49.9651 16.0853 50.3198 16.152 50.7518 16.152ZM50.7518 11.36C51.2638 11.36 51.6611 11.2347 51.9438 10.984C52.2265 10.7333 52.3678 10.4107 52.3678 10.016C52.3678 9.6 52.2185 9.28267 51.9198 9.064C51.6265 8.84533 51.2371 8.736 50.7518 8.736C50.2665 8.736 49.8771 8.84533 49.5838 9.064C49.2905 9.28267 49.1438 9.6 49.1438 10.016C49.1438 10.2827 49.2051 10.5173 49.3278 10.72C49.4558 10.9227 49.6398 11.08 49.8798 11.192C50.1198 11.304 50.4105 11.36 50.7518 11.36Z" fill="#182358"/>
<path d="M58.4472 18C58.6665 17.4773 58.8788 16.9733 59.0842 16.488C59.2942 16.0027 59.5368 15.4427 59.8122 14.808L61.2892 11.336C61.5738 10.6733 61.8235 10.09 62.0382 9.586C62.2575 9.07733 62.4815 8.55467 62.7102 8.018H63.8582C63.7042 8.37733 63.5548 8.72733 63.4102 9.068C63.2655 9.40867 63.1138 9.76333 62.9552 10.132C62.7965 10.5007 62.6192 10.9113 62.4232 11.364L60.9532 14.808C60.6825 15.4427 60.4422 16.005 60.2322 16.495C60.0268 16.985 59.8145 17.4867 59.5952 18H58.4472ZM68.1046 18.154C67.8059 18.154 67.5096 18.133 67.2156 18.091C66.9216 18.0537 66.6346 18 66.3546 17.93C66.0792 17.8553 65.8179 17.7713 65.5706 17.678C65.3232 17.5847 65.0969 17.4843 64.8916 17.377L65.0106 16.243C65.2626 16.383 65.5169 16.5067 65.7736 16.614C66.0349 16.7213 66.2916 16.8123 66.5436 16.887C66.8002 16.957 67.0499 17.0107 67.2926 17.048C67.5399 17.0853 67.7779 17.104 68.0066 17.104C68.8092 17.104 69.4042 16.9127 69.7916 16.53C70.1836 16.1427 70.3796 15.6037 70.3796 14.913C70.3796 14.4043 70.2792 13.9983 70.0786 13.695C69.8779 13.387 69.6049 13.1653 69.2596 13.03C68.9189 12.89 68.5386 12.82 68.1186 12.82C67.7546 12.82 67.4069 12.8643 67.0756 12.953C66.7442 13.0417 66.3919 13.2143 66.0186 13.471L65.4866 13.422V11.924C65.4866 11.294 65.4866 10.685 65.4866 10.097C65.4866 9.50433 65.4866 8.93733 65.4866 8.396H71.0236V9.446C70.4636 9.446 69.8989 9.446 69.3296 9.446C68.7649 9.446 68.2026 9.446 67.6426 9.446H66.2216L66.6416 9.04C66.6416 9.474 66.6392 9.908 66.6346 10.342C66.6346 10.7713 66.6322 11.2007 66.6276 11.63V12.274H66.7466C67.0126 12.1293 67.2996 12.0173 67.6076 11.938C67.9202 11.854 68.2469 11.812 68.5876 11.812C69.1382 11.812 69.6399 11.924 70.0926 12.148C70.5499 12.3673 70.9139 12.7033 71.1846 13.156C71.4599 13.6087 71.5976 14.1803 71.5976 14.871C71.5976 15.5243 71.4646 16.0983 71.1986 16.593C70.9372 17.083 70.5452 17.4657 70.0226 17.741C69.5046 18.0163 68.8652 18.154 68.1046 18.154Z" fill="#182358"/>
<defs>
<linearGradient id="paint0_linear_3264_11698" x1="17.1234" y1="3.54785" x2="4.45576" y2="27.1703" gradientUnits="userSpaceOnUse">
<stop offset="0.0478004" stop-color="#FEDA92"/>
<stop offset="0.338238" stop-color="#FFC853"/>
<stop offset="1" stop-color="#FF9114"/>
</linearGradient>
<linearGradient id="paint1_linear_3264_11698" x1="4.45791" y1="12" x2="19.8813" y2="12" gradientUnits="userSpaceOnUse">
<stop stop-color="#FEE998"/>
<stop offset="1" stop-color="#FCC15B"/>
</linearGradient>
<linearGradient id="paint2_linear_3264_11698" x1="15.5962" y1="6.36524" x2="7.38147" y2="22.4458" gradientUnits="userSpaceOnUse">
<stop offset="0.0478004" stop-color="#FEDA92"/>
<stop offset="0.338238" stop-color="#FFC853"/>
<stop offset="1" stop-color="#FF9114"/>
</linearGradient>
</defs>
</svg>
