<svg width="26" height="24" viewBox="0 0 26 24" fill="none" xmlns="http://www.w3.org/2000/svg">
<g clip-path="url(#clip0_3201_24187)">
<path d="M12.6151 23.9997C19.0584 23.9997 24.2818 18.883 24.2818 12.5711C24.2818 6.25932 19.0584 1.14258 12.6151 1.14258C6.17177 1.14258 0.948425 6.25932 0.948425 12.5711C0.948425 18.883 6.17177 23.9997 12.6151 23.9997Z" fill="#FF0000"/>
<path d="M18.702 10.5836H14.6441V6.6084H10.5861V10.5836H6.52814V14.5587H10.5861V18.5338H14.6441V14.5587H18.702V10.5836Z" fill="#F0F0F0"/>
</g>
<ellipse cx="20.5951" cy="4.38857" rx="4.48" ry="4.38857" fill="white"/>
<path d="M17.3687 3.93402C16.9361 3.84401 18.2189 2.97469 18.964 3.09842C19.4058 3.17167 20.0757 3.91447 20.3773 4.63901C20.6255 5.23531 20.7858 3.04558 23.6522 0.729748C24.5807 -0.0203559 25.0778 -0.0742727 25.0773 0.0541816C25.0769 0.180058 24.6261 0.571007 24.2577 0.971835C22.4683 2.92034 21.3903 5.47031 21.2605 6.33061C21.1849 6.83133 20.0722 7.44073 19.9126 6.98921C19.3161 5.30018 18.2007 4.10694 17.3687 3.93402Z" fill="#36B37E"/>
<defs>
<clipPath id="clip0_3201_24187">
<rect width="23.3333" height="22.8571" fill="white" transform="translate(0.948425 1.14258)"/>
</clipPath>
</defs>
</svg>
