<svg width="77" height="26" viewBox="0 0 77 26" fill="none" xmlns="http://www.w3.org/2000/svg">
<rect width="26" height="26" rx="13" fill="#264CF9"/>
<rect width="26" height="26" rx="13" fill="url(#paint0_linear_3201_24178)"/>
<path d="M13.2418 5.15043L15.628 9.98555C15.6672 10.0652 15.743 10.1202 15.8308 10.1329L21.1668 10.9083C21.3879 10.9404 21.4762 11.2121 21.3161 11.3681L17.4552 15.1316C17.3916 15.1935 17.3626 15.2828 17.3776 15.3701L18.2891 20.6844C18.3268 20.9045 18.0957 21.0725 17.898 20.9684L13.1255 18.4592C13.0468 18.418 12.9532 18.418 12.8745 18.4592L8.10203 20.9684C7.9043 21.0722 7.67323 20.9045 7.7109 20.6844L8.62244 15.3701C8.63746 15.2825 8.60845 15.1935 8.54483 15.1316L4.68386 11.3679C4.52379 11.2119 4.6121 10.9404 4.83324 10.908L10.1692 10.1326C10.257 10.1199 10.3328 10.0647 10.372 9.98529L12.7582 5.15017C12.8572 4.9499 13.1428 4.9499 13.2418 5.15043Z" fill="url(#paint1_linear_3201_24178)"/>
<path d="M13.2418 5.15043L15.628 9.98555C15.6672 10.0652 15.743 10.1202 15.8308 10.1329L21.1668 10.9083C21.3879 10.9404 21.4762 11.2121 21.3161 11.3681L17.4552 15.1316C17.3916 15.1935 17.3626 15.2828 17.3776 15.3701L18.2891 20.6844C18.3268 20.9045 18.0957 21.0725 17.898 20.9684L13.1255 18.4592C13.0468 18.418 12.9532 18.418 12.8745 18.4592L8.10203 20.9684C7.9043 21.0722 7.67323 20.9045 7.7109 20.6844L8.62244 15.3701C8.63746 15.2825 8.60845 15.1935 8.54483 15.1316L4.68386 11.3679C4.52379 11.2119 4.6121 10.9404 4.83324 10.908L10.1692 10.1326C10.257 10.1199 10.3328 10.0647 10.372 9.98529L12.7582 5.15017C12.8572 4.9499 13.1428 4.9499 13.2418 5.15043Z" fill="url(#paint2_linear_3201_24178)"/>
<path d="M13.2418 5.15043L15.628 9.98555C15.6672 10.0652 15.743 10.1202 15.8308 10.1329L21.1668 10.9083C21.3879 10.9404 21.4762 11.2121 21.3161 11.3681L17.4552 15.1316C17.3916 15.1935 17.3626 15.2828 17.3776 15.3701L18.2891 20.6844C18.3268 20.9045 18.0957 21.0725 17.898 20.9684L13.1255 18.4592C13.0468 18.418 12.9532 18.418 12.8745 18.4592L8.10203 20.9684C7.9043 21.0722 7.67323 20.9045 7.7109 20.6844L8.62244 15.3701C8.63746 15.2825 8.60845 15.1935 8.54483 15.1316L4.68386 11.3679C4.52379 11.2119 4.6121 10.9404 4.83324 10.908L10.1692 10.1326C10.257 10.1199 10.3328 10.0647 10.372 9.98529L12.7582 5.15017C12.8572 4.9499 13.1428 4.9499 13.2418 5.15043Z" fill="white"/>
<path d="M40.021 20.5C40.021 19.9 40.021 19.327 40.021 18.781C40.021 18.229 40.021 17.596 40.021 16.882L40.174 16.486V13.012C40.174 12.394 40.174 11.779 40.174 11.167C40.174 10.549 40.174 9.931 40.174 9.313L42.109 8.548C41.791 9.004 41.482 9.448 41.182 9.88C40.882 10.306 40.579 10.732 40.273 11.158L38.293 13.975C38.023 14.353 37.756 14.728 37.492 15.1C37.234 15.472 36.973 15.85 36.709 16.234L36.619 15.631H40.714L41.002 15.523C41.356 15.523 41.749 15.523 42.181 15.523C42.613 15.523 43.039 15.523 43.459 15.523C43.879 15.523 44.251 15.523 44.575 15.523V17.899C44.251 17.899 43.879 17.899 43.459 17.899C43.039 17.899 42.613 17.899 42.181 17.899C41.749 17.899 41.356 17.899 41.002 17.899H34.441V16.045C34.675 15.709 34.936 15.337 35.224 14.929C35.518 14.515 35.812 14.101 36.106 13.687C36.406 13.267 36.682 12.88 36.934 12.526L38.419 10.411C38.695 10.027 38.968 9.646 39.238 9.268C39.508 8.884 39.778 8.5 40.048 8.116H42.784C42.784 8.86 42.784 9.592 42.784 10.312C42.784 11.026 42.784 11.74 42.784 12.454V16.882C42.784 17.596 42.784 18.229 42.784 18.781C42.784 19.327 42.784 19.9 42.784 20.5H40.021ZM47.3447 20.743C46.9968 20.743 46.6968 20.671 46.4448 20.527C46.1988 20.383 46.0068 20.188 45.8688 19.942C45.7368 19.69 45.6708 19.411 45.6708 19.105C45.6708 18.637 45.8208 18.253 46.1208 17.953C46.4208 17.653 46.8318 17.503 47.3538 17.503C47.7018 17.503 47.9988 17.572 48.2448 17.71C48.4968 17.842 48.6888 18.031 48.8208 18.277C48.9588 18.517 49.0278 18.793 49.0278 19.105C49.0278 19.567 48.8778 19.957 48.5778 20.275C48.2838 20.587 47.8728 20.743 47.3447 20.743ZM55.0573 20.734C53.9473 20.734 53.0323 20.572 52.3123 20.248C51.5983 19.924 51.0673 19.483 50.7193 18.925C50.3773 18.367 50.2063 17.731 50.2063 17.017C50.2063 16.357 50.3323 15.814 50.5843 15.388C50.8363 14.956 51.1513 14.623 51.5293 14.389C51.9133 14.149 52.3003 13.984 52.6903 13.894V13.687C52.3003 13.591 51.9433 13.429 51.6193 13.201C51.3013 12.973 51.0433 12.682 50.8453 12.328C50.6473 11.968 50.5483 11.545 50.5483 11.059C50.5483 10.417 50.7253 9.856 51.0793 9.376C51.4393 8.89 51.9553 8.515 52.6273 8.251C53.3053 7.987 54.1153 7.855 55.0573 7.855C55.9993 7.855 56.8063 7.987 57.4783 8.251C58.1503 8.515 58.6633 8.89 59.0173 9.376C59.3773 9.856 59.5573 10.417 59.5573 11.059C59.5573 11.545 59.4583 11.968 59.2603 12.328C59.0683 12.682 58.8073 12.973 58.4773 13.201C58.1533 13.429 57.7993 13.591 57.4153 13.687V13.894C57.8053 13.984 58.1893 14.149 58.5673 14.389C58.9513 14.629 59.2693 14.965 59.5213 15.397C59.7733 15.823 59.8993 16.363 59.8993 17.017C59.8993 17.731 59.7253 18.367 59.3773 18.925C59.0353 19.483 58.5073 19.924 57.7933 20.248C57.0793 20.572 56.1673 20.734 55.0573 20.734ZM55.0573 18.421C55.5433 18.421 55.9393 18.346 56.2453 18.196C56.5573 18.046 56.7853 17.845 56.9293 17.593C57.0733 17.335 57.1453 17.044 57.1453 16.72C57.1453 16.354 57.0553 16.045 56.8753 15.793C56.7013 15.541 56.4523 15.352 56.1283 15.226C55.8103 15.094 55.4473 15.028 55.0393 15.028C54.6373 15.028 54.2773 15.094 53.9593 15.226C53.6473 15.352 53.4013 15.541 53.2213 15.793C53.0473 16.045 52.9603 16.354 52.9603 16.72C52.9603 17.044 53.0323 17.335 53.1763 17.593C53.3203 17.845 53.5483 18.046 53.8603 18.196C54.1723 18.346 54.5713 18.421 55.0573 18.421ZM55.0573 13.03C55.6333 13.03 56.0803 12.889 56.3983 12.607C56.7163 12.325 56.8753 11.962 56.8753 11.518C56.8753 11.05 56.7073 10.693 56.3713 10.447C56.0413 10.201 55.6033 10.078 55.0573 10.078C54.5113 10.078 54.0733 10.201 53.7433 10.447C53.4133 10.693 53.2483 11.05 53.2483 11.518C53.2483 11.818 53.3173 12.082 53.4553 12.31C53.5993 12.538 53.8063 12.715 54.0763 12.841C54.3463 12.967 54.6733 13.03 55.0573 13.03Z" fill="#182358"/>
<path d="M62.413 20.5C62.6323 19.9773 62.8447 19.4733 63.05 18.988C63.26 18.5027 63.5027 17.9427 63.778 17.308L65.255 13.836C65.5397 13.1733 65.7893 12.59 66.004 12.086C66.2233 11.5773 66.4473 11.0547 66.676 10.518H67.824C67.67 10.8773 67.5207 11.2273 67.376 11.568C67.2313 11.9087 67.0797 12.2633 66.921 12.632C66.7623 13.0007 66.585 13.4113 66.389 13.864L64.919 17.308C64.6483 17.9427 64.408 18.505 64.198 18.995C63.9927 19.485 63.7803 19.9867 63.561 20.5H62.413ZM72.0704 20.654C71.7717 20.654 71.4754 20.633 71.1814 20.591C70.8874 20.5537 70.6004 20.5 70.3204 20.43C70.045 20.3553 69.7837 20.2713 69.5364 20.178C69.289 20.0847 69.0627 19.9843 68.8574 19.877L68.9764 18.743C69.2284 18.883 69.4827 19.0067 69.7394 19.114C70.0007 19.2213 70.2574 19.3123 70.5094 19.387C70.766 19.457 71.0157 19.5107 71.2584 19.548C71.5057 19.5853 71.7437 19.604 71.9724 19.604C72.775 19.604 73.37 19.4127 73.7574 19.03C74.1494 18.6427 74.3454 18.1037 74.3454 17.413C74.3454 16.9043 74.245 16.4983 74.0444 16.195C73.8437 15.887 73.5707 15.6653 73.2254 15.53C72.8847 15.39 72.5044 15.32 72.0844 15.32C71.7204 15.32 71.3727 15.3643 71.0414 15.453C70.71 15.5417 70.3577 15.7143 69.9844 15.971L69.4524 15.922V14.424C69.4524 13.794 69.4524 13.185 69.4524 12.597C69.4524 12.0043 69.4524 11.4373 69.4524 10.896H74.9894V11.946C74.4294 11.946 73.8647 11.946 73.2954 11.946C72.7307 11.946 72.1684 11.946 71.6084 11.946H70.1874L70.6074 11.54C70.6074 11.974 70.605 12.408 70.6004 12.842C70.6004 13.2713 70.598 13.7007 70.5934 14.13V14.774H70.7124C70.9784 14.6293 71.2654 14.5173 71.5734 14.438C71.886 14.354 72.2127 14.312 72.5534 14.312C73.104 14.312 73.6057 14.424 74.0584 14.648C74.5157 14.8673 74.8797 15.2033 75.1504 15.656C75.4257 16.1087 75.5634 16.6803 75.5634 17.371C75.5634 18.0243 75.4304 18.5983 75.1644 19.093C74.903 19.583 74.511 19.9657 73.9884 20.241C73.4704 20.5163 72.831 20.654 72.0704 20.654Z" fill="#182358"/>
<defs>
<linearGradient id="paint0_linear_3201_24178" x1="18.5133" y1="3.84351" x2="4.79005" y2="29.4345" gradientUnits="userSpaceOnUse">
<stop offset="0.0478004" stop-color="#FEDA92"/>
<stop offset="0.338238" stop-color="#FFC853"/>
<stop offset="1" stop-color="#FF9114"/>
</linearGradient>
<linearGradient id="paint1_linear_3201_24178" x1="5.42331" y1="13" x2="20.8467" y2="13" gradientUnits="userSpaceOnUse">
<stop stop-color="#FEE998"/>
<stop offset="1" stop-color="#FCC15B"/>
</linearGradient>
<linearGradient id="paint2_linear_3201_24178" x1="16.5615" y1="7.36524" x2="8.34686" y2="23.4458" gradientUnits="userSpaceOnUse">
<stop offset="0.0478004" stop-color="#FEDA92"/>
<stop offset="0.338238" stop-color="#FFC853"/>
<stop offset="1" stop-color="#FF9114"/>
</linearGradient>
</defs>
</svg>
