<svg width="81" height="24" viewBox="0 0 81 24" fill="none" xmlns="http://www.w3.org/2000/svg">
<path d="M17.6959 11.203H34.0313V23.3948H30.7627L29.5693 20.4428C27.0304 22.6052 22.3556 24 17.2703 24C10.8927 24 7.77618 22.5683 5.86064 21.4317C0.152027 18.1328 0 14.2288 0 11.8155C0 6.2583 5.49578 0 17.6351 0C24.5828 0 32.3133 2.41328 33.4003 7.52768H28.5279C26.924 3.5572 21.4738 2.73063 17.3767 2.73063C10.6875 2.73063 5.18412 6 5.18412 11.9705C5.18412 16.6052 7.66976 21.3727 17.5819 21.3727C19.4519 21.3727 22.4544 21.2472 25.2061 19.9114C28.4747 18.3247 29.3032 16.2878 29.3032 13.845H17.6959V11.203Z" fill="white"/>
<path d="M41.815 0.597786V23.3948H65.7289V20.6642H46.8471V0.597786H41.815Z" fill="white"/>
<path d="M76.9941 0.597786H71.962V23.3948H76.9941V0.597786Z" fill="white"/>
<path d="M79.6546 1.60886V1.23247H79.913C80.0498 1.23247 80.1867 1.26199 80.1867 1.40959C80.1867 1.60148 80.0422 1.60886 79.8826 1.60886H79.6546ZM79.6546 1.77122H79.875L80.2095 2.30258H80.4223L80.065 1.76384C80.2475 1.7417 80.3919 1.64576 80.3919 1.42435C80.3919 1.18081 80.2475 1.07749 79.9434 1.07749H79.4645V2.30258H79.6546V1.77122ZM79.8902 2.75277C80.4907 2.75277 81 2.30258 81 1.68266C81 1.07011 80.4907 0.619926 79.8902 0.619926C79.2897 0.619926 78.7804 1.07011 78.7804 1.68266C78.7728 2.30258 79.2897 2.75277 79.8902 2.75277ZM78.9932 1.68266C78.9932 1.18081 79.3809 0.797048 79.8826 0.797048C80.3767 0.797048 80.772 1.17343 80.772 1.68266C80.772 2.19188 80.3767 2.57565 79.8826 2.57565C79.3885 2.57565 78.9932 2.19926 78.9932 1.68266Z" fill="white"/>
</svg>
