<svg width="81" height="24" viewBox="0 0 81 24" fill="none" xmlns="http://www.w3.org/2000/svg">
<path fill-rule="evenodd" clip-rule="evenodd" d="M24.8707 10.5989C25.7749 10.3987 26.7854 10.4511 27.5893 10.9468C28.3621 11.4186 28.8195 12.3026 28.8804 13.1902C28.9211 13.8086 28.8852 14.4293 28.8422 15.0465C26.7209 15.0488 24.5996 15.0393 22.4794 15.0512C22.3922 15.8626 22.4472 16.7669 22.9775 17.4305C23.5437 18.1549 24.5769 18.3491 25.4369 18.1394C26.4008 17.9309 27.1497 17.1338 27.4435 16.2141C27.7768 16.2045 28.1124 16.2034 28.4469 16.2093C28.208 16.9825 27.8174 17.7343 27.1819 18.255C26.1691 19.0925 24.7094 19.2391 23.4792 18.8674C22.5021 18.5767 21.7783 17.7057 21.5693 16.7252C21.2993 15.4539 21.4928 14.0921 22.0721 12.9305C22.6216 11.8106 23.6321 10.8789 24.8707 10.5989ZM24.0991 11.8499C23.3191 12.4075 22.8485 13.2951 22.6049 14.2041C24.3678 14.2077 26.132 14.1982 27.895 14.2089C27.9058 13.7144 27.9488 13.2045 27.778 12.7303C27.6072 12.1882 27.1939 11.726 26.6648 11.5127C25.8263 11.1743 24.8265 11.3221 24.0991 11.8499ZM6.19917 13.7311C8.00754 13.2903 9.82309 12.8733 11.6387 12.4635C11.51 12.8131 11.5449 12.9982 11.3814 13.1628C11.0778 13.4685 11.0239 13.6395 10.2304 13.867C9.36445 14.1052 8.48413 14.2851 7.60981 14.4865L6.56772 14.318L6.19917 13.7311ZM0 15.1787C1.24104 14.8642 2.49041 14.583 3.73859 14.303C4.03028 14.3262 4.54676 14.2866 4.65185 14.4431C4.76016 14.6044 4.46452 14.9369 4.37882 15.2562C3.59409 15.4206 2.8165 15.6207 2.03173 15.7911C4.19727 18.1037 6.3234 20.452 8.4734 22.7788C11.7796 21.7899 15.0894 20.8094 18.4064 19.8598C16.7763 18.3684 15.0806 16.9559 13.4602 15.4646C13.3814 15.1451 13.4273 14.9952 13.536 14.8365C13.6279 14.7022 13.7648 14.5142 14.0634 14.5854C16.2477 16.4475 18.4664 18.4247 20.5755 20.3411C16.4236 21.5421 12.2753 22.7609 8.13417 24C5.4204 21.062 2.73409 18.0965 0 15.1787Z" fill="white"/>
<path fill-rule="evenodd" clip-rule="evenodd" d="M24.1254 0L8.95473 22.0258L1.77732 11.4102L8.93682 15.1716L24.1254 0Z" fill="white"/>
<path fill-rule="evenodd" clip-rule="evenodd" d="M31.9024 9.05481C33.0299 8.04447 34.5743 7.53454 36.0841 7.63822C37.2678 7.68229 38.5113 8.09928 39.2793 9.04052C39.8502 9.72557 40.0592 10.6346 40.0652 11.5091C39.419 11.5222 38.774 11.5246 38.129 11.5258C38.1028 10.9813 38.0048 10.4071 37.6441 9.97579C37.1579 9.37886 36.3457 9.1644 35.6016 9.19301C34.5636 9.18109 33.5627 9.71844 32.9356 10.5346C31.9645 11.7843 31.6528 13.444 31.8248 14.9917C31.9418 15.9186 32.4769 16.83 33.3524 17.2232C34.3152 17.6462 35.5443 17.6462 36.3971 16.9742C37.0278 16.4857 37.3693 15.7363 37.6118 14.9976C38.2521 15.0083 38.8923 14.9917 39.5325 15.0095C39.2387 16.2248 38.6426 17.4186 37.6118 18.1728C36.3744 19.1033 34.6974 19.2665 33.2246 18.9043C32.1365 18.6458 31.1427 17.9678 30.5586 17.0099C29.922 15.9889 29.7608 14.7403 29.8742 13.5596C29.9758 11.8844 30.6267 10.1878 31.9024 9.05481Z" fill="white"/>
<path fill-rule="evenodd" clip-rule="evenodd" d="M45.1022 7.69181C46.3587 7.51431 47.7097 7.68229 48.7871 8.38881C49.7593 9.00716 50.4187 10.0425 50.6683 11.1577C50.8988 12.2669 50.8104 13.4249 50.5668 14.5258C50.2108 16.0961 49.2612 17.5794 47.8219 18.361C46.4101 19.1533 44.6591 19.2891 43.1254 18.7899C41.9632 18.411 40.9873 17.5115 40.5323 16.3785C40.1297 15.4528 40.1058 14.4234 40.1811 13.4321C40.3017 11.8308 40.9324 10.22 42.1316 9.11675C42.9498 8.35781 43.9997 7.86456 45.1022 7.69181ZM44.9624 9.3312C43.4527 9.77322 42.5449 11.2661 42.2319 12.7256C41.9739 13.967 41.9226 15.4039 42.7133 16.4738C43.7513 17.8046 45.9252 17.8237 47.1578 16.7526C48.3152 15.7601 48.8002 14.1982 48.8754 12.7196C48.9053 11.7796 48.75 10.7514 48.0943 10.0282C47.3203 9.1799 46.0219 9.0286 44.9624 9.3312Z" fill="white"/>
<path fill-rule="evenodd" clip-rule="evenodd" d="M54.3496 8.19459C55.5846 7.58698 57.0251 7.49998 58.3605 7.77283C59.3638 7.97658 60.3528 8.4984 60.9095 9.38365C61.2965 9.97339 61.4278 10.6823 61.4625 11.3745C60.8175 11.3781 60.1737 11.3733 59.5287 11.3781C59.5024 10.6179 59.1118 9.84711 58.4023 9.51469C57.1852 8.94876 55.6264 9.10486 54.6052 9.9996C53.6735 10.811 53.1933 12.0167 52.9998 13.2105C52.8708 14.3126 52.8697 15.5433 53.5744 16.469C54.4463 17.6104 56.1663 17.7689 57.4062 17.1863C58.4393 16.687 58.9828 15.5862 59.2575 14.527C58.2566 14.5175 57.2545 14.5246 56.2535 14.5234C56.324 14.0314 56.4613 13.5512 56.5437 13.0616C58.1168 13.0377 59.6923 13.058 61.2666 13.052C60.8629 14.9762 60.4376 16.8967 60.0435 18.8245C59.6266 18.8316 59.211 18.8304 58.7941 18.8292C58.7965 18.4349 58.7989 18.0405 58.8168 17.6462C58.081 18.5421 56.9367 19.089 55.7757 19.083C54.7628 19.0639 53.7272 18.8257 52.8876 18.2395C51.9858 17.6271 51.3778 16.6442 51.1437 15.5886C50.8928 14.3245 50.9956 12.9925 51.3647 11.7605C51.8221 10.2343 52.8971 8.88206 54.3496 8.19459Z" fill="white"/>
<path fill-rule="evenodd" clip-rule="evenodd" d="M63.6842 7.8753C65.311 7.88483 66.9366 7.87172 68.5635 7.88246C69.4724 7.90269 70.459 8.07307 71.1411 8.7236C71.8374 9.38602 71.9676 10.438 71.8183 11.3435C71.7096 12.0417 71.3477 12.7161 70.7493 13.114C70.3456 13.4118 69.8522 13.5322 69.3757 13.6609C69.8427 13.8419 70.2667 14.1815 70.4136 14.6771C70.7935 15.9091 70.2213 17.1815 70.4268 18.4313C70.4507 18.5338 70.4949 18.6279 70.5582 18.7149C72.7225 15.0965 74.8868 11.4782 77.0703 7.87172C77.738 7.88246 78.4069 7.88246 79.0746 7.87172C79.7351 11.5211 80.3311 15.1811 81 18.828C80.3466 18.8316 79.6933 18.8257 79.0411 18.8328C78.8643 17.8678 78.7473 16.892 78.5801 15.9246C77.142 15.9174 75.705 15.9353 74.2693 15.915C73.659 16.8705 73.1334 17.8785 72.5314 18.84C71.208 18.8173 69.8821 18.8364 68.5587 18.8304C68.2171 17.6402 68.7426 16.4249 68.5909 15.2228C68.5109 14.6509 67.9065 14.3542 67.3786 14.3424C66.3537 14.2911 65.3277 14.3364 64.3017 14.3161C63.9732 15.8221 63.6913 17.3376 63.3461 18.8388C62.6951 18.8197 62.0442 18.8352 61.3932 18.828C62.1815 15.1823 62.9042 11.5222 63.6842 7.8753ZM64.6003 12.865C65.5212 12.8614 66.4421 12.865 67.363 12.8638C67.9949 12.8578 68.6566 12.7673 69.1905 12.4051C69.8929 11.9404 70.1437 10.9301 69.7925 10.1783C69.4975 9.60645 68.7904 9.48014 68.2075 9.45275C67.24 9.44083 66.2737 9.45394 65.3062 9.44799C65.0757 10.5882 64.8427 11.7272 64.6003 12.865ZM77.1826 10.7192C76.4659 11.9583 75.7875 13.2212 75.0505 14.4484C76.1625 14.4674 77.2769 14.4579 78.389 14.4531C78.1536 12.9162 77.9351 11.3757 77.7212 9.83638C77.4824 10.0901 77.3629 10.4249 77.1826 10.7192Z" fill="white"/>
</svg>
