<svg width="28" height="40" viewBox="0 0 28 40" fill="none" xmlns="http://www.w3.org/2000/svg">
<g opacity="0.3">
<g opacity="0.3">
<g opacity="0.3">
<path opacity="0.3" d="M7.75702 22.7673C8.01067 25.5045 6.67063 28.1212 5.5629 30.534C5.02611 31.7035 4.5075 32.8954 4.12638 34.1261C3.7037 35.4911 3.46341 36.9159 3.11328 38.3006C4.40638 37.2913 5.6375 36.2111 6.98848 35.277C7.24862 36.0931 7.53251 36.8929 7.95872 37.6385C8.43298 38.4684 8.99223 39.2439 9.57504 40.0001C9.28929 37.1588 10.5286 34.4636 11.5415 31.8875C12.0076 30.7021 12.4713 29.4872 12.7513 28.2422C13.0845 26.7604 13.3153 25.2575 13.6458 23.775C11.6881 23.4079 9.72366 23.0809 7.75702 22.7673Z" fill="black"/>
</g>
</g>
<g opacity="0.3">
<g opacity="0.3">
<path opacity="0.3" d="M19.5929 22.708C19.3392 25.4452 20.6793 28.0619 21.787 30.4747C22.3238 31.6441 22.8424 32.836 23.2235 34.0667C23.6462 35.4318 23.8865 36.8566 24.2366 38.2413C22.9435 37.232 21.7124 36.1518 20.3614 35.2176C20.1013 36.0338 19.8174 36.8336 19.3912 37.5792C18.9169 38.4091 18.3577 39.1846 17.7749 39.9408C18.0606 37.0995 16.8213 34.4043 15.8084 31.8282C15.3423 30.6428 14.8786 29.4279 14.5986 28.1829C14.2654 26.7011 14.0346 25.1982 13.7041 23.7157C15.6618 23.3486 17.6262 23.0214 19.5929 22.708Z" fill="black"/>
</g>
</g>
</g>
<path d="M7.75702 22.0757C8.01067 24.8128 6.67063 27.4296 5.5629 29.8423C5.02611 31.0118 4.5075 32.2037 4.12638 33.4344C3.7037 34.7995 3.46341 36.2243 3.11328 37.609C4.40638 36.5997 5.6375 35.5195 6.98848 34.5853C7.24862 35.4015 7.53251 36.2013 7.95872 36.9469C8.43298 37.7768 8.99223 38.5523 9.57504 39.3085C9.28929 36.4672 10.5286 33.772 11.5415 31.1959C12.0076 30.0105 12.4713 28.7955 12.7513 27.5506C13.0845 26.0688 13.3153 24.5658 13.6458 23.0833C11.6881 22.7163 9.72366 22.3893 7.75702 22.0757Z" fill="#FFCA5B"/>
<path d="M19.5929 22.0166C19.3392 24.7538 20.6793 27.3705 21.787 29.7833C22.3238 30.9527 22.8424 32.1446 23.2235 33.3753C23.6462 34.7404 23.8865 36.1652 24.2366 37.5499C22.9435 36.5406 21.7124 35.4604 20.3614 34.5262C20.1013 35.3424 19.8174 36.1422 19.3912 36.8878C18.9169 37.7177 18.3577 38.4932 17.7749 39.2494C18.0606 36.4081 16.8213 33.7129 15.8084 31.1368C15.3423 29.9514 14.8786 28.7365 14.5986 27.4915C14.2654 26.0097 14.0346 24.5068 13.7041 23.0242C15.6618 22.6572 17.6262 22.3302 19.5929 22.0166Z" fill="#FFCA5B"/>
<path d="M27.355 12.3569L25.056 15.9037L24.4834 20.0551L20.5971 21.6241L17.7654 24.714L13.6774 23.7862L9.58956 24.714L6.75789 21.6241L2.87175 20.0549L2.29896 15.9035L0 12.3569L2.29896 8.8103L2.87156 4.65892L6.75789 3.08992L9.58956 0L13.6774 0.92785L17.7654 0L20.5973 3.08992L24.4834 4.65892L25.056 8.8103L27.355 12.3569Z" fill="#ECBD00"/>
<path d="M27.355 12.3569L25.056 15.9037L24.4834 20.0551L20.5971 21.6241L17.7654 24.714L13.6774 23.7862L9.58956 24.714L6.75789 21.6241L2.87175 20.0549L2.29896 15.9035L0 12.3569L2.29896 8.8103L2.87156 4.65892L6.75789 3.08992L9.58956 0L13.6774 0.92785L17.7654 0L20.5973 3.08992L24.4834 4.65892L25.056 8.8103L27.355 12.3569Z" fill="#FFEB57"/>
<g opacity="0.3">
<g opacity="0.3">
<path opacity="0.3" d="M27.3552 13.1868L25.0564 16.7336L24.4834 20.885L20.5975 22.454L17.7654 25.544L13.6776 24.6159L9.58975 25.544L6.75789 22.4538L2.87193 20.885L2.29914 16.7336L0 13.1868L0.269047 12.7717L2.29914 15.9036L2.87193 20.055L6.75789 21.624L9.58975 24.7139L13.6776 23.7859L17.7654 24.7139L20.5975 21.6242L24.4834 20.055L25.0564 15.9036L27.0863 12.7717L27.3552 13.1868Z" fill="black"/>
</g>
</g>
<path d="M13.6771 23.4241C12.1833 23.4241 10.7341 23.1314 9.36978 22.5543C8.05201 21.9969 6.86857 21.1989 5.8525 20.1825C4.83625 19.1662 4.03839 17.9826 3.481 16.6649C2.90394 15.3004 2.61133 13.8509 2.61133 12.3571C2.61133 10.8632 2.90394 9.41373 3.481 8.04924C4.03839 6.73132 4.83625 5.54776 5.8525 4.53157C6.86876 3.51521 8.05219 2.71726 9.36978 2.15981C10.7341 1.58268 12.1835 1.29004 13.6771 1.29004C15.171 1.29004 16.6201 1.58268 17.9845 2.15981C19.3022 2.71726 20.4857 3.51521 21.5017 4.53157C22.518 5.54794 23.3159 6.73151 23.8733 8.04924C24.4503 9.41373 24.7429 10.8632 24.7429 12.3571C24.7429 13.8509 24.4503 15.3004 23.8733 16.6649C23.3159 17.9828 22.518 19.1664 21.5017 20.1825C20.4855 21.1989 19.3021 21.9969 17.9845 22.5543C16.6203 23.1314 15.171 23.4241 13.6771 23.4241ZM13.6771 1.68512C7.79335 1.68512 3.00655 6.47245 3.00655 12.3569C3.00655 18.2413 7.79335 23.0286 13.6771 23.0286C19.5609 23.0286 24.3477 18.2413 24.3477 12.3569C24.3477 6.47245 19.5611 1.68512 13.6771 1.68512Z" fill="#FECC41"/>
<path d="M13.6776 22.5991C12.295 22.5991 10.9539 22.3283 9.69121 21.7941C8.47178 21.2782 7.37648 20.5398 6.43612 19.5991C5.49575 18.6585 4.75726 17.5633 4.24144 16.3437C3.70743 15.0809 3.43652 13.7396 3.43652 12.3569C3.43652 10.9742 3.70724 9.63293 4.24144 8.37012C4.75726 7.15056 5.49557 6.05514 6.43612 5.11467C7.37667 4.1742 8.47178 3.43563 9.69121 2.91975C10.9539 2.38568 12.295 2.11475 13.6776 2.11475C15.0599 2.11475 16.4012 2.38549 17.6639 2.91975C18.8833 3.43563 19.9786 4.17402 20.919 5.11467C21.8594 6.05532 22.5978 7.15056 23.1137 8.37012C23.6477 9.63293 23.9186 10.9742 23.9186 12.3569C23.9186 13.7396 23.6479 15.0809 23.1137 16.3437C22.5978 17.5633 21.8595 18.6587 20.919 19.5991C19.9786 20.5396 18.8833 21.2782 17.6639 21.7941C16.4012 22.3281 15.0601 22.5991 13.6776 22.5991ZM13.6776 2.48069C8.23242 2.48069 3.80243 6.91117 3.80243 12.3569C3.80243 17.8026 8.23242 22.2331 13.6776 22.2331C19.1227 22.2331 23.5527 17.8026 23.5527 12.3569C23.5527 6.91117 19.1229 2.48069 13.6776 2.48069Z" fill="#FECC41"/>
<path d="M11.666 11.516L11.3 10.286C11.828 10.022 12.354 9.76 12.878 9.5C13.406 9.236 13.934 8.972 14.462 8.708L14.408 10.13C13.952 10.362 13.496 10.594 13.04 10.826C12.584 11.054 12.126 11.284 11.666 11.516ZM13.652 17C13.652 16.568 13.652 16.15 13.652 15.746C13.652 15.342 13.652 14.892 13.652 14.396V11.918C13.652 11.502 13.652 11.086 13.652 10.67C13.652 10.254 13.652 9.836 13.652 9.416L14.462 8.708L15.224 8.756C15.224 9.22 15.224 9.692 15.224 10.172C15.224 10.648 15.224 11.132 15.224 11.624V14.396C15.224 14.892 15.224 15.342 15.224 15.746C15.224 16.15 15.224 16.568 15.224 17H13.652Z" fill="#182358"/>
</svg>
