<svg width="41" height="32" viewBox="0 0 41 32" fill="none" xmlns="http://www.w3.org/2000/svg">
<path d="M21.66 27.3135C27.9083 24.7253 30.8755 17.5618 28.2873 11.3135C25.6991 5.06512 18.5356 2.09799 12.2873 4.6862C6.03892 7.2744 3.07179 14.4378 5.65999 20.6862C8.2482 26.9345 15.4116 29.9017 21.66 27.3135Z" fill="white" fill-opacity="0.32"/>
<path opacity="0.2" d="M39.8908 5.32026C39.5141 4.59633 38.1842 4.09934 35.9353 3.84517C34.703 3.70447 32.4314 3.57965 31.0403 4.30131C24.6883 7.60552 19.5119 12.7956 15.1252 17.6021L12.6879 13.2358C12.5177 12.9295 12.1183 12.2146 8.61662 11.9264C7.38208 11.8265 5.16264 11.7426 4.13688 12.3145C3.40614 12.7229 3.15878 13.5263 3.54912 14.2253L9.64918 25.1477C9.91243 25.622 10.4957 26.0963 12.9488 26.3755C13.2893 26.4141 13.7431 26.4594 14.2515 26.4889C15.8378 26.5843 17.9347 26.548 18.6291 25.7809C19.378 24.9503 20.1405 24.097 20.878 23.2687C26.3495 17.1323 32.007 10.7872 39.2849 7.00186C40.0497 6.60699 40.1677 5.85583 39.8908 5.32026Z" fill="black"/>
<path d="M38.5949 3.62723C38.175 2.92826 36.8179 2.51297 34.5576 2.39496C33.3208 2.32915 31.0447 2.34277 29.6989 3.14839C23.558 6.83158 18.7061 12.3257 14.619 17.3887L11.9207 13.179C11.7323 12.884 11.2898 12.1941 7.7768 12.1192C6.54 12.0943 4.31828 12.1442 3.32884 12.7773C2.62306 13.2289 2.42563 14.0459 2.85681 14.7222L9.60591 25.2566C9.89866 25.7127 10.5091 26.153 12.9737 26.2824C13.3163 26.3005 13.7725 26.3164 14.2808 26.3164C15.8694 26.3164 17.9617 26.153 18.6062 25.3428C19.3052 24.4691 20.0132 23.5705 20.6986 22.699C25.7888 16.2427 31.0515 9.5639 38.0865 5.34514C38.8309 4.90035 38.9058 4.14465 38.5949 3.62723Z" fill="white"/>
<path d="M30.2297 4.02916C23.9412 7.80085 19.0916 13.4244 14.5256 19.1477C13.3682 17.3413 12.2109 15.5371 11.0557 13.7307C10.5429 12.9296 2.87013 12.8252 3.72568 14.1642C5.97463 17.6749 8.22584 21.1856 10.4748 24.6986C10.9627 25.4588 17.1762 25.4861 17.8049 24.6986C23.6485 17.3867 29.39 9.36218 37.5597 4.46261C38.8987 3.65925 32.3334 2.76739 30.2297 4.02916Z" fill="#36B37E"/>
</svg>
