<svg width="31" height="32" viewBox="0 0 31 32" fill="none" xmlns="http://www.w3.org/2000/svg">
<path d="M15 27.9998C21.6274 27.9998 27 22.6272 27 15.9998C27 9.37234 21.6274 3.99976 15 3.99976C8.37258 3.99976 3 9.37234 3 15.9998C3 22.6272 8.37258 27.9998 15 27.9998Z" fill="white" fill-opacity="0.32"/>
<path opacity="0.2" d="M28.5078 6.66897C28.4953 6.37515 28.3599 5.96465 27.791 5.66875C26.8325 5.17281 24.5424 4.9561 24.0923 4.91651C21.1771 4.66645 20.4915 5.10405 20.2665 5.24991C18.2389 6.54602 16.2969 8.02968 14.4798 9.66961C13.9589 8.51103 13.4837 7.27535 13.265 6.12093C13.1108 5.29575 12.2147 4.98319 11.9209 4.879C11.0582 4.57685 9.65584 4.37055 8.1701 4.32679C5.57162 4.25178 5.03817 4.71229 4.83813 4.88316C4.51723 5.15822 4.37136 5.56039 4.44638 5.9584C5.01942 9.00489 6.86565 12.414 8.84316 15.6876C7.24073 17.6443 5.70499 19.6822 4.21508 21.6597C3.58786 22.4911 2.93981 23.3517 2.30008 24.1894C1.93959 24.6604 2.03961 25.3001 2.5293 25.6752C3.2878 26.2565 5.77375 26.4878 6.51766 26.5462C6.551 26.5483 6.58434 26.5503 6.6156 26.5545C10.0309 26.8046 10.5414 26.1357 10.7602 25.8502C11.4062 25.0063 12.0564 24.1436 12.6836 23.3101C12.9274 22.9871 13.1712 22.662 13.415 22.339C15.0424 24.3915 16.4969 25.9169 17.8389 26.9817C18.5453 27.5422 19.9997 27.8465 21.4667 27.9548C23.0671 28.0715 24.6862 27.9548 25.3759 27.6818C26.0427 27.4193 26.2032 26.9609 26.2407 26.7108C26.2698 26.5149 26.2803 26.0169 25.7551 25.6001C23.513 23.8206 20.8874 20.6282 18.1431 16.344C21.2917 12.6411 24.2611 10.0155 27.9723 7.64209C28.3307 7.41496 28.5245 7.06072 28.5078 6.66897Z" fill="black"/>
<path d="M27.0595 5.42507C27.0241 5.13334 26.8595 4.73325 26.2698 4.48111C25.2779 4.05602 22.9774 4.00601 22.5273 4.00184C19.6017 3.96642 18.9515 4.45194 18.7369 4.61239C16.8094 6.05437 14.9819 7.67555 13.2878 9.44468C12.6835 8.32778 12.1188 7.1296 11.8166 5.99394C11.602 5.18335 10.6872 4.93538 10.3851 4.85411C9.50156 4.61447 8.08876 4.51237 6.60511 4.57905C4.00871 4.69574 3.51069 5.19168 3.32106 5.37922C3.021 5.6772 2.90431 6.08771 3.0085 6.48154C3.80242 9.47802 5.89245 12.7433 8.10543 15.8627C6.64887 17.9319 5.26732 20.0761 3.92536 22.1578C3.36066 23.033 2.7772 23.9374 2.19999 24.8209C1.87492 25.3169 2.02078 25.9462 2.53756 26.2858C3.33773 26.8089 5.83411 26.8589 6.5801 26.863C6.61344 26.863 6.64678 26.863 6.67804 26.863C10.1017 26.863 10.5622 26.1587 10.7602 25.8566C11.3415 24.9689 11.9271 24.0603 12.4939 23.1831C12.7127 22.8413 12.9336 22.5017 13.1524 22.1599C14.9257 24.0895 16.4864 25.5044 17.9034 26.4671C18.6494 26.9756 20.1205 27.1714 21.5938 27.1714C23.1983 27.1714 24.8049 26.938 25.4717 26.6151C26.1156 26.3046 26.2448 25.8357 26.2635 25.5836C26.2781 25.3877 26.2531 24.8897 25.6988 24.5125C23.3316 22.9018 20.481 19.9094 17.4304 15.8356C20.3018 11.9119 23.0712 9.07794 26.5969 6.43987C26.9387 6.18148 27.1054 5.81473 27.0595 5.42507Z" fill="white"/>
<path d="M19.3034 5.36888C17.0383 7.063 14.9774 8.95508 13.0979 11.0368C12.2518 9.56979 11.3391 7.87151 10.9036 6.23574C10.6202 5.17093 3.68957 5.3543 3.92504 6.23574C4.75855 9.376 7.15282 12.9059 9.26786 15.8587C7.06322 18.9385 5.06695 22.1704 2.99359 25.3357C2.606 25.9254 9.36163 26.2692 9.97218 25.3357C10.9995 23.7666 12.008 22.1829 13.0333 20.6076C14.5815 22.3663 16.5048 24.3667 18.4386 25.6837C19.9327 26.7006 26.4007 26.1296 25.1692 25.2899C21.9393 23.0935 18.5845 18.9989 16.261 15.8399C19.0033 12.0078 21.8477 8.8113 26.034 5.67937C26.955 4.98755 20.3369 4.5958 19.3034 5.36888Z" fill="#E01C1C"/>
</svg>
