<svg width="89" height="30" viewBox="0 0 89 30" fill="none" xmlns="http://www.w3.org/2000/svg">
<path d="M5.8769 2.43904C7.87674 0.517746 11.2511 0.203573 13.5258 1.81673C15.6284 3.23354 16.7763 5.66536 17.2476 8.09115C16.4561 8.09417 15.6616 8.09417 14.8701 8.09417C14.42 6.59278 13.8219 5.03098 12.5591 4.02199C11.2148 2.86197 9.07906 2.86499 7.70455 3.97064C6.43275 4.9917 5.7893 6.56257 5.37845 8.09719C4.57489 8.09417 3.77133 8.09417 2.96777 8.09115C3.39976 5.99464 4.26072 3.89814 5.8769 2.43904Z" fill="#6BC530"/>
<path d="M1.65364 9.75279C2.09469 9.54435 2.60522 9.62893 3.07648 9.5957C8.0217 9.62591 12.9699 9.57758 17.9121 9.61685C18.7368 9.53528 19.4649 10.2603 19.3591 11.088C19.3894 16.2326 19.3501 21.3802 19.3773 26.5248C19.344 27.1018 19.4588 27.8148 18.9513 28.2286C18.4045 28.6999 17.6221 28.6032 16.9515 28.6425C12.3174 28.6304 7.68034 28.6395 3.04325 28.6395C2.40886 28.5972 1.62041 28.6576 1.1854 28.0897C0.889348 27.7453 0.958829 27.2619 0.931641 26.842C0.952787 21.5947 0.931641 16.3444 0.940703 11.0971C0.889348 10.5503 1.15821 10.0005 1.65364 9.75279ZM7.81326 16.5498C7.56252 17.5528 8.19389 18.4318 8.88266 19.0783C8.50806 20.5525 8.11837 22.0267 7.7468 23.5009C9.32975 23.5009 10.9127 23.5009 12.4926 23.5009C12.115 22.0237 11.7344 20.5465 11.3658 19.0662C12.5621 18.1781 12.9186 16.2205 11.6528 15.2357C10.4052 14.0032 8.07003 14.8491 7.81326 16.5498Z" fill="#6BC530"/>
<path d="M61.763 7.62639C66.388 6.95575 71.2245 9.65341 73.0763 13.9401C74.6985 17.4594 74.2122 21.8397 71.8468 24.909C69.2035 28.5069 64.2402 30.12 59.9837 28.7667C55.4131 27.4405 52.0659 22.8336 52.2985 18.0606C52.3408 12.8767 56.6184 8.18828 61.763 7.62639ZM62.0711 9.70779C57.7331 10.2032 54.1473 14.2754 54.4101 18.6708C54.4434 23.465 59.0351 27.5704 63.8021 27.084C68.5631 26.8575 72.5204 22.1841 71.8679 17.4413C71.4903 12.7166 66.7354 9.02507 62.0711 9.70779Z" fill="#1F1F1F"/>
<path d="M21.1807 11.4173C23.2983 11.4264 25.416 11.3992 27.5336 11.4234C29.1951 11.4445 30.9623 11.8977 32.1194 13.1634C33.5211 14.6044 33.7355 16.7462 33.7355 18.6615C33.7416 20.5948 33.1827 22.7276 31.5424 23.9148C30.337 24.8966 28.7057 24.9933 27.2194 25.0174C25.2075 25.0114 23.1926 25.0084 21.1807 25.0114C21.1807 20.48 21.1807 15.9487 21.1807 11.4173ZM25.3374 14.553C25.3404 17.0332 25.3374 19.5134 25.3374 21.9935C26.6274 21.9935 28.4761 22.2835 29.0985 20.8093C29.6513 19.1871 29.6875 17.293 29.0078 15.707C28.2888 14.402 26.6122 14.5168 25.3374 14.553Z" fill="#1F1F1F"/>
<path d="M35.3789 11.4177C37.2368 11.4208 39.0946 11.4117 40.9525 11.4238C41.6503 14.1486 42.3511 16.8765 43.0671 19.5984C43.7951 16.8735 44.5202 14.1486 45.2422 11.4208C47.0849 11.4147 48.9246 11.4177 50.7674 11.4177C50.7674 15.9491 50.7674 20.4805 50.7674 25.0118C49.5651 25.0118 48.3627 25.0118 47.1604 25.0118C47.1544 21.6556 47.1755 18.3024 47.1483 14.9492C46.2964 18.2994 45.4566 21.6526 44.6168 25.0058C43.5807 25.0118 42.5475 25.0118 41.5113 25.0118C40.6776 21.6737 39.8649 18.3326 39.001 15.0005C38.9677 18.3386 38.9949 21.6737 38.9859 25.0118C37.7835 25.0118 36.5812 25.0118 35.3789 25.0118C35.3789 20.4805 35.3789 15.9491 35.3789 11.4177Z" fill="#1F1F1F"/>
<path d="M78.9821 11.4232C80.5319 11.4142 82.0786 11.4142 83.6283 11.4202C85.3593 15.9516 87.1054 20.4799 88.8394 25.0113C87.341 25.0113 85.8426 25.0113 84.3412 25.0082C84.1026 24.3044 83.8639 23.6035 83.6283 22.8997C82.0544 22.8966 80.4805 22.8966 78.9096 22.8966C78.671 23.6005 78.4354 24.3044 78.1997 25.0082C76.7376 25.0143 75.2785 25.0113 73.8164 25.0082C75.5383 20.4799 77.2663 15.9516 78.9821 11.4232ZM81.2841 15.2326C80.7403 16.7672 80.2781 18.326 79.7766 19.8757C80.7856 19.8757 81.7946 19.8757 82.8036 19.8727C82.2991 18.326 81.8671 16.7521 81.2841 15.2326Z" fill="#1F1F1F"/>
<path d="M58.6793 13.8526C60.9873 10.9615 66.2285 10.9374 68.2858 14.1305C68.6906 14.6954 68.9141 15.363 69.1769 16.0004C68.1679 16.1726 67.159 16.3297 66.147 16.4898C65.7784 15.6742 65.4733 14.6712 64.5731 14.2936C63.1532 13.5716 61.235 14.4507 60.8362 15.9853C60.3589 17.5199 60.3529 19.2026 60.7758 20.7493C61.1413 22.1933 62.9025 23.2022 64.2921 22.5074C65.4008 22.0603 65.7391 20.8067 66.1711 19.8098C67.2103 20.0696 68.2495 20.3263 69.2857 20.5922C68.7842 21.9486 68.0713 23.3321 66.7783 24.0934C64.6305 25.3259 61.8029 25.2383 59.7155 23.9152C56.5707 21.719 56.0904 16.656 58.6793 13.8526Z" fill="#1F1F1F"/>
</svg>
