<svg width="77" height="33" viewBox="0 0 77 33" fill="none" xmlns="http://www.w3.org/2000/svg">
<path d="M14.2683 6.3125C7.73854 6.3125 2.41797 11.6331 2.41797 18.1629C2.41797 24.6927 7.73854 30.0132 14.2683 30.0132H63.6287C70.1585 30.0132 75.4791 24.6927 75.4791 18.1629C75.4791 11.6331 70.1585 6.3125 63.6287 6.3125H14.2683Z" fill="white"/>
<path d="M63.6291 31.0042H14.2687C7.18265 31.0042 1.42676 25.2483 1.42676 18.1622C1.42676 11.0762 7.18265 5.32031 14.2687 5.32031H63.6291C70.7151 5.32031 76.471 11.0762 76.471 18.1622C76.471 25.2483 70.7151 31.0042 63.6291 31.0042ZM14.2687 6.31187C7.73889 6.31187 2.41832 11.6324 2.41832 18.1622C2.41832 24.692 7.73889 30.0126 14.2687 30.0126H63.6291C70.1589 30.0126 75.4795 24.692 75.4795 18.1622C75.4795 11.6324 70.1589 6.31187 63.6291 6.31187H14.2687Z" fill="#BCBBBC"/>
<path d="M57.7035 10.9551C55.7929 10.9551 54.2451 12.5029 54.2451 14.4376C54.2451 16.3482 55.7929 17.896 57.7035 17.896C59.6141 17.896 61.1619 16.3482 61.1619 14.4376C61.1619 12.5271 59.6141 10.9551 57.7035 10.9551ZM57.7035 16.2031C56.7119 16.2031 55.9138 15.405 55.9138 14.4134C55.9138 13.4219 56.7119 12.6238 57.7035 12.6238C58.6951 12.6238 59.4931 13.4219 59.4931 14.4134C59.4931 15.405 58.6951 16.2031 57.7035 16.2031Z" fill="black"/>
<path d="M41.7904 10.9551C39.8798 10.9551 38.332 12.5029 38.332 14.4376C38.332 16.3482 39.8798 17.896 41.7904 17.896C43.701 17.896 45.273 16.3482 45.273 14.4376C45.273 12.5271 43.701 10.9551 41.7904 10.9551ZM41.7904 16.2031C40.7988 16.2031 40.0008 15.405 40.0008 14.4134C40.0008 13.4219 40.7988 12.6238 41.7904 12.6238C42.782 12.6238 43.5801 13.4219 43.5801 14.4134C43.5801 15.405 42.782 16.2031 41.7904 16.2031Z" fill="black"/>
<path d="M54.0035 16.2999C53.7858 16.3725 53.4473 16.4208 53.3263 16.4208C52.7217 16.4208 52.6008 16.2274 52.6008 15.6469V12.4304H54.0277V11.1003H52.6008V9.21387H51.0046L50.666 11.1003H49.5536H49.4568C48.5378 11.1003 47.8607 11.6565 47.4253 12.5271L46.8691 11.1003H45.7324V17.751H47.6914V14.8488C47.6914 13.3978 48.562 12.4546 49.5777 12.4304H50.6419V15.7437C50.6419 17.2915 51.4399 17.8719 52.7459 17.8719C53.4231 17.8719 53.9309 17.7268 54.2453 17.63L54.0035 16.2999Z" fill="black"/>
<path d="M63.5561 13.229V17.7757H61.6455V11.125H62.8064L63.1933 12.1407" fill="black"/>
<path d="M63.1689 12.1401C63.7494 11.4629 64.5475 10.9551 65.4665 10.9551C67.0626 10.9551 67.6914 12.2127 67.6914 13.3977V17.7751H65.7325V13.4461C65.7325 12.8656 65.2488 12.5754 64.7409 12.5754C64.1847 12.5754 63.8461 12.8898 63.5317 13.2284" fill="black"/>
<path d="M30.6895 8.70605H32.8661L35.8649 14.4136V8.70605H37.6787V17.7752H35.6956L32.5033 11.5114V17.7752H30.6895V8.70605Z" fill="black"/>
<path d="M73.4962 5.29688V5.63546H73.0125V7.23163H72.6497V5.63546H72.166V5.29688H73.4962Z" fill="#979695"/>
<path d="M73.7617 7.23163V5.29688H74.2454L74.584 6.55446L74.9226 5.29688H75.4304V7.23163H75.116V5.73219L74.7291 7.23163H74.4631L74.0761 5.73219H74.0519V7.23163H73.7617Z" fill="#979695"/>
<path d="M30.1572 25.8042L30.6167 25.1029C30.9795 25.3689 31.5357 25.6349 32.2129 25.6349C32.8659 25.6349 33.277 25.3447 33.277 24.8126C33.277 24.2322 32.7691 24.0629 31.9227 23.7727C31.173 23.5067 30.4232 23.1197 30.4232 22.0556C30.4232 21.0641 31.2213 20.5078 32.2613 20.5078C32.9626 20.5078 33.4947 20.6529 33.9058 20.8948L33.543 21.6445C33.2045 21.451 32.7691 21.3301 32.2855 21.3301C31.705 21.3301 31.3423 21.5477 31.3423 22.0314C31.3423 22.5877 31.7534 22.7086 32.5273 22.9746C33.3254 23.2407 34.2202 23.6034 34.2202 24.7885C34.2202 25.78 33.5189 26.433 32.2371 26.433C31.2455 26.4572 30.5684 26.1428 30.1572 25.8042Z" fill="#979695"/>
<path d="M35.9131 20.6289H39.3473V21.427H36.8805V22.999H38.8152V23.7729H36.8805V25.5867H39.4924V26.3848H35.9131V20.6289Z" fill="#979695"/>
<path d="M40.8955 23.5069C40.8955 21.814 41.6936 20.5322 43.3139 20.5322C44.0395 20.5322 44.5957 20.7499 45.0069 21.2336L44.4264 21.8866C44.0879 21.548 43.7976 21.3787 43.3139 21.3787C42.3708 21.3787 41.9354 22.1526 41.9354 23.5795C41.9354 24.9096 42.3949 25.5868 43.3139 25.5868C43.8218 25.5868 44.1846 25.3207 44.499 24.9822L45.0794 25.611C44.6683 26.0946 44.1362 26.4332 43.2898 26.4332C41.6694 26.4574 40.8955 25.1998 40.8955 23.5069Z" fill="#979695"/>
<path d="M46.6758 24.184V20.6289H47.6673V24.3533C47.6673 25.1514 47.8608 25.6593 48.7073 25.6593C49.5295 25.6593 49.7472 25.1514 49.7472 24.3533V20.6289H50.7388V24.184C50.7388 25.6109 50.1825 26.4574 48.7073 26.4574C47.232 26.4574 46.6758 25.6109 46.6758 24.184Z" fill="#979695"/>
<path d="M56.7358 26.3848H55.6717L54.5592 23.9422H53.6402V26.3848H52.6729V20.6289H54.5592C55.7201 20.6289 56.6391 21.04 56.6391 22.2976C56.6391 23.1683 56.1312 23.6036 55.5508 23.7971L56.7358 26.3848ZM54.5109 23.1925C55.2364 23.1925 55.6234 22.9506 55.6234 22.2976C55.6234 21.6688 55.2364 21.427 54.5834 21.427H53.6644V23.1925H54.5109Z" fill="#979695"/>
<path d="M58.4053 20.6289H61.8395V21.427H59.3727V22.999H61.3074V23.7729H59.3727V25.5867H61.9846V26.3848H58.4053V20.6289Z" fill="#979695"/>
<path d="M63.6287 20.6289H65.0556C66.9419 20.6289 67.8368 21.6446 67.8368 23.4827C67.8368 25.369 66.9178 26.3848 65.1039 26.3848H63.6045V20.6289H63.6287ZM65.0072 25.5867C66.3615 25.5867 66.821 24.9579 66.821 23.4827C66.821 22.1767 66.4583 21.427 65.1281 21.427H64.5961V25.5867H65.0072Z" fill="#979695"/>
<path d="M14.22 32.02C6.5777 32.02 0.362305 25.8046 0.362305 18.1624C0.362305 10.5201 6.5777 4.30469 14.22 4.30469C21.8623 4.30469 28.0777 10.5201 28.0777 18.1624C28.0777 25.8046 21.8623 32.02 14.22 32.02ZM14.22 8.68207C11.6806 8.68207 9.31054 9.67363 7.5209 11.4633C5.73125 13.2529 4.73969 15.623 4.73969 18.1624C4.73969 20.7017 5.73125 23.0718 7.5209 24.8614C9.31054 26.6511 11.6806 27.6427 14.22 27.6427C16.7593 27.6427 19.1294 26.6511 20.9191 24.8614C22.7087 23.0718 23.7003 20.7017 23.7003 18.1624C23.7003 15.623 22.7087 13.2529 20.9191 11.4633C19.1294 9.67363 16.7352 8.68207 14.22 8.68207Z" fill="#F0BC44"/>
<path d="M30.3998 2.15234H29.3115V3.24064H30.3998V2.15234Z" fill="#F0BC44"/>
<path d="M30.3998 0H29.3115V1.0883H30.3998V0Z" fill="#F0BC44"/>
<path d="M27.2794 3.2168H26.2637V4.28091H27.2794V3.2168Z" fill="#F0BC44"/>
<path d="M25.296 5.29688H24.2803V6.31262H25.296V5.29688Z" fill="black"/>
<path d="M28.416 4.28027H27.2793V5.29602H28.416V4.28027Z" fill="black"/>
<path d="M24.2804 4.3291H23.2646V5.29648H24.2804V4.3291Z" fill="black"/>
<path d="M27.2794 5.2959H26.2637V6.31164H27.2794V5.2959Z" fill="black"/>
<path d="M29.3112 1.08789H28.2471V2.152H29.3112V1.08789Z" fill="black"/>
<path d="M28.2468 2.15234H26.2637V3.21646H28.2468V2.15234Z" fill="black"/>
<path d="M26.2875 3.2168H25.2959V5.29666H26.2875V3.2168Z" fill="black"/>
<path d="M25.2964 6.3125V7.32825H24.2806V6.3125H22.5877V7.03803H21.6929V7.93286H22.7087V8.94861H21.6929V7.93286H20.6288V9.50485H19.5889V10.5206H18.9117V11.5363H18.162C17.3397 12.7697 15.2357 16.6393 14.6069 18.2112C12.3335 15.0431 10.5681 13.7855 9.16539 13.326C8.41567 13.1083 7.52085 13.9064 8.75425 15.2124C11.608 18.3563 12.527 20.9683 13.3977 23.0481C13.8572 24.1364 15.9128 24.3057 16.324 23.1932C17.1946 20.8232 18.4764 18.1871 20 16.0105V14.8738H20.7981V13.858H21.6445V12.673H22.6603V11.5605H21.6445V10.5206H22.6603V11.5605H23.6519V10.5448H24.4499V9.31137H25.3448V8.46492H26.2154V6.3125H25.2964Z" fill="black"/>
</svg>
