<svg width="91" height="22" viewBox="0 0 91 22" fill="none" xmlns="http://www.w3.org/2000/svg">
<path d="M2.49471 2.5918C3.78223 1.22415 5.66758 0.607402 7.49352 0.413825C10.2801 0.159923 13.1784 0.554281 15.6949 1.81749C15.0755 3.21665 14.4677 4.62301 13.8176 6.00867C12.5436 5.30999 11.1085 4.84 9.64268 4.89492C9.01062 4.92283 8.33625 5.084 7.87887 5.54948C7.37197 6.05098 7.34946 6.92433 7.77983 7.48076C8.22551 8.06779 8.93229 8.36581 9.60036 8.62511C11.2066 9.21845 12.8984 9.72896 14.2543 10.8175C15.2438 11.5936 15.9398 12.7353 16.1388 13.9814C16.3828 15.5354 16.1685 17.2155 15.3014 18.5543C14.6046 19.6383 13.5097 20.4171 12.3221 20.8871C10.706 21.5273 8.9458 21.6975 7.22071 21.6821C4.90228 21.6614 2.56854 21.205 0.470703 20.202C1.12617 18.6362 1.78703 17.0723 2.456 15.5111C3.85246 16.2125 5.37947 16.6833 6.9443 16.7788C7.7123 16.8193 8.56404 16.7275 9.16098 16.1926C9.74352 15.6884 9.81374 14.7242 9.31494 14.1389C8.79904 13.5366 8.01842 13.2746 7.30084 12.9964C5.62977 12.394 3.86956 11.7971 2.57304 10.5258C1.58445 9.5849 1.04153 8.23346 1.00912 6.87661C0.931688 5.33069 1.41068 3.72355 2.49471 2.5918Z" fill="#65666A"/>
<path d="M39.9448 2.31905C41.4034 1.13238 43.2545 0.476914 45.1237 0.361668C47.3178 0.232916 49.6093 0.571452 51.5072 1.73832C50.8626 3.21221 50.226 4.6906 49.5579 6.15369C48.5306 5.52434 47.2773 5.28394 46.0915 5.49462C45.1489 5.6738 44.3304 6.30225 43.8406 7.11707C43.133 8.27764 42.934 9.6714 42.9412 11.0093C42.9367 11.7593 43.0609 12.5021 43.2176 13.2332C41.8328 13.6411 40.4499 14.0553 39.0777 14.5018C38.3746 14.7179 37.6867 14.9853 36.9727 15.1645C36.6044 13.904 36.41 12.5949 36.3938 11.2812C36.3677 9.59216 36.5756 7.88238 37.1636 6.29234C37.7254 4.75813 38.6654 3.34636 39.9448 2.31905Z" fill="#65666A"/>
<path d="M77.7153 0.500976C79.7978 0.293893 81.911 0.247074 83.9854 0.564001C83.6027 2.24948 83.2255 3.93675 82.8338 5.62043C81.3725 5.21256 79.7816 5.10182 78.3266 5.59432C78.3221 5.94005 78.3167 6.28579 78.3104 6.63153C76.1802 6.82601 74.058 7.09522 71.9323 7.32481C71.9116 5.48987 71.9224 3.65494 71.926 1.82C73.7798 1.10512 75.7444 0.714361 77.7153 0.500976Z" fill="#65666A"/>
<path d="M17.2196 1.09988C19.3507 1.09177 21.481 1.08997 23.6112 1.10078C23.6283 5.45672 23.6103 9.81267 23.6202 14.1686C23.6265 14.8853 23.8291 15.6785 24.4414 16.117C25.1094 16.5951 25.9729 16.6149 26.7616 16.5906C27.3594 16.5816 27.9528 16.4834 28.5227 16.3052C28.5326 11.2379 28.5137 6.17071 28.5326 1.10348C30.6611 1.09357 32.7904 1.08007 34.9189 1.11068C34.9135 6.01945 34.9243 10.9273 34.9135 15.8361C30.6403 17.2947 26.4591 19.0162 22.3804 20.9492C22.1644 21.051 21.9195 21.141 21.6836 21.0501C20.5968 20.6944 19.574 20.0849 18.824 19.2115C18.0371 18.3076 17.5932 17.1515 17.3897 15.981C17.216 15.0249 17.2151 14.0498 17.216 13.081C17.2196 9.08788 17.2115 5.09388 17.2196 1.09988Z" fill="#65666A"/>
<path d="M52.1171 1.10294C54.2456 1.09484 56.3749 1.07863 58.5034 1.11194C58.4989 3.89856 58.5025 6.68427 58.5016 9.47089C56.3722 9.91837 54.2402 10.3523 52.118 10.8349C52.1018 7.59094 52.1036 4.34694 52.1171 1.10294Z" fill="#65666A"/>
<path d="M63.4078 1.09959C65.6478 1.09599 67.8879 1.07978 70.1271 1.10859C70.128 3.26676 70.1253 5.42402 70.128 7.58219C67.8906 7.91532 65.6488 8.22595 63.4105 8.55638C63.3988 6.07048 63.4041 3.58549 63.4078 1.09959Z" fill="#65666A"/>
<path d="M84.5433 1.10294C86.6718 1.09214 88.8011 1.08583 90.9296 1.10564C90.9305 2.66867 90.9314 4.23169 90.9287 5.79472C88.7993 5.87665 86.6709 5.9919 84.5424 6.10805C84.5343 4.43968 84.5334 2.77131 84.5433 1.10294Z" fill="#62A945"/>
<path d="M84.5525 7.26779C86.6756 7.01208 88.7995 6.75008 90.9316 6.56641C90.9298 11.504 90.9325 16.4425 90.9298 21.38C88.8004 21.3917 86.6711 21.3881 84.5426 21.3818C84.5327 17.5049 84.5408 13.627 84.5381 9.74918C84.5426 8.92265 84.5237 8.09522 84.5525 7.26779Z" fill="#9D9DA0"/>
<path d="M71.9367 9.16063C74.0643 8.79779 76.1855 8.39443 78.3176 8.05859C78.323 12.4983 78.3185 16.9389 78.3203 21.3785C76.1891 21.3947 74.058 21.3866 71.9268 21.383C71.9259 17.3089 71.9043 13.2348 71.9367 9.16063Z" fill="#9D9DA0"/>
<path d="M63.4104 10.9422C65.6505 10.4866 67.8852 10.0103 70.1271 9.56641C70.1253 13.0706 70.1289 16.5757 70.1253 20.0799C68.3714 20.8065 66.4896 21.173 64.6106 21.3845C62.9161 21.5619 61.2036 21.6195 59.5055 21.4683C57.8885 21.308 56.2336 20.9263 54.8876 19.9728C53.845 19.2435 53.0878 18.1468 52.7069 16.9377C52.4044 15.9923 52.273 14.9974 52.2775 14.0061C54.3429 13.3983 56.402 12.7645 58.4872 12.2252C58.5224 12.9311 58.4737 13.6396 58.5215 14.3455C58.5692 14.965 58.8042 15.6159 59.3273 15.9887C59.8495 16.3668 60.5158 16.4596 61.146 16.4686C61.9005 16.4686 62.6658 16.447 63.3969 16.2399C63.4203 14.4743 63.3897 12.7078 63.4104 10.9422Z" fill="#9D9DA0"/>
<path d="M46.4771 16.2887C47.5467 16.4067 48.6443 16.1474 49.5572 15.5811C50.219 17.1036 50.8736 18.6297 51.5056 20.1639C49.7292 21.2308 47.6242 21.6126 45.5731 21.5486C43.1431 21.5081 40.6842 20.5357 39.0527 18.7035C41.0101 17.9049 42.9909 17.1657 44.9798 16.4499C45.2418 16.359 45.5002 16.241 45.7775 16.2014C46.0134 16.1969 46.243 16.2644 46.4771 16.2887Z" fill="#9D9DA0"/>
</svg>
