<svg width="83" height="30" viewBox="0 0 83 30" fill="none" xmlns="http://www.w3.org/2000/svg">
<path d="M1.77754 0.779297H27.2261C27.6441 1.11666 28.1917 1.2896 28.5182 1.73631C28.854 2.13727 28.9478 2.67472 28.9377 3.18425C28.9478 11.1731 28.9315 19.1619 28.9455 27.1508C28.961 27.6525 28.6531 28.0675 28.36 28.4428C28.0676 28.8166 27.6116 28.9942 27.2215 29.2416H1.7566C1.3572 29.0198 0.943833 28.8003 0.632065 28.4583C0.356749 28.1737 0.201641 27.8038 0 27.4687V2.51496C0.245846 2.20164 0.38079 1.81077 0.678598 1.53622C0.978732 1.19576 1.39752 1.01118 1.77754 0.779297ZM11.0817 4.10947C8.5705 4.85942 6.33539 6.50511 4.88203 8.68671C3.62643 10.5449 2.92689 12.787 2.95791 15.0322C3.64737 15.033 4.3376 15.0376 5.02783 15.0268C5.07979 14.5537 5.0635 14.0744 5.15347 13.606C5.41327 11.9463 6.13375 10.365 7.21253 9.07758C8.66589 7.32796 10.78 6.14138 13.033 5.82496C14.7919 5.58067 16.6253 5.82574 18.2368 6.57956C19.8802 7.32719 21.2878 8.57193 22.2479 10.099C23.1848 11.5609 23.6625 13.2926 23.6858 15.0244C24.3737 15.0415 25.0616 15.0337 25.7503 15.0283C25.8061 14.6118 25.7448 14.1923 25.7037 13.7774C25.5316 12.1805 25.0151 10.6201 24.1876 9.24355C22.7776 6.84015 20.4526 4.98893 17.7917 4.1591C15.6271 3.46577 13.2571 3.46034 11.0817 4.10947ZM13.4502 7.81345C12.6211 7.9546 11.8022 8.18959 11.0515 8.57425C9.59654 9.30016 8.44176 10.5589 7.74765 12.0208C7.07526 13.5315 6.89611 15.2741 7.34049 16.8741C7.7174 18.4066 8.65736 19.7754 9.8959 20.7433C11.3601 21.9275 13.3184 22.4564 15.1828 22.2377C16.4322 22.1167 17.6304 21.6297 18.644 20.896C18.9457 20.6797 19.2458 20.4532 19.4792 20.1616C19.2846 19.8917 19.0302 19.6761 18.796 19.4427C18.5463 19.1984 18.3152 18.9339 18.0484 18.7067C17.7544 18.8517 17.5474 19.1154 17.2759 19.2945C16.4539 19.8312 15.4891 20.1756 14.5011 20.1895C13.0485 20.2392 11.592 19.6234 10.6024 18.5617C9.74932 17.662 9.23746 16.4429 9.19791 15.2028C9.16766 14.3768 9.35534 13.5493 9.70434 12.8033C10.3589 11.4872 11.568 10.4293 13.0027 10.061C14.111 9.76238 15.3425 9.80038 16.3895 10.2967C17.9429 10.9482 19.1272 12.4116 19.4296 14.0705C19.4824 14.3877 19.4761 14.7134 19.5522 15.0275C20.2385 15.0423 20.9264 15.0461 21.6135 15.0268C21.643 12.9204 20.6604 10.8427 19.0473 9.4956C17.9297 8.53393 16.5066 7.95227 15.0455 7.79484C14.5142 7.7801 13.9791 7.76226 13.4502 7.81345ZM11.3144 15.0361C13.3354 15.0337 15.3573 15.0423 17.3791 15.0291C17.4977 14.3148 17.1557 13.6098 16.7214 13.0639C16.115 12.324 15.1409 11.9052 14.187 11.9649C12.6289 12.027 11.2291 13.4547 11.3144 15.0361Z" fill="#8CC63E"/>
<path d="M32.8643 17.996C33.093 17.9658 33.3265 17.9542 33.5529 18.0139C34.0663 19.4269 34.5301 20.8617 35.0226 22.2817C35.0389 22.2902 35.0707 22.3088 35.087 22.3181C35.4856 21.0207 35.9447 19.7418 36.3573 18.449C36.4069 18.2923 36.469 18.1403 36.5372 17.9906C36.7319 17.9945 37.2391 17.8557 37.1716 18.1853C36.638 19.7371 36.0734 21.2789 35.5453 22.8331C35.5096 22.9238 35.4739 23.0161 35.4119 23.0921C35.1529 23.1704 34.876 23.1503 34.6154 23.0944C34.1206 21.8551 33.7212 20.5778 33.2621 19.3245C33.1349 18.8802 32.8867 18.4645 32.8643 17.996Z" fill="#8CC63E"/>
<path d="M38.5385 18.078C38.806 17.9477 39.1116 18.0043 39.3985 17.9934C40.0368 18.0136 40.6782 17.9616 41.3157 18.019C41.3351 18.1889 41.3382 18.3603 41.3242 18.5309C40.6309 18.6038 39.9329 18.5348 39.2372 18.5627C39.1798 19.0924 39.2023 19.629 39.2264 20.1603C39.8282 20.1898 40.4316 20.1409 41.0341 20.1812C41.0636 20.3526 41.0644 20.5271 41.0396 20.7001C40.4354 20.7334 39.8305 20.6884 39.2264 20.7171C39.2031 21.3259 39.1806 21.9402 39.2372 22.5482C39.9406 22.5707 40.6456 22.5164 41.3482 22.5707C41.3762 22.7459 41.3746 22.9243 41.3413 23.0988C40.6681 23.1376 39.9934 23.1004 39.3202 23.1167C39.0588 23.1104 38.782 23.1523 38.5392 23.0321C38.4997 21.716 38.5354 20.3984 38.5222 19.0815C38.5198 18.7473 38.5129 18.4122 38.5385 18.078Z" fill="#8CC63E"/>
<path d="M43.1152 18.0783C43.5339 17.9139 43.9993 18.0271 44.4382 17.9937C45.0424 17.9573 45.7628 18.1132 46.0684 18.6948C46.277 19.1462 46.2763 19.7372 45.9691 20.1459C45.8039 20.3568 45.5581 20.4786 45.341 20.6267C45.6457 20.9237 45.88 21.2836 46.0196 21.6869C46.1824 22.1584 46.4546 22.5966 46.5275 23.0952C46.3034 23.1426 46.0738 23.1511 45.8474 23.1177C45.5131 22.5105 45.3875 21.8055 45.0121 21.2192C44.7539 20.8198 44.2257 20.7989 43.8007 20.8454C43.7573 21.5954 43.8031 22.3476 43.7844 23.0984C43.5657 23.1472 43.3408 23.1457 43.1206 23.1139C43.0686 21.849 43.1136 20.5802 43.0989 19.3145C43.1012 18.9019 43.0826 18.4893 43.1152 18.0783ZM43.7728 18.5676C43.7728 19.1245 43.772 19.6821 43.7728 20.2389C44.0916 20.3149 44.4235 20.2878 44.7453 20.2451C45.0501 20.2002 45.3541 19.9993 45.4379 19.6899C45.5356 19.3261 45.4402 18.8538 45.0664 18.6855C44.6616 18.511 44.2032 18.563 43.7728 18.5676Z" fill="#8CC63E"/>
<path d="M48.0845 18.0004C48.2932 17.9694 48.5049 17.9679 48.715 17.9934C48.7701 19.1304 48.722 20.2704 48.7375 21.4089C48.7251 21.9782 48.7686 22.5497 48.715 23.1174C48.5049 23.1438 48.2932 23.143 48.0845 23.1136C48.0302 21.9006 48.0775 20.6838 48.062 19.4693C48.0706 18.9799 48.0357 18.489 48.0845 18.0004Z" fill="#8CC63E"/>
<path d="M50.6368 18.0789C50.8804 17.9595 51.1572 18.0006 51.4194 17.9936C52.0406 18.0099 52.6633 17.9735 53.2845 18.0122C53.3179 18.1898 53.3187 18.3705 53.2923 18.5497C52.6455 18.6086 51.9956 18.5536 51.348 18.5714C51.2627 19.1468 51.3092 19.7363 51.3247 20.3164C51.9483 20.3482 52.5734 20.2915 53.1969 20.342C53.2256 20.5134 53.224 20.6871 53.1961 20.8592C52.578 20.9306 51.956 20.8623 51.3364 20.8903C51.2619 21.6231 51.3333 22.363 51.3069 23.099C51.0882 23.1479 50.8633 23.1463 50.643 23.1137C50.5911 21.9264 50.6361 20.7359 50.6213 19.5478C50.6275 19.0584 50.6012 18.5675 50.6368 18.0789Z" fill="#8CC63E"/>
<path d="M54.9869 18.0004C55.1955 17.9694 55.4073 17.9679 55.6174 17.9934C55.6717 19.1048 55.6244 20.2192 55.6407 21.3314C55.6267 21.9262 55.671 22.5234 55.6174 23.1174C55.4073 23.1438 55.1948 23.143 54.9862 23.1136C54.9334 21.9006 54.9792 20.6838 54.9644 19.4701C54.973 18.9799 54.9381 18.489 54.9869 18.0004Z" fill="#8CC63E"/>
<path d="M57.5392 18.0795C57.8308 17.9407 58.1635 18.009 58.4753 17.995C59.088 18.0144 59.703 17.9609 60.3149 18.0206C60.3351 18.1904 60.3382 18.3618 60.3242 18.5317C59.6309 18.6046 58.9329 18.5356 58.2372 18.5635C58.1798 19.0932 58.2023 19.6291 58.2256 20.1611C58.8282 20.1913 59.4316 20.1409 60.0341 20.182C60.0628 20.3534 60.0636 20.5279 60.0388 20.7009C59.4347 20.7342 58.8297 20.6892 58.2264 20.7179C58.2031 21.3267 58.1806 21.941 58.2372 22.5482C58.9406 22.5715 59.6456 22.5172 60.3475 22.5715C60.3754 22.7467 60.3738 22.9251 60.3405 23.0996C59.6681 23.1384 58.9934 23.1012 58.3202 23.1182C58.0588 23.1105 57.7812 23.1531 57.5385 23.0329C57.4997 21.7168 57.5346 20.3992 57.5222 19.0823C57.5198 18.7481 57.5129 18.413 57.5392 18.0795Z" fill="#8CC63E"/>
<path d="M62.1148 18.079C62.3575 17.958 62.6352 18.0014 62.8973 17.9937C63.5814 17.9999 64.3158 17.9386 64.9362 18.2884C65.5714 18.6203 65.9498 19.3144 66.0158 20.0132C66.0708 20.6988 66.0491 21.4317 65.7032 22.0459C65.4574 22.4949 65.0262 22.8284 64.5391 22.9773C63.9854 23.165 63.3929 23.1061 62.819 23.1185C62.5825 23.1138 62.3335 23.1433 62.1148 23.0332C62.076 21.769 62.1109 20.5026 62.0993 19.2377C62.0993 18.8514 62.0846 18.4644 62.1148 18.079ZM62.774 18.5684C62.7756 19.8938 62.7756 21.2184 62.7732 22.5438C63.3689 22.5515 64.0188 22.6105 64.5547 22.2979C65.0719 21.9916 65.2728 21.365 65.2976 20.7949C65.3395 20.1489 65.2449 19.4075 64.7237 18.9616C64.1917 18.4924 63.4324 18.5536 62.774 18.5684Z" fill="#8CC63E"/>
<path d="M11.0818 4.10968C13.2572 3.46055 15.6273 3.46598 17.7918 4.15931C20.4527 4.98914 22.7777 6.84035 24.1877 9.24375C25.0152 10.6203 25.5317 12.1807 25.7038 13.7776C25.745 14.1925 25.8062 14.612 25.7504 15.0285C25.0617 15.0339 24.3738 15.0417 23.6859 15.0246C23.6626 13.2929 23.1849 11.5611 22.248 10.0992C21.2879 8.57214 19.8803 7.32739 18.2369 6.57977C16.6254 5.82595 14.792 5.58088 13.0331 5.82517C10.7801 6.14159 8.666 7.32817 7.21264 9.07779C6.13386 10.3652 5.41338 11.9465 5.15358 13.6062C5.06361 14.0746 5.0799 14.5539 5.02794 15.027C4.33771 15.0378 3.64748 15.0332 2.95802 15.0324C2.927 12.7872 3.62654 10.5451 4.88214 8.68692C6.3355 6.50532 8.57061 4.85962 11.0818 4.10968Z" fill="white"/>
<path d="M60.7935 6.04879C61.4752 5.46326 62.3903 5.16468 63.2853 5.19492C64.5704 5.14839 65.8756 5.56486 66.8838 6.36599C66.5682 6.90111 66.2106 7.41374 65.8306 7.90466C65.3064 7.62934 64.8116 7.2819 64.233 7.12292C63.6963 6.96936 63.0906 6.88328 62.564 7.11516C62.2492 7.2788 61.9421 7.596 61.9808 7.97679C62.0382 8.41342 62.4462 8.69494 62.8285 8.84151C63.8049 9.20602 64.8674 9.32468 65.7942 9.82335C66.5069 10.153 67.0994 10.83 67.1591 11.635C67.1731 12.0391 67.1948 12.4486 67.1297 12.8487C66.9807 13.4761 66.6411 14.0849 66.0912 14.4448C65.3909 14.9427 64.513 15.0854 63.6731 15.1288C62.1995 15.0792 60.6872 14.61 59.5898 13.5948C59.7814 13.3063 60.0319 13.0643 60.2475 12.7937C60.4274 12.5796 60.581 12.3408 60.8005 12.1632C61.1479 12.3609 61.4418 12.6401 61.8032 12.8162C62.5485 13.2241 63.4334 13.4203 64.2749 13.252C64.6316 13.1861 64.983 12.9651 65.121 12.6184C65.1699 12.4152 65.1761 12.1903 65.1055 11.9918C64.9194 11.6497 64.5455 11.4714 64.1958 11.3411C63.0976 10.9425 61.8746 10.8284 60.8928 10.1514C60.4158 9.84351 60.1118 9.31537 60.0272 8.75931C59.8186 7.80772 60.0753 6.72894 60.7935 6.04879Z" fill="black"/>
<path d="M56.1808 5.3117C56.8609 5.31402 57.5411 5.31325 58.2212 5.30859C58.2724 6.95119 58.2267 8.59689 58.2429 10.241C58.2701 11.3912 58.1592 12.6204 57.4883 13.5937C56.9649 14.4026 56.0358 14.8539 55.1121 15.0238C53.8658 15.2565 52.4931 15.1285 51.405 14.439C50.6271 13.9574 50.182 13.0927 49.9749 12.2264C49.812 11.6292 49.8772 11.0065 49.8663 10.3961C49.8733 8.71399 49.8524 7.03029 49.8756 5.34815C50.5403 5.31557 51.2096 5.31635 51.875 5.34582C51.8951 7.26296 51.8734 9.18087 51.8835 11.098C51.9215 11.6378 52.0743 12.2094 52.4737 12.5979C53.2996 13.5402 54.9911 13.4681 55.7364 12.4606C56.0551 12.0519 56.1738 11.5238 56.1746 11.0135C56.1839 9.1134 56.1691 7.21177 56.1808 5.3117Z" fill="black"/>
<path d="M31.0305 5.34649C32.991 5.30616 34.9539 5.34184 36.9161 5.33021C37.6109 5.34339 38.3066 5.30229 39.0007 5.34572C39.0154 5.96615 39.0139 6.58658 39.0007 7.20701C38.0988 7.23804 37.1953 7.19693 36.2941 7.2202C36.1591 7.21477 35.9823 7.29155 36.0157 7.45364C36.0017 9.95708 36.0374 12.4613 35.9994 14.964C35.3254 14.9772 34.6515 14.9787 33.9775 14.9632C33.9566 12.4597 33.9775 9.95475 33.9682 7.45131C33.9923 7.31094 33.8744 7.1915 33.7348 7.2171C32.8336 7.20236 31.9317 7.23416 31.0305 7.20779C31.0142 6.58813 31.015 5.96692 31.0305 5.34649Z" fill="black"/>
<path d="M40.1807 5.34471C41.7015 5.31524 43.2239 5.3261 44.7455 5.34161C45.7181 5.32067 46.7348 5.61926 47.446 6.30328C48.3642 7.33553 48.472 8.944 47.8392 10.1484C47.5926 10.6099 47.1986 10.9868 46.7364 11.2287C46.5464 11.3303 46.3424 11.4118 46.1811 11.5591C46.3602 11.9221 46.6286 12.2284 46.8473 12.5665C47.3832 13.3708 47.9516 14.1533 48.472 14.9676C47.6771 14.9668 46.8814 14.9886 46.088 14.9583C45.8771 14.7187 45.7188 14.4418 45.5412 14.1789C45.1178 13.5422 44.6858 12.9109 44.2686 12.2703C44.1367 12.0919 44.0072 11.8267 43.7428 11.8678C43.2837 11.8724 42.8222 11.843 42.3646 11.8856C42.2157 11.9492 42.2592 12.126 42.2444 12.2548C42.2437 13.156 42.2537 14.0571 42.246 14.9591C41.5581 14.9824 40.8686 14.9769 40.1815 14.963C40.1714 11.7569 40.1714 8.5508 40.1807 5.34471ZM42.3662 7.15482C42.3437 7.17654 42.2987 7.22075 42.2762 7.24246C42.2025 8.00559 42.2716 8.77726 42.2429 9.54349C42.2677 9.71644 42.1909 9.95763 42.3654 10.0685C42.8478 10.1166 43.3341 10.0685 43.818 10.0864C44.4291 10.0996 45.1031 10.0964 45.6157 9.71411C46.2547 9.25576 46.354 8.20413 45.784 7.65505C45.3745 7.19205 44.7075 7.12613 44.1274 7.13544C43.5404 7.15793 42.9509 7.10752 42.3662 7.15482Z" fill="black"/>
<path d="M67.6362 5.3471C69.2866 5.30444 70.94 5.34244 72.5912 5.32926C73.5963 5.34244 74.6029 5.30444 75.6072 5.3471C75.6235 5.96753 75.6228 6.58796 75.608 7.20762C74.7068 7.23399 73.8041 7.20141 72.9037 7.21692C72.7626 7.19211 72.6439 7.30999 72.6695 7.45114C72.6594 9.95458 72.6819 12.4596 72.6602 14.963C71.97 14.977 71.279 14.9809 70.5895 14.9599C70.5786 12.7667 70.5887 10.5727 70.5848 8.37946C70.5771 8.02581 70.6151 7.66984 70.5662 7.31774C70.5026 7.20762 70.3731 7.21848 70.2661 7.21305C69.3897 7.20684 68.5118 7.23166 67.6362 7.20762C67.62 6.58796 67.62 5.96675 67.6362 5.3471Z" fill="black"/>
<path d="M76.2665 8.41355C77.5648 7.18975 79.7727 7.13623 81.1322 8.29024C81.5363 8.66095 81.8139 9.14954 82.0187 9.65364C82.2149 10.1306 82.2669 10.6479 82.3622 11.1504V11.6871C82.3289 11.7678 82.294 11.8484 82.2583 11.9283C81.2602 11.981 80.259 11.9314 79.2601 11.9477C78.5466 11.9671 77.83 11.9019 77.1204 11.9841C77.194 12.6224 77.6601 13.1932 78.2565 13.4197C78.7133 13.5678 79.2136 13.5569 79.6781 13.4484C80.1101 13.3437 80.4405 13.0303 80.8104 12.8031C81.2028 13.1164 81.5991 13.4336 81.9272 13.8167C81.4037 14.5333 80.539 14.9374 79.6812 15.0816C78.414 15.2848 77.0203 14.9475 76.1036 14.0184C74.6984 12.4906 74.7852 9.86071 76.2665 8.41355ZM78.072 9.21313C77.5415 9.52568 77.1692 10.0841 77.08 10.6929C77.2406 10.8061 77.4438 10.7797 77.6299 10.7844C78.3806 10.7766 79.1321 10.7774 79.8828 10.7844C80.0426 10.7813 80.2187 10.7968 80.3536 10.6905C80.3179 10.0499 79.9139 9.42796 79.3206 9.1697C78.922 9.02545 78.4559 9.02778 78.072 9.21313Z" fill="black"/>
<path d="M13.4502 7.81332C13.9791 7.76214 14.5142 7.77998 15.0455 7.79471C16.5066 7.95215 17.9297 8.5338 19.0472 9.49547C20.6604 10.8426 21.643 12.9203 21.6135 15.0266C20.9264 15.046 20.2385 15.0421 19.5521 15.0274C19.4761 14.7133 19.4823 14.3876 19.4296 14.0704C19.1271 12.4115 17.9429 10.9481 16.3895 10.2966C15.3425 9.80026 14.1109 9.76226 13.0027 10.0608C11.5679 10.4292 10.3589 11.4871 9.70431 12.8032C9.35532 13.5492 9.16763 14.3767 9.19788 15.2027C9.23743 16.4428 9.74929 17.6619 10.6024 18.5615C11.592 19.6233 13.0484 20.239 14.501 20.1894C15.4891 20.1754 16.4538 19.8311 17.2759 19.2944C17.5473 19.1153 17.7544 18.8516 18.0483 18.7066C18.3151 18.9338 18.5462 19.1983 18.796 19.4426C19.0302 19.676 19.2846 19.8916 19.4792 20.1615C19.2458 20.4531 18.9456 20.6795 18.644 20.8959C17.6303 21.6296 16.4321 22.1166 15.1827 22.2376C13.3183 22.4563 11.3601 21.9274 9.89587 20.7431C8.65733 19.7753 7.71737 18.4064 7.34046 16.874C6.89608 15.274 7.07523 13.5314 7.74762 12.0206C8.44173 10.5587 9.59651 9.30004 11.0514 8.57413C11.8021 8.18946 12.6211 7.95447 13.4502 7.81332Z" fill="#FFFFFE"/>
<path d="M11.3143 15.0358C11.2289 13.4544 12.6288 12.0267 14.1869 11.9646C15.1408 11.9049 16.1149 12.3237 16.7213 13.0636C17.1556 13.6095 17.4976 14.3145 17.379 15.0288C15.3571 15.042 13.3353 15.0334 11.3143 15.0358Z" fill="#FFFFFE"/>
</svg>
