<svg width="36" height="37" viewBox="0 0 36 37" fill="none" xmlns="http://www.w3.org/2000/svg">
<path d="M17.9712 0.5C17.5532 0.5 17.2148 0.838345 17.2148 1.25638V5.13842C17.2148 5.55645 17.5532 5.8948 17.9712 5.8948C18.3893 5.8948 18.7276 5.55645 18.7276 5.13842V1.25638C18.7276 0.838345 18.3893 0.5 17.9712 0.5Z" fill="#4451FF"/>
<path d="M10.0182 3.18368C9.80835 2.82095 9.34373 2.69641 8.98492 2.90674C8.62306 3.11575 8.49895 3.5782 8.70797 3.94006L10.6488 7.30217C10.789 7.54516 11.0433 7.68015 11.3046 7.68015C11.433 7.68015 11.5628 7.64749 11.6821 7.57912C12.044 7.3701 12.1681 6.90766 11.959 6.5458L10.0182 3.18368Z" fill="#4451FF"/>
<path d="M6.80263 11.1485L3.44051 9.20772C3.07909 8.99871 2.6162 9.12281 2.40719 9.48467C2.19817 9.84653 2.32227 10.309 2.68413 10.518L6.04625 12.4588C6.16512 12.5276 6.29532 12.5598 6.42378 12.5598C6.68505 12.5598 6.93936 12.424 7.07957 12.1819C7.28859 11.82 7.16448 11.3575 6.80263 11.1485Z" fill="#4451FF"/>
<path d="M33.2567 26.4223L29.8946 24.4815C29.5319 24.2725 29.0694 24.3966 28.8613 24.7585C28.6523 25.1203 28.7764 25.5828 29.1382 25.7918L32.5004 27.7326C32.6192 27.8014 32.7494 27.8336 32.8779 27.8336C33.1396 27.8336 33.3935 27.6978 33.5337 27.4552C33.7427 27.0938 33.6186 26.6313 33.2567 26.4223Z" fill="#4451FF"/>
<path d="M5.3948 18.4701C5.3948 18.0521 5.05645 17.7137 4.63842 17.7137H0.756377C0.338345 17.7137 0 18.0521 0 18.4701C0 18.8882 0.338345 19.2265 0.756377 19.2265H4.63842C5.05689 19.2265 5.3948 18.8882 5.3948 18.4701Z" fill="#4451FF"/>
<path d="M35.1843 17.7137H31.3023C30.8842 17.7137 30.5459 18.0521 30.5459 18.4701C30.5459 18.8882 30.8842 19.2265 31.3023 19.2265H35.1843C35.6024 19.2265 35.9407 18.8882 35.9407 18.4701C35.9407 18.0521 35.6024 17.7137 35.1843 17.7137Z" fill="#4451FF"/>
<path d="M6.04625 24.4815L2.68413 26.4223C2.32227 26.6313 2.19817 27.0938 2.40719 27.4557C2.5474 27.6986 2.80171 27.8341 3.06298 27.8341C3.19143 27.8341 3.3212 27.8014 3.44051 27.733L6.80263 25.7922C7.16448 25.5832 7.28859 25.1208 7.07957 24.7589C6.87055 24.3949 6.40549 24.2725 6.04625 24.4815Z" fill="#4451FF"/>
<path d="M29.5171 12.5602C29.6455 12.5602 29.7757 12.5275 29.8946 12.4592L33.2567 10.5184C33.6186 10.3094 33.7427 9.84691 33.5337 9.48505C33.3238 9.12145 32.86 8.99909 32.5004 9.20811L29.1382 11.1489C28.7764 11.3579 28.6523 11.8204 28.8613 12.1822C29.0015 12.4248 29.2558 12.5602 29.5171 12.5602Z" fill="#4451FF"/>
<path d="M26.9565 2.9071C26.5946 2.69678 26.1318 2.82132 25.9232 3.18405L23.9824 6.54616C23.7734 6.90802 23.8975 7.37047 24.2593 7.57949C24.3782 7.64829 24.5084 7.68051 24.6369 7.68051C24.8986 7.68051 25.1524 7.54465 25.2927 7.30254L27.2335 3.94043C27.4425 3.57813 27.3184 3.11568 26.9565 2.9071Z" fill="#4451FF"/>
<path d="M16.7606 7.93924C11.9049 8.4779 7.98501 12.4087 7.45551 17.2653C6.98261 21.6015 9.13765 25.4705 12.5215 27.5084C13.0375 27.8193 13.3598 28.3728 13.3598 28.975V28.9824C13.3598 29.032 13.3985 29.0686 13.4464 29.0686H22.4955C22.5434 29.0686 22.5817 29.0299 22.5817 28.982V28.9724C22.5817 28.3706 22.9035 27.8197 23.4191 27.5093C26.4912 25.659 28.5509 22.3004 28.5509 18.4523C28.5509 12.2101 23.1461 7.23077 16.7606 7.93924Z" fill="#4451FF"/>
<path d="M25.0933 14.4205C24.9679 14.4205 24.8438 14.357 24.7719 14.2424C23.7543 12.6073 22.184 11.3929 20.3521 10.8229C20.1526 10.7606 20.0412 10.549 20.103 10.3495C20.1644 10.151 20.3769 10.0364 20.5763 10.1004C22.5816 10.7244 24.2994 12.0534 25.4138 13.8418C25.5239 14.0191 25.4699 14.2525 25.2927 14.3635C25.2304 14.4023 25.1616 14.4205 25.0933 14.4205Z" fill="white"/>
<path d="M19.3714 36.5H16.4661C15.6892 36.5 15.0596 35.8704 15.0596 35.0935V34.9894C15.0596 34.932 15.1062 34.8854 15.1636 34.8854H20.7783C20.8358 34.8854 20.8824 34.932 20.8824 34.9894C20.882 35.8238 20.2057 36.5 19.3714 36.5Z" fill="#182358"/>
<path d="M13.3604 29.7985V32.7548C13.3604 33.6927 14.1211 34.4534 15.059 34.4534H20.8841C21.822 34.4534 22.5828 33.6927 22.5828 32.7548V29.7985C22.5828 29.7497 22.5431 29.7101 22.4944 29.7101H13.4487C13.4 29.7101 13.3604 29.7497 13.3604 29.7985Z" fill="#182358"/>
</svg>
