<svg width="338" height="244" viewBox="0 0 338 244" fill="none" xmlns="http://www.w3.org/2000/svg">
<path d="M36.913 70.7428L113.117 80.1406L116.752 50.6636L40.5482 41.2658L36.913 70.7428Z" fill="#00A3FE"/>
<path d="M119.878 49.5882L115.605 78.8812C115.193 81.7 112.563 83.6396 109.747 83.2013L37.765 71.9523C36.6443 71.7764 35.8647 70.745 36.0039 69.619L39.5785 40.641C39.7203 39.4993 40.7517 38.6857 41.8934 38.8117L118.027 47.1972C119.211 47.3258 120.051 48.4124 119.878 49.5882ZM112.358 77.8996L115.673 52.8952C115.828 51.7299 114.993 50.6643 113.825 50.5331L43.5522 42.6541C42.4078 42.5255 41.3738 43.3417 41.2347 44.4834L38.3633 67.7503C38.2216 68.8894 39.0248 69.9314 40.1612 70.0888L109.988 79.7079C111.143 79.8628 112.206 79.0518 112.358 77.8996Z" fill="#016EB9"/>
<path d="M86.1387 65.2463C83.3382 70.7159 77.7504 75.2118 69.3518 70.9101C63.8821 68.1097 61.5883 61.0443 63.8271 55.3201C66.5461 48.3624 72.6168 46.4044 80.942 49.6379C86.6714 51.8609 89.6425 58.4093 86.1387 65.2463Z" fill="#016EB9"/>
<path d="M99.2431 64.7662C98.1881 66.8265 96.0831 68.5193 92.9205 66.9C90.8602 65.8449 89.9967 63.1836 90.8392 61.0262C91.8628 58.4042 94.1488 57.6667 97.2852 58.8845C99.4426 59.7244 100.563 62.1915 99.2431 64.7662Z" fill="#016EB9"/>
<path d="M59.1425 59.202C58.0875 61.2623 55.9826 62.9552 52.8199 61.3358C50.7596 60.2807 49.8961 57.6194 50.7386 55.462C51.7622 52.84 54.0482 52.1052 57.1846 53.3203C59.3446 54.1602 60.4627 56.6273 59.1425 59.202Z" fill="#016EB9"/>
<path d="M78.1338 50.8137L77.9212 51.9003C77.8451 52.2966 78.0813 52.6798 78.4645 52.8005C79.37 53.084 80.2177 53.5249 80.8476 54.021C81.1521 54.2624 81.2308 54.6929 81.0339 55.0262L80.8975 55.2572C80.6612 55.664 80.1232 55.7689 79.7505 55.4855C79.0262 54.9396 78.1023 54.4803 77.0709 54.2782C75.3124 53.9344 74.2783 54.958 73.9949 56.412C73.7193 57.8135 74.155 58.656 75.8399 59.7793C78.1679 61.2937 80.4356 62.9551 80.0025 65.1728C79.6246 67.1045 78.0525 68.8236 75.1182 68.3433C74.7691 68.2856 74.4699 68.6242 74.4016 68.9732L74.1681 70.1622C74.0841 70.5874 73.6746 70.8629 73.2494 70.7789C72.8243 70.695 72.5487 70.2855 72.6326 69.8603L72.8269 68.8682C72.903 68.4798 72.6799 68.094 72.3019 67.9759C71.5461 67.7344 70.9582 67.4195 70.491 67.0914C70.1551 66.8552 70.0658 66.3985 70.2784 66.0494L70.4123 65.829C70.6458 65.4432 71.155 65.3434 71.5277 65.6006C72.0474 65.9628 72.7928 66.3539 73.8216 66.556C75.7297 66.9287 76.6772 65.8972 76.8766 64.8789C77.1365 63.5535 75.8268 63.165 73.8505 61.8265C71.5094 60.257 70.1918 58.4329 70.4254 56.1338C70.6721 53.6824 72.4175 52.2756 75.6116 52.4069C75.9659 52.4226 76.2625 52.126 76.3307 51.777L76.5774 50.5093C76.6614 50.0841 77.0708 49.8085 77.496 49.8925L77.5197 49.8978C77.9396 49.9791 78.2152 50.3886 78.1338 50.8137Z" fill="#00A3FE"/>
<path d="M57.4522 24.634L116.473 73.7422L135.469 50.912L76.4482 1.8038L57.4522 24.634Z" fill="#00A3FE"/>
<path d="M138.652 51.6983L119.219 74.0309C117.351 76.1804 114.086 76.3904 111.957 74.4981L57.4866 26.1165C56.6388 25.3633 56.5417 24.0746 57.2661 23.2032L75.9426 0.7578C76.6775 -0.126684 77.9871 -0.25529 78.8795 0.469095L138.392 48.6853C139.313 49.4359 139.431 50.8007 138.652 51.6983ZM117.017 71.4483L133.326 52.2075C134.088 51.3099 133.962 49.9635 133.051 49.2207L78.1945 4.59757C77.3022 3.87056 75.9898 3.99916 75.2549 4.88364L60.2607 22.904C59.5258 23.7859 59.6361 25.0955 60.5101 25.8436L114.052 71.6871C114.933 72.443 116.264 72.3354 117.017 71.4483Z" fill="#016EB9"/>
<path d="M101.802 46.6298C96.4876 49.7163 89.3592 50.4774 84.6192 42.3176C81.5327 37.0028 83.425 29.8193 88.4012 26.2158C94.4509 21.8327 100.616 23.4678 105.87 30.6881C109.487 35.6564 108.445 42.7716 101.802 46.6298Z" fill="#016EB9"/>
<path d="M113.085 53.3095C111.083 54.4722 108.398 54.7583 106.613 51.6849C105.45 49.6823 106.162 46.9764 108.038 45.6195C110.316 43.9686 112.639 44.5854 114.618 47.3045C115.98 49.1758 115.587 51.8581 113.085 53.3095Z" fill="#016EB9"/>
<path d="M82.3588 26.9487C80.3562 28.1114 77.6713 28.3974 75.8866 25.324C74.7239 23.3215 75.4351 20.6156 77.3117 19.2586C79.5899 17.6078 81.9126 18.2246 83.8916 20.9436C85.2537 22.8149 84.8626 25.4973 82.3588 26.9487Z" fill="#016EB9"/>
<path d="M102.871 30.1586L102.105 30.9565C101.826 31.2478 101.819 31.6992 102.076 32.0063C102.685 32.7333 103.16 33.5653 103.42 34.3212C103.546 34.6886 103.378 35.0928 103.034 35.2686L102.795 35.3894C102.378 35.602 101.868 35.4025 101.706 34.9616C101.391 34.1112 100.863 33.2241 100.105 32.4971C98.8108 31.2557 97.3883 31.5601 96.3647 32.6283C95.3752 33.6598 95.286 34.602 96.097 36.4576C97.236 38.9903 98.2465 41.6149 96.6823 43.2448C95.3201 44.6647 93.0682 45.2631 90.8583 43.271C90.5959 43.0322 90.1602 43.1581 89.9161 43.4127L89.0762 44.2867C88.777 44.599 88.281 44.6095 87.9687 44.3103C87.6563 44.0111 87.6458 43.5151 87.945 43.2028L88.6458 42.4731C88.9187 42.187 88.9397 41.7435 88.6878 41.439C88.1812 40.8275 87.8558 40.2449 87.6406 39.7147C87.4857 39.3341 87.6563 38.9011 88.0264 38.7226L88.2599 38.6097C88.6668 38.4129 89.1497 38.6019 89.3203 39.0192C89.5618 39.6045 89.9765 40.3367 90.735 41.0637C92.1365 42.4101 93.4934 42.0532 94.2125 41.3052C95.1469 40.3315 94.2545 39.2948 93.3175 37.1006C92.1968 34.5154 92.0735 32.2687 93.5117 30.4604C95.0471 28.5313 97.2728 28.2925 99.8895 30.1297C100.181 30.3344 100.588 30.2452 100.834 29.988L101.727 29.0562C102.026 28.7439 102.522 28.7334 102.834 29.0326L102.853 29.051C103.16 29.3528 103.17 29.8489 102.871 30.1586Z" fill="#00A3FE"/>
<path d="M192.429 161.584C192.429 161.584 260.729 101.765 278.048 121.42C295.371 141.076 222.423 151.083 203.153 169.146L192.429 161.584Z" fill="#D5D6DA"/>
<path d="M201.321 150.485C201.321 150.485 298.981 121.194 311.537 151.949C324.096 182.707 238.682 154.912 210.712 164.474L201.321 150.485Z" fill="#EAEAEA"/>
<path d="M206.507 158.351C225.674 151.39 249.241 150.606 265.634 151.175C283.405 151.792 296.803 154.086 296.937 154.109L297.024 153.293C296.89 153.27 283.434 150.965 265.605 150.348C249.138 149.776 225.462 150.566 206.174 157.571L206.507 158.351Z" fill="white"/>
<path d="M257.183 196.339C244.566 192.032 236.989 208.94 225.903 198.52C216.533 189.702 216.174 188.24 210.68 188.948C208.798 189.193 206.985 189.72 205.276 190.46C203.229 191.35 199.699 192.358 196.082 190.972C173.978 182.505 162.947 138.808 193.061 135.835C195.237 135.62 197.699 136.486 200.355 137.557C214.769 143.373 215.528 151.433 234.643 143.024C253.763 134.614 255.524 163.682 264.857 168.138C274.19 172.595 283.51 174.692 285.218 187.479C286.927 200.276 269.796 200.654 257.183 196.339Z" fill="#D5D6DA"/>
<g opacity="0.5">
<g opacity="0.5">
<g opacity="0.5">
<path opacity="0.5" d="M187.471 159.684L187.398 158.854C187.779 158.844 226.163 158.091 285.337 190.895L284.935 191.609C225.982 158.928 187.849 159.673 187.471 159.684Z" fill="white"/>
</g>
</g>
<g opacity="0.5">
<g opacity="0.5">
<path opacity="0.5" d="M236.321 159.957C232.46 149.031 234.155 143.133 234.229 142.887L235.063 143.157C235.045 143.215 233.378 149.083 237.139 159.731L236.321 159.957Z" fill="white"/>
</g>
</g>
<g opacity="0.5">
<g opacity="0.5">
<path opacity="0.5" d="M233.123 168.322C233.073 163.521 236.325 158.54 242.53 153.918C247.175 150.456 251.902 148.375 251.949 148.354L252.343 149.113C252.159 149.194 233.876 157.317 233.989 168.359L233.123 168.322Z" fill="white"/>
</g>
</g>
<g opacity="0.5">
<g opacity="0.5">
<path opacity="0.5" d="M249.228 176.067C248.737 174.82 248.516 174.07 248.506 174.033L249.34 173.857C249.385 174.014 254.017 189.843 269.699 198.407L269.303 199.124C256.668 192.224 251.057 180.712 249.228 176.067Z" fill="white"/>
</g>
</g>
<g opacity="0.5">
<g opacity="0.5">
<path opacity="0.5" d="M247.087 196.746C245.743 191.05 246.916 186.825 248.134 184.284C249.459 181.518 251.094 180.116 251.163 180.059L251.756 180.694C251.693 180.746 245.473 186.179 247.932 196.607L247.087 196.746Z" fill="white"/>
</g>
</g>
</g>
<path d="M300.142 152.742C303.402 154.855 303.769 156.464 303.026 157.677C302.284 158.889 300.712 159.241 297.449 157.131C291.51 153.283 289.985 149.231 289.985 149.231C289.985 149.231 294.116 148.84 300.142 152.742Z" fill="#ACC9C5"/>
<path d="M299.916 140.921C303.331 140.218 304.654 141.102 305.029 142.454C305.404 143.806 304.696 145.113 301.279 145.816C295.056 147.1 291.368 145.273 291.368 145.273C291.368 145.273 293.604 142.223 299.916 140.921Z" fill="#ACC9C5"/>
<path d="M218.814 84.2936L195.319 51.0375C193.959 49.1136 194.416 46.4943 196.337 45.1873L253.957 5.9314C255.879 4.62173 258.537 5.12041 259.894 7.04422L283.389 40.3003C284.749 42.2241 284.292 44.8434 282.371 46.1505L224.751 85.4064C222.832 86.7134 220.174 86.2148 218.814 84.2936Z" fill="#D5D6DA"/>
<path d="M242.276 42.1895C242.276 42.1895 245.842 36.1687 240.551 32.14C235.26 28.1113 230.176 35.8406 229.822 42.4756C229.468 49.1105 228.924 51.0554 229.804 51.9871C230.683 52.9162 251.475 60.8267 255.75 51.6275C258.818 45.0293 252.299 39.7093 242.276 42.1895Z" fill="#00A3FE"/>
<path d="M253.354 16.7468C253.354 16.7468 254.162 15.382 252.963 14.4686C251.763 13.5553 250.608 15.3085 250.53 16.8124C250.448 18.3163 250.325 18.7572 250.524 18.9698C250.724 19.1797 255.44 20.975 256.409 18.8884C257.104 17.3924 255.626 16.1851 253.354 16.7468Z" fill="#00A3FE"/>
<path d="M256.264 14.1199L255.463 14.3692C255.272 14.4296 255.059 14.3561 254.944 14.1907C254.763 13.9361 254.883 13.5871 255.18 13.5005L259.419 12.2538C259.61 12.1987 259.818 12.2695 259.933 12.4349L260.24 12.8679C260.356 13.0307 260.353 13.2459 260.232 13.4007L257.571 16.8809C257.385 17.125 257.007 17.1145 256.828 16.8573L256.799 16.8179C256.684 16.6552 256.686 16.4374 256.807 16.2825L257.327 15.6132C257.448 15.4584 257.45 15.2406 257.335 15.0778L256.786 14.301C256.668 14.133 256.458 14.0621 256.264 14.1199ZM257.658 14.3167C257.836 14.5713 258.211 14.5844 258.4 14.3403L258.823 13.7944C259.022 13.5398 258.82 13.2669 258.524 13.3692L257.854 13.5713C257.558 13.6606 257.442 14.0096 257.621 14.2616L257.658 14.3167Z" fill="#00A3FE"/>
<path d="M225.607 75.4642C225.607 75.4642 224.798 76.829 225.998 77.7423C227.197 78.6557 228.352 76.9025 228.431 75.3986C228.512 73.8947 228.635 73.4538 228.436 73.2412C228.236 73.0312 223.52 71.236 222.552 73.3225C221.853 74.8186 223.331 76.0259 225.607 75.4642Z" fill="#00A3FE"/>
<path d="M222.694 78.0908L223.494 77.8414C223.686 77.7811 223.898 77.8546 224.014 78.0199C224.195 78.2745 224.074 78.6236 223.778 78.7102L219.539 79.9568C219.347 80.012 219.14 79.9411 219.025 79.7757L218.717 79.3427C218.602 79.18 218.605 78.9648 218.725 78.8099L221.387 75.3297C221.573 75.0856 221.951 75.0961 222.129 75.3533L222.158 75.3927C222.274 75.5554 222.271 75.7733 222.15 75.9281L221.631 76.5974C221.51 76.7522 221.507 76.9701 221.623 77.1328L222.171 77.9097C222.29 78.0776 222.502 78.1511 222.694 78.0908ZM221.3 77.8939C221.119 77.6393 220.746 77.6262 220.557 77.8703L220.135 78.4162C219.935 78.6708 220.137 78.9438 220.434 78.8414L221.103 78.6393C221.397 78.5501 221.515 78.201 221.337 77.949L221.3 77.8939Z" fill="#00A3FE"/>
<path d="M123.387 138.412C123.387 138.412 41.9907 68.3513 24.6343 97.4395C7.27795 126.528 89.1282 128.861 112.206 150.22L123.387 138.412Z" fill="#EAEAEA"/>
<g opacity="0.4">
<g opacity="0.4">
<path opacity="0.4" d="M117.182 145.088C101.448 130 80.5538 120.029 65.7958 114.323C49.7964 108.137 37.3716 105.491 37.2456 105.465L37.3322 104.531C37.4556 104.557 49.9355 107.213 65.9874 113.42C80.8111 119.152 101.805 129.173 117.639 144.356L117.182 145.088Z" fill="white"/>
</g>
</g>
<path d="M92.107 188.497C81.7373 187.264 83.4642 187.064 72.231 199.276C64.1683 208.032 56.8168 200.657 48.3289 197.73C48.1741 197.675 48.0192 197.626 47.8644 197.573C44.6598 196.536 41.2898 196.182 37.66 197.597C33.8097 199.101 29.5212 200.177 25.3717 200.602C25.0279 200.639 24.6841 200.67 24.3403 200.694C15.9678 201.339 8.38278 199.227 6.47996 192.51C6.43534 192.353 6.39073 192.19 6.35398 192.027C6.08365 190.88 5.97343 189.607 6.04167 188.201C6.76343 173.532 16.8156 170.892 26.6709 165.553C32.1195 162.6 34.3425 151.107 38.9224 142.958C38.988 142.843 39.0536 142.724 39.1219 142.609C42.8147 136.216 48.0429 132.04 57.6068 136.042C57.6068 136.042 57.6095 136.042 57.6095 136.045C57.8037 136.126 57.9979 136.205 58.1869 136.284C79.3804 144.997 79.6192 135.864 94.7972 128.898C97.6213 127.604 100.248 126.552 102.66 126.741C125.127 128.499 161.223 196.717 92.107 188.497Z" fill="#D5D6DA"/>
<path d="M110.962 153.863L110.97 152.913C110.55 152.91 68.2971 153.052 6.23096 192.108L6.73748 192.914C68.57 154.004 110.545 153.86 110.962 153.863Z" fill="white"/>
<path d="M57.3001 155.45C60.5572 142.855 58.1584 136.154 58.056 135.876L57.1637 136.207C57.1873 136.272 59.552 142.939 56.3789 155.214L57.3001 155.45Z" fill="white"/>
<path d="M61.5699 164.93C61.1893 159.437 57.1658 153.828 49.9299 148.705C44.5127 144.868 39.1297 142.611 39.0772 142.59L38.7124 143.466C38.9224 143.553 59.7484 152.366 60.6224 164.996L61.5699 164.93Z" fill="white"/>
<path d="M44.5709 174.208C44.9987 172.77 45.172 171.904 45.1799 171.864L44.2455 171.686C44.2114 171.87 40.5501 190.09 24.0913 200.291L24.5926 201.1C37.8546 192.88 42.9778 179.568 44.5709 174.208Z" fill="white"/>
<path d="M48.7941 197.798C49.7547 191.25 48.0854 186.449 46.5159 183.573C44.8073 180.444 42.8861 178.885 42.8048 178.82L42.209 179.563C42.2825 179.623 49.6103 185.67 47.8518 197.659L48.7941 197.798Z" fill="white"/>
<path d="M251.073 122.667C251.073 73.4773 212.337 32.4209 160.819 33.602C111.642 34.7306 69.998 73.1177 69.998 122.308C69.998 171.498 109.792 213.433 158.982 213.433C208.169 213.431 251.073 171.857 251.073 122.667Z" fill="#131F2D"/>
<path d="M246.934 122.308C246.934 75.451 207.673 37.8276 160.819 37.8276C113.962 37.8276 74.6538 75.8027 74.6538 122.659C74.6538 169.516 113.679 208.646 160.535 208.646C207.392 208.646 246.934 169.164 246.934 122.308Z" fill="#ACC9C5"/>
<path d="M241.433 122.667C241.433 140.42 235.693 156.834 225.971 170.154C218.358 180.581 208.3 189.114 196.642 194.906C185.852 200.266 173.687 203.282 160.819 203.282C150.394 203.282 140.428 201.303 131.282 197.699C119.272 192.967 108.671 185.434 100.288 175.91C87.7846 161.711 80.2021 143.074 80.2021 122.665C80.2021 121.838 80.2126 121.017 80.2415 120.195C80.6588 106.295 84.5957 93.2774 91.1913 82.0074C101.852 63.7902 119.458 50.1319 140.376 44.6649C146.903 42.9589 153.756 42.0508 160.819 42.0508C167.882 42.0508 174.734 42.9589 181.259 44.6649C200.025 49.5702 216.127 61.0659 226.935 76.5326C234.512 87.3668 239.488 100.146 240.968 113.972C241.275 116.833 241.433 119.731 241.433 122.667Z" fill="#00A3FE"/>
<path d="M160.819 42.0537C167.882 42.0537 174.734 42.9618 181.259 44.6678L168.7 105.162L166.362 116.427L165.706 119.584L165.449 120.831L165.065 122.668H156.567L156.189 120.849L156.011 119.985L155.27 116.427L152.932 105.162L140.376 44.6678C146.903 42.9618 153.753 42.0537 160.819 42.0537Z" fill="#131F2D"/>
<path d="M226.935 76.5347C234.512 87.3689 239.488 100.148 240.969 113.974L196.387 123.174L184.763 125.572L179.603 126.638L169.155 128.793L166.223 129.399L166.108 129.131L165.273 127.2L164.102 124.488L163.318 122.67L162.853 121.596L163.94 120.832L165.714 119.586L167.819 118.105L176.693 111.867L226.935 76.5347Z" fill="#131F2D"/>
<path d="M225.971 170.154C218.358 180.581 208.3 189.114 196.642 194.906L165.118 141.378L162.659 137.202L160.297 133.194L159.727 132.226L160.331 131.68L161.063 131.013L162.656 129.567L165.27 127.197L166.023 126.515L167.543 127.62L169.155 128.79L176.312 134L225.971 170.154Z" fill="#131F2D"/>
<path d="M158.186 121.261L157.714 122.667L157.092 124.505L155.785 128.384L155.533 129.132L155.47 129.318L151.916 128.888L142.297 127.722L135.88 126.946L126.053 125.754L80.2388 120.2C80.6561 106.301 84.5929 93.2827 91.1885 82.0127L144.195 113.067L153.551 118.55L156.01 119.988L157.483 120.851L158.186 121.261Z" fill="#131F2D"/>
<path d="M160.819 132.031L160.297 133.194L158.998 136.076L156.607 141.396L131.282 197.698C119.272 192.966 110.495 186.717 102.112 177.193L145.725 134.525L151.916 128.884L153.79 127.176L153.937 127.042L155.785 128.381L159 130.711L159.202 130.858L159.205 130.861L160.331 131.677L160.819 132.031Z" fill="#131F2D"/>
<path d="M165.21 141.304C175.526 138.868 181.914 128.53 179.478 118.214C177.042 107.898 166.704 101.51 156.388 103.946C146.072 106.382 139.684 116.719 142.12 127.036C144.556 137.352 154.893 143.74 165.21 141.304Z" fill="white"/>
<path d="M164.254 54.5043C164.254 51.9296 162.367 49.2026 159.792 49.2026C157.218 49.2026 154.491 51.0897 154.491 53.6644C154.491 56.2391 156.774 58.7797 159.349 58.7797C161.921 58.7797 164.254 57.079 164.254 54.5043Z" fill="#DAEBE8"/>
<path d="M228.213 99.4818C228.213 96.907 225.901 94.9229 223.329 94.9229C220.754 94.9229 218.353 97.781 218.353 100.356C218.353 102.93 220.754 104.663 223.329 104.663C225.901 104.663 228.213 102.056 228.213 99.4818Z" fill="#DAEBE8"/>
<path d="M209.538 177.149C209.538 174.574 207.462 173.02 204.893 172.847C202.053 172.658 199.822 175.191 199.822 177.765C199.822 180.34 202.318 182.169 204.893 182.169C207.468 182.169 209.538 179.723 209.538 177.149Z" fill="#DAEBE8"/>
<path d="M100.288 105.174C100.288 102.599 97.7207 100.583 95.146 100.583C92.5712 100.583 90.5215 103.09 90.5215 105.665C90.5215 108.239 92.5398 110.447 95.1119 110.447C97.6866 110.444 100.288 107.749 100.288 105.174Z" fill="#DAEBE8"/>
<path d="M125.613 70.4222C125.613 67.8475 123.379 65.3594 120.805 65.3594C118.23 65.3594 115.962 67.774 115.962 70.3487C115.962 72.9234 117.973 74.8604 120.545 74.8604C123.12 74.8604 125.613 72.9969 125.613 70.4222Z" fill="#131F2D"/>
<path d="M203.348 70.6715C203.348 68.0968 200.458 65.7241 197.883 65.7241C195.308 65.7241 193.484 68.1309 193.484 70.703C193.484 73.2777 195.739 75.0466 198.314 75.0466C200.888 75.0466 203.348 73.2462 203.348 70.6715Z" fill="#131F2D"/>
<path d="M230.394 140.16C230.394 137.585 228.544 134.921 225.969 134.921C223.395 134.921 220.807 136.68 220.807 139.255C220.807 141.829 223.158 144.512 225.733 144.512C228.308 144.512 230.394 142.735 230.394 140.16Z" fill="#131F2D"/>
<path d="M165.837 189.634C165.837 187.059 164.026 184.183 160.816 184.183C158.242 184.183 156.155 186.269 156.155 188.844C156.155 191.419 157.961 194.161 160.533 194.161C163.11 194.161 165.837 192.209 165.837 189.634Z" fill="#131F2D"/>
<path d="M163.055 166.805C154.811 166.805 148.84 166.031 144.798 164.44C137.36 161.509 129.786 156.472 125.505 151.609C119.187 144.433 116.369 135.512 116.369 122.681C116.369 122.193 116.377 121.744 116.39 121.305C116.621 113.605 117.345 105.605 121.056 99.2668C126.531 89.9102 137.029 82.6217 149.858 79.2701C153.551 78.3043 157.38 77.8135 161.236 77.8135C165.094 77.8135 168.921 78.3043 172.613 79.2701C182.891 81.9551 191.92 88.2541 198.035 97.0071C202.297 103.104 204.185 108.18 204.993 115.731C205.164 117.298 205.284 120.972 205.284 122.681C205.284 133.14 202.665 142.032 197.497 149.11C193.411 154.706 188.568 158.703 181.797 162.068C175.02 165.43 169.59 166.805 163.055 166.805ZM161.236 78.1993C157.412 78.1993 153.617 78.6848 149.955 79.6428C137.224 82.9708 126.812 90.1936 121.389 99.461C117.723 105.726 117.006 113.668 116.775 121.316C116.762 121.752 116.754 122.195 116.754 122.678C116.754 135.407 119.542 144.252 125.794 151.349C130.037 156.17 137.554 161.168 144.94 164.078C148.934 165.653 154.861 166.417 163.055 166.417C169.524 166.417 174.905 165.055 181.626 161.716C188.337 158.38 193.138 154.422 197.185 148.877C202.303 141.866 204.896 133.053 204.896 122.675C204.896 121.014 204.772 117.298 204.607 115.768C203.807 108.288 201.938 103.261 197.718 97.2223C191.655 88.5454 182.705 82.3015 172.516 79.6376C168.855 78.6822 165.06 78.1993 161.236 78.1993Z" fill="#DAEBE8"/>
<path d="M198.723 122.607C198.723 131.034 196.7 138.824 192.086 145.147C188.472 150.097 184.233 153.443 178.7 156.194C173.58 158.737 168.827 160.238 162.719 160.238C157.769 160.238 151.483 159.934 147.142 158.222C141.442 155.976 134.66 151.797 130.681 147.275C124.747 140.535 122.896 132.294 122.896 122.607C122.896 122.216 122.902 121.825 122.915 121.434C123.112 114.835 123.757 107.985 126.889 102.634C131.949 93.9857 141.528 88.1775 151.457 85.5818C154.557 84.7708 157.809 84.3403 161.16 84.3403C164.512 84.3403 167.764 84.7708 170.863 85.5818C179.771 87.9098 187.414 93.3663 192.542 100.707C196.138 105.849 197.771 110.106 198.474 116.667C198.621 118.027 198.723 121.213 198.723 122.607Z" fill="#DAEBE8"/>
<path d="M161.543 97.7808H160.076V147.532H161.543V97.7808Z" fill="#131F2D"/>
<path d="M185.67 123.391V121.924L135.918 121.924V123.391L185.67 123.391Z" fill="#131F2D"/>
<path d="M169.168 123.504C169.168 118.893 165.414 113.935 160.819 114.318C155.297 114.778 152.145 118.625 152.145 123.237C152.145 127.848 156.207 131.018 160.819 131.018C165.43 131.018 169.168 128.116 169.168 123.504Z" fill="#00A3FE"/>
<path d="M165.619 123.137C165.619 120.523 163.49 117.712 160.884 117.927C157.753 118.187 155.966 120.371 155.966 122.985C155.966 125.599 158.27 127.397 160.884 127.397C163.498 127.397 165.619 125.754 165.619 123.137Z" fill="#131F2D"/>
<path d="M184.713 126.316C187.309 126.316 191.718 124.678 191.718 122.657C191.718 120.636 187.311 118.999 184.713 118.999C182.115 118.999 180.01 120.636 180.01 122.657C180.012 124.678 182.117 126.316 184.713 126.316Z" fill="#00A3FE"/>
<path d="M137.069 118.999C134.473 118.999 130.064 120.636 130.064 122.657C130.064 124.678 134.471 126.316 137.069 126.316C139.665 126.316 141.772 124.678 141.772 122.657C141.77 120.636 139.665 118.999 137.069 118.999Z" fill="#00A3FE"/>
<path d="M164.478 95.5895C164.478 92.9938 162.84 88.5845 160.819 88.5845C158.798 88.5845 157.16 92.9911 157.16 95.5895C157.16 98.1852 158.798 100.293 160.819 100.293C162.837 100.293 164.478 98.1878 164.478 95.5895Z" fill="#00A3FE"/>
<path d="M157.178 149.149C157.139 151.745 158.709 156.178 160.727 156.209C162.748 156.241 164.454 151.86 164.493 149.262C164.533 146.666 162.929 144.535 160.908 144.504C158.887 144.475 157.218 146.554 157.178 149.149Z" fill="#00A3FE"/>
<path d="M270.523 83.3481C274.591 91.2035 278.904 97.0327 286.562 104.683C288.336 106.455 289.04 107.106 290.221 107.988C291.171 108.696 291 111.177 289.803 112.814C288.68 114.35 286.646 114.924 285.347 114.289C284.376 113.814 283.504 113.106 281.494 111.161C274.513 104.408 270.807 98.5025 264.334 85.1539L270.523 83.3481Z" fill="#FF7955"/>
<path d="M294.935 210.798C294.935 210.798 294.767 213.349 293.008 213.997C291.25 214.645 286.218 215.092 288.021 216.808C289.056 217.795 294.139 217.393 295.567 217.451C296.995 217.509 298.31 218.186 299.409 217.275C300.619 216.273 299.667 210.992 299.667 210.992C299.667 210.992 298.407 211.583 297.302 211.509C295.709 211.401 294.935 210.798 294.935 210.798Z" fill="#131F2D"/>
<path d="M314.773 211.611C314.773 211.611 314.605 214.162 312.847 214.811C311.089 215.459 306.057 215.905 307.86 217.622C308.894 218.608 313.978 218.207 315.406 218.265C316.834 218.322 318.149 219 319.248 218.089C320.458 217.086 319.506 211.806 319.506 211.806C319.506 211.806 318.246 212.396 317.141 212.323C315.548 212.215 314.773 211.611 314.773 211.611Z" fill="#131F2D"/>
<path d="M284.966 140.286C284.966 140.286 284.208 150.96 286.78 171.6C288.635 186.5 290.929 201.533 292.063 208.74C292.467 211.318 294.543 213.278 297.087 213.483L298.454 213.593C301.205 213.816 303.54 211.541 303.454 208.717L301.976 160.204L301.777 144.249L284.966 140.286Z" fill="#364154"/>
<path d="M314.572 149.643C314.519 150.953 307.168 151.38 298.095 150.958C289.022 150.535 281.82 149.829 281.875 148.52C281.927 147.21 289.216 145.793 298.289 146.215C307.362 146.635 314.627 148.331 314.572 149.643Z" fill="#131F2D"/>
<path d="M291.722 149.679L311.682 210.885C312.38 213.501 314.635 215.37 317.286 215.522L318.44 215.59C321.167 215.748 323.356 213.312 322.97 210.546L313.727 150.314C313.603 149.619 311.186 149.202 310.498 149.115C304.793 148.406 291.473 147.112 291.722 149.679Z" fill="#364154"/>
<path d="M285.502 116.258C283.195 110.135 287.838 105.393 287.838 105.393C287.838 105.393 293.643 107.826 297.331 108.479C303.21 109.521 309.724 106.645 309.724 106.645C309.724 106.645 316.398 112.001 312.393 117.022C311.724 117.859 311.85 121.647 311.918 122.193C313.75 136.806 314.577 149.53 314.577 149.53C296.391 143.727 281.875 148.517 281.875 148.517C281.392 135.392 284.231 123.158 285.502 116.258Z" fill="#00A3FE"/>
<path d="M302.73 183.951L298.83 163.545C298.019 160.695 296.205 158.256 293.722 156.697L293.895 156.424C296.446 158.028 298.31 160.532 299.147 163.471L303.053 183.893L302.73 183.951Z" fill="#020202"/>
<path d="M310.16 149.075C310.16 149.075 297.963 146.538 285.848 148.695C285.292 148.795 284.895 149.291 284.924 149.855L285.166 154.354L297.858 151.742L310.16 149.075Z" fill="#364154"/>
<path d="M307.688 111.778C307.842 114.67 309.428 116.937 311.228 116.843C313.029 116.746 314.362 114.323 314.207 111.431C314.052 108.539 312.467 106.271 310.666 106.366C308.866 106.46 307.533 108.885 307.688 111.778Z" fill="#131F2D"/>
<path d="M329.306 81.3223C327.501 88.6527 320.745 97.6157 312.824 104.993C310.989 106.702 310.262 107.329 309.052 108.169C308.079 108.846 308.163 111.329 309.302 113.009C310.37 114.584 312.383 115.229 313.706 114.636C314.693 114.195 315.59 113.515 317.666 111.644C324.879 105.138 329.278 98.6288 335.479 82.9784L329.306 81.3223Z" fill="#FF7955"/>
<path d="M329.619 83.2014C329.33 82.1699 329.217 80.0046 328.949 78.9679C328.834 78.5191 328.545 76.9811 328.973 76.8C329.343 76.6425 330.149 77.7501 330.469 78.3249C331.519 75.4326 335.122 71.0312 332.561 77.8918C332.563 77.8918 332.569 77.8945 332.571 77.8945C332.808 77.2829 334.797 72.9209 335.479 73.5508C336.08 74.1072 334.563 77.5401 334.185 78.5506C334.193 78.5559 334.204 78.5585 334.212 78.5637C334.684 77.569 335.891 74.598 336.576 75.0547C337.256 75.5061 335.931 79.5532 335.931 79.5532C335.931 79.5532 337.411 75.9155 337.807 77.0441C337.899 77.3092 337.332 79.5112 336.771 80.6975C336.653 80.9469 336.547 81.1647 336.474 81.33C336.411 81.4665 336.34 81.582 336.264 81.6791C335.201 83.6056 334.199 84.6685 334.199 84.6685C334.199 84.6685 333.243 86.1252 331.469 85.448C330.335 85.0202 329.742 83.6502 329.619 83.2014Z" fill="#FF7955"/>
<path d="M270.193 85.3772C270.481 84.3457 270.594 82.1804 270.862 81.1437C270.977 80.6949 271.266 79.1569 270.838 78.9758C270.468 78.8183 269.663 79.9259 269.342 80.5007C268.292 77.6084 264.689 73.207 267.251 80.0676C267.248 80.0676 267.243 80.0703 267.24 80.0703C267.004 79.4587 265.014 75.0967 264.332 75.7266C263.731 76.283 265.248 79.7159 265.626 80.7264C265.618 80.7317 265.608 80.7343 265.6 80.7395C265.127 79.7448 263.92 76.7738 263.235 77.2305C262.555 77.6819 263.881 81.729 263.881 81.729C263.881 81.729 262.4 78.0913 262.004 79.2199C261.912 79.485 262.479 81.687 263.041 82.8733C263.159 83.1226 263.264 83.3405 263.337 83.5058C263.4 83.6423 263.471 83.7578 263.547 83.8549C264.61 85.7813 265.613 86.8443 265.613 86.8443C265.613 86.8443 266.568 88.3009 268.342 87.6238C269.474 87.196 270.067 85.8233 270.193 85.3772Z" fill="#FF7955"/>
<path d="M299.934 107.804L300.039 104.867L300.073 103.92L300.272 98.3477L298.346 103.305L297.191 106.282L296.863 107.13C296.595 107.822 295.829 108.001 295.049 107.935C295.049 107.935 294.561 109.901 295.485 110.455C297.199 111.478 299.48 110.612 301.191 108.668C301.183 108.67 299.897 108.846 299.934 107.804Z" fill="#FF7955"/>
<path d="M300.081 104.791C300.068 104.818 300.052 104.844 300.039 104.868C299.194 106.358 297.197 106.298 297.197 106.298L297.191 106.285L298.346 103.309C298.939 103.364 299.75 103.513 300.073 103.92C300.241 104.133 300.278 104.416 300.081 104.791Z" fill="#131F2D"/>
<path d="M295.186 96.8808C296.64 93.8101 299.834 92.2773 302.325 93.4557C304.816 94.6342 305.653 98.0776 304.199 101.148C302.745 104.219 299.551 105.752 297.06 104.573C294.569 103.395 293.732 99.949 295.186 96.8808Z" fill="#FF7955"/>
<path d="M295.176 103.909C295.173 103.909 295.168 103.909 295.165 103.909C295.102 103.902 293.638 103.726 292.816 102.537C292.535 102.13 292.449 101.77 292.556 101.469C292.709 101.046 293.189 100.907 293.21 100.899C293.262 100.883 293.315 100.915 293.328 100.965C293.344 101.015 293.312 101.07 293.262 101.083C293.257 101.083 292.856 101.201 292.738 101.532C292.651 101.77 292.732 102.072 292.974 102.421C293.745 103.537 295.171 103.71 295.186 103.713C295.239 103.718 295.278 103.765 295.27 103.82C295.265 103.875 295.223 103.909 295.176 103.909Z" fill="#00A3FE"/>
<path d="M302.929 95.731C302.291 96.6601 302.178 97.563 298.729 96.8491C298.729 96.8491 298.06 96.9436 298.291 96.3819C298.522 95.8202 299.692 95.3505 299.577 94.5211C299.577 94.5211 295.178 98.0695 294.897 96.7441C294.616 95.4187 295.141 91.8099 297.761 90.6971C300.38 89.5842 305.942 91.7128 306.099 93.7048C306.33 96.6365 303.474 94.9358 302.929 95.731Z" fill="#131F2D"/>
<path d="M305.687 94.8019C305.687 94.8019 304.165 94.4949 303.937 95.1326C303.708 95.7704 302.204 96.4659 302.924 97.2795C303.645 98.0905 303.75 98.4239 303.427 99.0958C303.202 99.5629 303.532 100.991 303.383 102.075C303.317 102.544 302.661 103.298 302.661 103.298C302.661 103.298 306.653 103.765 307.9 99.5445C308.708 96.7992 306.713 94.8623 305.687 94.8019Z" fill="#131F2D"/>
<path d="M303.713 101.946C302.973 102.193 302.236 101.904 302.068 101.303C301.9 100.702 302.364 100.017 303.104 99.7703C303.844 99.5236 304.582 99.8123 304.75 100.413C304.92 101.014 304.456 101.699 303.713 101.946Z" fill="#FF7955"/>
<path d="M302.601 106.041C302.546 106.041 302.488 106.036 302.435 106.028C302.136 105.981 301.446 105.708 301.462 104.217C301.491 101.608 303.344 101.437 303.362 101.437C303.417 101.432 303.469 101.477 303.475 101.535C303.48 101.592 303.435 101.642 303.378 101.647C303.309 101.653 301.698 101.81 301.672 104.219C301.661 105.167 301.945 105.737 302.467 105.82C303.005 105.907 303.666 105.443 303.855 104.849C304.204 103.75 303.677 102.605 303.672 102.592C303.648 102.54 303.669 102.477 303.721 102.453C303.774 102.43 303.837 102.451 303.861 102.503C303.884 102.553 304.427 103.734 304.055 104.912C303.855 105.55 303.204 106.041 302.601 106.041Z" fill="#00A3FE"/>
<path d="M308.435 95.747C308.469 95.7548 308.506 95.7496 308.535 95.7286C308.593 95.6892 308.608 95.6079 308.566 95.5501C307.805 94.4478 306.661 94.6236 306.614 94.6315C306.546 94.642 306.498 94.7076 306.509 94.7785C306.519 94.8467 306.585 94.894 306.656 94.8835C306.698 94.8756 307.69 94.7286 308.359 95.6945C308.378 95.7233 308.406 95.7417 308.435 95.747Z" fill="#131F2D"/>
<path d="M306.533 94.3296C306.588 94.3427 306.648 94.3139 306.674 94.2614C306.69 94.2272 307.068 93.4346 306.845 92.9622C306.814 92.8992 306.737 92.873 306.674 92.9018C306.611 92.9307 306.583 93.0068 306.614 93.0724C306.756 93.3743 306.538 93.9543 306.443 94.1511C306.412 94.2141 306.438 94.2902 306.504 94.3217C306.514 94.3244 306.522 94.327 306.533 94.3296Z" fill="#131F2D"/>
<path d="M296.118 102.093C296.118 102.093 297.593 102.692 299.278 102.731C299.278 102.731 298.845 104.243 297.199 103.731C296.238 103.434 296.118 102.093 296.118 102.093Z" fill="#E9633E"/>
<path d="M296.118 102.093C296.118 102.093 296.364 102.529 297.204 102.841C298.044 103.156 299.275 102.731 299.275 102.731C299.275 102.731 297.299 102.545 296.118 102.093Z" fill="white"/>
<path d="M299.792 99.5289C299.766 99.5105 299.75 99.479 299.748 99.4449C299.748 99.3872 299.792 99.3373 299.85 99.3373C299.884 99.3373 300.682 99.2454 301.023 100.109C301.044 100.164 301.021 100.224 300.965 100.248C300.91 100.272 300.86 100.24 300.826 100.19C300.488 99.7126 299.881 99.5473 299.853 99.5473C299.834 99.5473 299.811 99.542 299.792 99.5289Z" fill="#080435"/>
<path d="M295.648 98.5371C295.617 98.5319 295.588 98.5135 295.572 98.482C295.546 98.4295 295.564 98.3665 295.617 98.3403C295.648 98.3245 296.32 97.8889 297.01 98.5056C297.055 98.545 297.06 98.6106 297.021 98.6552C296.981 98.6999 296.924 98.6946 296.871 98.6657C296.354 98.3901 295.737 98.5135 295.714 98.5266C295.695 98.5371 295.672 98.5398 295.648 98.5371Z" fill="#080435"/>
<path d="M294.144 101.949C293.583 101.461 293.281 100.521 293.339 99.4347C293.433 97.6658 294.451 96.0438 295.609 95.8181C296.042 95.7288 296.446 95.8443 296.782 96.1356C297.344 96.6238 297.645 97.5634 297.588 98.6473C297.493 100.414 296.475 102.038 295.317 102.267C295.058 102.319 294.808 102.298 294.577 102.209C294.422 102.151 294.278 102.065 294.144 101.949ZM297.38 98.6395C297.435 97.6159 297.163 96.7419 296.645 96.2931C296.354 96.0438 296.013 95.9493 295.648 96.0201C294.577 96.2301 293.635 97.7681 293.546 99.4452C293.491 100.464 293.764 101.343 294.281 101.792C294.569 102.036 294.913 102.135 295.275 102.062C296.346 101.855 297.291 100.317 297.38 98.6395Z" fill="#764678"/>
<g opacity="0.3">
<path opacity="0.3" d="M303.013 99.532C302.782 101.199 301.598 102.632 300.373 102.737C299.147 102.842 298.341 101.574 298.572 99.9099C298.803 98.2433 299.987 96.8103 301.213 96.7053C302.438 96.6003 303.244 97.868 303.013 99.532Z" fill="white"/>
</g>
<g opacity="0.3">
<path opacity="0.3" d="M297.582 98.7943C297.349 100.466 296.249 101.962 295.128 102.13C294.005 102.301 293.286 101.08 293.52 99.4084C293.753 97.7366 294.853 96.2406 295.974 96.0726C297.094 95.902 297.816 97.1198 297.582 98.7943Z" fill="white"/>
</g>
<path d="M298.916 102.209C298.37 101.631 298.136 100.702 298.278 99.6653C298.517 97.8832 299.808 96.3505 301.154 96.2455C301.698 96.2035 302.183 96.3925 302.564 96.7914C303.107 97.3688 303.341 98.2953 303.199 99.332C302.96 101.117 301.669 102.652 300.322 102.752C300.055 102.775 299.8 102.739 299.567 102.652C299.328 102.56 299.107 102.411 298.916 102.209ZM301.17 96.4502C299.916 96.5473 298.711 98.0013 298.483 99.6916C298.354 100.655 298.572 101.545 299.068 102.067C299.404 102.411 299.834 102.579 300.307 102.547C301.561 102.45 302.769 100.996 302.994 99.3058C303.123 98.3478 302.905 97.4607 302.412 96.9331C302.244 96.7547 302.047 96.6234 301.834 96.5421C301.629 96.4633 301.406 96.4318 301.17 96.4502Z" fill="#764678"/>
<path d="M297.16 99.2905C297.2 99.3062 297.247 99.3062 297.292 99.2931C297.318 99.2826 297.927 99.0936 298.677 99.5555C298.766 99.6054 298.887 99.5844 298.945 99.4925C299.003 99.4007 298.974 99.2826 298.882 99.2275C297.982 98.6527 297.202 98.9151 297.168 98.923C297.068 98.9597 297.013 99.07 297.05 99.1697C297.063 99.2275 297.108 99.2695 297.16 99.2905Z" fill="#764678"/>
<path d="M296.659 100.14C296.688 100.153 296.722 100.153 296.751 100.135C296.801 100.109 296.816 100.046 296.79 99.9957C296.774 99.9668 296.462 99.2634 295.583 99.3973C295.528 99.4052 295.488 99.455 295.496 99.5101C295.504 99.5653 295.554 99.5915 295.609 99.5968C296.168 99.6466 296.598 100.069 296.612 100.093C296.622 100.116 296.64 100.132 296.659 100.14Z" fill="#080435"/>
<path d="M299.155 100.831C299.126 100.82 299.1 100.799 299.09 100.768C299.071 100.715 299.1 100.658 299.153 100.639C299.184 100.629 299.882 100.309 300.454 100.991C300.491 101.033 300.486 101.099 300.444 101.135C300.402 101.172 300.347 101.159 300.299 101.125C299.848 100.792 299.244 100.823 299.221 100.831C299.197 100.836 299.174 100.836 299.155 100.831Z" fill="#080435"/>
<path d="M176.931 179.76C170.298 187.817 155.837 209.472 161.07 216.908C166.306 224.343 197.933 222.682 203.108 219.921C208.281 217.16 195.305 182.733 191.075 178.392C186.846 174.051 181.56 174.135 176.931 179.76Z" fill="#B05638"/>
<path d="M173.21 208.895L173.485 207.701C173.585 207.265 173.336 206.832 172.916 206.685C171.924 206.339 171 205.822 170.323 205.249C169.995 204.971 169.924 204.494 170.152 204.129L170.31 203.877C170.585 203.436 171.184 203.339 171.59 203.664C172.373 204.294 173.38 204.835 174.514 205.097C176.449 205.541 177.63 204.444 177.997 202.845C178.351 201.302 177.9 200.355 176.076 199.05C173.554 197.292 171.1 195.368 171.659 192.93C172.147 190.804 173.947 188.956 177.183 189.594C177.569 189.67 177.913 189.305 178 188.922L178.301 187.612C178.409 187.145 178.874 186.854 179.341 186.961C179.808 187.069 180.099 187.533 179.992 188.001L179.742 189.092C179.645 189.518 179.879 189.953 180.291 190.1C181.12 190.394 181.761 190.764 182.267 191.145C182.629 191.418 182.713 191.927 182.467 192.308L182.309 192.549C182.036 192.966 181.469 193.061 181.068 192.764C180.504 192.344 179.695 191.885 178.561 191.625C176.462 191.142 175.375 192.252 175.118 193.373C174.782 194.83 176.22 195.307 178.359 196.861C180.897 198.683 182.288 200.748 181.95 203.286C181.587 205.992 179.606 207.488 176.071 207.228C175.677 207.199 175.341 207.517 175.252 207.9L174.932 209.294C174.824 209.761 174.359 210.052 173.892 209.945L173.866 209.94C173.394 209.827 173.102 209.362 173.21 208.895Z" fill="#131F2D"/>
<path d="M192.56 167.679C192.56 167.679 185.86 168.587 185.227 172.571C184.594 176.555 191.093 173.382 195.426 174.442C199.759 175.505 197.313 172.361 196.334 170.264C195.355 168.167 195.424 167.398 192.56 167.679Z" fill="#B05638"/>
<path d="M189.421 228.571V225.448L235.104 225.165L235.039 228.571H189.421Z" fill="#016EB9"/>
<path d="M191.211 225.362C195.368 221.903 204.851 218.861 221.165 220.939C231.79 222.294 237.341 226.401 234.275 229.978C230.548 234.327 219.701 235.873 203.72 234.432C192.723 233.443 186.014 229.684 191.211 225.362Z" fill="#016EB9"/>
<path d="M191.211 222.354C195.368 218.895 204.851 215.853 221.165 217.932C231.79 219.286 237.341 223.394 234.275 226.971C230.548 231.32 219.701 232.866 203.72 231.425C192.723 230.435 186.014 226.677 191.211 222.354Z" fill="#00A3FE"/>
<path d="M214.079 231.218C211.331 231.218 208.308 231.071 205.038 230.777C198.148 230.157 193.405 228.288 192.663 225.905C192.416 225.115 192.484 223.871 194.206 222.438C196.437 220.583 203.41 216.491 219.95 218.599C226.386 219.417 230.979 221.472 231.937 223.961C232.318 224.947 232.105 225.953 231.32 226.866C228.869 229.729 222.866 231.218 214.079 231.218ZM194.657 222.982C193.516 223.932 193.072 224.842 193.337 225.695C193.983 227.769 198.6 229.488 205.101 230.073C218.594 231.288 227.717 229.987 230.785 226.407C231.396 225.693 231.562 224.955 231.278 224.215C230.425 222.003 225.945 220.074 219.861 219.299C213.549 218.496 207.996 218.533 203.358 219.412C198.642 220.305 196.025 221.845 194.657 222.982Z" fill="#EAEAEA"/>
<path d="M189.421 225.131V222.008L235.104 221.724L235.039 225.131H189.421Z" fill="#016EB9"/>
<path d="M191.211 221.921C195.368 218.462 204.851 215.42 221.165 217.499C231.79 218.853 237.341 222.961 234.275 226.538C230.548 230.887 219.701 232.433 203.72 230.992C192.723 230.002 186.014 226.244 191.211 221.921Z" fill="#016EB9"/>
<path d="M191.211 218.913C195.368 215.454 204.851 212.412 221.165 214.491C231.79 215.845 237.341 219.953 234.275 223.53C230.548 227.879 219.701 229.425 203.72 227.984C192.723 226.995 186.014 223.236 191.211 218.913Z" fill="#00A3FE"/>
<path d="M214.079 227.777C211.331 227.777 208.308 227.632 205.038 227.336C198.148 226.716 193.405 224.848 192.663 222.464C192.416 221.674 192.484 220.43 194.206 218.997L194.432 219.27L194.206 218.997C196.437 217.142 203.413 213.05 219.95 215.158C226.386 215.977 230.979 218.032 231.937 220.52C232.318 221.506 232.105 222.512 231.32 223.425C228.869 226.288 222.866 227.777 214.079 227.777ZM211.35 215.284C208.452 215.284 205.78 215.512 203.358 215.971C198.642 216.864 196.025 218.407 194.66 219.541C193.518 220.491 193.075 221.401 193.34 222.254C193.986 224.328 198.602 226.047 205.103 226.632C218.596 227.847 227.719 226.546 230.787 222.966C231.399 222.252 231.564 221.514 231.281 220.774C230.428 218.564 225.948 216.633 219.864 215.858C216.846 215.475 214.001 215.284 211.35 215.284Z" fill="#EAEAEA"/>
<path d="M189.421 220.365V217.241L235.104 216.958L235.039 220.365H189.421Z" fill="#016EB9"/>
<path d="M191.211 217.155C195.368 213.696 204.851 210.654 221.165 212.733C231.79 214.087 237.341 218.194 234.275 221.772C230.548 226.121 219.701 227.667 203.72 226.226C192.723 225.236 186.014 221.478 191.211 217.155Z" fill="#016EB9"/>
<path d="M191.211 214.147C195.368 210.688 204.851 207.646 221.165 209.724C231.79 211.079 237.341 215.186 234.275 218.764C230.548 223.112 219.701 224.658 203.72 223.217C192.723 222.228 186.014 218.472 191.211 214.147Z" fill="#00A3FE"/>
<path d="M214.079 223.01C211.331 223.01 208.308 222.866 205.038 222.569C198.148 221.95 193.405 220.081 192.663 217.698C192.416 216.908 192.484 215.664 194.206 214.231C196.437 212.375 203.41 208.283 219.95 210.391C226.386 211.21 230.979 213.265 231.937 215.753C232.318 216.74 232.105 217.745 231.32 218.658C228.869 221.522 222.866 223.01 214.079 223.01ZM194.657 214.774C193.516 215.724 193.072 216.635 193.337 217.488C193.983 219.561 198.6 221.28 205.101 221.866C218.594 223.081 227.717 221.779 230.785 218.199C231.396 217.485 231.562 216.748 231.278 216.008C230.425 213.798 225.945 211.866 219.861 211.092C213.549 210.289 207.996 210.325 203.358 211.205C198.642 212.097 196.025 213.638 194.657 214.774Z" fill="#EAEAEA"/>
<path d="M189.962 214.52V211.397L235.645 211.116L235.58 214.52H189.962Z" fill="#016EB9"/>
<path d="M191.752 211.31C195.909 207.851 205.392 204.809 221.706 206.888C232.331 208.242 237.882 212.349 234.816 215.927C231.089 220.275 220.242 221.821 204.261 220.38C193.264 219.391 186.555 215.635 191.752 211.31Z" fill="#016EB9"/>
<path d="M191.752 208.302C195.909 204.843 205.392 201.801 221.706 203.88C232.331 205.234 237.882 209.341 234.816 212.919C231.089 217.268 220.242 218.814 204.261 217.373C193.264 216.383 186.555 212.627 191.752 208.302Z" fill="#00A3FE"/>
<path d="M214.62 217.165C211.872 217.165 208.849 217.021 205.579 216.724C198.689 216.105 193.946 214.236 193.204 211.853C192.957 211.063 193.025 209.819 194.747 208.386C196.978 206.53 203.954 202.439 220.492 204.546C226.927 205.365 231.52 207.42 232.478 209.908C232.859 210.895 232.646 211.9 231.861 212.814C229.41 215.677 223.407 217.165 214.62 217.165ZM211.891 204.672C208.993 204.672 206.321 204.901 203.899 205.36C199.183 206.252 196.566 207.793 195.201 208.929C194.059 209.879 193.616 210.79 193.881 211.643C194.527 213.717 199.143 215.436 205.644 216.021C219.14 217.236 228.26 215.934 231.328 212.354C231.94 211.641 232.105 210.903 231.822 210.163C230.969 207.95 226.489 206.021 220.405 205.247C217.387 204.864 214.542 204.672 211.891 204.672Z" fill="#EAEAEA"/>
<path d="M208.704 214.585L209.019 214.128C209.134 213.963 208.84 213.798 208.347 213.743C207.184 213.614 206.098 213.417 205.302 213.199C204.917 213.094 204.83 212.911 205.095 212.772L205.279 212.674C205.599 212.506 206.3 212.467 206.775 212.59C207.693 212.829 208.875 213.034 210.205 213.131C212.473 213.296 213.848 212.877 214.268 212.268C214.672 211.68 214.139 211.32 211.998 210.827C209.035 210.16 206.153 209.433 206.793 208.504C207.352 207.693 209.449 206.987 213.239 207.223C213.691 207.252 214.09 207.113 214.192 206.966L214.536 206.467C214.659 206.289 215.202 206.179 215.748 206.218C216.294 206.257 216.638 206.436 216.517 206.612L216.231 207.029C216.118 207.192 216.397 207.357 216.88 207.412C217.851 207.522 218.604 207.661 219.197 207.806C219.622 207.908 219.725 208.102 219.436 208.249L219.255 208.341C218.937 208.501 218.273 208.538 217.803 208.425C217.142 208.268 216.192 208.092 214.864 207.995C212.405 207.816 211.14 208.239 210.846 208.667C210.462 209.223 212.147 209.402 214.659 209.989C217.638 210.68 219.281 211.464 218.898 212.43C218.491 213.462 216.179 214.034 212.042 213.942C211.583 213.932 211.189 214.052 211.09 214.199L210.722 214.732C210.599 214.911 210.058 215.021 209.51 214.981L209.478 214.979C208.924 214.939 208.581 214.764 208.704 214.585Z" fill="#EAEAEA"/>
<path d="M190.46 209.108V205.988L236.144 205.704L236.078 209.108H190.46Z" fill="#016EB9"/>
<path d="M192.251 205.898C196.408 202.439 205.891 199.397 222.205 201.475C232.829 202.83 238.38 206.937 235.315 210.514C231.588 214.863 220.74 216.409 204.759 214.968C193.762 213.979 187.054 210.223 192.251 205.898Z" fill="#016EB9"/>
<path d="M192.251 202.891C196.408 199.431 205.891 196.389 222.205 198.468C232.829 199.822 238.38 203.93 235.315 207.507C231.588 211.856 220.74 213.402 204.759 211.961C193.762 210.974 187.054 207.216 192.251 202.891Z" fill="#00A3FE"/>
<path d="M215.119 211.757C212.371 211.757 209.347 211.61 206.077 211.316C199.188 210.696 194.445 208.828 193.702 206.444C193.456 205.654 193.524 204.41 195.246 202.977L195.471 203.25L195.246 202.977C197.476 201.122 204.453 197.03 220.99 199.138C227.426 199.956 232.019 202.012 232.977 204.5C233.357 205.486 233.144 206.492 232.36 207.405C229.906 210.268 223.906 211.757 215.119 211.757ZM212.389 199.261C209.492 199.261 206.82 199.489 204.397 199.949C199.681 200.841 197.064 202.384 195.7 203.518C194.558 204.468 194.114 205.379 194.379 206.232C195.025 208.305 199.642 210.024 206.143 210.61C219.636 211.825 228.759 210.523 231.827 206.943C232.438 206.229 232.604 205.492 232.32 204.752C231.467 202.542 226.987 200.61 220.903 199.836C217.883 199.453 215.04 199.261 212.389 199.261Z" fill="#EAEAEA"/>
<path d="M209.203 209.173L209.518 208.717C209.633 208.551 209.339 208.386 208.846 208.331C207.683 208.202 206.597 208.006 205.802 207.788C205.416 207.683 205.329 207.499 205.594 207.36L205.778 207.263C206.098 207.095 206.799 207.055 207.274 207.179C208.193 207.418 209.374 207.622 210.704 207.719C212.972 207.885 214.347 207.465 214.767 206.856C215.171 206.268 214.639 205.909 212.497 205.415C209.534 204.748 206.652 204.021 207.292 203.092C207.851 202.281 209.948 201.575 213.738 201.812C214.19 201.84 214.589 201.701 214.691 201.554L215.035 201.056C215.158 200.877 215.699 200.767 216.247 200.806C216.793 200.846 217.137 201.024 217.016 201.2L216.73 201.617C216.617 201.78 216.896 201.945 217.379 202.001C218.35 202.111 219.103 202.25 219.696 202.394C220.121 202.497 220.224 202.691 219.935 202.838L219.754 202.93C219.436 203.09 218.772 203.126 218.302 203.014C217.641 202.856 216.691 202.68 215.363 202.583C212.904 202.405 211.639 202.827 211.345 203.255C210.961 203.811 212.646 203.99 215.158 204.578C218.137 205.268 219.78 206.053 219.397 207.019C218.99 208.05 216.678 208.622 212.541 208.53C212.082 208.52 211.688 208.641 211.589 208.788L211.221 209.318C211.098 209.496 210.555 209.607 210.009 209.567L209.977 209.565C209.423 209.528 209.08 209.352 209.203 209.173Z" fill="#EAEAEA"/>
<path d="M186.081 202.313V199.19L231.764 198.906L231.698 202.313H186.081Z" fill="#016EB9"/>
<path d="M187.87 199.1C192.028 195.641 201.51 192.599 217.825 194.678C228.449 196.032 234 200.14 230.935 203.717C227.208 208.066 216.36 209.612 200.379 208.171C189.385 207.184 182.674 203.426 187.87 199.1Z" fill="#016EB9"/>
<path d="M187.87 196.095C192.028 192.636 201.51 189.594 217.825 191.673C228.449 193.027 234 197.134 230.935 200.712C227.208 205.061 216.36 206.607 200.379 205.166C189.385 204.176 182.674 200.418 187.87 196.095Z" fill="#00A3FE"/>
<path d="M210.739 204.958C207.991 204.958 204.967 204.814 201.697 204.517C194.807 203.898 190.065 202.029 189.322 199.646C189.075 198.856 189.143 197.612 190.865 196.179C193.096 194.323 200.072 190.232 216.61 192.339C223.045 193.158 227.638 195.213 228.596 197.704C228.977 198.691 228.764 199.696 227.979 200.609C225.528 203.47 219.526 204.958 210.739 204.958ZM191.317 196.722C190.175 197.672 189.731 198.583 189.996 199.436C190.642 201.51 195.259 203.229 201.76 203.814C215.253 205.029 224.376 203.727 227.444 200.147C228.055 199.434 228.221 198.696 227.937 197.956C227.084 195.743 222.604 193.814 216.52 193.04C210.208 192.237 204.655 192.274 200.017 193.15C195.301 194.045 192.684 195.586 191.317 196.722Z" fill="#EAEAEA"/>
<path d="M193.949 197.828V194.707L239.63 194.424L239.567 197.828H193.949Z" fill="#016EB9"/>
<path d="M195.739 194.618C199.896 191.158 209.379 188.116 225.693 190.195C236.318 191.549 241.869 195.657 238.803 199.234C235.076 203.583 224.229 205.129 208.248 203.688C197.251 202.701 190.542 198.943 195.739 194.618Z" fill="#016EB9"/>
<path d="M195.739 191.61C199.896 188.151 209.379 185.109 225.693 187.187C236.318 188.542 241.869 192.649 238.803 196.226C235.076 200.575 224.229 202.121 208.248 200.68C197.251 199.693 190.542 195.935 195.739 191.61Z" fill="#00A3FE"/>
<path d="M218.605 200.476C215.857 200.476 212.833 200.331 209.563 200.035C202.674 199.416 197.931 197.547 197.188 195.164C196.941 194.374 197.01 193.13 198.731 191.697C200.962 189.841 207.936 185.749 224.476 187.857C230.911 188.676 235.504 190.731 236.462 193.219C236.843 194.206 236.63 195.211 235.846 196.124C233.394 198.988 227.394 200.476 218.605 200.476ZM199.185 192.24C198.044 193.19 197.6 194.101 197.865 194.954C198.511 197.027 203.128 198.746 209.629 199.332C223.124 200.547 232.245 199.245 235.313 195.665C235.924 194.951 236.09 194.214 235.806 193.473C234.953 191.261 230.473 189.332 224.389 188.558C218.077 187.754 212.524 187.791 207.886 188.67C203.17 189.56 200.55 191.103 199.185 192.24Z" fill="#EAEAEA"/>
<path d="M212.691 197.893L213.006 197.437C213.122 197.271 212.828 197.106 212.334 197.051C211.172 196.922 210.085 196.725 209.29 196.507C208.904 196.402 208.817 196.221 209.082 196.08L209.266 195.983C209.586 195.815 210.287 195.775 210.762 195.899C211.681 196.137 212.862 196.342 214.193 196.439C216.46 196.605 217.835 196.185 218.255 195.576C218.66 194.988 218.127 194.628 215.985 194.135C213.022 193.468 210.14 192.741 210.781 191.812C211.34 191.001 213.437 190.295 217.227 190.531C217.678 190.56 218.077 190.421 218.179 190.274L218.523 189.775C218.646 189.597 219.19 189.487 219.736 189.526C220.282 189.565 220.625 189.744 220.505 189.92L220.219 190.337C220.106 190.5 220.384 190.665 220.867 190.72C221.838 190.83 222.591 190.97 223.184 191.114C223.61 191.216 223.712 191.41 223.423 191.557L223.242 191.649C222.925 191.809 222.26 191.846 221.791 191.733C221.129 191.576 220.179 191.4 218.851 191.303C216.392 191.124 215.127 191.547 214.833 191.975C214.45 192.531 216.135 192.71 218.646 193.298C221.625 193.988 223.268 194.773 222.885 195.738C222.478 196.77 220.166 197.342 216.03 197.25C215.57 197.24 215.177 197.36 215.077 197.507L214.71 198.04C214.586 198.219 214.046 198.329 213.497 198.29L213.466 198.287C212.912 198.248 212.568 198.072 212.691 197.893Z" fill="#EAEAEA"/>
<path d="M216.864 237.926V235.123L257.886 234.868L257.828 237.926H216.864Z" fill="#016EB9"/>
<path d="M218.473 235.044C222.205 231.939 230.722 229.207 245.372 231.073C254.913 232.288 259.897 235.978 257.143 239.191C253.794 243.096 244.055 244.484 229.706 243.19C219.83 242.301 213.806 238.926 218.473 235.044Z" fill="#016EB9"/>
<path d="M218.473 232.343C222.205 229.238 230.722 226.506 245.372 228.372C254.913 229.587 259.897 233.277 257.143 236.49C253.794 240.395 244.055 241.784 229.706 240.49C219.83 239.6 213.806 236.225 218.473 232.343Z" fill="#00A3FE"/>
<path d="M239.005 240.301C236.536 240.301 233.824 240.169 230.888 239.904C224.701 239.348 220.442 237.671 219.775 235.529C219.555 234.818 219.615 233.702 221.161 232.416C223.163 230.75 229.428 227.075 244.278 228.968C250.057 229.702 254.181 231.55 255.042 233.784C255.383 234.671 255.191 235.574 254.488 236.393C252.288 238.965 246.897 240.301 239.005 240.301ZM236.557 229.083C233.953 229.083 231.554 229.288 229.381 229.7C225.145 230.5 222.796 231.886 221.57 232.907C220.547 233.76 220.148 234.579 220.384 235.343C220.964 237.206 225.111 238.749 230.945 239.274C243.063 240.366 251.254 239.196 254.01 235.983C254.559 235.343 254.708 234.681 254.454 234.015C253.69 232.028 249.664 230.296 244.202 229.6C241.491 229.254 238.937 229.083 236.557 229.083Z" fill="#EAEAEA"/>
<path d="M233.695 237.983L233.976 237.574C234.078 237.424 233.816 237.277 233.372 237.227C232.328 237.112 231.354 236.936 230.64 236.739C230.294 236.645 230.218 236.482 230.454 236.356L230.619 236.269C230.908 236.117 231.535 236.083 231.963 236.196C232.787 236.411 233.85 236.595 235.044 236.681C237.081 236.831 238.314 236.453 238.692 235.905C239.057 235.377 238.577 235.052 236.653 234.611C233.992 234.012 231.404 233.359 231.981 232.524C232.483 231.797 234.367 231.162 237.768 231.375C238.175 231.401 238.532 231.275 238.624 231.144L238.934 230.695C239.044 230.535 239.532 230.435 240.023 230.469C240.514 230.506 240.823 230.663 240.713 230.823L240.456 231.196C240.356 231.343 240.603 231.49 241.039 231.54C241.91 231.64 242.587 231.763 243.12 231.894C243.503 231.986 243.592 232.162 243.335 232.291L243.172 232.372C242.886 232.516 242.291 232.548 241.868 232.448C241.275 232.306 240.422 232.149 239.228 232.062C237.02 231.902 235.884 232.283 235.619 232.666C235.275 233.165 236.787 233.325 239.044 233.855C241.718 234.474 243.193 235.178 242.85 236.046C242.482 236.973 240.409 237.487 236.692 237.403C236.28 237.395 235.926 237.503 235.837 237.634L235.509 238.112C235.398 238.272 234.91 238.372 234.42 238.338L234.391 238.335C233.892 238.301 233.585 238.143 233.695 237.983Z" fill="#EAEAEA"/>
<path d="M175.435 236.954V235.023L203.697 234.847L203.657 236.954H175.435Z" fill="#016EB9"/>
<path d="M176.543 234.968C179.115 232.829 184.981 230.947 195.075 232.23C201.649 233.067 205.082 235.611 203.185 237.823C200.878 240.513 194.167 241.469 184.28 240.579C177.477 239.968 173.328 237.645 176.543 234.968Z" fill="#016EB9"/>
<path d="M176.543 233.107C179.115 230.968 184.981 229.086 195.075 230.369C201.649 231.207 205.082 233.75 203.185 235.962C200.878 238.653 194.167 239.608 184.28 238.718C177.477 238.109 173.328 235.784 176.543 233.107Z" fill="#00A3FE"/>
<path d="M190.689 238.592C188.989 238.592 187.12 238.503 185.094 238.319C180.831 237.936 177.897 236.781 177.438 235.306C177.286 234.818 177.328 234.046 178.393 233.161C179.774 232.012 184.089 229.482 194.322 230.786C198.303 231.293 201.146 232.566 201.739 234.104C201.975 234.715 201.844 235.337 201.358 235.902C199.839 237.67 196.125 238.592 190.689 238.592ZM178.674 233.497C177.968 234.085 177.692 234.65 177.858 235.175C178.257 236.458 181.115 237.521 185.136 237.883C193.485 238.636 199.127 237.831 201.028 235.615C201.406 235.175 201.508 234.718 201.332 234.259C200.805 232.891 198.033 231.697 194.269 231.217C191.653 230.886 182.797 230.064 178.674 233.497Z" fill="#EAEAEA"/>
<path d="M187.031 236.994L187.225 236.713C187.296 236.611 187.115 236.508 186.808 236.474C186.088 236.393 185.417 236.272 184.923 236.138C184.684 236.073 184.632 235.96 184.795 235.873L184.907 235.813C185.107 235.708 185.54 235.684 185.834 235.76C186.403 235.907 187.133 236.033 187.957 236.094C189.359 236.196 190.212 235.936 190.472 235.558C190.724 235.193 190.393 234.97 189.067 234.666C187.235 234.254 185.451 233.805 185.847 233.228C186.193 232.726 187.49 232.288 189.834 232.435C190.115 232.453 190.361 232.367 190.422 232.275L190.634 231.965C190.71 231.855 191.046 231.787 191.385 231.81C191.724 231.834 191.936 231.944 191.86 232.054L191.681 232.312C191.613 232.411 191.784 232.514 192.083 232.548C192.684 232.616 193.149 232.703 193.516 232.792C193.779 232.855 193.842 232.976 193.663 233.065L193.55 233.123C193.353 233.222 192.944 233.243 192.653 233.175C192.243 233.078 191.655 232.97 190.834 232.91C189.311 232.8 188.529 233.062 188.348 233.325C188.112 233.669 189.154 233.779 190.708 234.144C192.55 234.569 193.566 235.054 193.33 235.653C193.078 236.29 191.647 236.645 189.088 236.59C188.805 236.584 188.561 236.658 188.498 236.75L188.272 237.078C188.196 237.188 187.86 237.256 187.521 237.233L187.503 237.23C187.167 237.214 186.955 237.104 187.031 236.994Z" fill="#EAEAEA"/>
<path d="M120.048 156.627C120.048 156.627 124.741 156.412 125.486 149.213C126.255 141.814 117.767 149.213 117.767 149.213L120.048 156.627Z" fill="#FF7955"/>
<path d="M115.264 133.024C115.55 133.137 120.298 134.423 122.403 141.585C124.505 148.748 117.445 143.1 117.445 143.1L115.264 133.024Z" fill="#FF7955"/>
<path d="M109.007 231.706C109.007 231.706 109.072 234.28 110.812 235.005C112.555 235.732 117.602 236.385 115.715 238.041C114.634 238.991 109.534 238.377 108.093 238.377C106.652 238.377 105.301 239.005 104.233 238.041C103.057 236.981 104.233 231.706 104.233 231.706C104.233 231.706 105.474 232.354 106.592 232.325C108.204 232.28 109.007 231.706 109.007 231.706Z" fill="#131F2D"/>
<path d="M89.0049 231.706C89.0049 231.706 89.0705 234.28 90.8106 235.005C92.5533 235.732 97.6004 236.385 95.7133 238.041C94.632 238.991 89.5324 238.377 88.0915 238.377C86.6506 238.377 85.299 239.005 84.2308 238.041C83.0523 236.981 84.2308 231.706 84.2308 231.706C84.2308 231.706 85.4722 232.354 86.5903 232.325C88.1991 232.28 89.0049 231.706 89.0049 231.706Z" fill="#131F2D"/>
<path d="M121.954 161.135C121.954 161.135 122.276 171.912 118.836 192.58C116.353 207.504 113.421 222.54 111.983 229.75C111.468 232.33 109.301 234.214 106.728 234.316L105.348 234.372C102.568 234.482 100.314 232.096 100.516 229.256L104.004 180.484L104.865 164.432L121.954 161.135Z" fill="#364154"/>
<path d="M90.4933 170.618C90.6507 171.93 98.0678 171.77 107.146 170.621C116.225 169.471 123.293 167.505 123.135 166.193C122.978 164.881 115.653 164.723 106.574 165.87C97.4957 167.022 90.3358 169.308 90.4933 170.618Z" fill="#131F2D"/>
<path d="M111.529 168.834L92.1436 231.102C91.3326 233.708 88.9863 235.496 86.3118 235.54L85.1465 235.561C82.396 235.608 80.2936 233.065 80.7949 230.296L91.3982 171.786C91.5531 171.091 92.0649 170.537 92.7368 170.346C96.3745 169.296 111.886 166.256 111.529 168.834Z" fill="#364154"/>
<path d="M93.5248 134.769C93.5248 134.769 96.1048 127.512 105.291 127.843C114.479 128.174 121.416 140.247 123.135 166.196C123.135 166.196 108.091 162.897 90.4672 170.592C90.4672 170.592 89.4908 145.344 93.5248 134.769Z" fill="#016EB9"/>
<path d="M87.0732 134.331L93.5822 138.496C93.5822 138.496 110.314 140.17 114.755 139.365C119.195 138.559 119.888 135.294 119.888 135.294C119.888 135.294 115.663 129.499 107.624 128.058C106.868 127.921 106.107 127.9 105.296 127.84C103.931 127.743 102.569 127.785 101.23 127.929C93.2857 128.79 87.0732 134.331 87.0732 134.331Z" fill="#016EB9"/>
<path d="M102.868 196.665L102.558 196.562L106.726 183.888C107.689 180.962 109.668 178.518 112.303 177.009L112.466 177.293C109.902 178.763 107.975 181.14 107.036 183.991L102.868 196.665Z" fill="#020202"/>
<path d="M111.603 126.268L111.558 126.079C111.569 126.076 112.721 125.795 113.041 125.019C113.206 124.617 113.125 124.147 112.8 123.617C112.642 123.362 112.498 123.131 112.366 122.922C111.448 121.457 111.104 120.908 111.356 119.701L111.545 119.741C111.309 120.872 111.616 121.363 112.529 122.819C112.66 123.029 112.807 123.26 112.962 123.515C113.322 124.1 113.408 124.63 113.217 125.092C112.86 125.961 111.655 126.255 111.603 126.268Z" fill="#B05638"/>
<path d="M111.455 119.722C111.455 119.722 111.049 121.565 112.269 123.494C113.489 125.423 112.161 126.832 110.508 126.089C108.854 125.347 108.225 127.457 106.109 126.292C103.994 125.124 111.455 119.722 111.455 119.722Z" fill="#B05638"/>
<path d="M101.684 127.869C102.598 127.772 103.39 127.197 103.755 126.355L104.894 123.709L105.225 122.943L107.167 118.431L106.831 123.108L106.629 125.914L106.571 126.714C106.524 127.368 106.981 127.945 107.624 128.061L107.634 128.063C107.981 128.625 108.458 129.769 107.03 130.223C105.353 130.756 102.642 129.436 101.668 127.874C101.674 127.869 101.679 127.869 101.684 127.869Z" fill="#FF7955"/>
<path d="M104.886 123.634C104.886 123.66 104.889 123.686 104.891 123.71C105.002 125.216 106.616 125.922 106.616 125.922L106.626 125.914L106.828 123.109C106.335 122.928 105.634 122.741 105.222 122.946C105.007 123.048 104.873 123.261 104.886 123.634Z" fill="#131F2D"/>
<path d="M107.377 124.597C109.804 124.597 111.771 122.17 111.771 119.177C111.771 116.184 109.804 113.757 107.377 113.757C104.951 113.757 102.984 116.184 102.984 119.177C102.984 122.17 104.951 124.597 107.377 124.597Z" fill="#FF7955"/>
<path d="M103.571 119.996C104.07 120.471 104.765 120.52 105.125 120.103C105.485 119.688 105.374 118.967 104.878 118.492C104.38 118.017 103.684 117.967 103.325 118.384C102.962 118.799 103.073 119.52 103.571 119.996Z" fill="#FF7955"/>
<path d="M109.744 122.685C109.744 122.685 108.243 122.719 106.742 122.191C106.742 122.191 106.616 123.672 108.243 123.769C109.188 123.829 109.744 122.685 109.744 122.685Z" fill="#E9633E"/>
<path d="M109.745 122.685C109.745 122.685 109.382 122.987 108.535 122.981C107.687 122.979 106.745 122.191 106.745 122.191C106.745 122.191 108.55 122.69 109.745 122.685Z" fill="white"/>
<path d="M107.802 119.229C107.831 119.221 107.857 119.2 107.868 119.168C107.889 119.116 107.863 119.058 107.813 119.04C107.784 119.027 107.109 118.683 106.519 119.328C106.482 119.37 106.482 119.431 106.522 119.47C106.561 119.507 106.616 119.496 106.663 119.467C107.123 119.158 107.713 119.218 107.737 119.226C107.76 119.234 107.784 119.234 107.802 119.229Z" fill="#080435"/>
<path d="M107.013 120.329C107.005 120.568 107.139 120.765 107.312 120.77C107.485 120.775 107.632 120.586 107.64 120.347C107.648 120.108 107.514 119.912 107.341 119.906C107.167 119.901 107.02 120.09 107.013 120.329Z" fill="#080435"/>
<path d="M111.369 119.752C111.398 119.754 111.43 119.746 111.453 119.723C111.493 119.683 111.49 119.62 111.451 119.581C111.427 119.557 110.936 118.983 110.144 119.355C110.094 119.379 110.07 119.437 110.094 119.487C110.117 119.536 110.172 119.547 110.225 119.536C110.766 119.426 111.29 119.704 111.309 119.723C111.33 119.739 111.351 119.749 111.369 119.752Z" fill="#080435"/>
<path d="M110.219 120.465C110.122 120.683 110.169 120.916 110.327 120.987C110.484 121.058 110.692 120.94 110.789 120.722C110.886 120.504 110.839 120.271 110.681 120.2C110.526 120.129 110.319 120.247 110.219 120.465Z" fill="#080435"/>
<path d="M109.243 114.739C109.243 114.739 109.149 116.621 106.8 116.941C104.451 117.261 102.831 118.256 103.146 119.949C103.461 121.641 107.248 125.15 104.466 126.51C101.684 127.87 102.275 125.334 99.2592 125.922C96.2435 126.51 95.6976 122.481 97.7762 120.143C99.8549 117.804 99.0125 111.618 106.802 111.894C114.592 112.169 111.736 118.382 111.736 118.382C111.736 118.382 109.238 116.817 109.243 114.739Z" fill="#B05638"/>
<path d="M103.663 126.856L103.64 126.799C104.215 126.568 104.553 126.237 104.674 125.793C105.007 124.562 103.548 122.67 102.259 121.001C101.918 120.557 101.595 120.14 101.309 119.738C100.511 118.626 100.443 117.298 101.125 116.274C101.884 115.135 103.328 114.655 104.892 115.017C106.404 115.368 107.44 115.054 108.047 114.728C108.703 114.376 109.004 113.933 109.007 113.93L109.06 113.967C109.046 113.985 108.747 114.424 108.081 114.783C107.466 115.114 106.411 115.437 104.879 115.08C103.341 114.723 101.923 115.195 101.178 116.311C100.498 117.326 100.566 118.597 101.362 119.704C101.648 120.103 101.971 120.521 102.312 120.964C103.608 122.644 105.078 124.549 104.737 125.812C104.611 126.268 104.251 126.62 103.663 126.856Z" fill="white"/>
<path d="M111.065 123.302C110.831 123.302 110.605 123.237 110.393 123.106C109.448 122.518 109.091 120.743 109.598 119.153C109.907 118.179 110.49 117.45 111.149 117.206C111.542 117.061 111.939 117.095 112.29 117.318C113.235 117.904 113.592 119.675 113.086 121.268C112.776 122.247 112.193 122.974 111.535 123.218C111.377 123.276 111.22 123.302 111.065 123.302ZM109.784 119.213C109.301 120.722 109.621 122.394 110.495 122.94C110.789 123.124 111.128 123.153 111.464 123.035C112.067 122.812 112.603 122.127 112.897 121.208C113.38 119.696 113.059 118.024 112.185 117.481C111.889 117.297 111.555 117.266 111.214 117.387C110.613 117.612 110.078 118.292 109.784 119.213Z" fill="#764678"/>
<g opacity="0.3">
<path opacity="0.3" d="M104.514 118.119C104.162 119.667 104.723 121.329 105.771 121.83C106.818 122.331 107.954 121.484 108.306 119.938C108.658 118.389 108.096 116.728 107.049 116.226C106.002 115.723 104.868 116.57 104.514 118.119Z" fill="white"/>
</g>
<g opacity="0.3">
<path opacity="0.3" d="M109.556 119.282C109.201 120.836 109.674 122.523 110.606 123.048C111.537 123.573 112.585 122.739 112.936 121.182C113.291 119.628 112.818 117.941 111.884 117.416C110.955 116.894 109.91 117.728 109.556 119.282Z" fill="white"/>
</g>
<path d="M106.514 122.024C106.277 122.024 106.041 121.971 105.813 121.861C104.658 121.32 104.031 119.536 104.417 117.88C104.637 116.919 105.151 116.179 105.826 115.851C106.296 115.625 106.789 115.622 107.254 115.84C108.409 116.384 109.033 118.168 108.65 119.822C108.427 120.785 107.91 121.525 107.235 121.853C106.999 121.963 106.755 122.024 106.514 122.024ZM106.556 115.872C106.34 115.872 106.123 115.922 105.915 116.024C105.304 116.323 104.815 117.032 104.608 117.924C104.243 119.494 104.821 121.179 105.897 121.685C106.306 121.872 106.739 121.869 107.151 121.677C107.765 121.381 108.254 120.67 108.464 119.775C108.826 118.205 108.248 116.52 107.175 116.014C106.97 115.919 106.763 115.872 106.556 115.872Z" fill="#764678"/>
<path d="M109.763 119.861C109.721 119.861 109.682 119.848 109.647 119.819C109.626 119.804 109.154 119.431 108.338 119.588C108.241 119.602 108.144 119.544 108.123 119.444C108.102 119.344 108.167 119.25 108.267 119.231C109.254 119.024 109.855 119.518 109.881 119.536C109.957 119.602 109.968 119.717 109.905 119.793C109.868 119.838 109.815 119.861 109.763 119.861Z" fill="#764678"/>
<path d="M86.981 134.475C86.7553 135.132 88.4587 136.357 90.784 137.215C93.1094 138.074 95.1775 138.236 95.4033 137.583C95.629 136.927 93.9256 135.701 91.6002 134.843C89.2749 133.985 87.2067 133.819 86.981 134.475Z" fill="#131F2D"/>
<path d="M97.7944 169.199C97.7944 169.199 115.915 165.737 121.791 167.37L118.975 171.545L108.5 172.139L97.7944 169.199Z" fill="#364154"/>
<path d="M123.867 150.482C123.206 150.482 122.466 150.301 122.418 150.288L122.458 150.133C122.928 150.251 124.24 150.482 124.641 150.149L124.744 150.272C124.552 150.432 124.222 150.482 123.867 150.482Z" fill="#EF6343"/>
<path d="M138.725 153.656C138.163 155.566 137.31 157.309 136.226 158.855C134.935 160.7 133.318 162.259 131.484 163.477C128.114 165.716 124.001 166.8 119.812 166.366C118.739 166.259 117.66 166.049 116.589 165.734C115.482 165.408 114.432 164.986 113.442 164.474C109.76 162.582 106.938 159.501 105.324 155.863C104.427 153.85 103.902 151.669 103.802 149.42C103.715 147.504 103.941 145.54 104.513 143.598C105.125 141.517 106.086 139.63 107.309 137.987C108.637 136.199 110.274 134.698 112.125 133.536C115.419 131.465 119.371 130.473 123.4 130.885C124.481 130.992 125.568 131.202 126.649 131.52C127.709 131.832 128.72 132.234 129.67 132.717C133.284 134.538 136.079 137.499 137.738 141.01C138.672 142.987 139.25 145.136 139.407 147.357C139.557 149.42 139.344 151.551 138.725 153.656Z" fill="#B05638"/>
<path d="M121.686 161.427C120.332 161.427 118.951 161.236 117.576 160.832C114.219 159.845 111.566 157.64 110.104 154.627C108.681 151.69 108.458 148.163 109.477 144.698C111.513 137.769 117.749 134.302 125.361 135.861C128.526 136.51 131.232 138.47 132.98 141.378C134.956 144.664 135.465 148.675 134.376 152.375C132.759 157.89 127.494 161.427 121.686 161.427ZM121.851 135.688C115.965 135.688 111.351 139.016 109.663 144.754C108.658 148.171 108.876 151.648 110.28 154.541C111.715 157.504 114.327 159.672 117.631 160.643C124.796 162.75 132.226 159.015 134.195 152.32C135.268 148.669 134.767 144.719 132.817 141.478C131.095 138.617 128.437 136.688 125.324 136.05C124.13 135.809 122.967 135.688 121.851 135.688Z" fill="white"/>
<path d="M129.67 132.714L128.555 135.478L122.904 133.817L123.4 130.882C124.481 130.99 125.568 131.2 126.649 131.517C127.707 131.83 128.717 132.231 129.67 132.714Z" fill="white"/>
<path d="M119.812 166.364C118.738 166.257 117.66 166.047 116.589 165.732C115.481 165.406 114.431 164.984 113.442 164.472L114.746 161.241L120.397 162.903L119.812 166.364Z" fill="white"/>
<path d="M139.407 147.354L136.3 147.814L134.875 142.1L137.741 141.011C138.675 142.984 139.25 145.134 139.407 147.354Z" fill="white"/>
<path d="M108.513 154.648L105.325 155.86C104.427 153.847 103.902 151.666 103.802 149.417L107.088 148.931L108.513 154.648Z" fill="white"/>
<path d="M136.229 158.855C134.938 160.7 133.321 162.259 131.486 163.477L129.374 160.771L133.644 156.71L136.229 158.855Z" fill="white"/>
<path d="M113.985 135.919L109.715 139.979L107.305 137.985C108.633 136.197 110.271 134.696 112.121 133.533L113.985 135.919Z" fill="white"/>
<path d="M102.947 157.147L103.026 152.391C103.036 151.74 102.537 151.197 101.887 151.149C98.59 150.913 96.2804 149.89 95.0179 148.102C93.2621 145.619 93.4485 141.764 93.9366 139.087C94.186 137.717 93.7345 136.804 92.081 135.924C92.081 135.924 90.6585 135.142 88.9053 134.843C88.2019 134.722 87.5064 135.006 87.3253 135.696C87.0419 136.775 86.6744 138.452 86.4985 140.428C86.0812 145.118 86.9867 149.199 89.1152 152.226C91.7267 155.942 95.9365 158 101.64 158.349C102.338 158.393 102.934 157.847 102.947 157.147Z" fill="#FF7955"/>
<g opacity="0.5">
<path opacity="0.5" d="M90.8214 150.99C90.6954 150.99 90.5616 150.969 90.4225 150.927C90.055 150.814 89.7007 150.565 89.4225 150.218C88.8346 149.488 88.7795 148.557 89.2965 148.137C89.8162 147.719 90.7138 147.974 91.3017 148.704C91.5799 149.047 91.7505 149.449 91.7794 149.832C91.8109 150.236 91.6875 150.575 91.4251 150.785C91.2597 150.919 91.0524 150.99 90.8214 150.99ZM89.9054 148.255C89.7506 148.255 89.6088 148.297 89.4986 148.386C89.1233 148.688 89.2021 149.436 89.6719 150.019C89.9107 150.315 90.2099 150.528 90.517 150.622C90.8004 150.709 91.055 150.677 91.2309 150.538C91.4067 150.397 91.4907 150.155 91.467 149.858C91.4408 149.538 91.2965 149.202 91.0577 148.906C90.7243 148.494 90.2729 148.255 89.9054 148.255Z" fill="#EC865C"/>
</g>
<path d="M100.673 150.847C100.673 150.847 101.831 147.344 103.815 146.485C105.797 145.627 108.98 146.031 107.862 146.824C106.744 147.617 105.041 148.236 105.041 148.236C105.041 148.236 108.747 147.084 108.642 148.068C108.537 149.052 105.301 150.021 105.301 150.021C105.301 150.021 109.82 149.002 109.418 149.9C109.017 150.798 105.579 151.546 105.579 151.546C105.579 151.546 109.823 150.766 109.332 151.797C108.841 152.829 105.82 152.42 105.715 153.404C105.61 154.388 104.854 158.259 102.085 158.296L100.673 150.847Z" fill="#FF7955"/>
<path d="M103.721 149.05L103.576 148.981C103.881 148.338 104.983 148.162 105.03 148.157L105.054 148.315C105.043 148.315 103.988 148.483 103.721 149.05Z" fill="#EF6343"/>
<path d="M103.702 151L103.573 150.905C104.174 150.099 105.245 149.947 105.29 149.942L105.311 150.099C105.303 150.102 104.264 150.249 103.702 151Z" fill="#EF6343"/>
<path d="M104.093 152.448L103.943 152.393C104.211 151.682 105.513 151.475 105.568 151.467L105.592 151.624C105.578 151.627 104.327 151.824 104.093 152.448Z" fill="#EF6343"/>
<path d="M139.344 140.732C139.344 140.732 140.527 142.406 139.097 143.385C137.276 144.632 133.698 144.309 134.84 143.501C135.853 142.784 137.556 142.138 137.556 142.138C137.556 142.138 133.197 143.716 133.116 142.653C133.034 141.59 136.806 140.288 136.806 140.288C136.806 140.288 132.389 141.404 132.63 140.398C132.872 139.393 136.286 138.188 136.286 138.188C136.286 138.188 132.045 139.522 132.352 138.362C132.659 137.202 135.024 136.979 135.987 136.65C136.898 136.338 137.433 136.853 137.732 137.795C137.732 137.795 138.554 138.595 138.601 139.251C138.619 139.503 138.913 139.656 138.997 139.818C139.16 140.125 139.344 140.732 139.344 140.732Z" fill="#FF7955"/>
<path d="M24.1118 226.19V222.547L77.4145 222.217L77.3384 226.19H24.1118Z" fill="#366F90"/>
<path d="M26.2009 222.445C31.0511 218.409 42.1164 214.86 61.1525 217.285C73.5484 218.865 80.0258 223.66 76.4485 227.834C72.0996 232.907 59.4439 234.71 40.7962 233.03C27.9646 231.875 20.1355 227.492 26.2009 222.445Z" fill="#016EB9"/>
<path d="M77.4146 222.091C77.4146 223.107 76.9264 224.083 76.0262 224.996C74.9527 226.086 73.294 227.08 71.1733 227.941C67.2837 229.521 61.8455 230.645 55.6541 231.036C54.0689 231.138 52.4338 231.191 50.7645 231.191C49.0402 231.191 47.3552 231.135 45.7227 231.028C39.6442 230.631 34.2979 229.529 30.4503 227.981C28.3165 227.125 26.642 226.133 25.5528 225.046C24.6211 224.12 24.1172 223.128 24.1172 222.094C24.1172 220.986 24.6972 219.926 25.7576 218.947C26.9097 217.881 28.6262 216.91 30.7889 216.076C34.6391 214.587 39.8909 213.532 45.8409 213.154C47.4366 213.052 49.0848 213 50.7672 213C52.418 213 54.0374 213.052 55.6043 213.149C61.5542 213.519 66.8112 214.566 70.6694 216.047C72.8451 216.879 74.5774 217.847 75.7375 218.913C76.8214 219.9 77.4146 220.973 77.4146 222.091Z" fill="#00A3FE"/>
<path d="M50.1115 228.682C39.4767 228.682 31.7578 225.837 31.7578 221.918C31.7578 218.212 39.2169 215.603 50.7598 215.273C58.7989 215.044 66.4627 216.871 69.3917 219.719C70.1817 220.485 70.5806 221.286 70.5806 222.094C70.5806 223.908 68.3917 225.585 64.4155 226.823C60.5574 228.02 55.4761 228.682 50.1115 228.682ZM52.1298 215.42C51.6758 215.42 51.2217 215.427 50.765 215.438C39.3218 215.766 31.9258 218.307 31.9258 221.913C31.9258 223.705 33.7 225.359 36.9178 226.569C40.2431 227.821 44.9279 228.508 50.1089 228.508C61.3027 228.508 70.41 225.629 70.41 222.089C70.41 221.328 70.0269 220.569 69.2736 219.837C66.5414 217.181 59.6178 215.42 52.1298 215.42Z" fill="white"/>
<path d="M55.5994 213.146L55.1663 214.661H46.3609L45.8359 213.154C47.4317 213.052 49.0799 212.999 50.7623 212.999C52.4131 212.994 54.0325 213.047 55.5994 213.146Z" fill="white"/>
<path d="M55.6511 231.033C54.0659 231.136 52.4308 231.188 50.7616 231.188C49.0372 231.188 47.3522 231.133 45.7197 231.025L46.2263 229.256H55.0317L55.6511 231.033Z" fill="white"/>
<path d="M75.735 218.91L71.47 219.582L67.0161 216.989L70.6643 216.044C72.84 216.876 74.5749 217.844 75.735 218.91Z" fill="white"/>
<path d="M34.5106 226.923L30.4478 227.976C28.314 227.12 26.6395 226.128 25.5503 225.041L30.0567 224.33L34.5106 226.923Z" fill="white"/>
<path d="M76.0238 224.994C74.9504 226.083 73.2916 227.077 71.171 227.938L67.0005 226.917L71.4098 224.316L76.0238 224.994Z" fill="white"/>
<path d="M34.458 216.97L30.0487 219.571L25.7549 218.941C26.9071 217.876 28.6235 216.904 30.7862 216.07L34.458 216.97Z" fill="white"/>
<path d="M1.40165 230.774L0.152344 226.869L50.959 210.751L52.0955 214.559L1.40165 230.774Z" fill="#016EB9"/>
<path d="M2.24916 226.569C5.64012 221.247 15.0965 214.496 33.9672 211.008C46.2555 208.735 53.8852 211.331 51.7488 216.396C49.1504 222.554 37.6469 228.126 19.3746 232.207C6.80281 235.012 -1.98954 233.222 2.24916 226.569Z" fill="#016EB9"/>
<path d="M50.9195 210.63C51.2292 211.598 51.0612 212.677 50.4812 213.819C49.7909 215.181 48.5128 216.637 46.7543 218.102C43.5313 220.792 38.6916 223.516 32.9149 225.776C31.4373 226.356 29.8966 226.902 28.3061 227.411C26.6631 227.936 25.0411 228.398 23.4533 228.792C17.5427 230.264 12.1151 230.844 7.97874 230.542C5.68486 230.377 3.78727 229.941 2.41986 229.241C1.2493 228.642 0.467169 227.852 0.152219 226.868C-0.183727 225.813 0.0446244 224.627 0.755886 223.369C1.52751 222.005 2.86603 220.556 4.67174 219.102C7.88423 216.511 12.5665 213.908 18.1175 211.735C19.6056 211.149 21.1594 210.598 22.763 210.084C24.3351 209.58 25.8915 209.136 27.4164 208.753C33.1983 207.294 38.5236 206.69 42.6495 206.924C44.9748 207.055 46.9197 207.449 48.3501 208.11C49.6886 208.722 50.5783 209.564 50.9195 210.63Z" fill="#00A3FE"/>
<path d="M14.7503 227.427C14.3934 227.427 14.0443 227.42 13.7084 227.401C10.1967 227.225 7.95003 226.149 7.38312 224.37C6.25455 220.84 12.564 216.084 23.4587 212.252C31.0464 209.583 38.9017 208.99 42.5604 210.811C43.5446 211.302 44.1693 211.94 44.416 212.711C44.9671 214.438 43.395 216.703 39.983 219.094C36.6734 221.414 32.0358 223.59 26.9231 225.225C22.4403 226.658 18.1675 227.427 14.7503 227.427ZM36.6735 209.929C32.8757 209.929 28.1462 210.782 23.5138 212.412C12.7136 216.21 6.44614 220.884 7.54321 224.32C8.08913 226.026 10.2807 227.06 13.7162 227.233C17.2673 227.412 21.9391 226.64 26.8733 225.063C31.9676 223.433 36.5895 221.265 39.8859 218.955C43.2297 216.611 44.7808 214.415 44.2533 212.764C44.0223 212.039 43.4265 211.433 42.4843 210.963C41.0854 210.268 39.0618 209.929 36.6735 209.929Z" fill="white"/>
<path d="M27.419 208.756L27.4663 210.331L19.0807 213.013L18.1201 211.737C19.6083 211.152 21.162 210.601 22.7656 210.087C24.3378 209.583 25.8941 209.139 27.419 208.756Z" fill="white"/>
<path d="M32.9176 225.777C31.4399 226.357 29.8993 226.902 28.3088 227.412C26.6658 227.937 25.0439 228.398 23.456 228.792L23.4009 226.952L31.7864 224.27L32.9176 225.777Z" fill="white"/>
<path d="M48.3531 208.11L44.4976 210.05L39.4663 208.937L42.6526 206.924C44.9753 207.055 46.9227 207.451 48.3531 208.11Z" fill="white"/>
<path d="M11.5269 228.304L7.97587 230.543C5.68199 230.377 3.7844 229.941 2.41699 229.241L6.49298 227.191L11.5269 228.304Z" fill="white"/>
<path d="M50.4809 213.818C49.7907 215.181 48.5125 216.637 46.754 218.102L42.4707 218.401L45.88 214.579L50.4809 213.818Z" fill="white"/>
<path d="M8.44556 218.839L5.03623 222.661L0.75293 223.369C1.52456 222.005 2.86307 220.556 4.66879 219.102L8.44556 218.839Z" fill="white"/>
<path d="M168.38 236.152L156.798 237.627L156.425 215.614L168.126 215.578C169.162 215.575 170.008 216.415 170.008 217.452V234.288C170.01 235.233 169.312 236.028 168.38 236.152Z" fill="#016EB9"/>
<path d="M156.352 237.666L138.539 236.041C137.878 235.981 137.376 235.419 137.392 234.755L137.786 217.401C137.801 216.732 138.337 216.192 139.006 216.168L156.425 215.612C157.137 215.588 157.727 216.16 157.727 216.871V236.406C157.73 237.151 157.092 237.734 156.352 237.666Z" fill="#00A3FE"/>
<path d="M146.077 225.774C146.077 225.031 146.562 224.362 147.308 224.362C148.05 224.362 148.898 225.028 148.898 225.774C148.898 226.517 148.294 227.12 147.552 227.12C146.809 227.12 146.077 226.519 146.077 225.774Z" fill="#131F2D"/>
<path d="M140.588 220.076C140.588 219.334 141.381 218.743 142.124 218.743C142.866 218.743 143.255 219.604 143.255 220.347C143.255 221.09 142.68 221.423 141.935 221.423C141.192 221.423 140.588 220.819 140.588 220.076Z" fill="#131F2D"/>
<path d="M151.814 220.076C151.814 219.334 152.418 218.73 153.161 218.73C153.904 218.73 154.507 219.334 154.507 220.076C154.507 220.819 153.904 221.423 153.161 221.423C152.418 221.423 151.814 220.819 151.814 220.076Z" fill="#131F2D"/>
<path d="M140.588 231.648C140.588 230.905 141.192 230.302 141.935 230.302C142.678 230.302 143.281 230.905 143.281 231.648C143.281 232.391 142.678 232.995 141.935 232.995C141.192 232.995 140.588 232.394 140.588 231.648Z" fill="#131F2D"/>
<path d="M151.654 231.407C151.654 230.664 152.418 230.302 153.163 230.302C153.906 230.302 154.509 230.905 154.509 231.648C154.509 232.391 153.906 232.995 153.163 232.995C152.418 232.995 151.654 232.152 151.654 231.407Z" fill="#131F2D"/>
<path d="M160.344 220.57C160.344 219.89 160.672 219.339 161.079 219.339C161.486 219.339 161.814 219.89 161.814 220.57C161.814 221.25 161.486 221.801 161.079 221.801C160.672 221.801 160.344 221.252 160.344 220.57Z" fill="#131F2D"/>
<path d="M166.47 220.57C166.47 219.89 166.798 219.339 167.205 219.339C167.611 219.339 167.94 219.89 167.94 220.57C167.94 221.25 167.611 221.801 167.205 221.801C166.8 221.803 166.47 221.252 166.47 220.57Z" fill="#131F2D"/>
<path d="M160.344 231.154C160.344 230.474 160.672 229.923 161.079 229.923C161.486 229.923 161.814 230.474 161.814 231.154C161.814 231.834 161.486 232.385 161.079 232.385C160.672 232.385 160.344 231.834 160.344 231.154Z" fill="#131F2D"/>
<path d="M166.47 230.155C166.47 229.475 166.798 228.924 167.205 228.924C167.611 228.924 167.94 229.475 167.94 230.155C167.94 230.835 167.611 231.386 167.205 231.386C166.8 231.388 166.47 230.835 166.47 230.155Z" fill="#131F2D"/>
</svg>
