<svg width="74" height="24" viewBox="0 0 74 24" fill="none" xmlns="http://www.w3.org/2000/svg">
<rect x="0.605957" width="24" height="24" rx="12" fill="#264CF9"/>
<rect x="0.605957" width="24" height="24" rx="12" fill="url(#paint0_linear_2864_34052)"/>
<path d="M12.8477 4.15043L15.2339 8.98555C15.2731 9.0652 15.3489 9.12016 15.4367 9.13289L20.7727 9.90829C20.9938 9.94035 21.0821 10.2121 20.922 10.3681L17.0611 14.1316C16.9975 14.1935 16.9684 14.2828 16.9835 14.3701L17.895 19.6844C17.9327 19.9045 17.7016 20.0725 17.5039 19.9684L12.7314 17.4592C12.6527 17.418 12.5591 17.418 12.4804 17.4592L7.70793 19.9684C7.5102 20.0722 7.27913 19.9045 7.31679 19.6844L8.22834 14.3701C8.24335 14.2825 8.21434 14.1935 8.15072 14.1316L4.28976 10.3679C4.12969 10.2119 4.21799 9.94035 4.43914 9.90803L9.77507 9.13263C9.86286 9.11991 9.9387 9.06469 9.97789 8.98529L12.3641 4.15017C12.4631 3.9499 12.7487 3.9499 12.8477 4.15043Z" fill="url(#paint1_linear_2864_34052)"/>
<path d="M12.8477 4.15043L15.2339 8.98555C15.2731 9.0652 15.3489 9.12016 15.4367 9.13289L20.7727 9.90829C20.9938 9.94035 21.0821 10.2121 20.922 10.3681L17.0611 14.1316C16.9975 14.1935 16.9684 14.2828 16.9835 14.3701L17.895 19.6844C17.9327 19.9045 17.7016 20.0725 17.5039 19.9684L12.7314 17.4592C12.6527 17.418 12.5591 17.418 12.4804 17.4592L7.70793 19.9684C7.5102 20.0722 7.27913 19.9045 7.31679 19.6844L8.22834 14.3701C8.24335 14.2825 8.21434 14.1935 8.15072 14.1316L4.28976 10.3679C4.12969 10.2119 4.21799 9.94035 4.43914 9.90803L9.77507 9.13263C9.86286 9.11991 9.9387 9.06469 9.97789 8.98529L12.3641 4.15017C12.4631 3.9499 12.7487 3.9499 12.8477 4.15043Z" fill="url(#paint2_linear_2864_34052)"/>
<path d="M12.8477 4.15043L15.2339 8.98555C15.2731 9.0652 15.3489 9.12016 15.4367 9.13289L20.7727 9.90829C20.9938 9.94035 21.0821 10.2121 20.922 10.3681L17.0611 14.1316C16.9975 14.1935 16.9684 14.2828 16.9835 14.3701L17.895 19.6844C17.9327 19.9045 17.7016 20.0725 17.5039 19.9684L12.7314 17.4592C12.6527 17.418 12.5591 17.418 12.4804 17.4592L7.70793 19.9684C7.5102 20.0722 7.27913 19.9045 7.31679 19.6844L8.22834 14.3701C8.24335 14.2825 8.21434 14.1935 8.15072 14.1316L4.28976 10.3679C4.12969 10.2119 4.21799 9.94035 4.43914 9.90803L9.77507 9.13263C9.86286 9.11991 9.9387 9.06469 9.97789 8.98529L12.3641 4.15017C12.4631 3.9499 12.7487 3.9499 12.8477 4.15043Z" fill="white"/>
<path d="M37.958 18C37.958 17.4667 37.958 16.9573 37.958 16.472C37.958 15.9813 37.958 15.4187 37.958 14.784L38.094 14.432V11.344C38.094 10.7947 38.094 10.248 38.094 9.704C38.094 9.15467 38.094 8.60533 38.094 8.056L39.814 7.376C39.5313 7.78133 39.2566 8.176 38.99 8.56C38.7233 8.93867 38.454 9.31733 38.182 9.696L36.422 12.2C36.182 12.536 35.9446 12.8693 35.71 13.2C35.4806 13.5307 35.2486 13.8667 35.014 14.208L34.934 13.672H38.574L38.83 13.576C39.1446 13.576 39.494 13.576 39.878 13.576C40.262 13.576 40.6406 13.576 41.014 13.576C41.3873 13.576 41.718 13.576 42.006 13.576V15.688C41.718 15.688 41.3873 15.688 41.014 15.688C40.6406 15.688 40.262 15.688 39.878 15.688C39.494 15.688 39.1446 15.688 38.83 15.688H32.998V14.04C33.206 13.7413 33.438 13.4107 33.694 13.048C33.9553 12.68 34.2166 12.312 34.478 11.944C34.7446 11.5707 34.99 11.2267 35.214 10.912L36.534 9.032C36.7793 8.69067 37.022 8.352 37.262 8.016C37.502 7.67467 37.742 7.33333 37.982 6.992H40.414C40.414 7.65333 40.414 8.304 40.414 8.944C40.414 9.57867 40.414 10.2133 40.414 10.848V14.784C40.414 15.4187 40.414 15.9813 40.414 16.472C40.414 16.9573 40.414 17.4667 40.414 18H37.958ZM44.468 18.216C44.1586 18.216 43.892 18.152 43.668 18.024C43.4493 17.896 43.2786 17.7227 43.156 17.504C43.0386 17.28 42.98 17.032 42.98 16.76C42.98 16.344 43.1133 16.0027 43.38 15.736C43.6466 15.4693 44.012 15.336 44.476 15.336C44.7853 15.336 45.0493 15.3973 45.268 15.52C45.492 15.6373 45.6626 15.8053 45.78 16.024C45.9026 16.2373 45.964 16.4827 45.964 16.76C45.964 17.1707 45.8306 17.5173 45.564 17.8C45.3026 18.0773 44.9373 18.216 44.468 18.216ZM51.3236 18.208C50.3369 18.208 49.5236 18.064 48.8836 17.776C48.2489 17.488 47.7769 17.096 47.4676 16.6C47.1636 16.104 47.0116 15.5387 47.0116 14.904C47.0116 14.3173 47.1236 13.8347 47.3476 13.456C47.5716 13.072 47.8516 12.776 48.1876 12.568C48.5289 12.3547 48.8729 12.208 49.2196 12.128V11.944C48.8729 11.8587 48.5556 11.7147 48.2676 11.512C47.9849 11.3093 47.7556 11.0507 47.5796 10.736C47.4036 10.416 47.3156 10.04 47.3156 9.608C47.3156 9.03733 47.4729 8.53867 47.7876 8.112C48.1076 7.68 48.5662 7.34667 49.1636 7.112C49.7662 6.87733 50.4862 6.76 51.3236 6.76C52.1609 6.76 52.8782 6.87733 53.4756 7.112C54.0729 7.34667 54.5289 7.68 54.8436 8.112C55.1636 8.53867 55.3236 9.03733 55.3236 9.608C55.3236 10.04 55.2356 10.416 55.0596 10.736C54.8889 11.0507 54.6569 11.3093 54.3636 11.512C54.0756 11.7147 53.7609 11.8587 53.4196 11.944V12.128C53.7662 12.208 54.1076 12.3547 54.4436 12.568C54.7849 12.7813 55.0676 13.08 55.2916 13.464C55.5156 13.8427 55.6276 14.3227 55.6276 14.904C55.6276 15.5387 55.4729 16.104 55.1636 16.6C54.8596 17.096 54.3902 17.488 53.7556 17.776C53.1209 18.064 52.3102 18.208 51.3236 18.208ZM51.3236 16.152C51.7556 16.152 52.1076 16.0853 52.3796 15.952C52.6569 15.8187 52.8596 15.64 52.9876 15.416C53.1156 15.1867 53.1796 14.928 53.1796 14.64C53.1796 14.3147 53.0996 14.04 52.9396 13.816C52.7849 13.592 52.5636 13.424 52.2756 13.312C51.9929 13.1947 51.6702 13.136 51.3076 13.136C50.9502 13.136 50.6302 13.1947 50.3476 13.312C50.0702 13.424 49.8516 13.592 49.6916 13.816C49.5369 14.04 49.4596 14.3147 49.4596 14.64C49.4596 14.928 49.5236 15.1867 49.6516 15.416C49.7796 15.64 49.9822 15.8187 50.2596 15.952C50.5369 16.0853 50.8916 16.152 51.3236 16.152ZM51.3236 11.36C51.8356 11.36 52.2329 11.2347 52.5156 10.984C52.7982 10.7333 52.9396 10.4107 52.9396 10.016C52.9396 9.6 52.7902 9.28267 52.4916 9.064C52.1982 8.84533 51.8089 8.736 51.3236 8.736C50.8382 8.736 50.4489 8.84533 50.1556 9.064C49.8622 9.28267 49.7156 9.6 49.7156 10.016C49.7156 10.2827 49.7769 10.5173 49.8996 10.72C50.0276 10.9227 50.2116 11.08 50.4516 11.192C50.6916 11.304 50.9822 11.36 51.3236 11.36Z" fill="#182358"/>
<path d="M59.019 18C59.2383 17.4773 59.4506 16.9733 59.656 16.488C59.866 16.0027 60.1086 15.4427 60.384 14.808L61.861 11.336C62.1456 10.6733 62.3953 10.09 62.61 9.586C62.8293 9.07733 63.0533 8.55467 63.282 8.018H64.43C64.276 8.37733 64.1266 8.72733 63.982 9.068C63.8373 9.40867 63.6856 9.76333 63.527 10.132C63.3683 10.5007 63.191 10.9113 62.995 11.364L61.525 14.808C61.2543 15.4427 61.014 16.005 60.804 16.495C60.5986 16.985 60.3863 17.4867 60.167 18H59.019ZM68.6763 18.154C68.3777 18.154 68.0813 18.133 67.7873 18.091C67.4933 18.0537 67.2063 18 66.9263 17.93C66.651 17.8553 66.3897 17.7713 66.1423 17.678C65.895 17.5847 65.6687 17.4843 65.4633 17.377L65.5823 16.243C65.8343 16.383 66.0887 16.5067 66.3453 16.614C66.6067 16.7213 66.8633 16.8123 67.1153 16.887C67.372 16.957 67.6217 17.0107 67.8643 17.048C68.1117 17.0853 68.3497 17.104 68.5783 17.104C69.381 17.104 69.976 16.9127 70.3633 16.53C70.7553 16.1427 70.9513 15.6037 70.9513 14.913C70.9513 14.4043 70.851 13.9983 70.6503 13.695C70.4497 13.387 70.1767 13.1653 69.8313 13.03C69.4907 12.89 69.1103 12.82 68.6903 12.82C68.3263 12.82 67.9787 12.8643 67.6473 12.953C67.316 13.0417 66.9637 13.2143 66.5903 13.471L66.0583 13.422V11.924C66.0583 11.294 66.0583 10.685 66.0583 10.097C66.0583 9.50433 66.0583 8.93733 66.0583 8.396H71.5953V9.446C71.0353 9.446 70.4707 9.446 69.9013 9.446C69.3367 9.446 68.7743 9.446 68.2143 9.446H66.7933L67.2133 9.04C67.2133 9.474 67.211 9.908 67.2063 10.342C67.2063 10.7713 67.204 11.2007 67.1993 11.63V12.274H67.3183C67.5843 12.1293 67.8713 12.0173 68.1793 11.938C68.492 11.854 68.8187 11.812 69.1593 11.812C69.71 11.812 70.2117 11.924 70.6643 12.148C71.1217 12.3673 71.4857 12.7033 71.7563 13.156C72.0317 13.6087 72.1693 14.1803 72.1693 14.871C72.1693 15.5243 72.0363 16.0983 71.7703 16.593C71.509 17.083 71.117 17.4657 70.5943 17.741C70.0763 18.0163 69.437 18.154 68.6763 18.154Z" fill="#182358"/>
<defs>
<linearGradient id="paint0_linear_2864_34052" x1="17.6951" y1="3.54785" x2="5.02754" y2="27.1703" gradientUnits="userSpaceOnUse">
<stop offset="0.0478004" stop-color="#FEDA92"/>
<stop offset="0.338238" stop-color="#FFC853"/>
<stop offset="1" stop-color="#FF9114"/>
</linearGradient>
<linearGradient id="paint1_linear_2864_34052" x1="5.0292" y1="12" x2="20.4526" y2="12" gradientUnits="userSpaceOnUse">
<stop stop-color="#FEE998"/>
<stop offset="1" stop-color="#FCC15B"/>
</linearGradient>
<linearGradient id="paint2_linear_2864_34052" x1="16.1674" y1="6.36524" x2="7.95276" y2="22.4458" gradientUnits="userSpaceOnUse">
<stop offset="0.0478004" stop-color="#FEDA92"/>
<stop offset="0.338238" stop-color="#FFC853"/>
<stop offset="1" stop-color="#FF9114"/>
</linearGradient>
</defs>
</svg>
