<svg width="25" height="25" viewBox="0 0 25 25" fill="none" xmlns="http://www.w3.org/2000/svg">
<g clip-path="url(#clip0_2818_45491)">
<path d="M11.6667 24.4997C18.11 24.4997 23.3333 19.383 23.3333 13.0711C23.3333 6.75932 18.11 1.64258 11.6667 1.64258C5.22334 1.64258 0 6.75932 0 13.0711C0 19.383 5.22334 24.4997 11.6667 24.4997Z" fill="#FF0000"/>
<path d="M17.754 11.0836H13.696V7.1084H9.63803V11.0836H5.58008V15.0587H9.63803V19.0338H13.696V15.0587H17.754V11.0836Z" fill="#F0F0F0"/>
</g>
<ellipse cx="19.647" cy="4.88857" rx="4.48" ry="4.38857" fill="white"/>
<path d="M16.421 4.43402C15.9884 4.34401 17.2712 3.47469 18.0163 3.59842C18.4581 3.67167 19.128 4.41447 19.4296 5.13901C19.6778 5.73531 19.8381 3.54558 22.7045 1.22975C23.633 0.479644 24.1301 0.425727 24.1296 0.554182C24.1292 0.680058 23.6784 1.07101 23.31 1.47184C21.5206 3.42034 20.4426 5.97031 20.3128 6.83061C20.2372 7.33133 19.1245 7.94073 18.9649 7.48921C18.3685 5.80018 17.253 4.60694 16.421 4.43402Z" fill="#36B37E"/>
<defs>
<clipPath id="clip0_2818_45491">
<rect width="23.3333" height="22.8571" fill="white" transform="translate(0 1.64258)"/>
</clipPath>
</defs>
</svg>
