<svg width="20" height="18" viewBox="0 0 20 18" fill="none" xmlns="http://www.w3.org/2000/svg">
<path d="M19.3312 9.00007C19.3312 7.87178 18.4166 6.95918 17.2903 6.95918C16.7407 6.95918 16.2408 7.17903 15.8737 7.53162C14.4779 6.52362 12.5552 5.87444 10.4127 5.79978L11.3419 1.42347L14.3804 2.06851C14.4177 2.84006 15.0503 3.45814 15.8323 3.45814C16.637 3.45814 17.2903 2.80481 17.2903 2.00007C17.2903 1.19533 16.637 0.541992 15.8323 0.541992C15.2598 0.541992 14.7683 0.875927 14.5297 1.35504L11.1366 0.633252C11.0412 0.612511 10.9437 0.631178 10.8628 0.685104C10.7819 0.736956 10.7238 0.819916 10.7051 0.915323L9.66603 5.7977C7.4924 5.85785 5.53863 6.5091 4.12619 7.52747C3.75908 7.17488 3.26338 6.95918 2.71375 6.95918C1.58545 6.95918 0.672852 7.87385 0.672852 9.00007C0.672852 9.8297 1.16856 10.5432 1.87996 10.8626C1.84885 11.0658 1.83226 11.2712 1.83226 11.4807C1.83226 14.6208 5.48885 17.1678 9.99996 17.1678C14.5111 17.1678 18.1677 14.6208 18.1677 11.4807C18.1677 11.2732 18.1511 11.0679 18.12 10.8667C18.8334 10.5473 19.3312 9.83178 19.3312 9.00007ZM5.33329 10.4581C5.33329 9.6534 5.9887 9.00007 6.79137 9.00007C7.59611 9.00007 8.24944 9.6534 8.24944 10.4581C8.24944 11.2629 7.59611 11.9162 6.79137 11.9162C5.9887 11.9162 5.33329 11.2608 5.33329 10.4581ZM13.4657 14.3118C12.4702 15.3053 10.5641 15.382 10.002 15.382C9.44203 15.382 7.53388 15.3053 6.5404 14.3097C6.39314 14.1624 6.39314 13.9218 6.5404 13.7746C6.68766 13.6273 6.92826 13.6273 7.07552 13.7746C7.70189 14.401 9.04589 14.625 10.0041 14.625C10.9623 14.625 12.3043 14.403 12.9327 13.7746C13.08 13.6273 13.3206 13.6273 13.4678 13.7746C13.613 13.9239 13.613 14.1645 13.4657 14.3118ZM13.2086 11.9162C12.4038 11.9162 11.7505 11.2629 11.7505 10.4581C11.7505 9.6534 12.4038 9.00007 13.2086 9.00007C14.0133 9.00007 14.6666 9.65547 14.6666 10.4581C14.6666 11.2629 14.0133 11.9162 13.2086 11.9162Z" fill="#4451FF"/>
</svg>
