<svg width="12" height="13" viewBox="0 0 12 13" fill="none" xmlns="http://www.w3.org/2000/svg">
<path fill-rule="evenodd" clip-rule="evenodd" d="M2.82484 4.66113H0.442383V12.334H2.82484V4.66113ZM3.01818 2.23046C3.01818 1.46761 2.39821 0.84668 1.63653 0.84668C0.870426 0.84668 0.254883 1.46761 0.254883 2.23046C0.254883 2.99332 0.870426 3.61425 1.63653 3.61425C2.39821 3.61425 3.01818 2.99332 3.01818 2.23046ZM6.6019 4.66089H4.32572V12.3338H6.70375V8.53726C6.70375 7.53934 6.88974 6.56803 8.12968 6.56803C9.35191 6.56803 9.3652 7.71231 9.3652 8.60379V12.3338H11.7432V8.12922C11.7432 6.06241 11.296 4.47461 8.88693 4.47461C7.7267 4.47461 6.95174 5.10884 6.6329 5.71203H6.6019V4.66089Z" fill="white"/>
</svg>
