<svg width="14" height="14" viewBox="0 0 14 14" fill="none" xmlns="http://www.w3.org/2000/svg">
<path fill-rule="evenodd" clip-rule="evenodd" d="M9.81871 0.0253906H4.18079C1.88949 0.0253906 0.0253906 1.88949 0.0253906 4.18079V9.81871C0.0253906 12.11 1.88949 13.9741 4.18079 13.9741H9.81871C12.11 13.9741 13.9741 12.11 13.9741 9.81871V4.18079C13.9741 1.88949 12.11 0.0253906 9.81871 0.0253906ZM12.5709 9.81781C12.5709 11.3378 11.3388 12.57 9.81879 12.57H4.18087C2.66091 12.57 1.42871 11.3378 1.42871 9.81781V4.17989C1.42871 2.6599 2.66091 1.42773 4.18087 1.42773H9.81879C11.3388 1.42773 12.5709 2.6599 12.5709 4.17989V9.81781ZM3.39258 7.00019C3.39258 5.01096 5.01096 3.39258 7.00021 3.39258C8.98947 3.39258 10.6078 5.01093 10.6078 7.00019C10.6078 8.98944 8.98947 10.6078 7.00021 10.6078C5.01096 10.6078 3.39258 8.98942 3.39258 7.00019ZM6.99932 9.20371C5.78185 9.20371 4.79492 8.21678 4.79492 6.99932C4.79492 5.78185 5.78188 4.79492 6.99932 4.79492C8.21678 4.79492 9.20371 5.78185 9.20371 6.99932C9.20371 8.21675 8.21675 9.20371 6.99932 9.20371ZM10.6145 4.28361C11.0919 4.28361 11.4789 3.89658 11.4789 3.41915C11.4789 2.94172 11.0919 2.55469 10.6145 2.55469C10.137 2.55469 9.75 2.94172 9.75 3.41915C9.75 3.89658 10.137 4.28361 10.6145 4.28361Z" fill="white"/>
</svg>
