<svg width="14" height="16" viewBox="0 0 14 16" fill="none" xmlns="http://www.w3.org/2000/svg">
<path fill-rule="evenodd" clip-rule="evenodd" d="M11 2.08337C10.3096 2.08337 9.75 2.64302 9.75 3.33337C9.75 4.02373 10.3096 4.58337 11 4.58337C11.6904 4.58337 12.25 4.02373 12.25 3.33337C12.25 2.64302 11.6904 2.08337 11 2.08337ZM8.25 3.33337C8.25 1.81459 9.48122 0.583374 11 0.583374C12.5188 0.583374 13.75 1.81459 13.75 3.33337C13.75 4.85216 12.5188 6.08337 11 6.08337C9.48122 6.08337 8.25 4.85216 8.25 3.33337Z" fill="#182358"/>
<path fill-rule="evenodd" clip-rule="evenodd" d="M3 6.75C2.30964 6.75 1.75 7.30964 1.75 8C1.75 8.69036 2.30964 9.25 3 9.25C3.69036 9.25 4.25 8.69036 4.25 8C4.25 7.30964 3.69036 6.75 3 6.75ZM0.25 8C0.25 6.48122 1.48122 5.25 3 5.25C4.51878 5.25 5.75 6.48122 5.75 8C5.75 9.51878 4.51878 10.75 3 10.75C1.48122 10.75 0.25 9.51878 0.25 8Z" fill="#182358"/>
<path fill-rule="evenodd" clip-rule="evenodd" d="M11 11.4166C10.3096 11.4166 9.75 11.9763 9.75 12.6666C9.75 13.357 10.3096 13.9166 11 13.9166C11.6904 13.9166 12.25 13.357 12.25 12.6666C12.25 11.9763 11.6904 11.4166 11 11.4166ZM8.25 12.6666C8.25 11.1478 9.48122 9.91663 11 9.91663C12.5188 9.91663 13.75 11.1478 13.75 12.6666C13.75 14.1854 12.5188 15.4166 11 15.4166C9.48122 15.4166 8.25 14.1854 8.25 12.6666Z" fill="#182358"/>
<path fill-rule="evenodd" clip-rule="evenodd" d="M4.07868 8.62911C4.28723 8.27122 4.74641 8.15016 5.10429 8.35871L9.65763 11.012C10.0155 11.2206 10.1366 11.6798 9.92802 12.0377C9.71948 12.3955 9.26029 12.5166 8.90241 12.3081L4.34908 9.65472C3.99119 9.44617 3.87013 8.98699 4.07868 8.62911Z" fill="#182358"/>
<path fill-rule="evenodd" clip-rule="evenodd" d="M9.92112 3.96194C10.1299 4.3197 10.0091 4.77896 9.65137 4.98773L5.10471 7.64106C4.74695 7.84984 4.28769 7.72907 4.07892 7.37132C3.87014 7.01357 3.99091 6.55431 4.34866 6.34553L8.89533 3.6922C9.25308 3.48343 9.71234 3.60419 9.92112 3.96194Z" fill="#182358"/>
</svg>
