<svg width="15" height="14" viewBox="0 0 15 14" fill="none" xmlns="http://www.w3.org/2000/svg">
<path fill-rule="evenodd" clip-rule="evenodd" d="M4.02013 8.07964L0.756963 6.79513C0.425543 6.66411 0.422666 6.17064 0.753146 6.03621L14.1453 0.587477C14.4292 0.471663 14.7222 0.734009 14.6603 1.04846L12.257 13.2409C12.2004 13.5288 11.8803 13.6593 11.6545 13.4862L8.37374 10.9741C8.17448 10.8215 7.90289 10.8296 7.71223 10.9935L5.89329 12.5574C5.68213 12.7395 5.36402 12.6381 5.28319 12.3637L4.02013 8.07964ZM11.4571 3.25315L5.07964 7.39578C4.83521 7.55492 4.72012 7.86622 4.79909 8.1577L5.48862 10.713C5.53758 10.8941 5.7868 10.8756 5.81053 10.6885L5.98982 9.28714C6.02362 9.0233 6.14297 8.78024 6.32796 8.59861L11.5912 3.43866C11.6896 3.34236 11.5717 3.17891 11.4571 3.25315Z" fill="white"/>
</svg>
