<svg width="16" height="14" viewBox="0 0 16 14" fill="none" xmlns="http://www.w3.org/2000/svg">
<path fill-rule="evenodd" clip-rule="evenodd" d="M15.5295 1.97175C14.9758 2.23624 14.3796 2.41508 13.755 2.49602C14.3929 2.08376 14.8828 1.43242 15.1131 0.655892C14.516 1.0371 13.8551 1.31382 13.1508 1.46254C12.5874 0.815903 11.7848 0.412109 10.8962 0.412109C9.1899 0.412109 7.8061 1.90116 7.8061 3.73846C7.8061 4.00013 7.83445 4.25332 7.88672 4.49711C5.31933 4.35874 3.04341 3.03347 1.51963 1.02109C1.25297 1.51242 1.10148 2.08376 1.10148 2.69368C1.10148 3.84765 1.6472 4.86607 2.47553 5.46188C1.96879 5.44494 1.49217 5.29528 1.07667 5.04585C1.07667 5.05997 1.07667 5.07409 1.07667 5.08821C1.07667 6.69962 2.14066 8.04371 3.55458 8.34962C3.29501 8.42586 3.02303 8.46633 2.74042 8.46633C2.54198 8.46633 2.34796 8.44562 2.15926 8.40609C2.55261 9.7276 3.69367 10.6895 5.04558 10.7168C3.98779 11.6082 2.65538 12.14 1.20779 12.14C0.958844 12.14 0.712559 12.1249 0.470703 12.0939C1.83767 13.038 3.46156 13.5886 5.20682 13.5886C10.8891 13.5886 13.9969 8.51998 13.9969 4.12437C13.9969 3.97942 13.9933 3.8373 13.988 3.69423C14.5913 3.22549 15.1158 2.63909 15.5295 1.97269V1.97175Z" fill="white"/>
</svg>
